<?xml version="1.0" encoding="UTF-8" standalone="no"?>
<!-- Created with Inkscape (http://www.inkscape.org/) -->

<svg
   xmlns:dc="http://purl.org/dc/elements/1.1/"
   xmlns:cc="http://creativecommons.org/ns#"
   xmlns:rdf="http://www.w3.org/1999/02/22-rdf-syntax-ns#"
   xmlns:svg="http://www.w3.org/2000/svg"
   xmlns="http://www.w3.org/2000/svg"
   xmlns:sodipodi="http://sodipodi.sourceforge.net/DTD/sodipodi-0.dtd"
   xmlns:inkscape="http://www.inkscape.org/namespaces/inkscape"
   width="14.249383mm"
   height="12.719789mm"
   viewBox="0 0 14.249384 12.719788"
   version="1.1"
   id="svg8"
   inkscape:version="0.92.4 (unknown)"
   sodipodi:docname="drawing66.svg">
  <defs
     id="defs2" />
  <sodipodi:namedview
     id="base"
     pagecolor="#ffffff"
     bordercolor="#666666"
     borderopacity="1.0"
     inkscape:pageopacity="0.0"
     inkscape:pageshadow="2"
     inkscape:zoom="0.98994949"
     inkscape:cx="-92.874192"
     inkscape:cy="138.90119"
     inkscape:document-units="mm"
     inkscape:current-layer="layer1"
     showgrid="false"
     inkscape:window-width="927"
     inkscape:window-height="1025"
     inkscape:window-x="67"
     inkscape:window-y="27"
     inkscape:window-maximized="0" />
  <metadata
     id="metadata5">
    <rdf:RDF>
      <cc:Work
         rdf:about="">
        <dc:format>image/svg+xml</dc:format>
        <dc:type
           rdf:resource="http://purl.org/dc/dcmitype/StillImage" />
        <dc:title></dc:title>
      </cc:Work>
    </rdf:RDF>
  </metadata>
  <g
     inkscape:label="Layer 1"
     inkscape:groupmode="layer"
     id="layer1"
     transform="translate(-306.52647,-236.77964)">
    <g
       transform="matrix(0.26458333,0,0,0.26458333,60.684673,209.75616)"
       id="g2116">
      <g
         transform="matrix(0.26458333,0,0,0.26458333,304.564,236.95443)"
         id="use2114">
        <path
           style="fill:#d5edf7;stroke:none"
           inkscape:connector-curvature="0"
           d="m 2425.15,-457.3 q -1.1,-0.3 -2.25,-0.6 -4.4,-1.1 -8.6,-1.7 l -30.85,-49.95 -16.1,60.6 q -3.45,2.5 -6.65,5.55 l 14.35,18.55 8.25,75.85 -2.15,21.15 h 165.5 l -5,-21.15 8.25,-75.85 14.35,-18.55 q -3.2,-3.05 -6.65,-5.55 l -16.1,-60.6 -30.85,49.95 q -2.45,0.35 -5.05,0.9 -2.85,0.6 -5.8,1.4 l 8.8,22.75 -0.25,5.1 h -22.05 l -1.8,14.35 -6.65,0.15 -3.35,-14.5 h -23.6 l -5.5,15.3 -6.75,0.1 -4.65,-15.4 h -17.4 l -0.25,-5.1 z"
           id="path1397" />
      </g>
    </g>
  </g>
</svg>
