<?xml version="1.0" encoding="UTF-8" standalone="no"?>
<!-- Created with Inkscape (http://www.inkscape.org/) -->

<svg
   xmlns:dc="http://purl.org/dc/elements/1.1/"
   xmlns:cc="http://creativecommons.org/ns#"
   xmlns:rdf="http://www.w3.org/1999/02/22-rdf-syntax-ns#"
   xmlns:svg="http://www.w3.org/2000/svg"
   xmlns="http://www.w3.org/2000/svg"
   xmlns:sodipodi="http://sodipodi.sourceforge.net/DTD/sodipodi-0.dtd"
   xmlns:inkscape="http://www.inkscape.org/namespaces/inkscape"
   width="8.9325533mm"
   height="16.079996mm"
   viewBox="0 0 8.9325533 16.079996"
   version="1.1"
   id="svg8"
   inkscape:version="0.92.4 (unknown)"
   sodipodi:docname="drawing37.svg">
  <defs
     id="defs2" />
  <sodipodi:namedview
     id="base"
     pagecolor="#ffffff"
     bordercolor="#666666"
     borderopacity="1.0"
     inkscape:pageopacity="0.0"
     inkscape:pageshadow="2"
     inkscape:zoom="0.98994949"
     inkscape:cx="-243.20973"
     inkscape:cy="145.69889"
     inkscape:document-units="mm"
     inkscape:current-layer="layer1"
     showgrid="false"
     inkscape:window-width="927"
     inkscape:window-height="1025"
     inkscape:window-x="67"
     inkscape:window-y="27"
     inkscape:window-maximized="0" />
  <metadata
     id="metadata5">
    <rdf:RDF>
      <cc:Work
         rdf:about="">
        <dc:format>image/svg+xml</dc:format>
        <dc:type
           rdf:resource="http://purl.org/dc/dcmitype/StillImage" />
        <dc:title></dc:title>
      </cc:Work>
    </rdf:RDF>
  </metadata>
  <g
     inkscape:label="Layer 1"
     inkscape:groupmode="layer"
     id="layer1"
     transform="translate(-346.30272,-235.21803)">
    <g
       transform="matrix(0.26458333,0,0,0.26458333,199.32769,151.92195)"
       id="g2168">
      <g
         transform="matrix(0.26458333,0,0,0.26458333,336.87098,217.8236)"
         id="use2166">
        <path
           style="fill:#d5edf7;stroke:none"
           inkscape:connector-curvature="0"
           d="m 953.35,487.6 q -2.7,-45.75 -18.15,-79.75 -18.7,-41.25 -45.1,-41.25 -26.45,0 -45.15,41.25 -6.2,13.6 -10.3,29.1 -6.2,23.25 -7.8,50.65 -0.45,6.9 -0.5,14.05 -0.05,1.25 -0.05,2.55 0,1.8 0.05,3.6 0.75,15.55 8.3,28.3 4.1,7.05 10.3,13.2 13.95,13.95 32.2,17.5 -0.55,4.5 -1.35,8.65 -2.1,11.85 -5.7,20.85 h 40 q -3.4,-10.3 -5.55,-20.85 -0.85,-4.3 -1.5,-8.65 18.2,-3.55 32.15,-17.5 17.4,-17.4 18.6,-41.5 0.1,-1.8 0.1,-3.6 0,-1.3 -0.05,-2.55 -0.1,-7.15 -0.5,-14.05 z"
           id="path392" />
      </g>
    </g>
  </g>
</svg>
