<?xml version="1.0" encoding="UTF-8" standalone="no"?>
<!-- Created with Inkscape (http://www.inkscape.org/) -->

<svg
   xmlns:dc="http://purl.org/dc/elements/1.1/"
   xmlns:cc="http://creativecommons.org/ns#"
   xmlns:rdf="http://www.w3.org/1999/02/22-rdf-syntax-ns#"
   xmlns:svg="http://www.w3.org/2000/svg"
   xmlns="http://www.w3.org/2000/svg"
   xmlns:sodipodi="http://sodipodi.sourceforge.net/DTD/sodipodi-0.dtd"
   xmlns:inkscape="http://www.inkscape.org/namespaces/inkscape"
   width="4.0777526mm"
   height="18.068119mm"
   viewBox="0 0 4.0777528 18.068117"
   version="1.1"
   id="svg8"
   inkscape:version="0.92.4 (unknown)"
   sodipodi:docname="drawing84.svg">
  <defs
     id="defs2" />
  <sodipodi:namedview
     id="base"
     pagecolor="#ffffff"
     bordercolor="#666666"
     borderopacity="1.0"
     inkscape:pageopacity="0.0"
     inkscape:pageshadow="2"
     inkscape:zoom="0.98994949"
     inkscape:cx="-211.55165"
     inkscape:cy="143.2686"
     inkscape:document-units="mm"
     inkscape:current-layer="layer1"
     showgrid="false"
     inkscape:window-width="927"
     inkscape:window-height="1025"
     inkscape:window-x="67"
     inkscape:window-y="27"
     inkscape:window-maximized="0" />
  <metadata
     id="metadata5">
    <rdf:RDF>
      <cc:Work
         rdf:about="">
        <dc:format>image/svg+xml</dc:format>
        <dc:type
           rdf:resource="http://purl.org/dc/dcmitype/StillImage" />
        <dc:title></dc:title>
      </cc:Work>
    </rdf:RDF>
  </metadata>
  <g
     inkscape:label="Layer 1"
     inkscape:groupmode="layer"
     id="layer1"
     transform="translate(-337.92656,-232.58684)">
    <g
       transform="matrix(0.26458333,0,0,0.26458333,165.86004,171.92099)"
       id="g2180">
      <g
         transform="matrix(0.26458333,0,0,0.26458333,343.43994,219.0092)"
         id="use2178">
        <path
           style="fill:#d5edf7;stroke:none"
           inkscape:connector-curvature="0"
           d="m 1209.65,47.35 q -8.55,-8.5 -20.6,-8.5 H 1189 q -12.05,0 -20.55,8.5 -8.3,8.25 -8.55,19.85 v 159.2 q 0.2,11.65 8.55,19.95 6,6 13.75,7.8 v 35.8 q 0,2.85 2.1,4.95 2.05,2.05 4.95,2.05 2.9,0 4.95,-2.05 2.05,-2.1 2.05,-4.95 v -35.9 q 7.5,-1.85 13.4,-7.7 8.3,-8.3 8.5,-19.95 V 67.2 q -0.25,-11.6 -8.5,-19.85 z"
           id="path2132" />
      </g>
    </g>
  </g>
</svg>
