<?xml version="1.0" encoding="UTF-8" standalone="no"?>
<!-- Created with Inkscape (http://www.inkscape.org/) -->

<svg
   xmlns:dc="http://purl.org/dc/elements/1.1/"
   xmlns:cc="http://creativecommons.org/ns#"
   xmlns:rdf="http://www.w3.org/1999/02/22-rdf-syntax-ns#"
   xmlns:svg="http://www.w3.org/2000/svg"
   xmlns="http://www.w3.org/2000/svg"
   xmlns:sodipodi="http://sodipodi.sourceforge.net/DTD/sodipodi-0.dtd"
   xmlns:inkscape="http://www.inkscape.org/namespaces/inkscape"
   width="12.282261mm"
   height="8.4285221mm"
   viewBox="0 0 12.282261 8.4285225"
   version="1.1"
   id="svg4971"
   inkscape:version="0.92.4 (unknown)"
   sodipodi:docname="drawing24.svg">
  <defs
     id="defs4965" />
  <sodipodi:namedview
     id="base"
     pagecolor="#ffffff"
     bordercolor="#666666"
     borderopacity="1.0"
     inkscape:pageopacity="0.0"
     inkscape:pageshadow="2"
     inkscape:zoom="1.4"
     inkscape:cx="2.6209274"
     inkscape:cy="-35.172751"
     inkscape:document-units="mm"
     inkscape:current-layer="layer1"
     showgrid="false"
     inkscape:window-width="927"
     inkscape:window-height="1025"
     inkscape:window-x="67"
     inkscape:window-y="27"
     inkscape:window-maximized="0" />
  <metadata
     id="metadata4968">
    <rdf:RDF>
      <cc:Work
         rdf:about="">
        <dc:format>image/svg+xml</dc:format>
        <dc:type
           rdf:resource="http://purl.org/dc/dcmitype/StillImage" />
        <dc:title></dc:title>
      </cc:Work>
    </rdf:RDF>
  </metadata>
  <g
     inkscape:label="Layer 1"
     inkscape:groupmode="layer"
     id="layer1"
     transform="translate(-114.02816,-129.8187)">
    <g
       transform="matrix(0.26458333,0,0,0.26458333,4.1460304,170.9668)"
       id="g1972">
      <g
         transform="matrix(0.26458333,0,0,0.26458333,136.23328,115.91564)"
         id="use1970">
        <path
           style="fill:#c9dee5;stroke:none"
           inkscape:connector-curvature="0"
           d="m 1056.45,-948.65 q -0.3,0.05 -0.6,0.15 1.8,6.2 6.75,11.1 7.8,7.8 18.85,7.8 2.45,0 4.8,-0.4 2.65,3.55 5.95,6.85 17.6,17.65 42.55,17.65 16.95,0 30.55,-8.2 10.5,8.2 24.45,8.2 1.95,0 3.85,-0.15 4.6,-7.15 4.6,-16.25 0,-12.6 -8.9,-21.5 -8.45,-8.45 -20.15,-8.9 -3.05,-0.1 -5.5,-1.9 -2.5,-1.85 -3.55,-4.7 -3.7,-10.1 -11.85,-18.25 -14.75,-14.75 -35.5,-14.75 -20.8,0 -35.45,14.7 v 0.05 q -9.45,9.4 -12.85,21.35 -0.8,2.75 -3,4.7 -2.15,1.95 -5,2.45 z"
           id="path6615" />
        <path
           style="fill:#e8f2f5;stroke:none"
           inkscape:connector-curvature="0"
           d="m 1177.3,-1008.25 q -17.65,-17.65 -42.55,-17.65 -24.95,0 -42.55,17.65 -11.35,11.35 -15.4,25.7 -8.1,1.35 -14.2,7.45 -7.85,7.8 -7.85,18.85 0,4.1 1.1,7.75 0.3,-0.1 0.6,-0.15 2.85,-0.5 5,-2.45 2.2,-1.95 3,-4.7 3.4,-11.95 12.85,-21.35 v -0.05 q 14.65,-14.7 35.45,-14.7 20.75,0 35.5,14.75 8.15,8.15 11.85,18.25 1.05,2.85 3.55,4.7 2.45,1.8 5.5,1.9 11.7,0.45 20.15,8.9 8.9,8.9 8.9,21.5 0,9.1 -4.6,16.25 14.3,-1.25 24.75,-11.7 11.85,-11.8 11.85,-28.55 0,-16.75 -11.85,-28.6 -11.25,-11.25 -26.85,-11.8 -4.4,-12.15 -14.2,-21.95 z"
           id="path6617" />
      </g>
    </g>
  </g>
</svg>
