<?xml version="1.0" encoding="UTF-8" standalone="no"?>
<!-- Created with Inkscape (http://www.inkscape.org/) -->

<svg
   xmlns:dc="http://purl.org/dc/elements/1.1/"
   xmlns:cc="http://creativecommons.org/ns#"
   xmlns:rdf="http://www.w3.org/1999/02/22-rdf-syntax-ns#"
   xmlns:svg="http://www.w3.org/2000/svg"
   xmlns="http://www.w3.org/2000/svg"
   xmlns:sodipodi="http://sodipodi.sourceforge.net/DTD/sodipodi-0.dtd"
   xmlns:inkscape="http://www.inkscape.org/namespaces/inkscape"
   width="13.899362mm"
   height="8.7365417mm"
   viewBox="0 0 13.899363 8.7365415"
   version="1.1"
   id="svg8"
   inkscape:version="0.92.4 (unknown)"
   sodipodi:docname="drawing54.svg">
  <defs
     id="defs2" />
  <sodipodi:namedview
     id="base"
     pagecolor="#ffffff"
     bordercolor="#666666"
     borderopacity="1.0"
     inkscape:pageopacity="0.0"
     inkscape:pageshadow="2"
     inkscape:zoom="0.98994949"
     inkscape:cx="-100.19317"
     inkscape:cy="-161.12924"
     inkscape:document-units="mm"
     inkscape:current-layer="layer1"
     showgrid="false"
     inkscape:window-width="927"
     inkscape:window-height="1025"
     inkscape:window-x="67"
     inkscape:window-y="27"
     inkscape:window-maximized="0" />
  <metadata
     id="metadata5">
    <rdf:RDF>
      <cc:Work
         rdf:about="">
        <dc:format>image/svg+xml</dc:format>
        <dc:type
           rdf:resource="http://purl.org/dc/dcmitype/StillImage" />
        <dc:title></dc:title>
      </cc:Work>
    </rdf:RDF>
  </metadata>
  <g
     inkscape:label="Layer 1"
     inkscape:groupmode="layer"
     id="layer1"
     transform="translate(-308.46294,-161.37984)">
    <g
       transform="matrix(0.26458333,0,0,0.26458333,229.26049,186.87772)"
       id="g1932">
      <g
         transform="matrix(0.26458333,0,0,0.26458333,320.22347,180.1858)"
         id="use1930">
        <path
           style="fill:#c9dee5;stroke:none"
           inkscape:connector-curvature="0"
           d="m -48.4,-1007.65 q -12.65,0 -21.55,8.9 -8.95,8.95 -8.95,21.6 0,12.6 8.95,21.5 8.9,8.95 21.55,8.95 5.75,0 10.75,-1.85 2.5,3.2 5.5,6.2 17.65,17.65 42.6,17.65 17.6,0 31.55,-8.75 13.25,13 31.9,13 18.95,0 32.35,-13.4 13.4,-13.4 13.4,-32.35 0,-18.9 -13.4,-32.3 -13.4,-13.4 -32.35,-13.4 -4.6,0 -8.9,0.8 -4.35,-8.95 -11.9,-16.5 -17.65,-17.65 -42.65,-17.65 -24.95,0 -42.6,17.65 -9.1,9.05 -13.45,20.05 -1.4,-0.1 -2.8,-0.1 z"
           id="path1001" />
      </g>
    </g>
  </g>
</svg>
