<?xml version="1.0" encoding="UTF-8" standalone="no"?>
<!-- Created with Inkscape (http://www.inkscape.org/) -->

<svg
   xmlns:dc="http://purl.org/dc/elements/1.1/"
   xmlns:cc="http://creativecommons.org/ns#"
   xmlns:rdf="http://www.w3.org/1999/02/22-rdf-syntax-ns#"
   xmlns:svg="http://www.w3.org/2000/svg"
   xmlns="http://www.w3.org/2000/svg"
   xmlns:sodipodi="http://sodipodi.sourceforge.net/DTD/sodipodi-0.dtd"
   xmlns:inkscape="http://www.inkscape.org/namespaces/inkscape"
   width="13.899362mm"
   height="8.7365417mm"
   viewBox="0 0 13.899362 8.7365416"
   version="1.1"
   id="svg8"
   inkscape:version="0.92.4 (unknown)"
   sodipodi:docname="drawing46.svg">
  <defs
     id="defs2" />
  <sodipodi:namedview
     id="base"
     pagecolor="#ffffff"
     bordercolor="#666666"
     borderopacity="1.0"
     inkscape:pageopacity="0.0"
     inkscape:pageshadow="2"
     inkscape:zoom="0.98994949"
     inkscape:cx="-191.19501"
     inkscape:cy="-140.15085"
     inkscape:document-units="mm"
     inkscape:current-layer="layer1"
     showgrid="false"
     inkscape:window-width="927"
     inkscape:window-height="1025"
     inkscape:window-x="67"
     inkscape:window-y="27"
     inkscape:window-maximized="0" />
  <metadata
     id="metadata5">
    <rdf:RDF>
      <cc:Work
         rdf:about="">
        <dc:format>image/svg+xml</dc:format>
        <dc:type
           rdf:resource="http://purl.org/dc/dcmitype/StillImage" />
        <dc:title></dc:title>
      </cc:Work>
    </rdf:RDF>
  </metadata>
  <g
     inkscape:label="Layer 1"
     inkscape:groupmode="layer"
     id="layer1"
     transform="translate(-332.5405,-166.93039)">
    <g
       transform="matrix(0.26458333,0,0,0.26458333,191.05679,188.80637)"
       id="g1968">
      <g
         transform="matrix(0.26458333,0,0,0.26458333,318.64316,190.19714)"
         id="use1966">
        <path
           style="fill:#c9dee5;stroke:none"
           inkscape:connector-curvature="0"
           d="m 940.5,-963.35 q -3.35,0.6 -6.35,-0.9 -3,-1.55 -4.5,-4.55 -3.65,-7.5 -9.95,-13.8 -14.75,-14.75 -35.6,-14.75 -20.8,0 -35.5,14.75 h -0.05 q -7.55,7.5 -11.2,16.65 -1.2,3 -3.95,4.75 -2.8,1.75 -6.05,1.55 -1.05,-0.1 -2.1,-0.1 -4.4,0 -8.1,1.6 1.45,9.35 8.55,16.4 8.9,8.95 21.55,8.95 5.75,0 10.75,-1.85 2.5,3.2 5.5,6.2 17.65,17.65 42.6,17.65 17.6,0 31.55,-8.75 13.25,13 31.9,13 3.5,0 6.8,-0.45 6.95,-9.2 6.95,-21.3 0,-14.75 -10.45,-25.2 -10.5,-10.5 -25.3,-10.5 -3.65,0 -7.05,0.65 z"
           id="path723" />
        <path
           style="fill:#e8f2f5;stroke:none"
           inkscape:connector-curvature="0"
           d="m 850.05,-993.65 q -1.4,-0.1 -2.8,-0.1 -12.65,0 -21.55,8.9 -8.95,8.95 -8.95,21.6 0,2.65 0.4,5.1 3.7,-1.6 8.1,-1.6 1.05,0 2.1,0.1 3.25,0.2 6.05,-1.55 2.75,-1.75 3.95,-4.75 3.65,-9.15 11.2,-16.65 h 0.05 q 14.7,-14.75 35.5,-14.75 20.85,0 35.6,14.75 6.3,6.3 9.95,13.8 1.5,3 4.5,4.55 3,1.5 6.35,0.9 3.4,-0.65 7.05,-0.65 14.8,0 25.3,10.5 10.45,10.45 10.45,25.2 0,12.1 -6.95,21.3 14.6,-2 25.55,-12.95 13.4,-13.4 13.4,-32.35 0,-18.9 -13.4,-32.3 -13.4,-13.4 -32.35,-13.4 -4.6,0 -8.9,0.8 -4.35,-8.95 -11.9,-16.5 -17.65,-17.65 -42.65,-17.65 -24.95,0 -42.6,17.65 -9.1,9.05 -13.45,20.05 z"
           id="path725" />
      </g>
    </g>
  </g>
</svg>
