<?xml version="1.0" encoding="UTF-8" standalone="no"?>
<!-- Created with Inkscape (http://www.inkscape.org/) -->

<svg
   xmlns:dc="http://purl.org/dc/elements/1.1/"
   xmlns:cc="http://creativecommons.org/ns#"
   xmlns:rdf="http://www.w3.org/1999/02/22-rdf-syntax-ns#"
   xmlns:svg="http://www.w3.org/2000/svg"
   xmlns="http://www.w3.org/2000/svg"
   xmlns:sodipodi="http://sodipodi.sourceforge.net/DTD/sodipodi-0.dtd"
   xmlns:inkscape="http://www.inkscape.org/namespaces/inkscape"
   width="15.873484mm"
   height="8.7033901mm"
   viewBox="0 0 15.873484 8.70339"
   version="1.1"
   id="svg8"
   inkscape:version="0.92.4 (unknown)"
   sodipodi:docname="drawing48.svg">
  <defs
     id="defs2" />
  <sodipodi:namedview
     id="base"
     pagecolor="#ffffff"
     bordercolor="#666666"
     borderopacity="1.0"
     inkscape:pageopacity="0.0"
     inkscape:pageshadow="2"
     inkscape:zoom="0.98994949"
     inkscape:cx="-238.88833"
     inkscape:cy="-77.734762"
     inkscape:document-units="mm"
     inkscape:current-layer="layer1"
     showgrid="false"
     inkscape:window-width="927"
     inkscape:window-height="1025"
     inkscape:window-x="67"
     inkscape:window-y="27"
     inkscape:window-maximized="0" />
  <metadata
     id="metadata5">
    <rdf:RDF>
      <cc:Work
         rdf:about="">
        <dc:format>image/svg+xml</dc:format>
        <dc:type
           rdf:resource="http://purl.org/dc/dcmitype/StillImage" />
        <dc:title></dc:title>
      </cc:Work>
    </rdf:RDF>
  </metadata>
  <g
     inkscape:label="Layer 1"
     inkscape:groupmode="layer"
     id="layer1"
     transform="translate(-345.15936,-183.47779)">
    <g
       transform="matrix(0.26458333,0,0,0.26458333,213.71288,198.61786)"
       id="g1940">
      <g
         transform="matrix(0.26458333,0,0,0.26458333,342.67259,169.65158)"
         id="use1938">
        <path
           style="fill:#c9dee5;stroke:none"
           inkscape:connector-curvature="0"
           d="m 705.4,-812.75 h -0.05 Q 691,-825.4 670.7,-823.1 q -21.1,2.5 -36.15,19.2 -7.55,8.4 -11.35,17.95 -0.8,2.05 -2.4,3.6 -1.65,1.55 -3.75,2.25 -8.25,2.8 -14.7,10 v 0.05 q -4.2,4.65 -6.45,9.85 -1.35,3 -4.2,4.65 -2.85,1.6 -6,1.35 1.2,1.75 2.9,3.25 6.15,5.4 14.8,4.45 4.8,-0.6 8.8,-2.9 2.05,2.65 4.7,5 11.65,10.35 28.15,8.5 9.05,-1.05 16.65,-5.45 13.3,6.3 29.85,4.4 11.95,-1.35 22.1,-6.5 14.2,12.2 34.05,9.95 2.55,-0.3 5.05,-0.8 5,-1.05 9.6,-2.95 4.5,-1.9 8.6,-4.6 0.7,-0.7 1.4,-1.45 4.9,-5.5 4.95,-12.45 0.1,-6 -4.15,-9.8 -1.9,-1.65 -4.05,-2.45 -2.25,-0.85 -3.85,-2.55 -1.6,-1.75 -2.3,-4 -2.55,-8.45 -9.4,-14.55 h -0.05 q -11.05,-9.7 -26.65,-7.9 -1.1,0.1 -2.2,0.3 -3.1,0.45 -5.95,-0.9 -2.85,-1.4 -4.35,-4.15 -3.35,-6.05 -8.95,-11 z"
           id="path795" />
        <path
           style="fill:#e8f2f5;stroke:none"
           inkscape:connector-curvature="0"
           d="m 635.9,-813.6 q -10.7,3.55 -19,12.85 -5.35,5.95 -8.2,12.55 -2.55,-0.3 -5.3,0 -8.65,0.95 -14.8,7.75 -6.05,6.8 -6.05,15.45 0,6.2 3.15,10.8 3.15,0.25 6,-1.35 2.85,-1.65 4.2,-4.65 2.25,-5.2 6.45,-9.85 v -0.05 q 6.45,-7.2 14.7,-10 2.1,-0.7 3.75,-2.25 1.6,-1.55 2.4,-3.6 3.8,-9.55 11.35,-17.95 15.05,-16.7 36.15,-19.2 20.3,-2.3 34.65,10.35 h 0.05 q 5.6,4.95 8.95,11 1.5,2.75 4.35,4.15 2.85,1.35 5.95,0.9 1.1,-0.2 2.2,-0.3 15.6,-1.8 26.65,7.9 h 0.05 q 6.85,6.1 9.4,14.55 0.7,2.25 2.3,4 1.6,1.7 3.85,2.55 2.15,0.8 4.05,2.45 4.25,3.8 4.15,9.8 -0.05,6.95 -4.95,12.45 -0.7,0.75 -1.4,1.45 5.55,-3.7 10.45,-9 1.05,-0.05 2.15,-0.15 10.65,-1.25 18.2,-9.65 7.55,-8.4 7.55,-19.1 0,-10.6 -7.55,-17.3 -3.3,-2.9 -7.2,-4.35 -3.3,-11.15 -12.4,-19.2 -14.25,-12.65 -34.45,-10.35 -1.3,0.15 -2.6,0.35 -4.15,-7.5 -11.1,-13.65 -17.55,-15.6 -42.45,-12.8 -24.8,2.85 -42.45,22.45 -8.8,9.8 -13.2,21 z"
           id="path797" />
      </g>
    </g>
  </g>
</svg>
