<?xml version="1.0" encoding="UTF-8" standalone="no"?>
<!-- Created with Inkscape (http://www.inkscape.org/) -->

<svg
   xmlns:dc="http://purl.org/dc/elements/1.1/"
   xmlns:cc="http://creativecommons.org/ns#"
   xmlns:rdf="http://www.w3.org/1999/02/22-rdf-syntax-ns#"
   xmlns:svg="http://www.w3.org/2000/svg"
   xmlns="http://www.w3.org/2000/svg"
   xmlns:sodipodi="http://sodipodi.sourceforge.net/DTD/sodipodi-0.dtd"
   xmlns:inkscape="http://www.inkscape.org/namespaces/inkscape"
   width="13.206319mm"
   height="8.8975515mm"
   viewBox="0 0 13.20632 8.8975513"
   version="1.1"
   id="svg8"
   inkscape:version="0.92.4 (unknown)"
   sodipodi:docname="drawing59.svg">
  <defs
     id="defs2" />
  <sodipodi:namedview
     id="base"
     pagecolor="#ffffff"
     bordercolor="#666666"
     borderopacity="1.0"
     inkscape:pageopacity="0.0"
     inkscape:pageshadow="2"
     inkscape:zoom="0.98994949"
     inkscape:cx="-115.9944"
     inkscape:cy="-79.015257"
     inkscape:document-units="mm"
     inkscape:current-layer="layer1"
     showgrid="false"
     inkscape:window-width="927"
     inkscape:window-height="1025"
     inkscape:window-x="67"
     inkscape:window-y="27"
     inkscape:window-maximized="0" />
  <metadata
     id="metadata5">
    <rdf:RDF>
      <cc:Work
         rdf:about="">
        <dc:format>image/svg+xml</dc:format>
        <dc:type
           rdf:resource="http://purl.org/dc/dcmitype/StillImage" />
        <dc:title></dc:title>
      </cc:Work>
    </rdf:RDF>
  </metadata>
  <g
     inkscape:label="Layer 1"
     inkscape:groupmode="layer"
     id="layer1"
     transform="translate(-312.64369,-182.94482)">
    <g
       transform="matrix(0.26458333,0,0,0.26458333,248.52771,206.2389)"
       id="g1928">
      <g
         transform="matrix(0.26458333,0,0,0.26458333,325.39404,184.83741)"
         id="use1926">
        <path
           style="fill:#c9dee5;stroke:none"
           inkscape:connector-curvature="0"
           d="m -184.25,-1013.25 q -18.15,-18.1 -43.75,-18.1 -25.65,0 -43.75,18.1 -12.35,12.4 -16.3,28.2 -10,1 -17.4,8.35 -8.5,8.55 -8.5,20.6 0,12.05 8.5,20.55 8.55,8.5 20.6,8.5 5.45,0 10.2,-1.75 1.4,1.55 2.9,3.05 18.1,18.15 43.75,18.15 17.4,0 31.35,-8.35 12.15,11.7 29.2,11.7 17.45,0 29.8,-12.35 12.35,-12.35 12.35,-29.8 0,-17.45 -12.35,-29.8 -12.35,-12.35 -29.8,-12.35 -0.75,0 -1.5,0 -4.35,-13.7 -15.3,-24.7 z"
           id="path1166" />
      </g>
    </g>
  </g>
</svg>
