<?xml version="1.0" encoding="UTF-8" standalone="no"?>
<!-- Created with Inkscape (http://www.inkscape.org/) -->

<svg
   xmlns:dc="http://purl.org/dc/elements/1.1/"
   xmlns:cc="http://creativecommons.org/ns#"
   xmlns:rdf="http://www.w3.org/1999/02/22-rdf-syntax-ns#"
   xmlns:svg="http://www.w3.org/2000/svg"
   xmlns="http://www.w3.org/2000/svg"
   xmlns:sodipodi="http://sodipodi.sourceforge.net/DTD/sodipodi-0.dtd"
   xmlns:inkscape="http://www.inkscape.org/namespaces/inkscape"
   version="1.1"
   id="svg2"
   xml:space="preserve"
   width="666.66669"
   height="666.66669"
   viewBox="0 0 666.66669 666.66669"
   sodipodi:docname="birds.svg"
   inkscape:version="0.92.4 (5da689c313, 2019-01-14)"><metadata
     id="metadata8"><rdf:RDF><cc:Work
         rdf:about=""><dc:format>image/svg+xml</dc:format><dc:type
           rdf:resource="http://purl.org/dc/dcmitype/StillImage" /><dc:title></dc:title></cc:Work></rdf:RDF></metadata><defs
     id="defs6"><clipPath
       clipPathUnits="userSpaceOnUse"
       id="clipPath20"><path
         d="m 46.665,425.854 c 0,-17.93 14.535,-32.465 32.466,-32.465 v 0 c 17.93,0 32.465,14.535 32.465,32.465 v 0 c 0,17.931 -14.535,32.466 -32.465,32.466 v 0 c -17.931,0 -32.466,-14.535 -32.466,-32.466"
         id="path18"
         inkscape:connector-curvature="0" /></clipPath><linearGradient
       x1="0"
       y1="0"
       x2="1"
       y2="0"
       gradientUnits="userSpaceOnUse"
       gradientTransform="matrix(4.0020375,125.66408,125.66408,-4.0020375,76.713867,349.95459)"
       spreadMethod="pad"
       id="linearGradient36"><stop
         style="stop-opacity:0;stop-color:#ffffff"
         offset="0"
         id="stop30" /><stop
         style="stop-opacity:1;stop-color:#ffffff"
         offset="0.75779965"
         id="stop32" /><stop
         style="stop-opacity:1;stop-color:#ffffff"
         offset="1"
         id="stop34" /></linearGradient><mask
       maskUnits="userSpaceOnUse"
       x="0"
       y="0"
       width="1"
       height="1"
       id="mask38"><g
         id="g48"><g
           id="g46"><g
             id="g44"><g
               id="g42"><path
                 d="M -32768,32767 H 32767 V -32768 H -32768 Z"
                 style="fill:url(#linearGradient36);stroke:none"
                 id="path40"
                 inkscape:connector-curvature="0" /></g></g></g></g></mask><linearGradient
       x1="0"
       y1="0"
       x2="1"
       y2="0"
       gradientUnits="userSpaceOnUse"
       gradientTransform="matrix(4.0020375,125.66408,125.66408,-4.0020375,76.713867,349.95459)"
       spreadMethod="pad"
       id="linearGradient60"><stop
         style="stop-opacity:1;stop-color:#ffffff"
         offset="0"
         id="stop54" /><stop
         style="stop-opacity:1;stop-color:#ffffff"
         offset="0.75779965"
         id="stop56" /><stop
         style="stop-opacity:1;stop-color:#ffffff"
         offset="1"
         id="stop58" /></linearGradient><clipPath
       clipPathUnits="userSpaceOnUse"
       id="clipPath70"><path
         d="m 400.522,358.805 c -0.4,0.044 -0.807,0.072 -1.221,0.072 v 0 c -3.591,0 -6.777,-1.739 -8.766,-4.416 v 0 c -0.68,0.168 -1.392,0.26 -2.125,0.26 v 0 c -2.597,0 -4.928,-1.118 -6.547,-2.898 v 0 c -1.082,0.564 -2.314,0.886 -3.618,0.886 v 0 c -2.978,0 -5.569,-1.66 -6.893,-4.107 v 0 h 88.156 c -0.334,8.505 -7.331,15.289 -15.915,15.289 v 0 h -0.003 c -3.525,7.96 -11.487,13.519 -20.752,13.519 v 0 c -11.137,0 -20.391,-8.026 -22.316,-18.605"
         id="path68"
         inkscape:connector-curvature="0" /></clipPath><linearGradient
       x1="0"
       y1="0"
       x2="1"
       y2="0"
       gradientUnits="userSpaceOnUse"
       gradientTransform="matrix(-9e-7,21.075376,-21.075376,-9e-7,415.43018,354.75195)"
       spreadMethod="pad"
       id="linearGradient86"><stop
         style="stop-opacity:0;stop-color:#ffffff"
         offset="0"
         id="stop80" /><stop
         style="stop-opacity:1;stop-color:#ffffff"
         offset="0.75779965"
         id="stop82" /><stop
         style="stop-opacity:1;stop-color:#ffffff"
         offset="1"
         id="stop84" /></linearGradient><mask
       maskUnits="userSpaceOnUse"
       x="0"
       y="0"
       width="1"
       height="1"
       id="mask88"><g
         id="g98"><g
           id="g96"><g
             id="g94"><g
               id="g92"><path
                 d="M -32768,32767 H 32767 V -32768 H -32768 Z"
                 style="fill:url(#linearGradient86);stroke:none"
                 id="path90"
                 inkscape:connector-curvature="0" /></g></g></g></g></mask><linearGradient
       x1="0"
       y1="0"
       x2="1"
       y2="0"
       gradientUnits="userSpaceOnUse"
       gradientTransform="matrix(-9e-7,21.075376,-21.075376,-9e-7,415.43018,354.75195)"
       spreadMethod="pad"
       id="linearGradient110"><stop
         style="stop-opacity:1;stop-color:#ffffff"
         offset="0"
         id="stop104" /><stop
         style="stop-opacity:1;stop-color:#ffffff"
         offset="0.75779965"
         id="stop106" /><stop
         style="stop-opacity:1;stop-color:#ffffff"
         offset="1"
         id="stop108" /></linearGradient><clipPath
       clipPathUnits="userSpaceOnUse"
       id="clipPath120"><path
         d="m 262.143,127.646 c -1.197,0.132 -2.414,0.214 -3.651,0.214 v 0 c -10.727,0 -20.248,-5.195 -26.189,-13.191 v 0 c -2.034,0.501 -4.161,0.778 -6.35,0.778 v 0 c -7.762,0 -14.725,-3.345 -19.561,-8.662 v 0 c -3.231,1.687 -6.913,2.649 -10.809,2.649 v 0 c -8.897,0 -16.638,-4.959 -20.595,-12.272 v 0 h 263.386 c -1.003,25.413 -21.904,45.679 -47.55,45.679 v 0 h -0.011 c -10.532,23.786 -34.318,40.393 -61.999,40.393 v 0 c -33.274,0 -60.925,-23.98 -66.671,-55.588"
         id="path118"
         inkscape:connector-curvature="0" /></clipPath><linearGradient
       x1="0"
       y1="0"
       x2="1"
       y2="0"
       gradientUnits="userSpaceOnUse"
       gradientTransform="matrix(-3.2e-6,73.969238,-73.969238,-3.2e-6,306.68115,99.890625)"
       spreadMethod="pad"
       id="linearGradient136"><stop
         style="stop-opacity:0;stop-color:#ffffff"
         offset="0"
         id="stop130" /><stop
         style="stop-opacity:1;stop-color:#ffffff"
         offset="0.75779965"
         id="stop132" /><stop
         style="stop-opacity:1;stop-color:#ffffff"
         offset="1"
         id="stop134" /></linearGradient><mask
       maskUnits="userSpaceOnUse"
       x="0"
       y="0"
       width="1"
       height="1"
       id="mask138"><g
         id="g148"><g
           id="g146"><g
             id="g144"><g
               id="g142"><path
                 d="M -32768,32767 H 32767 V -32768 H -32768 Z"
                 style="fill:url(#linearGradient136);stroke:none"
                 id="path140"
                 inkscape:connector-curvature="0" /></g></g></g></g></mask><linearGradient
       x1="0"
       y1="0"
       x2="1"
       y2="0"
       gradientUnits="userSpaceOnUse"
       gradientTransform="matrix(-3.2e-6,73.969238,-73.969238,-3.2e-6,306.68115,99.890625)"
       spreadMethod="pad"
       id="linearGradient160"><stop
         style="stop-opacity:1;stop-color:#ffffff"
         offset="0"
         id="stop154" /><stop
         style="stop-opacity:1;stop-color:#ffffff"
         offset="0.75779965"
         id="stop156" /><stop
         style="stop-opacity:1;stop-color:#ffffff"
         offset="1"
         id="stop158" /></linearGradient><clipPath
       clipPathUnits="userSpaceOnUse"
       id="clipPath170"><path
         d="m 126.47,386.649 h -0.006 c -14.983,0 -27.192,-11.84 -27.777,-26.685 v 0 h 153.861 c -2.312,4.271 -6.834,7.169 -12.03,7.169 v 0 c -2.276,0 -4.426,-0.562 -6.315,-1.547 v 0 c -2.825,3.106 -6.894,5.059 -11.427,5.059 v 0 c -1.279,0 -2.521,-0.161 -3.71,-0.453 v 0 c -3.47,4.671 -9.032,7.705 -15.298,7.705 v 0 c -0.724,0 -1.434,-0.047 -2.133,-0.126 v 0 c -3.357,18.466 -19.509,32.473 -38.947,32.473 v 0 c -16.171,0 -30.066,-9.701 -36.218,-23.595"
         id="path168"
         inkscape:connector-curvature="0" /></clipPath><linearGradient
       x1="0"
       y1="0"
       x2="1"
       y2="0"
       gradientUnits="userSpaceOnUse"
       gradientTransform="matrix(-1.9e-6,42.856979,-42.856979,-1.9e-6,175.61768,364.81396)"
       spreadMethod="pad"
       id="linearGradient186"><stop
         style="stop-opacity:0;stop-color:#ffffff"
         offset="0"
         id="stop180" /><stop
         style="stop-opacity:1;stop-color:#ffffff"
         offset="0.75779965"
         id="stop182" /><stop
         style="stop-opacity:1;stop-color:#ffffff"
         offset="1"
         id="stop184" /></linearGradient><mask
       maskUnits="userSpaceOnUse"
       x="0"
       y="0"
       width="1"
       height="1"
       id="mask188"><g
         id="g198"><g
           id="g196"><g
             id="g194"><g
               id="g192"><path
                 d="M -32768,32767 H 32767 V -32768 H -32768 Z"
                 style="fill:url(#linearGradient186);stroke:none"
                 id="path190"
                 inkscape:connector-curvature="0" /></g></g></g></g></mask><linearGradient
       x1="0"
       y1="0"
       x2="1"
       y2="0"
       gradientUnits="userSpaceOnUse"
       gradientTransform="matrix(-1.9e-6,42.856979,-42.856979,-1.9e-6,175.61768,364.81396)"
       spreadMethod="pad"
       id="linearGradient210"><stop
         style="stop-opacity:1;stop-color:#ffffff"
         offset="0"
         id="stop204" /><stop
         style="stop-opacity:1;stop-color:#ffffff"
         offset="0.75779965"
         id="stop206" /><stop
         style="stop-opacity:1;stop-color:#ffffff"
         offset="1"
         id="stop208" /></linearGradient><clipPath
       clipPathUnits="userSpaceOnUse"
       id="clipPath220"><path
         d="m 308.966,272.563 c -1.136,0.263 -2.316,0.4 -3.529,0.4 v 0 c -5.733,0 -10.761,-3.028 -13.559,-7.575 v 0 c -2.137,2.148 -5.098,3.476 -8.371,3.476 v 0 c -5.799,0 -10.623,-4.18 -11.623,-9.694 v 0 h 17.782 5.469 15.815 10.252 32.252 11.016 18.58 6.466 19.988 c -1.764,5.617 -7.021,9.694 -13.224,9.694 v 0 c -3.06,0 -5.896,-0.989 -8.186,-2.672 v 0 c -2.737,6.47 -9.142,11.005 -16.606,11.005 v 0 c -1.957,0 -3.848,-0.311 -5.613,-0.89 v 0 c -2.88,12.902 -14.4,22.547 -28.164,22.547 v 0 c -15.073,0 -27.444,-11.558 -28.745,-26.291"
         id="path218"
         inkscape:connector-curvature="0" /></clipPath><linearGradient
       x1="0"
       y1="0"
       x2="1"
       y2="0"
       gradientUnits="userSpaceOnUse"
       gradientTransform="matrix(-1.4e-6,32.031959,-32.031959,-1.4e-6,340.69385,264.07422)"
       spreadMethod="pad"
       id="linearGradient236"><stop
         style="stop-opacity:0;stop-color:#ffffff"
         offset="0"
         id="stop230" /><stop
         style="stop-opacity:1;stop-color:#ffffff"
         offset="0.75779965"
         id="stop232" /><stop
         style="stop-opacity:1;stop-color:#ffffff"
         offset="1"
         id="stop234" /></linearGradient><mask
       maskUnits="userSpaceOnUse"
       x="0"
       y="0"
       width="1"
       height="1"
       id="mask238"><g
         id="g248"><g
           id="g246"><g
             id="g244"><g
               id="g242"><path
                 d="M -32768,32767 H 32767 V -32768 H -32768 Z"
                 style="fill:url(#linearGradient236);stroke:none"
                 id="path240"
                 inkscape:connector-curvature="0" /></g></g></g></g></mask><linearGradient
       x1="0"
       y1="0"
       x2="1"
       y2="0"
       gradientUnits="userSpaceOnUse"
       gradientTransform="matrix(-1.4e-6,32.031959,-32.031959,-1.4e-6,340.69385,264.07422)"
       spreadMethod="pad"
       id="linearGradient260"><stop
         style="stop-opacity:1;stop-color:#ffffff"
         offset="0"
         id="stop254" /><stop
         style="stop-opacity:1;stop-color:#ffffff"
         offset="0.75779965"
         id="stop256" /><stop
         style="stop-opacity:1;stop-color:#ffffff"
         offset="1"
         id="stop258" /></linearGradient><clipPath
       clipPathUnits="userSpaceOnUse"
       id="clipPath270"><path
         d="m 419.305,32.655 c -1.283,0.141 -2.586,0.227 -3.911,0.227 v 0 c -11.491,0 -21.689,-5.562 -28.053,-14.129 v 0 c -2.18,0.536 -4.458,0.833 -6.803,0.833 v 0 c -8.313,0 -15.773,-3.582 -20.955,-9.278 v 0 c -3.462,1.807 -7.405,2.837 -11.578,2.837 v 0 C 338.474,13.145 330.181,7.832 325.943,0 V 0 H 500 v 91.614 c -3.036,0.387 -6.132,0.587 -9.274,0.587 v 0 c -35.645,0 -65.265,-25.688 -71.421,-59.546"
         id="path268"
         inkscape:connector-curvature="0" /></clipPath><linearGradient
       x1="0"
       y1="0"
       x2="1"
       y2="0"
       gradientUnits="userSpaceOnUse"
       gradientTransform="matrix(-2.9e-6,66.391762,-66.391762,-2.9e-6,467.01514,13.376953)"
       spreadMethod="pad"
       id="linearGradient286"><stop
         style="stop-opacity:0;stop-color:#ffffff"
         offset="0"
         id="stop280" /><stop
         style="stop-opacity:1;stop-color:#ffffff"
         offset="0.75779965"
         id="stop282" /><stop
         style="stop-opacity:1;stop-color:#ffffff"
         offset="1"
         id="stop284" /></linearGradient><mask
       maskUnits="userSpaceOnUse"
       x="0"
       y="0"
       width="1"
       height="1"
       id="mask288"><g
         id="g298"><g
           id="g296"><g
             id="g294"><g
               id="g292"><path
                 d="M -32768,32767 H 32767 V -32768 H -32768 Z"
                 style="fill:url(#linearGradient286);stroke:none"
                 id="path290"
                 inkscape:connector-curvature="0" /></g></g></g></g></mask><linearGradient
       x1="0"
       y1="0"
       x2="1"
       y2="0"
       gradientUnits="userSpaceOnUse"
       gradientTransform="matrix(-2.9e-6,66.391762,-66.391762,-2.9e-6,467.01514,13.376953)"
       spreadMethod="pad"
       id="linearGradient310"><stop
         style="stop-opacity:1;stop-color:#ffffff"
         offset="0"
         id="stop304" /><stop
         style="stop-opacity:1;stop-color:#ffffff"
         offset="0.75779965"
         id="stop306" /><stop
         style="stop-opacity:1;stop-color:#ffffff"
         offset="1"
         id="stop308" /></linearGradient><clipPath
       clipPathUnits="userSpaceOnUse"
       id="clipPath320"><path
         d="M 63.102,45.679 H 63.091 C 37.445,45.679 16.544,25.411 15.541,0 v 0 h 263.386 c -3.957,7.312 -11.698,12.271 -20.595,12.271 v 0 c -3.896,0 -7.577,-0.962 -10.809,-2.649 v 0 c -4.836,5.318 -11.8,8.661 -19.561,8.661 v 0 c -2.189,0 -4.316,-0.275 -6.351,-0.776 v 0 c -5.94,7.996 -15.461,13.191 -26.188,13.191 v 0 c -1.237,0 -2.454,-0.082 -3.65,-0.215 v 0 c -5.747,31.608 -33.398,55.588 -66.672,55.588 v 0 C 97.42,86.071 73.634,69.464 63.102,45.679"
         id="path318"
         inkscape:connector-curvature="0" /></clipPath><linearGradient
       x1="0"
       y1="0"
       x2="1"
       y2="0"
       gradientUnits="userSpaceOnUse"
       gradientTransform="matrix(-3.2e-6,72.776405,-72.776405,-3.2e-6,147.23389,4.4042969)"
       spreadMethod="pad"
       id="linearGradient336"><stop
         style="stop-opacity:1;stop-color:#ffffff"
         offset="0"
         id="stop330" /><stop
         style="stop-opacity:0.04934768;stop-color:#ffffff"
         offset="0.74474582"
         id="stop332" /><stop
         style="stop-opacity:0.04934768;stop-color:#ffffff"
         offset="1"
         id="stop334" /></linearGradient><mask
       maskUnits="userSpaceOnUse"
       x="0"
       y="0"
       width="1"
       height="1"
       id="mask338"><g
         id="g348"><g
           id="g346"><g
             id="g344"><g
               id="g342"><path
                 d="M -32768,32767 H 32767 V -32768 H -32768 Z"
                 style="fill:url(#linearGradient336);stroke:none"
                 id="path340"
                 inkscape:connector-curvature="0" /></g></g></g></g></mask><linearGradient
       x1="0"
       y1="0"
       x2="1"
       y2="0"
       gradientUnits="userSpaceOnUse"
       gradientTransform="matrix(-3.2e-6,72.776405,-72.776405,-3.2e-6,147.23389,4.4042969)"
       spreadMethod="pad"
       id="linearGradient360"><stop
         style="stop-opacity:1;stop-color:#ffffff"
         offset="0"
         id="stop354" /><stop
         style="stop-opacity:1;stop-color:#ffffff"
         offset="0.74474582"
         id="stop356" /><stop
         style="stop-opacity:1;stop-color:#ffffff"
         offset="1"
         id="stop358" /></linearGradient><clipPath
       clipPathUnits="userSpaceOnUse"
       id="clipPath370"><path
         d="m 222.752,15.559 c -1.321,0.305 -2.692,0.464 -4.102,0.464 v 0 c -6.659,0 -12.499,-3.518 -15.75,-8.799 v 0 c -2.482,2.495 -5.922,4.038 -9.725,4.038 v 0 C 186.439,11.262 180.834,6.405 179.672,0 v 0 h 20.657 6.355 18.372 11.909 37.467 12.798 21.583 7.51 23.222 c -2.051,6.527 -8.158,11.262 -15.363,11.262 v 0 c -3.555,0 -6.849,-1.149 -9.51,-3.104 v 0 c -3.18,7.516 -10.621,12.784 -19.292,12.784 v 0 c -2.273,0 -4.469,-0.361 -6.52,-1.034 v 0 c -3.344,14.988 -16.727,26.193 -32.717,26.193 v 0 c -17.509,0 -31.881,-13.427 -33.391,-30.542"
         id="path368"
         inkscape:connector-curvature="0" /></clipPath><linearGradient
       x1="0"
       y1="0"
       x2="1"
       y2="0"
       gradientUnits="userSpaceOnUse"
       gradientTransform="matrix(-1.6e-6,36.982029,-36.982029,-1.6e-6,259.60889,3.4111328)"
       spreadMethod="pad"
       id="linearGradient386"><stop
         style="stop-opacity:0;stop-color:#ffffff"
         offset="0"
         id="stop380" /><stop
         style="stop-opacity:1;stop-color:#ffffff"
         offset="0.75779965"
         id="stop382" /><stop
         style="stop-opacity:1;stop-color:#ffffff"
         offset="1"
         id="stop384" /></linearGradient><mask
       maskUnits="userSpaceOnUse"
       x="0"
       y="0"
       width="1"
       height="1"
       id="mask388"><g
         id="g398"><g
           id="g396"><g
             id="g394"><g
               id="g392"><path
                 d="M -32768,32767 H 32767 V -32768 H -32768 Z"
                 style="fill:url(#linearGradient386);stroke:none"
                 id="path390"
                 inkscape:connector-curvature="0" /></g></g></g></g></mask><linearGradient
       x1="0"
       y1="0"
       x2="1"
       y2="0"
       gradientUnits="userSpaceOnUse"
       gradientTransform="matrix(-1.6e-6,36.982029,-36.982029,-1.6e-6,259.60889,3.4111328)"
       spreadMethod="pad"
       id="linearGradient410"><stop
         style="stop-opacity:1;stop-color:#ffffff"
         offset="0"
         id="stop404" /><stop
         style="stop-opacity:1;stop-color:#ffffff"
         offset="0.75779965"
         id="stop406" /><stop
         style="stop-opacity:1;stop-color:#ffffff"
         offset="1"
         id="stop408" /></linearGradient><clipPath
       clipPathUnits="userSpaceOnUse"
       id="clipPath420"><path
         d="m 331.316,22.783 c -1.933,0.445 -3.94,0.678 -6.004,0.678 v 0 c -9.751,0 -18.303,-5.15 -23.062,-12.883 v 0 c -3.635,3.654 -8.672,5.912 -14.24,5.912 v 0 C 278.148,16.49 269.941,9.379 268.239,0 v 0 h 30.247 9.304 26.901 17.438 54.86 18.739 31.604 10.996 H 500 v 5.141 c -4.134,6.803 -11.622,11.349 -20.165,11.349 v 0 c -5.205,0 -10.029,-1.682 -13.923,-4.546 v 0 C 461.254,22.95 450.36,30.665 437.664,30.665 v 0 c -3.328,0 -6.544,-0.529 -9.548,-1.515 v 0 c -4.897,21.946 -24.492,38.352 -47.906,38.352 v 0 c -25.637,0 -46.681,-19.659 -48.894,-44.719"
         id="path418"
         inkscape:connector-curvature="0" /></clipPath><linearGradient
       x1="0"
       y1="0"
       x2="1"
       y2="0"
       gradientUnits="userSpaceOnUse"
       gradientTransform="matrix(-2.2e-6,50.440227,-50.440227,-2.2e-6,385.28467,5.4853516)"
       spreadMethod="pad"
       id="linearGradient436"><stop
         style="stop-opacity:0;stop-color:#ffffff"
         offset="0"
         id="stop430" /><stop
         style="stop-opacity:1;stop-color:#ffffff"
         offset="0.75779965"
         id="stop432" /><stop
         style="stop-opacity:1;stop-color:#ffffff"
         offset="1"
         id="stop434" /></linearGradient><mask
       maskUnits="userSpaceOnUse"
       x="0"
       y="0"
       width="1"
       height="1"
       id="mask438"><g
         id="g448"><g
           id="g446"><g
             id="g444"><g
               id="g442"><path
                 d="M -32768,32767 H 32767 V -32768 H -32768 Z"
                 style="fill:url(#linearGradient436);stroke:none"
                 id="path440"
                 inkscape:connector-curvature="0" /></g></g></g></g></mask><linearGradient
       x1="0"
       y1="0"
       x2="1"
       y2="0"
       gradientUnits="userSpaceOnUse"
       gradientTransform="matrix(-2.2e-6,50.440227,-50.440227,-2.2e-6,385.28467,5.4853516)"
       spreadMethod="pad"
       id="linearGradient460"><stop
         style="stop-opacity:1;stop-color:#ffffff"
         offset="0"
         id="stop454" /><stop
         style="stop-opacity:1;stop-color:#ffffff"
         offset="0.75779965"
         id="stop456" /><stop
         style="stop-opacity:1;stop-color:#ffffff"
         offset="1"
         id="stop458" /></linearGradient><clipPath
       clipPathUnits="userSpaceOnUse"
       id="clipPath470"><path
         d="M 0,67.219 V 0 h 32.081 18.738 31.604 10.996 34.002 c -3.002,9.555 -11.944,16.49 -22.495,16.49 v 0 c -5.204,0 -10.028,-1.682 -13.923,-4.546 v 0 C 86.346,22.95 75.452,30.665 62.755,30.665 v 0 c -3.328,0 -6.544,-0.529 -9.547,-1.515 v 0 C 48.309,51.096 28.715,67.502 5.301,67.502 v 0 C 3.509,67.502 1.742,67.406 0,67.219"
         id="path468"
         inkscape:connector-curvature="0" /></clipPath><linearGradient
       x1="0"
       y1="0"
       x2="1"
       y2="0"
       gradientUnits="userSpaceOnUse"
       gradientTransform="matrix(-2.6e-6,59.663761,-59.663761,-2.6e-6,10.375977,2.9638672)"
       spreadMethod="pad"
       id="linearGradient486"><stop
         style="stop-opacity:0;stop-color:#ffffff"
         offset="0"
         id="stop480" /><stop
         style="stop-opacity:1;stop-color:#ffffff"
         offset="0.75779965"
         id="stop482" /><stop
         style="stop-opacity:1;stop-color:#ffffff"
         offset="1"
         id="stop484" /></linearGradient><mask
       maskUnits="userSpaceOnUse"
       x="0"
       y="0"
       width="1"
       height="1"
       id="mask488"><g
         id="g498"><g
           id="g496"><g
             id="g494"><g
               id="g492"><path
                 d="M -32768,32767 H 32767 V -32768 H -32768 Z"
                 style="fill:url(#linearGradient486);stroke:none"
                 id="path490"
                 inkscape:connector-curvature="0" /></g></g></g></g></mask><linearGradient
       x1="0"
       y1="0"
       x2="1"
       y2="0"
       gradientUnits="userSpaceOnUse"
       gradientTransform="matrix(-2.6e-6,59.663761,-59.663761,-2.6e-6,10.375977,2.9638672)"
       spreadMethod="pad"
       id="linearGradient510"><stop
         style="stop-opacity:1;stop-color:#ffffff"
         offset="0"
         id="stop504" /><stop
         style="stop-opacity:1;stop-color:#ffffff"
         offset="0.75779965"
         id="stop506" /><stop
         style="stop-opacity:1;stop-color:#ffffff"
         offset="1"
         id="stop508" /></linearGradient><clipPath
       clipPathUnits="userSpaceOnUse"
       id="clipPath520"><path
         d="M 0,0 H 500 V 500 H 0 Z"
         id="path518"
         inkscape:connector-curvature="0" /></clipPath><clipPath
       clipPathUnits="userSpaceOnUse"
       id="clipPath568"><path
         d="m 131.524,293.637 h 10.657 v -11.698 h -10.657 z"
         id="path566"
         inkscape:connector-curvature="0" /></clipPath><clipPath
       clipPathUnits="userSpaceOnUse"
       id="clipPath728"><path
         d="M 0,500 H 500 V 0 H 0 Z"
         id="path726"
         inkscape:connector-curvature="0" /></clipPath></defs><sodipodi:namedview
     pagecolor="#ffffff"
     bordercolor="#666666"
     borderopacity="1"
     objecttolerance="10"
     gridtolerance="10"
     guidetolerance="10"
     inkscape:pageopacity="0"
     inkscape:pageshadow="2"
     inkscape:window-width="1920"
     inkscape:window-height="1017"
     id="namedview4"
     showgrid="false"
     inkscape:zoom="1.0012632"
     inkscape:cx="92.755739"
     inkscape:cy="293.82357"
     inkscape:window-x="-8"
     inkscape:window-y="-8"
     inkscape:window-maximized="1"
     inkscape:current-layer="g10" /><g
     id="g10"
     inkscape:groupmode="layer"
     inkscape:label="229727-P2FTDF-100"
     transform="matrix(1.3333333,0,0,-1.3333333,0,666.66667)"><g
       id="g14"><g
         id="g16"
         clip-path="url(#clipPath20)"><g
           id="g22"><g
             id="g24" /><g
             id="g50"
             mask="url(#mask38)"><g
               id="g52"><path
                 d="m 46.665,425.854 c 0,-17.93 14.535,-32.465 32.466,-32.465 v 0 c 17.93,0 32.465,14.535 32.465,32.465 v 0 c 0,17.931 -14.535,32.466 -32.465,32.466 v 0 c -17.931,0 -32.466,-14.535 -32.466,-32.466"
                 style="fill:url(#linearGradient60);stroke:none"
                 id="path62"
                 inkscape:connector-curvature="0" /></g></g></g></g></g><g
       id="g4852"
       inkscape:export-filename="C:\Users\Thibaut\Desktop\GameHotAirBalloon\HotAirBalloon\Assets\IMG\Decor\birds.png"
       inkscape:export-xdpi="458.2038"
       inkscape:export-ydpi="458.2038"><g
         transform="translate(350.84601,253.93362)"
         id="g522"><path
           inkscape:connector-curvature="0"
           id="path524"
           style="fill:#1e312c;fill-opacity:1;fill-rule:nonzero;stroke:none"
           d="M 0,0 C 0.214,0.188 0.399,0.363 0.521,0.482 0.554,0.477 0.587,0.473 0.621,0.468 0.542,0.214 0.439,-0.02 0.317,-0.237 0.215,-0.164 0.113,-0.087 0,0 m 8.56,15.459 c 0,0 0,-10e-4 0,-10e-4 -0.299,0.062 -0.598,0.116 -0.893,0.159 -0.075,0.01 -0.15,0.018 -0.225,0.028 -0.444,0.057 -0.884,0.095 -1.321,0.114 -0.035,0.002 -0.071,0.008 -0.107,0.01 -0.479,0.023 -0.957,0.019 -1.431,0 C 4.508,15.767 4.427,15.765 4.354,15.758 4.242,15.754 4.13,15.749 4.019,15.74 3.787,15.729 3.561,15.703 3.332,15.682 3.304,15.679 3.274,15.678 3.246,15.676 3.211,15.674 3.178,15.669 3.145,15.667 3.063,15.658 2.98,15.655 2.9,15.646 0.221,15.36 -2.338,14.705 -4.882,14.511 -5.108,14.493 -5.334,14.497 -5.56,14.487 -5.827,14.49 -6.1,14.48 -6.38,14.459 c -0.528,0.005 -1.057,0.035 -1.587,0.103 l 0.003,-0.003 c -0.002,0 -0.003,0 -0.005,0 -0.122,0.014 -0.25,0.033 -0.373,0.053 -0.988,0.152 -1.984,0.431 -2.985,0.892 -0.432,0.19 -0.868,0.422 -1.306,0.686 -3.777,2.301 -5.55,-1.729 -6.066,-3.119 0,-10e-4 0,-10e-4 0,-0.002 0,0 -10e-4,10e-4 -0.002,10e-4 -0.27,-0.723 -0.285,-1.285 -0.285,-1.285 h 0.001 v -0.003 c 0.384,0.155 0.765,0.227 1.134,0.238 0.624,0.022 1.377,-0.298 2.132,-0.742 0.256,-0.15 0.509,-0.312 0.764,-0.484 0.103,-0.072 0.206,-0.145 0.299,-0.221 0.826,-0.588 1.587,-1.266 2.293,-1.99 2.269,-2.343 4.424,-3.844 6.449,-4.715 -0.646,-1.888 -1.9,-3.826 -4.118,-5.629 0,0 0.474,-0.203 1.245,-0.418 0.617,0.359 1.418,0.95 1.669,1.7 0,0 0.26,-0.443 -0.936,-1.885 0.463,-0.104 0.987,-0.197 1.551,-0.256 0.353,0.468 0.805,1.141 0.874,1.617 0.009,-0.047 0.15,-0.813 -0.201,-1.67 0.577,-0.027 1.182,-0.014 1.796,0.064 -0.02,0.428 -0.024,0.99 0.032,1.536 0,0 0.32,-0.723 0.805,-1.387 0.527,0.12 1.051,0.294 1.563,0.538 -0.275,0.425 -0.654,1.16 -0.672,1.988 0,0 0.646,-1.061 1.296,-1.652 0.256,0.155 0.507,0.333 0.75,0.53 -0.085,-0.097 -0.171,-0.193 -0.246,-0.267 0.488,-0.382 1.008,-0.692 1.544,-0.947 0.676,0.597 1.19,1.294 1.19,1.294 -0.07,-0.597 -0.207,-1.198 -0.33,-1.65 0.638,-0.229 1.283,-0.387 1.907,-0.495 -0.173,0.999 0.159,1.787 0.18,1.834 -0.039,-0.525 0.285,-1.352 0.552,-1.937 0.617,-0.07 1.199,-0.094 1.72,-0.093 -0.938,1.826 -0.555,2.238 -0.555,2.238 0.09,-0.862 0.808,-1.685 1.383,-2.214 0.875,0.046 1.43,0.152 1.43,0.152 C 6.15,-0.158 5.35,2.706 5.367,5.235 6.623,6.121 7.743,7.163 8.695,8.226 8.694,8.231 8.699,8.232 8.704,8.234 c 1.717,1.921 2.914,3.871 3.508,4.932 l 14.963,0.353 c 2.507,0.404 4.461,2.795 4.461,2.795 z" /></g><g
         transform="translate(261.4285,266.70157)"
         id="g526"><path
           inkscape:connector-curvature="0"
           id="path528"
           style="fill:#1e312c;fill-opacity:1;fill-rule:nonzero;stroke:none"
           d="M 0,0 C 0,0 0.365,-0.324 0.759,-0.571 0.742,-0.706 0.713,-0.848 0.688,-0.988 0.456,-0.781 0.146,-0.444 0,0 M 0.83,0.622 C 0.798,0.643 0.759,0.663 0.736,0.684 c 0,0 0.035,0 0.087,0 C 0.824,0.663 0.829,0.644 0.83,0.622 M 2.839,8.151 C 2.841,8.146 2.843,8.142 2.844,8.138 2.367,8.262 1.895,8.352 1.43,8.392 1.164,8.418 0.897,8.429 0.633,8.432 0.591,8.433 0.546,8.434 0.505,8.432 0.296,8.436 0.09,8.428 -0.113,8.418 -0.178,8.418 -0.242,8.413 -0.307,8.41 -1.806,8.325 -3.249,8.031 -4.67,7.993 -5.246,7.978 -5.815,8.005 -6.386,8.106 c -0.068,0.012 -0.138,0.026 -0.206,0.04 -0.546,0.112 -1.093,0.295 -1.637,0.58 -0.235,0.117 -0.472,0.258 -0.708,0.418 -2.039,1.385 -3.137,-0.81 -3.462,-1.569 L -12.4,7.574 v 0.001 c -0.171,-0.396 -0.195,-0.708 -0.195,-0.708 v 0 -0.002 c 0.219,0.075 0.432,0.106 0.638,0.101 0.349,-0.005 0.759,-0.204 1.166,-0.471 0.139,-0.091 0.275,-0.188 0.412,-0.291 0.056,-0.043 0.111,-0.086 0.161,-0.131 0.443,-0.35 0.848,-0.749 1.221,-1.171 2.244,-2.561 4.35,-3.474 6.213,-3.477 -0.068,-1.175 -0.463,-2.477 -1.395,-3.862 0,0 0.312,-0.034 0.799,-0.022 0.297,0.318 0.659,0.805 0.672,1.287 0,0 0.229,-0.212 -0.211,-1.266 0.288,0.022 0.61,0.061 0.949,0.127 0.123,0.335 0.267,0.808 0.222,1.098 0.015,-0.026 0.232,-0.448 0.18,-1.01 0.341,0.087 0.692,0.202 1.036,0.356 -0.088,0.246 -0.19,0.574 -0.255,0.902 0,0 0.316,-0.365 0.716,-0.666 0.258,0.148 0.506,0.325 0.739,0.529 -0.022,-0.12 -0.031,-0.231 -0.06,-0.355 0,0 0.278,0.072 0.689,0.24 0.125,0.306 0.241,0.723 0.196,1.096 0.02,0.033 0.038,0.067 0.057,0.101 0.072,-0.135 0.154,-0.42 0.133,-1.03 0.239,0.113 0.502,0.249 0.77,0.415 C 2.449,-0.309 2.418,0.141 2.287,0.374 2.308,0.356 2.63,0.067 2.767,-0.429 3.03,-0.245 3.292,-0.033 3.536,0.21 3.381,0.391 3.188,0.637 3.027,0.896 c 0,0 0.387,-0.209 0.826,-0.336 0.191,0.232 0.363,0.487 0.505,0.768 -0.266,0.094 -0.683,0.289 -0.972,0.647 0,0 0.645,-0.248 1.132,-0.287 C 4.641,2.008 4.726,2.357 4.76,2.737 4.491,2.724 4,2.713 3.793,2.796 c 0,0 0.56,0.203 0.979,0.5 -0.028,0.714 -0.23,1.526 -0.671,2.446 0.306,0.411 0.544,0.77 0.708,1.031 l 8.338,-0.217 c 1.407,0.156 2.561,1.433 2.561,1.433 z" /></g><g
         transform="translate(88.9453,282.4556)"
         id="g530"><path
           inkscape:connector-curvature="0"
           id="path532"
           style="fill:#9f9f9f;fill-opacity:1;fill-rule:nonzero;stroke:none"
           d="m 0,0 c 19.303,-8.419 33.046,9.36 33.046,9.36 2.121,10.186 1.55,17.593 -0.55,22.958 -2.548,0.525 -5.553,0.323 -5.553,0.323 0.791,0.809 3.083,1.753 4.359,2.238 -0.93,1.691 -2.033,3.138 -3.253,4.37 -2.176,-1.172 -4.662,-3.628 -4.662,-3.628 0.613,2.247 2.15,3.995 3.188,4.97 -1.229,1.013 -2.542,1.845 -3.899,2.534 -1.775,-1.485 -3.142,-3.239 -3.142,-3.239 0.219,1.528 0.612,3.06 0.96,4.214 -1.623,0.631 -3.266,1.078 -4.86,1.398 0.373,-2.576 -0.53,-4.574 -0.59,-4.696 0.136,1.346 -0.638,3.491 -1.284,5.009 -1.577,0.224 -3.071,0.326 -4.407,0.359 2.282,-4.751 1.272,-5.784 1.272,-5.784 -0.173,2.22 -1.959,4.38 -3.399,5.778 C 4.977,46.103 3.545,45.871 3.545,45.871 22.347,20.814 0,0 0,0" /></g><g
         transform="translate(68.2461,280.8608)"
         id="g534"><path
           inkscape:connector-curvature="0"
           id="path536"
           style="fill:#e22229;fill-opacity:1;fill-rule:nonzero;stroke:none"
           d="m 0,0 c 1.132,0.471 2.26,0.701 3.353,0.746 1.85,0.088 4.093,-0.831 6.345,-2.116 0.764,-0.435 1.52,-0.905 2.283,-1.405 0.308,-0.212 0.617,-0.424 0.895,-0.643 2.47,-1.711 4.75,-3.693 6.873,-5.811 13.197,-13.291 25.031,-17.286 35.147,-16.328 11.428,1.089 20.673,8.504 27.273,16.068 -0.004,0.015 0.011,0.019 0.026,0.023 7.171,8.232 11.201,16.618 11.44,17.141 l 0.011,0.018 C 86.721,11.25 80.195,12.602 73.933,12.754 72.513,12.804 71.096,12.775 69.69,12.7 69.468,12.693 69.23,12.683 69.012,12.661 67.904,12.612 66.811,12.502 65.736,12.381 65.39,12.36 65.05,12.309 64.708,12.272 56.78,11.326 49.219,9.286 41.688,8.613 38.635,8.34 35.605,8.297 32.543,8.646 c -0.362,0.04 -0.742,0.09 -1.107,0.144 -2.935,0.413 -5.897,1.202 -8.881,2.531 -1.287,0.547 -2.589,1.218 -3.897,1.983 C 7.379,19.98 2.276,7.969 0.8,3.829 0.021,1.669 0,0 0,0" /></g><g
         transform="translate(123.1421,255.3037)"
         id="g538"><path
           inkscape:connector-curvature="0"
           id="path540"
           style="fill:#ffffff;fill-opacity:1;fill-rule:nonzero;stroke:none"
           d="m 0,0 c 11.428,1.089 20.673,8.504 27.273,16.068 -0.004,0.015 0.011,0.019 0.026,0.023 7.171,8.232 11.201,16.618 11.44,17.141 l 0.011,0.018 c -6.925,3.558 -13.451,4.909 -19.713,5.062 -1.42,0.049 -2.837,0.02 -4.243,-0.055 C 14.572,38.25 14.334,38.24 14.116,38.218 13.008,38.169 11.915,38.06 10.84,37.938 13.259,28.518 15.265,10.644 0,0" /></g><g
         transform="translate(100.7891,289.5073)"
         id="g542"><path
           inkscape:connector-curvature="0"
           id="path544"
           style="fill:#1e312c;fill-opacity:1;fill-rule:nonzero;stroke:none"
           d="m 0,0 c 33.093,-33.828 60.619,-1.521 61.092,-0.972 l 0.011,0.019 C 54.178,2.604 47.652,3.956 41.39,4.108 39.97,4.158 38.553,4.128 37.147,4.054 36.925,4.047 36.688,4.037 36.469,4.015 35.014,3.944 33.578,3.798 32.165,3.625 24.237,2.679 16.676,0.639 9.145,-0.034 6.092,-0.306 3.062,-0.349 0,0" /></g><g
         transform="translate(68.2461,280.8608)"
         id="g546"><path
           inkscape:connector-curvature="0"
           id="path548"
           style="fill:#1e312c;fill-opacity:1;fill-rule:nonzero;stroke:none"
           d="m 0,0 c 1.132,0.471 2.26,0.701 3.353,0.746 1.85,0.088 4.093,-0.831 6.345,-2.116 0.764,-0.435 1.52,-0.905 2.283,-1.405 0.308,-0.212 0.617,-0.424 0.895,-0.643 8.453,4.068 10.056,10.031 9.679,14.739 -1.287,0.547 -2.589,1.218 -3.897,1.983 C 7.379,19.98 2.276,7.969 0.8,3.829 0.021,1.669 0,0 0,0" /></g><g
         transform="translate(68.2437,280.8691)"
         id="g550"><path
           inkscape:connector-curvature="0"
           id="path552"
           style="fill:#e22229;fill-opacity:1;fill-rule:nonzero;stroke:none"
           d="M 0,0 C 1.132,0.467 2.254,0.701 3.355,0.749 2.67,2.186 1.705,3.164 0.797,3.82 0.025,1.665 0,0 0,0" /></g><g
         transform="translate(76.9141,287.853)"
         id="g554"><path
           inkscape:connector-curvature="0"
           id="path556"
           style="fill:#ffffff;fill-opacity:1;fill-rule:nonzero;stroke:none"
           d="M 0,0 C 0.437,-0.614 1.29,-0.757 1.903,-0.32 2.518,0.118 2.66,0.97 2.223,1.584 1.785,2.198 0.933,2.341 0.319,1.903 -0.294,1.466 -0.437,0.613 0,0" /></g><g
         transform="translate(77.1997,288.0562)"
         id="g558"><path
           inkscape:connector-curvature="0"
           id="path560"
           style="fill:#2d2023;fill-opacity:1;fill-rule:nonzero;stroke:none"
           d="M 0,0 C 0.325,-0.456 0.958,-0.562 1.415,-0.237 1.871,0.088 1.977,0.721 1.652,1.177 1.327,1.633 0.693,1.74 0.237,1.415 -0.219,1.089 -0.325,0.456 0,0" /></g><g
         id="g562"><g
           id="g564" /><g
           id="g576"><g
             style="opacity:0.5"
             id="g574"
             clip-path="url(#clipPath568)"><g
               id="g572"
               transform="translate(131.5239,281.9395)"><path
                 inkscape:connector-curvature="0"
                 id="path570"
                 style="fill:#1e312c;fill-opacity:1;fill-rule:nonzero;stroke:none"
                 d="M 0,0 C 0,0 8.39,5.739 10.657,11.674 9.236,11.719 7.82,11.698 6.419,11.623 6.267,11.497 6.117,11.35 5.966,11.188 3.66,8.694 0,0 0,0" /></g></g></g></g><g
         transform="translate(94.9126,290.6763)"
         id="g578"><path
           inkscape:connector-curvature="0"
           id="path580"
           style="fill:#1e312c;fill-opacity:1;fill-rule:nonzero;stroke:none"
           d="m 0,0 c 13.951,-18.381 36.608,-8.738 36.608,-8.738 7.48,8.604 10.899,15.992 11.762,22.246 -2.156,1.866 -5.137,3.281 -5.137,3.281 1.19,0.35 3.887,0.026 5.366,-0.193 0.016,2.114 -0.265,4.089 -0.771,5.92 -2.708,0.044 -6.4,-0.974 -6.4,-0.974 1.789,1.82 4.194,2.669 5.709,3.046 -0.634,1.627 -1.444,3.124 -2.372,4.51 -2.492,-0.47 -4.738,-1.415 -4.738,-1.415 1.028,1.343 2.223,2.597 3.173,3.515 -1.214,1.472 -2.546,2.779 -3.899,3.938 -1.021,-2.663 -2.955,-4.09 -3.076,-4.174 0.85,1.214 1.258,3.679 1.453,5.476 -1.389,1.059 -2.762,1.956 -4.023,2.703 -0.361,-5.765 -1.879,-6.212 -1.879,-6.212 1.023,2.216 0.471,5.236 -0.158,7.344 -2.182,1.146 -3.676,1.69 -3.676,1.69 C 32.508,7.941 0,0 0,0" /></g><g
         transform="translate(149.7393,292.8037)"
         id="g582"><path
           inkscape:connector-curvature="0"
           id="path584"
           style="fill:#1e312c;fill-opacity:1;fill-rule:nonzero;stroke:none"
           d="m 0,0 68.359,3.409 c 0,0 -5.702,-7.16 -13.116,-8.455 L 10.912,-6.66 C 10.912,-6.66 2.745,-7.327 0,0" /></g><g
         transform="translate(252.083,234.332)"
         id="g586"><path
           inkscape:connector-curvature="0"
           id="path588"
           style="fill:#9f9f9f;fill-opacity:1;fill-rule:nonzero;stroke:none"
           d="m 0,0 c 16.221,0.789 21.266,-15.791 21.266,-15.791 -1.258,-7.924 -3.697,-13.108 -6.679,-16.401 -1.981,0.318 -4.092,1.286 -4.092,1.286 0.349,-0.8 1.743,-2.108 2.53,-2.807 -1.132,-0.965 -2.324,-1.706 -3.54,-2.261 -1.249,1.441 -2.37,3.892 -2.37,3.892 -0.172,-1.788 0.457,-3.469 0.939,-4.456 -1.163,-0.395 -2.337,-0.634 -3.504,-0.76 -0.874,1.556 -1.38,3.194 -1.38,3.194 -0.259,-1.161 -0.395,-2.373 -0.461,-3.299 -1.342,-0.012 -2.649,0.115 -3.886,0.321 0.974,1.755 0.869,3.442 0.86,3.547 -0.27,-1.008 -1.415,-2.343 -2.297,-3.261 -1.199,0.271 -2.303,0.607 -3.276,0.948 2.946,2.801 2.5,3.822 2.5,3.822 -0.732,-1.553 -2.61,-2.621 -4.031,-3.236 -1.605,0.659 -2.575,1.218 -2.575,1.218 C 10.417,-21.122 0,0 0,0" /></g><g
         transform="translate(226.2603,231.7549)"
         id="g590"><path
           inkscape:connector-curvature="0"
           id="path592"
           style="fill:#e22229;fill-opacity:1;fill-rule:nonzero;stroke:none"
           d="M 0,0 C 0.867,0.234 1.707,0.293 2.504,0.222 3.855,0.109 5.395,-0.772 6.907,-1.92 7.42,-2.31 7.923,-2.723 8.43,-3.158 c 0.203,-0.184 0.406,-0.366 0.588,-0.553 1.628,-1.477 3.094,-3.134 4.432,-4.873 8.308,-10.907 16.514,-14.937 23.947,-15.208 8.398,-0.302 15.816,4.196 21.328,9.055 -0.001,0.011 0.01,0.012 0.022,0.013 5.99,5.289 9.715,10.991 9.939,11.347 l 0.01,0.013 C 64.01,-0.121 59.403,1.483 54.874,2.192 53.848,2.364 52.816,2.479 51.789,2.559 51.627,2.575 51.454,2.59 51.293,2.595 50.484,2.665 49.681,2.69 48.89,2.705 48.636,2.723 48.385,2.718 48.132,2.724 42.289,2.794 36.606,2.036 31.077,2.268 28.835,2.361 26.632,2.62 24.443,3.166 c -0.258,0.063 -0.53,0.136 -0.79,0.21 -2.09,0.58 -4.164,1.436 -6.203,2.686 -0.882,0.519 -1.762,1.13 -2.638,1.811 C 7.264,13.796 2.413,5.566 0.946,2.703 0.174,1.21 0,0 0,0" /></g><g
         transform="translate(263.6577,207.9629)"
         id="g594"><path
           inkscape:connector-curvature="0"
           id="path596"
           style="fill:#ffffff;fill-opacity:1;fill-rule:nonzero;stroke:none"
           d="m 0,0 c 8.397,-0.302 15.815,4.196 21.328,9.055 -10e-4,0.011 0.01,0.012 0.021,0.013 5.991,5.289 9.716,10.991 9.94,11.347 l 0.01,0.013 c -4.686,3.243 -9.293,4.847 -13.823,5.556 -1.026,0.172 -2.057,0.287 -3.084,0.367 -0.163,0.016 -0.336,0.031 -0.496,0.036 -0.809,0.07 -1.613,0.095 -2.404,0.11 C 12.347,19.43 12.095,6.266 0,0" /></g><g
         transform="translate(250.708,234.9258)"
         id="g598"><path
           inkscape:connector-curvature="0"
           id="path600"
           style="fill:#1e312c;fill-opacity:1;fill-rule:nonzero;stroke:none"
           d="m 0,0 c 9.781,-13.043 20.072,-15.342 28.261,-14.076 1.069,0.165 2.096,0.393 3.085,0.663 7.563,2.055 12.71,6.701 12.897,6.87 l 0.01,0.013 c -2.393,1.656 -4.76,2.881 -7.115,3.785 -2.246,0.86 -4.483,1.424 -6.707,1.771 -1.026,0.172 -2.057,0.287 -3.085,0.367 -0.162,0.016 -0.335,0.031 -0.496,0.036 -0.242,0.018 -0.485,0.038 -0.725,0.045 -0.819,0.057 -1.634,0.082 -2.436,0.084 C 17.846,-0.371 12.163,-1.13 6.634,-0.898 4.392,-0.804 2.189,-0.546 0,0" /></g><g
         transform="translate(226.2603,231.7549)"
         id="g602"><path
           inkscape:connector-curvature="0"
           id="path604"
           style="fill:#1e312c;fill-opacity:1;fill-rule:nonzero;stroke:none"
           d="M 0,0 C 0.867,0.234 1.707,0.293 2.504,0.222 3.855,0.109 5.395,-0.772 6.907,-1.92 7.42,-2.31 7.923,-2.723 8.43,-3.158 8.633,-3.342 8.836,-3.524 9.018,-3.711 15.541,-1.565 17.273,2.608 17.45,6.062 16.568,6.581 15.688,7.192 14.812,7.873 7.264,13.796 2.413,5.566 0.946,2.703 0.174,1.21 0,0 0,0" /></g><g
         transform="translate(226.2593,231.7617)"
         id="g606"><path
           inkscape:connector-curvature="0"
           id="path608"
           style="fill:#e22229;fill-opacity:1;fill-rule:nonzero;stroke:none"
           d="M 0,0 C 0.866,0.23 1.703,0.293 2.506,0.223 2.147,1.331 1.54,2.133 0.943,2.695 0.177,1.206 0,0 0,0" /></g><g
         transform="translate(233.2187,236.001)"
         id="g610"><path
           inkscape:connector-curvature="0"
           id="path612"
           style="fill:#ffffff;fill-opacity:1;fill-rule:nonzero;stroke:none"
           d="M 0,0 C 0.259,-0.486 0.864,-0.672 1.351,-0.413 1.838,-0.154 2.023,0.45 1.765,0.937 1.506,1.425 0.901,1.61 0.414,1.352 -0.074,1.093 -0.259,0.487 0,0" /></g><g
         transform="translate(233.4453,236.1221)"
         id="g614"><path
           inkscape:connector-curvature="0"
           id="path616"
           style="fill:#2d2023;fill-opacity:1;fill-rule:nonzero;stroke:none"
           d="m 0,0 c 0.192,-0.362 0.642,-0.5 1.004,-0.308 0.362,0.193 0.5,0.642 0.308,1.004 C 1.119,1.059 0.669,1.196 0.308,1.004 -0.055,0.812 -0.192,0.362 0,0" /></g><g
         transform="translate(286.543,232.6357)"
         id="g618"><path
           inkscape:connector-curvature="0"
           id="path620"
           style="fill:#1e312c;fill-opacity:1;fill-rule:nonzero;stroke:none"
           d="m 0,0 49.936,-4.058 c 0,0 -4.822,-4.651 -10.327,-4.882 L 7.283,-5.876 C 7.283,-5.876 1.292,-5.58 0,0" /></g><g
         transform="translate(288.2217,230.9004)"
         id="g622"><path
           inkscape:connector-curvature="0"
           id="path624"
           style="fill:#1e312c;fill-opacity:1;fill-rule:nonzero;stroke:none"
           d="m 0,0 c -15.593,8.577 -28.532,-5.322 -28.532,-5.322 -2.573,-8.407 -2.665,-14.685 -1.312,-19.362 2.104,-0.639 4.648,-0.701 4.648,-0.701 -0.728,-0.62 -2.73,-1.237 -3.841,-1.547 0.652,-1.494 1.468,-2.797 2.399,-3.928 1.922,0.817 4.204,2.692 4.204,2.692 -0.69,-1.843 -2.118,-3.195 -3.067,-3.936 0.956,-0.948 1.997,-1.749 3.085,-2.433 1.608,1.111 2.895,2.482 2.895,2.482 -0.303,-1.268 -0.752,-2.527 -1.134,-3.471 1.317,-0.657 2.665,-1.161 3.982,-1.552 -0.115,2.195 0.8,3.807 0.859,3.905 -0.218,-1.122 0.267,-2.987 0.693,-4.314 1.31,-0.311 2.559,-0.512 3.682,-0.643 -1.554,4.175 -0.624,4.966 -0.624,4.966 -0.026,-1.882 1.31,-3.837 2.414,-5.125 1.897,-0.123 3.12,-0.038 3.12,-0.038 C -20.414,-15.788 0,0 0,0" /></g><g
         transform="translate(136.2471,164.6211)"
         id="g626"><path
           inkscape:connector-curvature="0"
           id="path628"
           style="fill:#9f9f9f;fill-opacity:1;fill-rule:nonzero;stroke:none"
           d="m 0,0 c 7.647,8.273 18.201,2.517 18.201,2.517 3.228,-4.535 4.54,-8.286 4.664,-11.366 -1.136,-0.804 -2.651,-1.351 -2.651,-1.351 0.561,-0.227 1.888,-0.196 2.617,-0.16 -0.093,-1.028 -0.322,-1.974 -0.655,-2.839 -1.318,0.105 -3.064,0.774 -3.064,0.774 0.784,-0.969 1.912,-1.495 2.63,-1.749 -0.384,-0.761 -0.848,-1.45 -1.365,-2.079 -1.189,0.346 -2.235,0.911 -2.235,0.911 0.435,-0.701 0.957,-1.367 1.375,-1.858 -0.659,-0.657 -1.368,-1.23 -2.08,-1.729 -0.371,1.342 -1.243,2.126 -1.298,2.173 0.356,-0.63 0.438,-1.847 0.447,-2.729 -0.725,-0.45 -1.434,-0.82 -2.082,-1.123 0.097,2.818 -0.62,3.107 -0.62,3.107 0.393,-1.125 -0.018,-2.567 -0.423,-3.561 -1.115,-0.455 -1.866,-0.648 -1.866,-0.648 C 15.42,-5.395 0,0 0,0" /></g><g
         transform="translate(112.1138,165.4326)"
         id="g630"><path
           inkscape:connector-curvature="0"
           id="path632"
           style="fill:#e22229;fill-opacity:1;fill-rule:nonzero;stroke:none"
           d="m 0,0 c 0.59,0.203 1.17,0.284 1.726,0.272 0.943,-0.013 2.052,-0.551 3.156,-1.275 0.374,-0.246 0.743,-0.509 1.115,-0.787 0.149,-0.117 0.299,-0.234 0.434,-0.355 1.2,-0.947 2.295,-2.026 3.305,-3.168 6.281,-7.169 12.164,-9.575 17.332,-9.409 5.839,0.191 10.769,3.663 14.361,7.295 -0.002,0.008 0.006,0.009 0.014,0.01 3.903,3.953 6.216,8.085 6.353,8.343 l 0.007,0.009 c -3.404,2.026 -6.676,2.919 -9.851,3.196 -0.72,0.07 -1.44,0.1 -2.157,0.106 C 35.683,4.241 35.562,4.243 35.45,4.239 34.886,4.25 34.327,4.229 33.778,4.201 33.601,4.201 33.427,4.187 33.251,4.179 29.196,3.949 25.291,3.153 21.445,3.051 19.886,3.01 18.346,3.084 16.802,3.358 16.619,3.39 16.428,3.427 16.244,3.466 14.767,3.769 13.287,4.264 11.814,5.033 11.178,5.352 10.538,5.734 9.898,6.164 4.382,9.913 1.409,3.975 0.528,1.919 0.063,0.847 0,0 0,0" /></g><g
         transform="translate(139.1821,150.7109)"
         id="g634"><path
           inkscape:connector-curvature="0"
           id="path636"
           style="fill:#ffffff;fill-opacity:1;fill-rule:nonzero;stroke:none"
           d="m 0,0 c 5.838,0.19 10.769,3.663 14.36,7.295 -10e-4,0.008 0.007,0.009 0.015,0.01 3.903,3.953 6.215,8.085 6.353,8.342 l 0.006,0.009 c -3.403,2.027 -6.675,2.92 -9.85,3.197 -0.72,0.07 -1.441,0.1 -2.157,0.106 C 8.614,18.963 8.493,18.965 8.381,18.961 7.817,18.972 7.259,18.95 6.709,18.923 7.639,14.063 8.09,4.921 0,0" /></g><g
         transform="translate(128.9155,168.791)"
         id="g638"><path
           inkscape:connector-curvature="0"
           id="path640"
           style="fill:#1e312c;fill-opacity:1;fill-rule:nonzero;stroke:none"
           d="m 0,0 c 15.733,-18.23 30.737,-2.696 30.995,-2.433 l 0.006,0.009 C 27.597,-0.397 24.326,0.496 21.15,0.772 20.431,0.843 19.71,0.873 18.994,0.879 18.881,0.883 18.76,0.885 18.648,0.881 17.907,0.892 17.173,0.862 16.45,0.82 12.394,0.591 8.489,-0.205 4.643,-0.308 3.084,-0.349 1.544,-0.274 0,0" /></g><g
         transform="translate(112.1138,165.4326)"
         id="g642"><path
           inkscape:connector-curvature="0"
           id="path644"
           style="fill:#1e312c;fill-opacity:1;fill-rule:nonzero;stroke:none"
           d="M 0,0 C 0.59,0.203 1.17,0.284 1.726,0.272 2.669,0.259 3.778,-0.279 4.882,-1.003 5.256,-1.249 5.625,-1.512 5.997,-1.79 6.146,-1.907 6.296,-2.024 6.431,-2.145 10.853,-0.347 11.856,2.631 11.814,5.033 11.178,5.352 10.538,5.734 9.898,6.164 4.382,9.913 1.409,3.975 0.528,1.919 0.063,0.847 0,0 0,0" /></g><g
         transform="translate(112.1128,165.4365)"
         id="g646"><path
           inkscape:connector-curvature="0"
           id="path648"
           style="fill:#e22229;fill-opacity:1;fill-rule:nonzero;stroke:none"
           d="M 0,0 C 0.59,0.201 1.167,0.285 1.728,0.274 1.426,1.025 0.966,1.553 0.526,1.915 0.065,0.845 0,0 0,0" /></g><g
         transform="translate(116.7378,168.708)"
         id="g650"><path
           inkscape:connector-curvature="0"
           id="path652"
           style="fill:#ffffff;fill-opacity:1;fill-rule:nonzero;stroke:none"
           d="M 0,0 C 0.203,-0.325 0.631,-0.425 0.957,-0.223 1.282,-0.02 1.382,0.409 1.179,0.734 0.977,1.06 0.548,1.16 0.223,0.957 -0.103,0.754 -0.203,0.326 0,0" /></g><g
         transform="translate(116.8892,168.8027)"
         id="g654"><path
           inkscape:connector-curvature="0"
           id="path656"
           style="fill:#2d2023;fill-opacity:1;fill-rule:nonzero;stroke:none"
           d="M 0,0 C 0.151,-0.242 0.469,-0.316 0.711,-0.166 0.953,-0.015 1.027,0.304 0.876,0.545 0.726,0.787 0.407,0.861 0.166,0.711 -0.077,0.561 -0.15,0.242 0,0" /></g><g
         transform="translate(153.8799,168.9111)"
         id="g658"><path
           inkscape:connector-curvature="0"
           id="path660"
           style="fill:#1e312c;fill-opacity:1;fill-rule:nonzero;stroke:none"
           d="m 0,0 34.825,-0.438 c 0,0 -3.123,-3.456 -6.93,-3.878 L 5.33,-3.729 c 0,0 -4.168,-0.08 -5.33,3.729" /></g><g
         transform="translate(131.4404,167.0078)"
         id="g662"><path
           inkscape:connector-curvature="0"
           id="path664"
           style="fill:#1e312c;fill-opacity:1;fill-rule:nonzero;stroke:none"
           d="m 0,0 c 11.049,5.506 19.626,-4.492 19.626,-4.492 1.546,-5.9 1.434,-10.253 0.364,-13.456 -1.475,-0.384 -3.241,-0.356 -3.241,-0.356 0.487,-0.45 1.857,-0.934 2.619,-1.179 -0.494,-1.018 -1.097,-1.899 -1.773,-2.657 -1.31,0.621 -2.839,1.985 -2.839,1.985 0.427,-1.297 1.378,-2.275 2.015,-2.815 -0.689,-0.63 -1.433,-1.155 -2.207,-1.599 -1.083,0.816 -1.936,1.801 -1.936,1.801 0.174,-0.887 0.45,-1.772 0.688,-2.437 -0.931,-0.418 -1.88,-0.729 -2.803,-0.964 0.141,1.519 -0.448,2.662 -0.486,2.732 0.12,-0.785 -0.269,-2.064 -0.602,-2.971 -0.917,-0.179 -1.788,-0.282 -2.57,-0.342 1.195,2.85 0.572,3.424 0.572,3.424 -0.035,-1.305 -1.015,-2.622 -1.817,-3.485 -1.318,-0.031 -2.164,0.062 -2.164,0.062 C 13.705,-11.518 0,0 0,0" /></g><g
         transform="translate(304.3618,346.0327)"
         id="g666"><path
           inkscape:connector-curvature="0"
           id="path668"
           style="fill:#9f9f9f;fill-opacity:1;fill-rule:nonzero;stroke:none"
           d="m 0,0 c 16.202,-0.335 20.078,-17.189 20.078,-17.189 -1.799,-7.802 -4.585,-12.794 -7.782,-15.867 -1.949,0.454 -3.984,1.564 -3.984,1.564 0.292,-0.821 1.59,-2.219 2.325,-2.969 -1.195,-0.882 -2.432,-1.538 -3.681,-2.006 -1.144,1.52 -2.09,4.038 -2.09,4.038 -0.295,-1.768 0.215,-3.485 0.627,-4.501 -1.185,-0.312 -2.371,-0.47 -3.541,-0.514 -0.763,1.609 -1.153,3.276 -1.153,3.276 -0.339,-1.139 -0.557,-2.336 -0.686,-3.254 -1.338,0.081 -2.631,0.298 -3.847,0.589 1.09,1.679 1.103,3.367 1.101,3.471 -0.339,-0.984 -1.571,-2.234 -2.512,-3.087 -1.174,0.352 -2.251,0.762 -3.196,1.17 3.127,2.585 2.753,3.632 2.753,3.632 -0.836,-1.496 -2.78,-2.43 -4.237,-2.943 -1.552,0.767 -2.478,1.391 -2.478,1.391 C 8.91,-21.747 0,0 0,0" /></g><g
         transform="translate(267.9624,341.8628)"
         id="g670"><path
           inkscape:connector-curvature="0"
           id="path672"
           style="fill:#e22229;fill-opacity:1;fill-rule:nonzero;stroke:none"
           d="m 0,0 c 0.853,0.278 1.689,0.381 2.489,0.351 1.356,-0.042 2.939,-0.842 4.509,-1.91 0.532,-0.361 1.057,-0.748 1.585,-1.157 0.212,-0.172 0.425,-0.345 0.615,-0.521 1.704,-1.391 3.254,-2.969 4.68,-4.636 8.864,-10.46 17.269,-14.058 24.706,-13.942 8.403,0.135 15.576,5.013 20.829,10.152 -0.002,0.011 0.009,0.013 0.02,0.015 5.708,5.594 9.131,11.481 9.336,11.849 l 0.009,0.012 C 63.93,3.208 59.246,4.571 54.686,5.043 53.652,5.162 52.616,5.222 51.586,5.249 51.423,5.256 51.25,5.263 51.089,5.259 50.277,5.287 49.474,5.27 48.683,5.244 48.428,5.249 48.178,5.23 47.925,5.224 42.086,4.99 36.451,3.938 30.917,3.881 28.673,3.858 26.46,4.001 24.246,4.433 23.984,4.482 23.709,4.541 23.446,4.601 21.329,5.072 19.212,5.819 17.111,6.96 16.204,7.434 15.293,7.998 14.382,8.632 6.537,14.154 2.12,5.684 0.805,2.749 0.111,1.217 0,0 0,0" /></g><g
         transform="translate(306.5469,320.0474)"
         id="g674"><path
           inkscape:connector-curvature="0"
           id="path676"
           style="fill:#ffffff;fill-opacity:1;fill-rule:nonzero;stroke:none"
           d="m 0,0 c 8.402,0.136 15.576,5.014 20.828,10.152 -0.002,0.012 0.009,0.014 0.021,0.015 5.707,5.594 9.131,11.481 9.336,11.849 l 0.009,0.013 c -4.849,2.995 -9.532,4.357 -14.093,4.83 -1.034,0.118 -2.069,0.178 -3.099,0.205 -0.163,0.008 -0.337,0.014 -0.498,0.01 -0.811,0.029 -1.615,0.011 -2.406,-0.014 C 11.32,20.046 11.753,6.887 0,0" /></g><g
         transform="translate(292.208,346.2959)"
         id="g678"><path
           inkscape:connector-curvature="0"
           id="path680"
           style="fill:#1e312c;fill-opacity:1;fill-rule:nonzero;stroke:none"
           d="m 0,0 c 22.198,-26.594 44.147,-4.605 44.523,-4.232 l 0.01,0.012 C 39.684,-1.225 35,0.138 30.44,0.61 29.406,0.729 28.371,0.789 27.341,0.815 27.178,0.823 27.004,0.83 26.843,0.826 25.778,0.858 24.721,0.834 23.68,0.791 17.841,0.557 12.205,-0.496 6.671,-0.552 4.428,-0.575 2.214,-0.432 0,0" /></g><g
         transform="translate(267.9624,341.8628)"
         id="g682"><path
           inkscape:connector-curvature="0"
           id="path684"
           style="fill:#1e312c;fill-opacity:1;fill-rule:nonzero;stroke:none"
           d="M 0,0 C 0.853,0.278 1.689,0.381 2.489,0.351 3.845,0.309 5.428,-0.491 6.998,-1.559 7.53,-1.92 8.055,-2.307 8.583,-2.716 8.795,-2.888 9.008,-3.061 9.198,-3.237 15.602,-0.756 17.115,3.503 17.111,6.96 16.204,7.434 15.293,7.998 14.382,8.632 6.537,14.154 2.12,5.684 0.805,2.749 0.111,1.217 0,0 0,0" /></g><g
         transform="translate(267.9614,341.8691)"
         id="g686"><path
           inkscape:connector-curvature="0"
           id="path688"
           style="fill:#e22229;fill-opacity:1;fill-rule:nonzero;stroke:none"
           d="M 0,0 C 0.853,0.275 1.685,0.381 2.491,0.353 2.075,1.441 1.426,2.21 0.802,2.741 0.114,1.213 0,0 0,0" /></g><g
         transform="translate(274.6904,346.4653)"
         id="g690"><path
           inkscape:connector-curvature="0"
           id="path692"
           style="fill:#ffffff;fill-opacity:1;fill-rule:nonzero;stroke:none"
           d="M 0,0 C 0.284,-0.473 0.898,-0.627 1.371,-0.343 1.844,-0.059 1.998,0.555 1.714,1.028 1.43,1.501 0.816,1.654 0.343,1.371 -0.13,1.087 -0.284,0.473 0,0" /></g><g
         transform="translate(274.9106,346.5972)"
         id="g694"><path
           inkscape:connector-curvature="0"
           id="path696"
           style="fill:#2d2023;fill-opacity:1;fill-rule:nonzero;stroke:none"
           d="M 0,0 C 0.211,-0.352 0.667,-0.466 1.019,-0.255 1.37,-0.044 1.484,0.412 1.273,0.764 1.062,1.115 0.606,1.229 0.255,1.019 -0.097,0.808 -0.211,0.352 0,0" /></g><g
         transform="translate(328.1177,345.8779)"
         id="g698"><path
           inkscape:connector-curvature="0"
           id="path700"
           style="fill:#1e312c;fill-opacity:1;fill-rule:nonzero;stroke:none"
           d="m 0,0 50.08,-1.455 c 0,0 -4.574,-4.896 -10.059,-5.413 L 7.579,-5.489 C 7.579,-5.489 1.581,-5.505 0,0" /></g><g
         transform="translate(294.0073,345.5879)"
         id="g702"><path
           inkscape:connector-curvature="0"
           id="path704"
           style="fill:#1e312c;fill-opacity:1;fill-rule:nonzero;stroke:none"
           d="m 0,0 c 15.487,-8.69 10.531,-26.981 10.531,-26.981 -5.767,-6.611 -11.038,-9.998 -15.714,-11.317 -1.65,1.445 -3.044,3.569 -3.044,3.569 -0.141,-0.945 0.392,-2.966 0.715,-4.07 -1.61,-0.236 -3.145,-0.231 -4.594,-0.039 -0.32,2.06 0.065,4.982 0.065,4.982 -1.197,-1.557 -1.591,-3.479 -1.718,-4.674 -1.307,0.311 -2.533,0.77 -3.688,1.331 0.094,1.949 0.577,3.761 0.577,3.761 -0.915,-0.925 -1.744,-1.969 -2.343,-2.79 -1.251,0.77 -2.388,1.647 -3.414,2.556 1.921,1.06 2.804,2.685 2.856,2.786 -0.835,-0.776 -2.671,-1.348 -4.021,-1.686 -0.954,0.947 -1.782,1.899 -2.485,2.78 4.356,0.884 4.536,2.089 4.536,2.089 -1.581,-1.013 -3.941,-0.912 -5.614,-0.656 -1.105,1.543 -1.678,2.624 -1.678,2.624 C -2.616,-25.619 0,0 0,0" /></g><g
         transform="translate(304.5386,318.6069)"
         id="g706"><path
           inkscape:connector-curvature="0"
           id="path708"
           style="fill:#1e312c;fill-opacity:1;fill-rule:nonzero;stroke:none"
           d="m 0,0 c 0,0 15.155,15.764 13.03,23.173 0,0 -16.247,1.375 -23.561,3.808" /></g><g
         transform="translate(335.26512,231.14014)"
         id="g710"><path
           inkscape:connector-curvature="0"
           id="path712"
           style="fill:#1e312c;fill-opacity:1;fill-rule:nonzero;stroke:none"
           d="m -106.46187,106.99153 c 1.738,0.668 2.781,2.679 2.781,2.679 l -16.433,-4.091 c 0.003,-0.005 0.007,-0.01 0.011,-0.015 -0.649,-0.002 -1.28,-0.045 -1.885,-0.149 -0.348,-0.056 -0.69,-0.131 -1.028,-0.216 -0.053,-0.012 -0.111,-0.026 -0.163,-0.041 -0.266,-0.065 -0.527,-0.144 -0.782,-0.225 -0.083,-0.022 -0.163,-0.05 -0.244,-0.075 -1.88,-0.609 -3.618,-1.465 -5.414,-1.988 -0.728,-0.212 -1.462,-0.366 -2.222,-0.428 -0.089,-0.008 -0.184,-0.013 -0.275,-0.018 -0.732,-0.04 -1.49,0.01 -2.277,0.191 -0.339,0.071 -0.687,0.171 -1.041,0.295 -3.057,1.082 -3.722,-2.077 -3.883,-3.151999 v -0.002 l -0.001,0.001 c -0.085,-0.56 -0.012,-0.966 -0.012,-0.966 l 0.001,10e-4 0.001,-0.003 c 0.252,0.169 0.514,0.279 0.778,0.342 0.444,0.11 1.033,-0.007 1.641,-0.211 0.207,-0.07 0.412,-0.147 0.621,-0.232 0.086,-0.037 0.17,-0.074 0.248,-0.114 0.682,-0.297 1.33,-0.669 1.947,-1.083 0.699,-0.473 1.365,-0.851 2.014,-1.185 -0.949,-2.004 -2.771,-3.972 -6.216,-4.953 0,0 0.285,-0.3 0.785,-0.701 0.568,0.069 1.346,0.251 1.768,0.725 0,0 0.051,-0.408 -1.286,-1.093 0.309,-0.223 0.665,-0.458 1.062,-0.679 0.408,0.233 0.954,0.587 1.155,0.916 -0.007,-0.038 -0.147,-0.647 -0.676,-1.168 0.417,-0.202 0.867,-0.383 1.344,-0.52 0.12,0.322 0.295,0.737 0.509,1.121 0,0 0.008,-0.633 0.155,-1.276 0.427,-0.078 0.868,-0.116 1.322,-0.098 -0.068,0.401 -0.115,1.062 0.133,1.679 0,0 0.141,-0.987 0.433,-1.628 0.489,0.069 0.989,0.208 1.491,0.431 -0.206,0.33 -0.563,0.94 -0.603,1.26 0,0 0.647,-0.564 1.316,-0.884 0.696,0.425 1.394,1.03 2.076,1.86 -0.018,-0.028 -0.03,-0.049 -0.049,-0.077 0.344,-0.047 0.732,-0.082 1.147,-0.089 0.228,0.362 0.515,0.882 0.536,1.233 0.01,-0.034 0.16,-0.584 -0.042,-1.23 0.422,0.016 0.863,0.064 1.305,0.159 -0.041,0.31 -0.079,0.72 -0.072,1.121 0,0 0.278,-0.507 0.673,-0.961 0.377,0.121 0.748,0.281 1.106,0.49 -0.227,0.294 -0.549,0.806 -0.614,1.408 0,0 0.537,-0.733 1.048,-1.124 0.364,0.266 0.707,0.593 1.015,0.989 -0.308,0.177 -0.857,0.514 -1.027,0.754 0,0 0.763,-0.175 1.439,-0.146 0.706,1.199 1.139,2.913 1.099,5.313 0.297,0.42 0.575,0.846 0.82,1.269999 -0.002,0.003 0.002,0.005 0.005,0.007 0.948,1.646 1.508,3.221 1.773,4.068 h 0.002 z" /></g><g
         transform="translate(179.74539,218.6535)"
         id="g714"><path
           inkscape:connector-curvature="0"
           id="path716"
           style="fill:#1e312c;fill-opacity:1;fill-rule:nonzero;stroke:none"
           d="m 0,0 v -0.001 c -0.867,0.168 -1.718,0.255 -2.554,0.275 -0.279,0.01 -0.556,0.009 -0.834,0.003 0.676,1.293 1.057,2.481 1.206,3.568 -0.727,0.63 -1.735,1.108 -1.735,1.108 0.402,0.118 1.313,0.008 1.813,-0.065 0.005,0.714 -0.089,1.381 -0.26,1.999 -0.915,0.015 -2.162,-0.328 -2.162,-0.328 0.604,0.614 1.417,0.901 1.928,1.028 -0.214,0.55 -0.487,1.056 -0.801,1.524 C -4.241,8.952 -5,8.633 -5,8.633 c 0.348,0.453 0.751,0.877 1.072,1.187 -0.41,0.497 -0.86,0.939 -1.317,1.33 -0.345,-0.899 -0.998,-1.381 -1.039,-1.41 0.287,0.41 0.425,1.243 0.491,1.85 -0.469,0.358 -0.933,0.661 -1.359,0.913 -0.122,-1.947 -0.635,-2.098 -0.635,-2.098 0.346,0.748 0.16,1.769 -0.053,2.481 -0.737,0.387 -1.242,0.571 -1.242,0.571 0.322,-2.394 0.094,-4.401 -0.459,-6.086 -0.006,0.016 -0.012,0.034 -0.019,0.05 -0.86,0.178 -1.875,0.11 -1.875,0.11 0.268,0.273 1.041,0.592 1.473,0.756 -0.315,0.571 -0.687,1.06 -1.099,1.476 -0.735,-0.396 -1.575,-1.226 -1.575,-1.226 0.207,0.759 0.726,1.35 1.077,1.679 -0.416,0.343 -0.859,0.623 -1.317,0.856 -0.6,-0.501 -1.062,-1.094 -1.062,-1.094 0.074,0.516 0.207,1.034 0.324,1.423 -0.548,0.214 -1.103,0.365 -1.641,0.473 0.126,-0.871 -0.179,-1.545 -0.199,-1.586 0.046,0.454 -0.216,1.179 -0.434,1.691 -0.533,0.076 -1.037,0.11 -1.489,0.122 0.771,-1.605 0.43,-1.954 0.43,-1.954 -0.059,0.75 -0.662,1.479 -1.148,1.952 -0.76,-0.021 -1.244,-0.099 -1.244,-0.099 3.907,-5.207 2.554,-9.869 0.934,-12.687 -0.069,-0.02 -0.106,-0.029 -0.111,-0.03 -0.463,0.135 -0.927,0.3 -1.393,0.507 -0.435,0.185 -0.875,0.412 -1.317,0.67 -3.81,2.255 -5.534,-1.802 -6.032,-3.2 v -0.002 l -0.002,10e-4 c -0.261,-0.728 -0.269,-1.29 -0.269,-1.29 h 0.001 v -0.003 c 0.382,0.159 0.763,0.237 1.132,0.252 0.625,0.03 1.383,-0.281 2.144,-0.715 0.258,-0.147 0.513,-0.306 0.771,-0.475 0.104,-0.071 0.208,-0.143 0.302,-0.217 0.834,-0.578 1.605,-1.248 2.322,-1.962 4.458,-4.491 8.455,-5.84 11.872,-5.516 3.86,0.368 6.984,2.873 9.213,5.428 -0.001,0.005 0.004,0.006 0.009,0.007 1.695,1.946 2.868,3.914 3.449,4.982 l 14.975,0.546 c 2.505,0.437 4.43,2.856 4.43,2.856 z" /></g><g
         transform="translate(257.67454,156.15559)"
         id="g718"><path
           inkscape:connector-curvature="0"
           id="path720"
           style="fill:#1e312c;fill-opacity:1;fill-rule:nonzero;stroke:none"
           d="m 0,0 v 0 c -0.523,0.165 -1.042,0.28 -1.557,0.352 -0.171,0.026 -0.343,0.045 -0.514,0.062 0.509,0.749 0.829,1.456 1,2.116 -0.405,0.441 -0.992,0.808 -0.992,0.808 0.256,0.044 0.811,-0.088 1.114,-0.17 0.054,0.44 0.044,0.859 -0.017,1.253 C -1.53,4.496 -2.325,4.373 -2.325,4.373 -1.908,4.709 -1.386,4.828 -1.061,4.87 -1.153,5.225 -1.286,5.556 -1.446,5.868 -1.977,5.83 -2.468,5.687 -2.468,5.687 -2.222,5.942 -1.942,6.175 -1.722,6.343 -1.939,6.68 -2.186,6.985 -2.439,7.259 -2.717,6.729 -3.155,6.478 -3.182,6.463 -2.975,6.696 -2.831,7.2 -2.747,7.57 -3.01,7.824 -3.275,8.044 -3.52,8.23 -3.734,7.037 -4.062,6.981 -4.062,6.981 -3.795,7.418 -3.837,8.062 -3.917,8.516 -4.345,8.808 -4.643,8.958 -4.643,8.958 -4.616,7.457 -4.9,6.234 -5.362,5.233 -5.365,5.244 -5.367,5.255 -5.37,5.266 -5.889,5.437 -6.52,5.467 -6.52,5.467 -6.335,5.617 -5.835,5.759 -5.557,5.829 -5.71,6.204 -5.905,6.532 -6.129,6.819 -6.612,6.627 -7.19,6.175 -7.19,6.175 -7.007,6.628 -6.645,6.956 -6.405,7.134 -6.636,7.375 -6.89,7.581 -7.156,7.757 -7.562,7.491 -7.89,7.158 -7.89,7.158 c 0.083,0.313 0.202,0.623 0.302,0.855 -0.323,0.171 -0.655,0.304 -0.979,0.409 0.015,-0.546 -0.222,-0.941 -0.237,-0.964 0.061,0.276 -0.049,0.743 -0.147,1.075 -0.323,0.085 -0.632,0.142 -0.91,0.181 0.361,-1.046 0.125,-1.237 0.125,-1.237 0.018,0.467 -0.303,0.961 -0.569,1.287 -0.47,0.042 -0.775,0.028 -0.775,0.028 2.039,-3.494 0.871,-6.274 -0.332,-7.899 -0.043,-0.007 -0.067,-0.01 -0.07,-0.01 -0.276,0.116 -0.551,0.251 -0.824,0.412 -0.255,0.146 -0.51,0.317 -0.765,0.509 -2.19,1.664 -3.545,-0.717 -3.952,-1.545 h -0.001 -10e-4 c -0.213,-0.43 -0.259,-0.777 -0.259,-0.777 h 10e-4 V -0.52 c 0.247,0.071 0.488,0.092 0.717,0.075 0.388,-0.027 0.834,-0.272 1.272,-0.595 0.149,-0.109 0.295,-0.226 0.442,-0.348 0.06,-0.052 0.119,-0.103 0.171,-0.156 0.474,-0.416 0.902,-0.885 1.293,-1.378 2.43,-3.091 4.802,-4.21 6.934,-4.255 2.41,-0.049 4.517,1.274 6.077,2.692 -0.001,0.003 0.002,0.003 0.005,0.004 1.186,1.079 2.051,2.21 2.486,2.828 l 9.284,-0.735 c 1.578,0.091 2.94,1.446 2.94,1.446 z" /></g></g></g></svg>