<?xml version="1.0" encoding="UTF-8" standalone="no"?>
<!-- Created with Inkscape (http://www.inkscape.org/) -->

<svg
   xmlns:dc="http://purl.org/dc/elements/1.1/"
   xmlns:cc="http://creativecommons.org/ns#"
   xmlns:rdf="http://www.w3.org/1999/02/22-rdf-syntax-ns#"
   xmlns:svg="http://www.w3.org/2000/svg"
   xmlns="http://www.w3.org/2000/svg"
   xmlns:sodipodi="http://sodipodi.sourceforge.net/DTD/sodipodi-0.dtd"
   xmlns:inkscape="http://www.inkscape.org/namespaces/inkscape"
   width="7.3504558mm"
   height="16.818542mm"
   viewBox="0 0 7.3504562 16.818541"
   version="1.1"
   id="svg8"
   inkscape:version="0.92.4 (unknown)"
   sodipodi:docname="drawing70.svg">
  <defs
     id="defs2" />
  <sodipodi:namedview
     id="base"
     pagecolor="#ffffff"
     bordercolor="#666666"
     borderopacity="1.0"
     inkscape:pageopacity="0.0"
     inkscape:pageshadow="2"
     inkscape:zoom="0.98994949"
     inkscape:cx="-162.97874"
     inkscape:cy="136.39187"
     inkscape:document-units="mm"
     inkscape:current-layer="layer1"
     showgrid="false"
     inkscape:window-width="927"
     inkscape:window-height="1025"
     inkscape:window-x="67"
     inkscape:window-y="27"
     inkscape:window-maximized="0" />
  <metadata
     id="metadata5">
    <rdf:RDF>
      <cc:Work
         rdf:about="">
        <dc:format>image/svg+xml</dc:format>
        <dc:type
           rdf:resource="http://purl.org/dc/dcmitype/StillImage" />
        <dc:title></dc:title>
      </cc:Work>
    </rdf:RDF>
  </metadata>
  <g
     inkscape:label="Layer 1"
     inkscape:groupmode="layer"
     id="layer1"
     transform="translate(-325.07497,-232.01696)">
    <g
       transform="matrix(0.26458333,0,0,0.26458333,251.64794,193.16543)"
       id="g1764">
      <g
         transform="matrix(0.26458333,0,0,0.26458333,314.85218,220.92376)"
         id="use1762">
        <path
           style="fill:#795b48;stroke:none"
           inkscape:connector-curvature="0"
           d="m -81.4,-76.3 -18.85,3.8 -1.9,32.75 h 25.25 z"
           id="path1550" />
        <path
           style="fill:#448c5e;stroke:none"
           inkscape:connector-curvature="0"
           d="m -99.7,-82.05 17.35,-2 46.25,-5.25 -20.45,-45 -72.15,5.2 -12.4,51.75 41.4,-4.7 m 41.95,-55 7.9,0.55 -18.45,-56.25 -47.95,-4.65 -19.35,54.95 9.95,0.65 67.9,4.75 M -100.3,-280 l -24.75,77.5 10.95,-0.95 41.1,-3.7 9.85,-0.85 z"
           id="path1552" />
        <path
           style="fill:#6d503d;stroke:none"
           inkscape:connector-curvature="0"
           d="m -82.35,-84.05 -17.35,2 -0.55,9.55 18.85,-3.8 z"
           id="path1554" />
        <path
           style="fill:#3e7b54;stroke:none"
           inkscape:connector-curvature="0"
           d="m -56.55,-134.3 -1.2,-2.75 -67.9,-4.75 -3.05,12.7 72.15,-5.2 m -16.45,-72.85 -41.1,3.7 -2.15,6.05 47.95,4.65 z"
           id="path1556" />
      </g>
    </g>
  </g>
</svg>
