<?xml version="1.0" encoding="UTF-8" standalone="no"?>
<!-- Created with Inkscape (http://www.inkscape.org/) -->

<svg
   xmlns:dc="http://purl.org/dc/elements/1.1/"
   xmlns:cc="http://creativecommons.org/ns#"
   xmlns:rdf="http://www.w3.org/1999/02/22-rdf-syntax-ns#"
   xmlns:svg="http://www.w3.org/2000/svg"
   xmlns="http://www.w3.org/2000/svg"
   xmlns:sodipodi="http://sodipodi.sourceforge.net/DTD/sodipodi-0.dtd"
   xmlns:inkscape="http://www.inkscape.org/namespaces/inkscape"
   width="7.3504558mm"
   height="16.818542mm"
   viewBox="0 0 7.3504562 16.818541"
   version="1.1"
   id="svg8"
   inkscape:version="0.92.4 (unknown)"
   sodipodi:docname="drawing68.svg">
  <defs
     id="defs2" />
  <sodipodi:namedview
     id="base"
     pagecolor="#ffffff"
     bordercolor="#666666"
     borderopacity="1.0"
     inkscape:pageopacity="0.0"
     inkscape:pageshadow="2"
     inkscape:zoom="0.98994949"
     inkscape:cx="-57.252621"
     inkscape:cy="76.340054"
     inkscape:document-units="mm"
     inkscape:current-layer="layer1"
     showgrid="false"
     inkscape:window-width="927"
     inkscape:window-height="1025"
     inkscape:window-x="67"
     inkscape:window-y="27"
     inkscape:window-maximized="0" />
  <metadata
     id="metadata5">
    <rdf:RDF>
      <cc:Work
         rdf:about="">
        <dc:format>image/svg+xml</dc:format>
        <dc:type
           rdf:resource="http://purl.org/dc/dcmitype/StillImage" />
        <dc:title></dc:title>
      </cc:Work>
    </rdf:RDF>
  </metadata>
  <g
     inkscape:label="Layer 1"
     inkscape:groupmode="layer"
     id="layer1"
     transform="translate(-297.1016,-216.12825)">
    <g
       transform="matrix(0.26458333,0,0,0.26458333,233.01288,174.85027)"
       id="g1756">
      <g
         transform="matrix(0.26458333,0,0,0.26458333,321.89112,230.0946)"
         id="use1754">
        <path
           style="fill:#648c44;stroke:none"
           inkscape:connector-curvature="0"
           d="m -301.1,-77.35 41.4,-4.7 17.35,-2 46.25,-5.25 -20.45,-45 -72.15,5.2 -12.4,51.75 m 83.35,-59.7 7.9,0.55 -18.45,-56.25 -47.95,-4.65 -19.35,54.95 9.95,0.65 67.9,4.75 M -260.3,-280 l -24.75,77.5 10.95,-0.95 41.1,-3.7 9.85,-0.85 z"
           id="path1466" />
        <path
           style="fill:#9c7b53;stroke:none"
           inkscape:connector-curvature="0"
           d="m -260.25,-72.5 -1.9,32.75 h 25.25 l -4.5,-36.55 z"
           id="path1468" />
        <path
           style="fill:#876844;stroke:none"
           inkscape:connector-curvature="0"
           d="m -259.7,-82.05 -0.55,9.55 18.85,-3.8 -0.95,-7.75 z"
           id="path1470" />
        <path
           style="fill:#597b3e;stroke:none"
           inkscape:connector-curvature="0"
           d="m -216.55,-134.3 -1.2,-2.75 -67.9,-4.75 -3.05,12.7 72.15,-5.2 m -16.45,-72.85 -41.1,3.7 -2.15,6.05 47.95,4.65 z"
           id="path1472" />
      </g>
    </g>
  </g>
</svg>
