<?xml version="1.0" encoding="UTF-8" standalone="no"?>
<!-- Created with Inkscape (http://www.inkscape.org/) -->

<svg
   xmlns:dc="http://purl.org/dc/elements/1.1/"
   xmlns:cc="http://creativecommons.org/ns#"
   xmlns:rdf="http://www.w3.org/1999/02/22-rdf-syntax-ns#"
   xmlns:svg="http://www.w3.org/2000/svg"
   xmlns="http://www.w3.org/2000/svg"
   xmlns:sodipodi="http://sodipodi.sourceforge.net/DTD/sodipodi-0.dtd"
   xmlns:inkscape="http://www.inkscape.org/namespaces/inkscape"
   width="3.2902038mm"
   height="7.3364549mm"
   viewBox="0 0 3.290204 7.3364541"
   version="1.1"
   id="svg8"
   inkscape:version="0.92.4 (unknown)"
   sodipodi:docname="drawing92.svg">
  <defs
     id="defs2" />
  <sodipodi:namedview
     id="base"
     pagecolor="#ffffff"
     bordercolor="#666666"
     borderopacity="1.0"
     inkscape:pageopacity="0.0"
     inkscape:pageshadow="2"
     inkscape:zoom="0.98994949"
     inkscape:cx="-59.116092"
     inkscape:cy="51.838765"
     inkscape:document-units="mm"
     inkscape:current-layer="layer1"
     showgrid="false"
     inkscape:window-width="927"
     inkscape:window-height="1025"
     inkscape:window-x="67"
     inkscape:window-y="27"
     inkscape:window-maximized="0" />
  <metadata
     id="metadata5">
    <rdf:RDF>
      <cc:Work
         rdf:about="">
        <dc:format>image/svg+xml</dc:format>
        <dc:type
           rdf:resource="http://purl.org/dc/dcmitype/StillImage" />
        <dc:title></dc:title>
      </cc:Work>
    </rdf:RDF>
  </metadata>
  <g
     inkscape:label="Layer 1"
     inkscape:groupmode="layer"
     id="layer1"
     transform="translate(-297.59465,-219.1277)">
    <g
       transform="matrix(0.26458333,0,0,0.26458333,199.27433,173.35865)"
       id="g1784">
      <g
         transform="matrix(0.26458333,0,0,0.26458333,288.81624,211.98497)"
         id="use1782">
        <path
           style="fill:#9c7b53;stroke:none"
           inkscape:connector-curvature="0"
           d="m 340.6,-59.25 -11.3,0.8 -1.7,15.85 h 14.65 z"
           id="path2417" />
        <path
           style="fill:#876844;stroke:none"
           inkscape:connector-curvature="0"
           d="m 340.1,-63.95 -10.15,-0.6 -0.65,6.1 11.3,-0.8 z"
           id="path2419" />
        <path
           style="fill:#597b3e;stroke:none"
           inkscape:connector-curvature="0"
           d="m 345.3,-110.7 -20.25,-1.8 -2.75,10.65 24.85,-2.7 -1.85,-6.15 m -27.95,28.1 -3.5,13.5 42.8,-4.4 -1.75,-5.75 z"
           id="path2421" />
        <path
           style="fill:#648c44;stroke:none"
           inkscape:connector-curvature="0"
           d="m 334.05,-147.4 -9,34.9 20.25,1.8 -11.25,-36.7 m -11.75,45.55 -4.95,19.25 37.55,3.35 -7.75,-25.3 -24.85,2.7 m -8.45,32.75 -0.95,3.6 17.05,0.95 10.15,0.6 19.8,1.05 -3.25,-10.6 z"
           id="path2423" />
      </g>
    </g>
  </g>
</svg>
