<?xml version="1.0" encoding="UTF-8" standalone="no"?>
<!-- Created with Inkscape (http://www.inkscape.org/) -->

<svg
   xmlns:dc="http://purl.org/dc/elements/1.1/"
   xmlns:cc="http://creativecommons.org/ns#"
   xmlns:rdf="http://www.w3.org/1999/02/22-rdf-syntax-ns#"
   xmlns:svg="http://www.w3.org/2000/svg"
   xmlns="http://www.w3.org/2000/svg"
   xmlns:sodipodi="http://sodipodi.sourceforge.net/DTD/sodipodi-0.dtd"
   xmlns:inkscape="http://www.inkscape.org/namespaces/inkscape"
   width="9.8216085mm"
   height="17.665594mm"
   viewBox="0 0 9.8216085 17.665594"
   version="1.1"
   id="svg8"
   inkscape:version="0.92.4 (unknown)"
   sodipodi:docname="drawing31.svg">
  <defs
     id="defs2" />
  <sodipodi:namedview
     id="base"
     pagecolor="#ffffff"
     bordercolor="#666666"
     borderopacity="1.0"
     inkscape:pageopacity="0.0"
     inkscape:pageshadow="2"
     inkscape:zoom="0.98994949"
     inkscape:cx="-122.86435"
     inkscape:cy="125.73706"
     inkscape:document-units="mm"
     inkscape:current-layer="layer1"
     showgrid="false"
     inkscape:window-width="927"
     inkscape:window-height="1025"
     inkscape:window-x="67"
     inkscape:window-y="27"
     inkscape:window-maximized="0" />
  <metadata
     id="metadata5">
    <rdf:RDF>
      <cc:Work
         rdf:about="">
        <dc:format>image/svg+xml</dc:format>
        <dc:type
           rdf:resource="http://purl.org/dc/dcmitype/StillImage" />
        <dc:title></dc:title>
      </cc:Work>
    </rdf:RDF>
  </metadata>
  <g
     inkscape:label="Layer 1"
     inkscape:groupmode="layer"
     id="layer1"
     transform="translate(-314.46134,-228.35088)">
    <g
       transform="matrix(0.26458333,0,0,0.26458333,218.07743,135.42087)"
       id="g1820">
      <g
         transform="matrix(0.26458333,0,0,0.26458333,357.59168,198.48757)"
         id="use1818">
        <path
           style="fill:#648c44;stroke:none"
           inkscape:connector-curvature="0"
           d="m 66.8,649.7 37.85,8.1 -13.95,-80.5 -23.9,72.4 m 40.25,21.95 -44.4,-9.35 -19.7,59.8 75.7,16.25 -11.6,-66.7 m -69.85,67.9 -11.9,36.05 58.9,11.4 12.6,2.45 10.3,2.05 21.55,4.1 -7.2,-41.35 z"
           id="path154" />
        <path
           style="fill:#597b3e;stroke:none"
           inkscape:connector-curvature="0"
           d="m 151.1,729.55 -29.65,24.7 7.2,41.35 36.95,-29.5 -14.5,-36.55 M 124.3,662 l -17.25,9.65 11.6,66.7 28.65,-18.3 -23,-58.05 m -19.65,-4.2 15.05,-7.35 -29,-73.15 z"
           id="path156" />
        <path
           style="fill:#9c7b53;stroke:none"
           inkscape:connector-curvature="0"
           d="M 96.8,789.45 84.2,787 l -3.25,36.4 15.85,6.25 z"
           id="path158" />
        <path
           style="fill:#876844;stroke:none"
           inkscape:connector-curvature="0"
           d="m 107.1,791.5 -10.3,-2.05 v 40.2 l 14.45,-5.15 z"
           id="path160" />
        <path
           style="fill:#a6c9d4;stroke:none"
           inkscape:connector-curvature="0"
           d="m 151.1,729.55 -3.8,-9.5 -28.65,18.3 2.8,15.9 29.65,-24.7 m -31.4,-79.1 -15.05,7.35 2.4,13.85 17.25,-9.65 z"
           id="path162" />
        <path
           style="fill:#ddeaee;stroke:none"
           inkscape:connector-curvature="0"
           d="m 42.95,722.1 -5.75,17.45 84.25,14.7 -2.8,-15.9 -75.7,-16.25 m 64.1,-50.45 -2.4,-13.85 -37.85,-8.1 -4.15,12.6 z"
           id="path164" />
      </g>
    </g>
  </g>
</svg>
