<?xml version="1.0" encoding="UTF-8" standalone="no"?>
<!-- Created with Inkscape (http://www.inkscape.org/) -->

<svg
   xmlns:dc="http://purl.org/dc/elements/1.1/"
   xmlns:cc="http://creativecommons.org/ns#"
   xmlns:rdf="http://www.w3.org/1999/02/22-rdf-syntax-ns#"
   xmlns:svg="http://www.w3.org/2000/svg"
   xmlns="http://www.w3.org/2000/svg"
   xmlns:sodipodi="http://sodipodi.sourceforge.net/DTD/sodipodi-0.dtd"
   xmlns:inkscape="http://www.inkscape.org/namespaces/inkscape"
   width="8.9360542mm"
   height="16.076496mm"
   viewBox="0 0 8.9360542 16.076496"
   version="1.1"
   id="svg8"
   inkscape:version="0.92.4 (unknown)"
   sodipodi:docname="drawing39.svg">
  <defs
     id="defs2" />
  <sodipodi:namedview
     id="base"
     pagecolor="#ffffff"
     bordercolor="#666666"
     borderopacity="1.0"
     inkscape:pageopacity="0.0"
     inkscape:pageshadow="2"
     inkscape:zoom="0.98994949"
     inkscape:cx="-187.21894"
     inkscape:cy="240.80566"
     inkscape:document-units="mm"
     inkscape:current-layer="layer1"
     showgrid="false"
     inkscape:window-width="927"
     inkscape:window-height="1025"
     inkscape:window-x="67"
     inkscape:window-y="27"
     inkscape:window-maximized="0" />
  <metadata
     id="metadata5">
    <rdf:RDF>
      <cc:Work
         rdf:about="">
        <dc:format>image/svg+xml</dc:format>
        <dc:type
           rdf:resource="http://purl.org/dc/dcmitype/StillImage" />
        <dc:title></dc:title>
      </cc:Work>
    </rdf:RDF>
  </metadata>
  <g
     inkscape:label="Layer 1"
     inkscape:groupmode="layer"
     id="layer1"
     transform="translate(-331.48849,-260.38519)">
    <g
       transform="matrix(0.26458333,0,0,0.26458333,205.91772,145.79495)"
       id="g1868">
      <g
         transform="matrix(0.26458333,0,0,0.26458333,335.95651,269.45219)"
         id="use1866">
        <path
           style="fill:#9c7b53;stroke:none"
           inkscape:connector-curvature="0"
           d="m 574,827.45 q -0.25,-0.05 -0.45,-0.1 -2.15,11.85 -5.7,20.8 h 39.95 q -3.4,-10.25 -5.5,-20.8 -0.5,0.05 -1,0.1 -6.5,1.05 -13.45,1.05 -7.15,0 -13.85,-1.05 z"
           id="path471" />
        <path
           style="fill:#876844;stroke:none"
           inkscape:connector-curvature="0"
           d="m 574.9,818.7 q -0.6,4.5 -1.35,8.65 0.2,0.05 0.45,0.1 6.7,1.05 13.85,1.05 6.95,0 13.45,-1.05 0.5,-0.05 1,-0.1 -0.85,-4.35 -1.55,-8.65 -1.05,0.2 -2.15,0.35 -5.2,0.85 -10.75,0.85 -5.75,0 -11.1,-0.85 -0.9,-0.2 -1.85,-0.35 z"
           id="path473" />
        <path
           style="fill:#648c44;stroke:none"
           inkscape:connector-curvature="0"
           d="m 609.6,662.25 2.1,-10.5 Q 600.65,642 587.85,642 q -26.45,0 -45.15,41.2 -3.1,6.8 -5.65,14.15 l 5,6.5 -8.1,2.85 q -0.8,2.8 -1.55,5.65 -4.35,16.2 -6.4,34.45 2.05,8.3 6.4,15.65 1.8,3.2 4.15,6.2 1.35,1.8 2.9,3.55 1.6,1.8 3.25,3.45 14.55,14.55 33.75,17.8 0.15,0 0.25,0.05 h 0.05 q 5.35,0.85 11.1,0.85 5.55,0 10.75,-0.8 h 0.05 q 0.1,-0.05 0.25,-0.05 19.4,-3.2 34,-17.85 1.7,-1.65 3.25,-3.45 10,-11.35 13.55,-25.35 -1.7,-14.8 -4.85,-28.25 l -7.5,-1.35 4.9,-8.65 q -3.85,-13.4 -9.35,-25.4 -5.55,-12.3 -11.8,-20.95 z"
           id="path475" />
        <path
           style="fill:#ddeaee;stroke:none"
           inkscape:connector-curvature="0"
           d="m 649.7,746.85 q 0.9,-3.6 1.4,-7.35 -1.45,-23.8 -6.25,-44.4 l -7.5,-1.35 4.9,-8.65 q -3.85,-13.4 -9.35,-25.4 -5.55,-12.3 -11.8,-20.95 h -11.5 l 2.1,-10.5 q -1.25,-1.1 -2.5,-2.1 -10,-7.65 -21.35,-7.65 -11.45,0 -21.4,7.65 -13.1,10.15 -23.75,33.55 -3.1,6.8 -5.65,14.1 l 5,6.5 -8.1,2.9 q -0.8,2.8 -1.55,5.65 -6.2,23.2 -7.8,50.65 0.45,3.7 1.4,7.3 2.05,-18.25 6.4,-34.45 0.75,-2.85 1.55,-5.65 l 8.1,-2.85 -5,-6.5 Q 539.6,690 542.7,683.2 561.4,642 587.85,642 q 12.8,0 23.85,9.75 l -2.1,10.5 h 11.5 q 6.25,8.65 11.8,20.95 5.5,12 9.35,25.4 l -4.9,8.65 7.5,1.35 q 3.15,13.45 4.85,28.25 z"
           id="path477" />
        <path
           style="fill:#597b3e;stroke:none"
           inkscape:connector-curvature="0"
           d="m 651.65,756.1 q 0,-1.3 -0.05,-2.55 -0.1,-7.2 -0.5,-14.05 -0.5,3.75 -1.4,7.35 -3.55,14 -13.55,25.35 -1.55,1.8 -3.25,3.45 -14.6,14.65 -34,17.85 -0.15,0 -0.25,0.05 h -0.05 q -5.2,0.8 -10.75,0.8 -5.75,0 -11.1,-0.85 h -0.05 q -0.1,-0.05 -0.25,-0.05 -19.2,-3.25 -33.75,-17.8 -1.65,-1.65 -3.25,-3.45 -1.55,-1.75 -2.9,-3.55 -2.35,-3 -4.15,-6.2 -4.35,-7.35 -6.4,-15.65 -0.95,-3.6 -1.4,-7.3 -0.45,6.85 -0.55,14.05 -0.05,1.25 -0.05,2.55 0,1.8 0.1,3.55 0.75,15.6 8.3,28.3 0.4,0.75 0.85,1.5 h 10.5 l -2,10.75 q 0.45,0.5 0.95,1 13.95,13.95 32.2,17.5 0.95,0.15 1.85,0.35 5.35,0.85 11.1,0.85 5.55,0 10.75,-0.85 1.1,-0.15 2.15,-0.35 10.65,-2.1 19.8,-7.7 v -8.55 l 8.1,2.75 q 2.15,-1.9 4.25,-4 12.75,-12.75 16.8,-29 1.5,-6 1.85,-12.55 0.1,-1.75 0.1,-3.55 z"
           id="path479" />
      </g>
    </g>
  </g>
</svg>
