<?xml version="1.0" encoding="UTF-8" standalone="no"?>
<!-- Created with Inkscape (http://www.inkscape.org/) -->

<svg
   xmlns:dc="http://purl.org/dc/elements/1.1/"
   xmlns:cc="http://creativecommons.org/ns#"
   xmlns:rdf="http://www.w3.org/1999/02/22-rdf-syntax-ns#"
   xmlns:svg="http://www.w3.org/2000/svg"
   xmlns="http://www.w3.org/2000/svg"
   xmlns:sodipodi="http://sodipodi.sourceforge.net/DTD/sodipodi-0.dtd"
   xmlns:inkscape="http://www.inkscape.org/namespaces/inkscape"
   width="9.4260845mm"
   height="20.521772mm"
   viewBox="0 0 9.4260845 20.521772"
   version="1.1"
   id="svg8"
   inkscape:version="0.92.4 (unknown)"
   sodipodi:docname="drawing27.svg">
  <defs
     id="defs2" />
  <sodipodi:namedview
     id="base"
     pagecolor="#ffffff"
     bordercolor="#666666"
     borderopacity="1.0"
     inkscape:pageopacity="0.0"
     inkscape:pageshadow="2"
     inkscape:zoom="0.35"
     inkscape:cx="-47.901231"
     inkscape:cy="70.209889"
     inkscape:document-units="mm"
     inkscape:current-layer="layer1"
     showgrid="false"
     inkscape:window-width="927"
     inkscape:window-height="1025"
     inkscape:window-x="67"
     inkscape:window-y="27"
     inkscape:window-maximized="0" />
  <metadata
     id="metadata5">
    <rdf:RDF>
      <cc:Work
         rdf:about="">
        <dc:format>image/svg+xml</dc:format>
        <dc:type
           rdf:resource="http://purl.org/dc/dcmitype/StillImage" />
        <dc:title></dc:title>
      </cc:Work>
    </rdf:RDF>
  </metadata>
  <g
     inkscape:label="Layer 1"
     inkscape:groupmode="layer"
     id="layer1"
     transform="translate(-118.5072,-146.88793)">
    <g
       transform="matrix(0.26458333,0,0,0.26458333,127.69177,128.84781)"
       id="g1808">
      <g
         transform="scale(0.26458333)"
         id="use1806">
        <path
           style="fill:#448c5e;stroke:none"
           inkscape:connector-curvature="0"
           d="m -131.2,509.8 48,4.1 20.35,1.7 66.3,5.65 -25.5,-78.8 -97.6,8.65 -11.55,58.7 m 86.55,-137.4 -59.25,-1.6 -13.35,67.8 11.9,-0.65 69.55,-4.1 10.8,-0.65 -19.65,-60.8 m -56.65,-14.95 9.5,0.65 34.65,2.5 8.9,0.6 -33.55,-103.5 z"
           id="path23" />
        <path
           style="fill:#795b48;stroke:none"
           inkscape:connector-curvature="0"
           d="m -85.1,523.55 -18.2,27.3 h 62.5 L -62.85,515.6 Z"
           id="path25" />
        <path
           style="fill:#6d503d;stroke:none"
           inkscape:connector-curvature="0"
           d="m -83.2,513.9 -1.9,9.65 22.25,-7.95 z"
           id="path27" />
        <path
           style="fill:#3e7b54;stroke:none"
           inkscape:connector-curvature="0"
           d="m -22.05,442.45 -13.75,-8.6 -69.55,4.1 -14.3,13.15 97.6,-8.65 m -69.75,-84.35 -12.1,12.7 59.25,1.6 -12.5,-11.8 z"
           id="path29" />
      </g>
    </g>
  </g>
</svg>
