<?xml version="1.0" encoding="UTF-8" standalone="no"?>
<!-- Created with Inkscape (http://www.inkscape.org/) -->

<svg
   xmlns:dc="http://purl.org/dc/elements/1.1/"
   xmlns:cc="http://creativecommons.org/ns#"
   xmlns:rdf="http://www.w3.org/1999/02/22-rdf-syntax-ns#"
   xmlns:svg="http://www.w3.org/2000/svg"
   xmlns="http://www.w3.org/2000/svg"
   xmlns:sodipodi="http://sodipodi.sourceforge.net/DTD/sodipodi-0.dtd"
   xmlns:inkscape="http://www.inkscape.org/namespaces/inkscape"
   width="70mm"
   height="50.024147mm"
   viewBox="0 0 70 50.024147"
   version="1.1"
   id="svg4971"
   inkscape:version="0.92.4 (unknown)"
   sodipodi:docname="drawing5.svg">
  <defs
     id="defs4965" />
  <sodipodi:namedview
     id="base"
     pagecolor="#ffffff"
     bordercolor="#666666"
     borderopacity="1.0"
     inkscape:pageopacity="0.0"
     inkscape:pageshadow="2"
     inkscape:zoom="5.6"
     inkscape:cx="40.743048"
     inkscape:cy="146.33808"
     inkscape:document-units="mm"
     inkscape:current-layer="layer1"
     showgrid="false"
     inkscape:window-width="1853"
     inkscape:window-height="1025"
     inkscape:window-x="67"
     inkscape:window-y="27"
     inkscape:window-maximized="1" />
  <metadata
     id="metadata4968">
    <rdf:RDF>
      <cc:Work
         rdf:about="">
        <dc:format>image/svg+xml</dc:format>
        <dc:type
           rdf:resource="http://purl.org/dc/dcmitype/StillImage" />
        <dc:title />
      </cc:Work>
    </rdf:RDF>
  </metadata>
  <g
     inkscape:label="Layer 1"
     inkscape:groupmode="layer"
     id="layer1"
     transform="translate(-89.392253,-182.9404)">
    <g
       transform="matrix(0.26456693,0,0,0.26456693,-71.898397,81.064038)"
       id="g2060"
       inkscape:export-xdpi="363.04465"
       inkscape:export-ydpi="363.04465">
      <g
         transform="matrix(0.26458333,0,0,0.26458333,133.65484,180.0163)"
         id="use2058">
        <path
           style="fill:#e6f4fa;stroke:none"
           inkscape:connector-curvature="0"
           d="m 2764.75,884.3 c -1.4,-2.03333 -3.0167,-3.96667 -4.85,-5.8 -7.5667,-7.56667 -16.6833,-11.35 -27.35,-11.35 -4.5333,0 -8.8,0.7 -12.8,2.1 -5.3333,1.83333 -10.1667,4.91667 -14.5,9.25 -6.0333,6.03333 -9.65,13.08333 -10.85,21.15 -6.9333,0.86667 -13.5,2.53333 -19.7,5 -1.5333,-4 -4.0333,-7.6 -7.5,-10.8 -6.2,-5.8 -13.7167,-8.7 -22.55,-8.7 -8.8333,0 -16.3833,2.9 -22.65,8.7 -0.9,0.86667 -1.75,1.78333 -2.55,2.75 -15.4667,-13.5 -33.9667,-20.25 -55.5,-20.25 -4.3667,0 -8.6167,0.3 -12.75,0.9 -0.3,-0.33333 -0.6167,-0.65 -0.95,-0.95 -6.2,-5.8 -13.7167,-8.7 -22.55,-8.7 -5.0333,0 -9.6667,0.96667 -13.9,2.9 h -0.05 c 0,-0.16667 0.017,-0.33333 0.05,-0.5 0.067,-0.66667 0.1,-1.33333 0.1,-2 v -0.7 -1.05 c -0.2667,-7.76667 -3.3833,-14.43333 -9.35,-20 -6.2333,-5.8 -13.75,-8.7 -22.55,-8.7 -1.9667,0 -3.8333,0.15 -5.6,0.45 -1.4667,-4.63333 -4.1667,-8.76667 -8.1,-12.4 -6.2,-5.8 -13.7167,-8.7 -22.55,-8.7 -8.8333,0 -16.35,2.9 -22.55,8.7 -4.2667,3.96667 -7.0833,8.5 -8.45,13.6 -13.8,2.63333 -26.1167,8.53333 -36.95,17.7 -5.5333,-4.03333 -12,-6.05 -19.4,-6.05 -8.8333,0 -16.3667,2.9 -22.6,8.7 -4.5333,4.2 -7.4167,9.08333 -8.65,14.65 -5.5,-1.06667 -11.2333,-1.6 -17.2,-1.6 -1.8667,0 -3.75,0.0667 -5.65,0.2 -1.3667,-5 -4.15,-9.46667 -8.35,-13.4 -6.2,-5.8 -13.7167,-8.7 -22.55,-8.7 -8.8333,0 -16.3667,2.9 -22.6,8.7 -0.2333,0.23333 -0.4333,0.45 -0.6,0.65 -3.4667,-5.4 -7.7333,-10.46667 -12.8,-15.2 -15.9333,-14.83333 -35.1333,-22.26667 -57.6,-22.3 -1.5333,-3.46667 -3.8333,-6.61667 -6.9,-9.45 -6.2333,-5.8 -13.7667,-8.7 -22.6,-8.7 -3,0 -5.8,0.33333 -8.4,1 -0.6,-7.16667 -3.7167,-13.36667 -9.35,-18.6 -6.2,-5.76667 -13.7167,-8.65 -22.55,-8.65 -6.3,0 -11.9,1.45 -16.8,4.35 -10.8667,-5 -22.85,-7.5 -35.95,-7.5 -22.5667,0 -41.8167,7.41667 -57.75,22.25 -7.3667,6.86667 -13.0333,14.4 -17,22.6 -2.2,-0.43333 -4.5167,-0.65 -6.95,-0.65 -8.7667,0 -16.2833,2.88333 -22.55,8.65 -5.8667,5.46667 -8.95,12.05 -9.25,19.75 -0.033,0.4 -0.05,0.83333 -0.05,1.3 0,0.83333 0.033,1.66667 0.1,2.5 0.3,3.53333 1.2167,6.86667 2.75,10 -1.1,2.23333 -1.8833,4.6 -2.35,7.1 -8.1667,3.63333 -15.7167,8.68333 -22.65,15.15 -2.9333,2.73333 -5.6167,5.6 -8.05,8.6 -4.9667,-2.96667 -10.6167,-4.45 -16.95,-4.45 -8.8333,0 -16.35,2.9 -22.55,8.7 -4.6333,4.3 -7.5333,9.26667 -8.7,14.9 h -1.6 c -12.6667,0 -24.3,2.36667 -34.9,7.1 -4.5,-2.23333 -9.45,-3.35 -14.85,-3.35 -5.5,0 -10.4833,1.13333 -14.95,3.4 v 571.0807 H 2799 V 921.75 c -0.2333,-10.26667 -4,-19.05 -11.3,-26.35 -6.5,-6.5 -14.15,-10.2 -22.95,-11.1 z"
           id="path5614"
           sodipodi:nodetypes="csscscccsccsccscccscccsccscccsccsccscccccsccscsccsccscccccsccscsccccsc" />
      </g>
    </g>
  </g>
</svg>
