<?xml version="1.0" encoding="UTF-8" standalone="no"?>
<!-- Created with Inkscape (http://www.inkscape.org/) -->

<svg
   xmlns:dc="http://purl.org/dc/elements/1.1/"
   xmlns:cc="http://creativecommons.org/ns#"
   xmlns:rdf="http://www.w3.org/1999/02/22-rdf-syntax-ns#"
   xmlns:svg="http://www.w3.org/2000/svg"
   xmlns="http://www.w3.org/2000/svg"
   xmlns:sodipodi="http://sodipodi.sourceforge.net/DTD/sodipodi-0.dtd"
   xmlns:inkscape="http://www.inkscape.org/namespaces/inkscape"
   width="8.9325533mm"
   height="16.076496mm"
   viewBox="0 0 8.9325533 16.076496"
   version="1.1"
   id="svg8"
   inkscape:version="0.92.4 (unknown)"
   sodipodi:docname="drawing41.svg">
  <defs
     id="defs2" />
  <sodipodi:namedview
     id="base"
     pagecolor="#ffffff"
     bordercolor="#666666"
     borderopacity="1.0"
     inkscape:pageopacity="0.0"
     inkscape:pageshadow="2"
     inkscape:zoom="0.98994949"
     inkscape:cx="-157.49214"
     inkscape:cy="253.07989"
     inkscape:document-units="mm"
     inkscape:current-layer="layer1"
     showgrid="false"
     inkscape:window-width="927"
     inkscape:window-height="1025"
     inkscape:window-x="67"
     inkscape:window-y="27"
     inkscape:window-maximized="0" />
  <metadata
     id="metadata5">
    <rdf:RDF>
      <cc:Work
         rdf:about="">
        <dc:format>image/svg+xml</dc:format>
        <dc:type
           rdf:resource="http://purl.org/dc/dcmitype/StillImage" />
        <dc:title></dc:title>
      </cc:Work>
    </rdf:RDF>
  </metadata>
  <g
     inkscape:label="Layer 1"
     inkscape:groupmode="layer"
     id="layer1"
     transform="translate(-323.62328,-263.63274)">
    <g
       transform="matrix(0.26458333,0,0,0.26458333,177.76951,151.50686)"
       id="g2172">
      <g
         transform="matrix(0.26458333,0,0,0.26458333,332.63313,260.13808)"
         id="use2170">
        <path
           style="fill:#d5edf7;stroke:none"
           inkscape:connector-curvature="0"
           d="m 911.9,638.75 2.05,-10.5 q -11.05,-9.75 -23.85,-9.75 -26.45,0 -45.15,41.2 -3.1,6.8 -5.65,14.1 l 5.05,6.5 -8.1,2.9 q -0.85,2.8 -1.6,5.65 -6.2,23.2 -7.8,50.65 -0.45,6.85 -0.5,14.05 -0.05,1.25 -0.05,2.55 0,1.8 0.05,3.55 0.75,15.6 8.3,28.3 0.4,0.75 0.85,1.5 H 846 l -2,10.75 q 0.45,0.5 0.95,1 13.95,13.95 32.2,17.5 -0.55,4.5 -1.35,8.65 -2.1,11.85 -5.7,20.8 h 40 q -3.4,-10.25 -5.55,-20.8 -0.85,-4.35 -1.5,-8.65 10.6,-2.1 19.75,-7.7 v -8.55 l 8.1,2.75 q 2.2,-1.9 4.3,-4 17.4,-17.45 18.6,-41.55 0.1,-1.75 0.1,-3.55 0,-1.3 -0.05,-2.55 -0.1,-7.2 -0.5,-14.05 -1.4,-23.8 -6.25,-44.4 l -7.5,-1.35 4.9,-8.65 q -3.85,-13.4 -9.3,-25.4 -5.6,-12.3 -11.85,-20.95 z"
           id="path554" />
      </g>
    </g>
  </g>
</svg>
