<?xml version="1.0" encoding="UTF-8" standalone="no"?>
<!-- Created with Inkscape (http://www.inkscape.org/) -->

<svg
   xmlns:dc="http://purl.org/dc/elements/1.1/"
   xmlns:cc="http://creativecommons.org/ns#"
   xmlns:rdf="http://www.w3.org/1999/02/22-rdf-syntax-ns#"
   xmlns:svg="http://www.w3.org/2000/svg"
   xmlns="http://www.w3.org/2000/svg"
   xmlns:sodipodi="http://sodipodi.sourceforge.net/DTD/sodipodi-0.dtd"
   xmlns:inkscape="http://www.inkscape.org/namespaces/inkscape"
   width="70.004341mm"
   height="17.151062mm"
   viewBox="0 0 70.004341 17.151062"
   version="1.1"
   id="svg4971"
   inkscape:version="0.92.4 (unknown)"
   sodipodi:docname="drawing5.svg">
  <defs
     id="defs4965" />
  <sodipodi:namedview
     id="base"
     pagecolor="#ffffff"
     bordercolor="#666666"
     borderopacity="1.0"
     inkscape:pageopacity="0.0"
     inkscape:pageshadow="2"
     inkscape:zoom="1.4"
     inkscape:cx="95.732999"
     inkscape:cy="198.56531"
     inkscape:document-units="mm"
     inkscape:current-layer="layer1"
     showgrid="false"
     inkscape:window-width="927"
     inkscape:window-height="1025"
     inkscape:window-x="67"
     inkscape:window-y="27"
     inkscape:window-maximized="0" />
  <metadata
     id="metadata4968">
    <rdf:RDF>
      <cc:Work
         rdf:about="">
        <dc:format>image/svg+xml</dc:format>
        <dc:type
           rdf:resource="http://purl.org/dc/dcmitype/StillImage" />
        <dc:title></dc:title>
      </cc:Work>
    </rdf:RDF>
  </metadata>
  <g
     inkscape:label="Layer 1"
     inkscape:groupmode="layer"
     id="layer1"
     transform="translate(-89.392254,-182.93934)">
    <g
       transform="matrix(0.26458333,0,0,0.26458333,-71.908394,81.056661)"
       id="g2060">
      <g
         transform="matrix(0.26458333,0,0,0.26458333,133.65484,180.0163)"
         id="use2058">
        <path
           style="fill:#e6f4fa;stroke:none"
           inkscape:connector-curvature="0"
           d="m 2764.75,884.3 q -2.1,-3.05 -4.85,-5.8 -11.35,-11.35 -27.35,-11.35 -6.8,0 -12.8,2.1 -8,2.75 -14.5,9.25 -9.05,9.05 -10.85,21.15 -10.4,1.3 -19.7,5 -2.3,-6 -7.5,-10.8 -9.3,-8.7 -22.55,-8.7 -13.25,0 -22.65,8.7 -1.35,1.3 -2.55,2.75 -23.2,-20.25 -55.5,-20.25 -6.55,0 -12.75,0.9 -0.45,-0.5 -0.95,-0.95 -9.3,-8.7 -22.55,-8.7 -7.55,0 -13.9,2.9 h -0.05 q 0,-0.25 0.05,-0.5 0.1,-1 0.1,-2 0,-0.4 0,-0.7 0,-0.5 0,-1.05 -0.4,-11.65 -9.35,-20 -9.35,-8.7 -22.55,-8.7 -2.95,0 -5.6,0.45 -2.2,-6.95 -8.1,-12.4 -9.3,-8.7 -22.55,-8.7 -13.25,0 -22.55,8.7 -6.4,5.95 -8.45,13.6 -20.7,3.95 -36.95,17.7 -8.3,-6.05 -19.4,-6.05 -13.25,0 -22.6,8.7 -6.8,6.3 -8.65,14.65 -8.25,-1.6 -17.2,-1.6 -2.8,0 -5.65,0.2 -2.05,-7.5 -8.35,-13.4 -9.3,-8.7 -22.55,-8.7 -13.25,0 -22.6,8.7 -0.35,0.35 -0.6,0.65 -5.2,-8.1 -12.8,-15.2 -23.9,-22.25 -57.6,-22.3 -2.3,-5.2 -6.9,-9.45 -9.35,-8.7 -22.6,-8.7 -4.5,0 -8.4,1 -0.9,-10.75 -9.35,-18.6 -9.3,-8.65 -22.55,-8.65 -9.45,0 -16.8,4.35 -16.3,-7.5 -35.95,-7.5 -33.85,0 -57.75,22.25 -11.05,10.3 -17,22.6 -3.3,-0.65 -6.95,-0.65 -13.15,0 -22.55,8.65 -8.8,8.2 -9.25,19.75 -0.05,0.6 -0.05,1.3 0,1.25 0.1,2.5 0.45,5.3 2.75,10 -1.65,3.35 -2.35,7.1 -12.25,5.45 -22.65,15.15 -4.4,4.1 -8.05,8.6 -7.45,-4.45 -16.95,-4.45 -13.25,0 -22.55,8.7 -6.95,6.45 -8.7,14.9 -0.8,0 -1.6,0 -19,0 -34.9,7.1 -6.75,-3.35 -14.85,-3.35 -8.25,0 -14.95,3.4 V 1020 h 1000 v -98.25 q -0.35,-15.4 -11.3,-26.35 -9.75,-9.75 -22.95,-11.1 z"
           id="path5614" />
      </g>
    </g>
  </g>
</svg>
