<?xml version="1.0" encoding="UTF-8" standalone="no"?>
<!-- Created with Inkscape (http://www.inkscape.org/) -->

<svg
   xmlns:dc="http://purl.org/dc/elements/1.1/"
   xmlns:cc="http://creativecommons.org/ns#"
   xmlns:rdf="http://www.w3.org/1999/02/22-rdf-syntax-ns#"
   xmlns:svg="http://www.w3.org/2000/svg"
   xmlns="http://www.w3.org/2000/svg"
   xmlns:sodipodi="http://sodipodi.sourceforge.net/DTD/sodipodi-0.dtd"
   xmlns:inkscape="http://www.inkscape.org/namespaces/inkscape"
   width="69.997337mm"
   height="11.697725mm"
   viewBox="0 0 69.997337 11.697725"
   version="1.1"
   id="svg4971"
   inkscape:version="0.92.4 (unknown)"
   sodipodi:docname="drawing3.svg">
  <defs
     id="defs4965" />
  <sodipodi:namedview
     id="base"
     pagecolor="#ffffff"
     bordercolor="#666666"
     borderopacity="1.0"
     inkscape:pageopacity="0.0"
     inkscape:pageshadow="2"
     inkscape:zoom="1.4"
     inkscape:cx="-23.843715"
     inkscape:cy="144.78142"
     inkscape:document-units="mm"
     inkscape:current-layer="layer1"
     showgrid="false"
     inkscape:window-width="927"
     inkscape:window-height="1025"
     inkscape:window-x="67"
     inkscape:window-y="27"
     inkscape:window-maximized="0" />
  <metadata
     id="metadata4968">
    <rdf:RDF>
      <cc:Work
         rdf:about="">
        <dc:format>image/svg+xml</dc:format>
        <dc:type
           rdf:resource="http://purl.org/dc/dcmitype/StillImage" />
        <dc:title></dc:title>
      </cc:Work>
    </rdf:RDF>
  </metadata>
  <g
     inkscape:label="Layer 1"
     inkscape:groupmode="layer"
     id="layer1"
     transform="translate(-121.03026,-174.16235)">
    <g
       transform="matrix(0.26458333,0,0,0.26458333,-21.666682,125.40595)"
       id="g2068">
      <g
         transform="matrix(0.26458333,0,0,0.26458333,63.235769,123.13096)"
         id="use2066">
        <path
           style="fill:#d5edf7;stroke:none"
           inkscape:connector-curvature="0"
           d="m 2799.3,345.9 -41.8,40.45 -141.2,-136.75 q -13.55,-11.3 -24.6,0 L 2465.85,371.45 2422.9,329.9 q -10.5,-8.9 -18.55,0 l -46.6,45.15 -64.45,-62.4 q -9.3,-8.3 -17.35,0 L 2227.5,359.6 2100.35,236.5 q -10.85,-10.8 -21.8,0 l -109.7,109.4 -49.1,-47.55 q -8.6,-8.65 -17.2,0 l -76.1,73.7 -27.05,-26.15 v 52.3 h 999.9 z"
           id="path5528" />
      </g>
    </g>
  </g>
</svg>
