<?xml version="1.0" encoding="UTF-8" standalone="no"?>
<!-- Created with Inkscape (http://www.inkscape.org/) -->

<svg
   xmlns:dc="http://purl.org/dc/elements/1.1/"
   xmlns:cc="http://creativecommons.org/ns#"
   xmlns:rdf="http://www.w3.org/1999/02/22-rdf-syntax-ns#"
   xmlns:svg="http://www.w3.org/2000/svg"
   xmlns="http://www.w3.org/2000/svg"
   xmlns:sodipodi="http://sodipodi.sourceforge.net/DTD/sodipodi-0.dtd"
   xmlns:inkscape="http://www.inkscape.org/namespaces/inkscape"
   width="52.916664mm"
   height="52.916664mm"
   viewBox="0 0 52.916664 52.916664"
   version="1.1"
   id="svg8"
   inkscape:version="0.92.4 (unknown)"
   sodipodi:docname="ambient_temp.svg">
  <defs
     id="defs2" />
  <sodipodi:namedview
     id="base"
     pagecolor="#ffffff"
     bordercolor="#666666"
     borderopacity="1.0"
     inkscape:pageopacity="0.0"
     inkscape:pageshadow="2"
     inkscape:zoom="0.35"
     inkscape:cx="-25.714306"
     inkscape:cy="80.000017"
     inkscape:document-units="mm"
     inkscape:current-layer="layer1"
     showgrid="false"
     inkscape:window-width="927"
     inkscape:window-height="1025"
     inkscape:window-x="67"
     inkscape:window-y="27"
     inkscape:window-maximized="0" />
  <metadata
     id="metadata5">
    <rdf:RDF>
      <cc:Work
         rdf:about="">
        <dc:format>image/svg+xml</dc:format>
        <dc:type
           rdf:resource="http://purl.org/dc/dcmitype/StillImage" />
        <dc:title></dc:title>
      </cc:Work>
    </rdf:RDF>
  </metadata>
  <g
     inkscape:label="Layer 1"
     inkscape:groupmode="layer"
     id="layer1"
     transform="translate(-112.63691,-117.08334)">
    <g
       style="display:inline"
       id="g1067"
       transform="matrix(0.10335286,0,0,0.10335286,112.63691,117.08334)">
      <g
         id="g966"
         style="display:inline">
        <path
           inkscape:connector-curvature="0"
           id="path2-9"
           d="M 374.599,39.399 366.501,477.1 c -0.3,5.7 -3.9,12.1 -9.3,14.5 C 325.699,505.099 290.799,512 256,512 c -22.8,0 -45.3,-4.001 -66.301,-9.701 L 167.8,463.599 121,472.298 C 48.999,427 0,347.199 0,256 0,192.4 24.401,134.2 63.701,89.2 c 0,0 113.099,3.9 113.699,3.9 0.899,0 66.301,-92.8 66.301,-92.8 C 247.899,0 251.8,0 256,0 c 38.101,0 76,9.099 110.2,25.6 5.4,2.399 8.7,7.799 8.399,13.799 z"
           style="fill:#76e2f8" />
        <path
           inkscape:connector-curvature="0"
           id="path4"
           d="M 374.599,39.399 366.501,477.1 c -0.3,5.7 -3.9,12.1 -9.3,14.5 C 325.699,505.099 290.799,512 256,512 V 0 c 38.101,0 76,9.099 110.2,25.6 5.4,2.399 8.7,7.799 8.399,13.799 z"
           style="fill:#25d9f8" />
        <path
           inkscape:connector-curvature="0"
           id="path6"
           d="m 289.9,371.499 -20.4,41.1 c -1.5,3.001 -3.9,5.4 -6.901,6.901 l -6.599,3.3 -42.299,21 c -3.301,1.8 -6,4.799 -7.202,8.399 l -16.8,50.099 c -22.798,-7.2 -41.1,-13.2 -65.7,-28.2 -1.199,-0.599 -2.098,-1.199 -2.999,-1.8 v -114 c 0,-11.7 4.799,-23.399 13.2,-31.5 l 32.401,-32.701 -56.1,-13.799 C 81.4,272.8 61,246.7 61,216.7 61,199.6 67.899,182.8 80.2,170.799 88.599,162.4 92.8,151 91.901,139.3 91,127.599 85.3,116.8 75.7,109.6 L 70,105.4 c -3.3,-2.699 -5.4,-6.599 -5.7,-10.8 l -0.599,-5.4 c 46.8,-60 113.099,-79.6 177.9,-88.9 h 2.1 l 4.499,8.099 c 3.001,5.101 2.701,11.4 -0.601,16.201 l -2.098,2.999 c -17.701,26.7 -14.101,62.5 8.699,85.6 0.601,0.601 1.5,1.5 1.8,2.1 9.901,10.199 15,24 15,38.399 0,15 -5.7,28.2 -15,38.401 -10.499,11.7 -25.499,18.9 -42.299,18.9 h -5.402 c -15,0 -27.299,12.299 -27.299,27.299 0,7.2 2.999,14.401 7.8,19.501 l 17.699,17.699 c 6.901,6.901 16.501,9.6 26.1,7.202 8.101,-2.1 15.901,-1.802 23.401,0.599 11.4,3.3 21.301,11.1 27.001,22.5 l 6.899,14.7 c 8.101,16.201 8.101,34.801 0,51 z"
           style="fill:#5bc980" />
        <path
           inkscape:connector-curvature="0"
           id="path8-4"
           d="m 289.9,371.499 -20.4,41.1 c -1.5,3.001 -3.9,5.4 -6.901,6.901 L 256,422.8 V 283.299 c 11.4,3.3 21.301,11.1 27.001,22.5 l 6.899,14.7 c 8.101,16.201 8.101,34.801 0,51 z"
           style="fill:#00ab5e" />
      </g>
      <path
         inkscape:connector-curvature="0"
         id="path1019"
         d="m 512,406 c 0,31.199 -13.801,60.3 -37.5,80.4 C 455.6,502.299 431.901,512 407,512 h -0.3 c -6,0 -12.299,-0.601 -18.3,-1.5 C 345.801,503 311,467.199 303.5,424.6 297.8,391 308.301,357.1 332,333.1 V 76 c 0,-41.4 33.6,-75 75,-75 41.4,0 75,33.6 75,75 V 91 L 464.299,109.6 482,121 v 212.1 c 19.2,19.499 30,45.899 30,72.9 z"
         style="fill:#e0f3fc" />
      <path
         inkscape:connector-curvature="0"
         id="path1021"
         d="m 512,406 c 0,31.199 -13.801,60.3 -37.5,80.4 C 455.6,502.299 431.901,512 407,512 V 1 c 41.4,0 75,33.6 75,75 V 91 L 464.299,109.6 482,121 v 212.1 c 19.2,19.499 30,45.899 30,72.9 z"
         style="fill:#bdd9f1" />
      <g
         id="g1027">
        <g
           id="g1025">
          <path
             inkscape:connector-curvature="0"
             id="path1023"
             d="m 422,76 v 300 c 0,8.399 -6.599,15 -15,15 -8.401,0 -15,-6.601 -15,-15 V 76 c 0,-8.401 6.599,-15 15,-15 8.401,0 15,6.599 15,15 z"
             style="fill:#f16523" />
        </g>
      </g>
      <g
         id="g1033">
        <g
           id="g1031">
          <path
             inkscape:connector-curvature="0"
             id="path1029"
             d="m 407,361 c -24.901,0 -45,20.099 -45,45 0,24.899 20.099,45 45,45 24.901,0 45,-20.101 45,-45 0,-24.901 -20.099,-45 -45,-45 z"
             style="fill:#f16523" />
        </g>
      </g>
      <path
         inkscape:connector-curvature="0"
         id="path1035"
         d="m 422,76 v 300 c 0,8.399 -6.599,15 -15,15 V 61 c 8.401,0 15,6.599 15,15 z"
         style="fill:#ee3d23" />
      <g
         id="g1039">
        <path
           inkscape:connector-curvature="0"
           id="path1037"
           d="m 482,91 v 30 h -30 c -8.401,0 -15,-6.601 -15,-15 0,-8.401 6.599,-15 15,-15 z"
           style="fill:#ee3d23" />
      </g>
      <path
         inkscape:connector-curvature="0"
         id="path1041"
         d="m 452,406 c 0,24.899 -20.099,45 -45,45 v -90 c 24.901,0 45,20.099 45,45 z"
         style="fill:#ee3d23" />
    </g>
  </g>
</svg>
