<?xml version="1.0" encoding="UTF-8" standalone="no"?>
<!-- Created with Inkscape (http://www.inkscape.org/) -->

<svg
   xmlns:dc="http://purl.org/dc/elements/1.1/"
   xmlns:cc="http://creativecommons.org/ns#"
   xmlns:rdf="http://www.w3.org/1999/02/22-rdf-syntax-ns#"
   xmlns:svg="http://www.w3.org/2000/svg"
   xmlns="http://www.w3.org/2000/svg"
   xmlns:sodipodi="http://sodipodi.sourceforge.net/DTD/sodipodi-0.dtd"
   xmlns:inkscape="http://www.inkscape.org/namespaces/inkscape"
   width="52.916664mm"
   height="52.916664mm"
   viewBox="0 0 52.916664 52.916664"
   version="1.1"
   id="svg8"
   inkscape:version="0.92.4 (unknown)"
   sodipodi:docname="balloon_temp.svg">
  <defs
     id="defs2" />
  <sodipodi:namedview
     id="base"
     pagecolor="#ffffff"
     bordercolor="#666666"
     borderopacity="1.0"
     inkscape:pageopacity="0.0"
     inkscape:pageshadow="2"
     inkscape:zoom="0.35"
     inkscape:cx="-174.28572"
     inkscape:cy="274.28572"
     inkscape:document-units="mm"
     inkscape:current-layer="layer1"
     showgrid="false"
     inkscape:window-width="927"
     inkscape:window-height="1025"
     inkscape:window-x="67"
     inkscape:window-y="27"
     inkscape:window-maximized="0" />
  <metadata
     id="metadata5">
    <rdf:RDF>
      <cc:Work
         rdf:about="">
        <dc:format>image/svg+xml</dc:format>
        <dc:type
           rdf:resource="http://purl.org/dc/dcmitype/StillImage" />
        <dc:title></dc:title>
      </cc:Work>
    </rdf:RDF>
  </metadata>
  <g
     inkscape:label="Layer 1"
     inkscape:groupmode="layer"
     id="layer1"
     transform="translate(-151.94643,-168.4881)">
    <g
       style="display:inline"
       id="g1131"
       transform="matrix(0.10335286,0,0,0.10335286,151.94643,168.4881)">
      <g
         transform="translate(-87.989492)"
         id="g993"
         style="display:inline">
        <path
           style="fill:#352a26"
           inkscape:connector-curvature="0"
           d="m 184.33984,414.09766 c -4.20312,0 -7.60937,-3.40625 -7.60937,-7.60938 V 337.9375 c 0,-4.20313 3.40625,-7.60938 7.60937,-7.60938 4.19922,0 7.60547,3.40625 7.60547,7.60938 v 68.55078 c 0,4.20313 -3.40625,7.60938 -7.60547,7.60938 z m 0,0"
           id="path894" />
        <path
           style="fill:#352a26"
           inkscape:connector-curvature="0"
           d="m 300.60937,414.09766 c -4.20312,0 -7.60937,-3.40625 -7.60937,-7.60938 v -68.34375 c 0,-4.20312 3.40625,-7.60937 7.60937,-7.60937 4.19922,0 7.60938,3.40625 7.60938,7.60937 v 68.34375 c 0,4.20313 -3.41016,7.60938 -7.60938,7.60938 z m 0,0"
           id="path896" />
        <path
           style="fill:#594235"
           inkscape:connector-curvature="0"
           d="m 250.05859,0 h -14.66406 c -9.19141,0 -16.66406,7.476562 -16.66406,16.664062 0,4.179688 3.37109,7.574219 7.55078,7.609376 l 32.77734,0.257812 h 0.0586 c 2.0039,0 3.93359,-0.792969 5.35937,-2.207031 1.4375,-1.429688 2.25,-3.375 2.25,-5.402344 V 16.664062 C 266.72266,7.476562 259.24609,0 250.05859,0 Z m 0,0"
           id="path898" />
        <path
           style="fill:#ffb600"
           inkscape:connector-curvature="0"
           d="M 242.72656,17.921875 V 357.78906 c -0.34375,0 -0.69922,0 -1.04297,-0.008 C 159.41406,357.24219 92.382812,292.46484 88.214844,183.47266 87.890625,174.67969 87.792969,165.78516 88.78125,157.02344 96.5625,79.523438 161.53516,18.875 240.85156,17.933594 c 0.62891,-0.01172 1.2461,-0.01172 1.875,-0.01172 z m 0,0"
           id="path900" />
        <path
           style="fill:#f75631"
           inkscape:connector-curvature="0"
           d="m 397.44141,172.64062 c 0,25.94922 -3.42579,49.51563 -9.69922,70.47657 -21.85938,73.0664 -78.26953,114.44922 -144.47657,114.67187 h -0.53906 V 17.921875 c 0.45703,0 0.90235,0 1.35938,0.01172 67.14062,0.578125 124.07422,43.917968 144.89453,104.121095 5.48828,15.84765 8.46094,32.87109 8.46094,50.58593 z m 0,0"
           id="path902" />
        <path
           style="fill:#916643"
           inkscape:connector-curvature="0"
           d="M 300.80859,512 H 184.13672 c -11.20703,0 -20.28906,-9.08594 -20.28906,-20.28906 v -64.9336 h 157.25 v 64.9336 c 0,11.20312 -9.08204,20.28906 -20.28907,20.28906 z m 0,0"
           id="path904" />
        <path
           style="fill:#845939"
           inkscape:connector-curvature="0"
           d="m 321.09766,426.77734 v 64.9336 c 0,11.21094 -9.07813,20.28906 -20.28907,20.28906 h -20.54297 c 11.21094,0 20.28907,-9.07813 20.28907,-20.28906 v -55.11328 z m 0,0"
           id="path906" />
        <path
           style="fill:#594235"
           inkscape:connector-curvature="0"
           d="m 158.77344,436.92578 h 167.39843 c 5.60157,0 10.14454,-4.54297 10.14454,-10.14453 v -10.14453 c 0,-5.60547 -4.54297,-10.14844 -10.14454,-10.14844 H 158.77344 c -5.60157,0 -10.14453,4.54297 -10.14453,10.14844 v 10.14453 c 0,5.60156 4.54296,10.14453 10.14453,10.14453 z m 0,0"
           id="path908" />
        <path
           style="fill:#ffb600"
           inkscape:connector-curvature="0"
           d="m 397.44141,172.62891 c 0,25.2539 -3.2461,48.91015 -9.19141,70.48046 -21.86328,73.06641 -78.26953,114.44922 -144.47656,114.67188 54.62109,-28.33594 92.79687,-98.54297 92.79687,-185.15234 0,-63.11328 -37.78906,-127.445316 -91.97656,-154.707035 C 311.73437,18.5 368.67187,61.84375 389.48828,122.04297 c 5.16406,16.34765 7.95313,33.42969 7.95313,50.58594 z m 0,0"
           id="path914" />
        <path
           style="fill:#f75631"
           inkscape:connector-curvature="0"
           d="M 88.214844,183.47266 C 87.890625,174.67969 87.792969,165.78516 88.78125,157.02344 96.5625,79.523438 161.53516,18.875 240.85156,17.933594 c -54.1875,27.269531 -91.96875,91.601566 -91.96875,154.707026 0,86.60938 38.17578,156.8125 92.80078,185.14063 C 159.41406,357.24219 92.382812,292.46484 88.214844,183.47266 Z m 0,0"
           id="path916" />
        <path
           style="fill:#dd9300"
           inkscape:connector-curvature="0"
           d="m 397.44141,172.625 c 0,25.25 -3.24219,48.91406 -9.1875,70.48437 -21.85938,73.0625 -78.27344,114.44532 -144.48438,114.67188 1.22656,-0.64063 2.45313,-1.30078 3.66797,-1.98828 55.47656,-9.05469 101.08203,-48.73828 120.21094,-112.68359 5.94531,-21.57032 9.1914,-45.23438 9.1914,-70.48438 0,-17.15234 -2.79297,-34.24219 -7.95312,-50.58203 C 350.68359,69.402344 304.87109,29.65625 248.76562,20.117188 247.38672,19.355469 245.99609,18.625 244.59375,17.925781 311.74219,18.5 368.67187,61.839844 389.48828,122.04297 c 5.16406,16.33984 7.95313,33.42969 7.95313,50.58203 z m 0,0"
           id="path918" />
      </g>
      <path
         inkscape:connector-curvature="0"
         id="path1069"
         d="m 512,406 c 0,31.199 -13.801,60.3 -37.5,80.4 C 455.6,502.299 431.901,512 407,512 h -0.3 c -6,0 -12.299,-0.601 -18.3,-1.5 C 345.801,503 311,467.199 303.5,424.6 297.8,391 308.301,357.1 332,333.1 V 76 c 0,-41.4 33.6,-75 75,-75 41.4,0 75,33.6 75,75 V 91 L 464.299,109.6 482,121 v 212.1 c 19.2,19.499 30,45.899 30,72.9 z"
         style="fill:#e0f3fc" />
      <path
         inkscape:connector-curvature="0"
         id="path1071"
         d="m 512,406 c 0,31.199 -13.801,60.3 -37.5,80.4 C 455.6,502.299 431.901,512 407,512 V 1 c 41.4,0 75,33.6 75,75 V 91 L 464.299,109.6 482,121 v 212.1 c 19.2,19.499 30,45.899 30,72.9 z"
         style="fill:#bdd9f1" />
      <g
         id="g1077">
        <g
           id="g1075">
          <path
             inkscape:connector-curvature="0"
             id="path1073"
             d="m 422,76 v 300 c 0,8.399 -6.599,15 -15,15 -8.401,0 -15,-6.601 -15,-15 V 76 c 0,-8.401 6.599,-15 15,-15 8.401,0 15,6.599 15,15 z"
             style="fill:#f16523" />
        </g>
      </g>
      <g
         id="g1083">
        <g
           id="g1081">
          <path
             inkscape:connector-curvature="0"
             id="path1079"
             d="m 407,361 c -24.901,0 -45,20.099 -45,45 0,24.899 20.099,45 45,45 24.901,0 45,-20.101 45,-45 0,-24.901 -20.099,-45 -45,-45 z"
             style="fill:#f16523" />
        </g>
      </g>
      <path
         inkscape:connector-curvature="0"
         id="path1085"
         d="m 422,76 v 300 c 0,8.399 -6.599,15 -15,15 V 61 c 8.401,0 15,6.599 15,15 z"
         style="fill:#ee3d23" />
      <g
         id="g1089">
        <path
           inkscape:connector-curvature="0"
           id="path1087"
           d="m 482,91 v 30 h -30 c -8.401,0 -15,-6.601 -15,-15 0,-8.401 6.599,-15 15,-15 z"
           style="fill:#ee3d23" />
      </g>
      <path
         inkscape:connector-curvature="0"
         id="path1091"
         d="m 452,406 c 0,24.899 -20.099,45 -45,45 v -90 c 24.901,0 45,20.099 45,45 z"
         style="fill:#ee3d23" />
    </g>
  </g>
</svg>
