<?xml version="1.0" encoding="UTF-8" standalone="no"?>
<!-- Created with Inkscape (http://www.inkscape.org/) -->

<svg
   xmlns:dc="http://purl.org/dc/elements/1.1/"
   xmlns:cc="http://creativecommons.org/ns#"
   xmlns:rdf="http://www.w3.org/1999/02/22-rdf-syntax-ns#"
   xmlns:svg="http://www.w3.org/2000/svg"
   xmlns="http://www.w3.org/2000/svg"
   xmlns:sodipodi="http://sodipodi.sourceforge.net/DTD/sodipodi-0.dtd"
   xmlns:inkscape="http://www.inkscape.org/namespaces/inkscape"
   width="105.83333mm"
   height="105.83333mm"
   viewBox="0 0 105.83333 105.83333"
   version="1.1"
   id="svg8"
   inkscape:version="0.92.4 (unknown)"
   sodipodi:docname="gauge.svg">
  <defs
     id="defs2" />
  <sodipodi:namedview
     id="base"
     pagecolor="#ffffff"
     bordercolor="#666666"
     borderopacity="1.0"
     inkscape:pageopacity="0.0"
     inkscape:pageshadow="2"
     inkscape:zoom="0.35"
     inkscape:cx="-297.58328"
     inkscape:cy="270.17252"
     inkscape:document-units="mm"
     inkscape:current-layer="layer1"
     showgrid="false"
     inkscape:window-width="927"
     inkscape:window-height="1025"
     inkscape:window-x="67"
     inkscape:window-y="27"
     inkscape:window-maximized="0" />
  <metadata
     id="metadata5">
    <rdf:RDF>
      <cc:Work
         rdf:about="">
        <dc:format>image/svg+xml</dc:format>
        <dc:type
           rdf:resource="http://purl.org/dc/dcmitype/StillImage" />
        <dc:title></dc:title>
      </cc:Work>
    </rdf:RDF>
  </metadata>
  <g
     inkscape:label="Layer 1"
     inkscape:groupmode="layer"
     id="layer1"
     transform="translate(-86.673071,-114.48314)">
    <g
       id="g3266"
       transform="matrix(0.26458333,0,0,0.26458333,-272.79291,-1.7151421)">
      <path
         inkscape:connector-curvature="0"
         id="path6084"
         d="m 1758.6116,639.17462 a 200,200 0 0 1 -200,200 200,200 0 0 1 -200,-200 200,200 0 0 1 200,-200 200,200 0 0 1 200,200 z"
         style="fill:#000000;fill-rule:evenodd;stroke-width:0.42408749" />
      <path
         inkscape:connector-curvature="0"
         id="path6084-5"
         d="m 1718.6116,639.01953 a 159.99998,159.99998 0 0 1 -160,159.99999 159.99998,159.99998 0 0 1 -160,-159.99999 159.99998,159.99998 0 0 1 160,-159.99998 159.99998,159.99998 0 0 1 160,159.99998 z"
         style="fill:#ffffff;fill-rule:evenodd;stroke-width:0.33927" />
      <path
         inkscape:connector-curvature="0"
         id="circle6193"
         d="m 1445.4745,752.1566 a 159.99998,159.99998 0 0 1 0,-226.27414 l 113.1371,113.13707 z"
         style="fill:#00ff00;fill-opacity:0.51977401;fill-rule:evenodd;stroke-width:0.33927" />
      <path
         inkscape:connector-curvature="0"
         id="circle6195"
         d="m 1671.7486,525.88245 a 159.99998,159.99998 0 0 1 46.863,113.13708 159.99998,159.99998 0 0 1 -46.863,113.13708 l -113.137,-113.13708 z"
         style="fill:#ff0000;fill-opacity:0.62711864;fill-rule:evenodd;stroke-width:0.33927" />
      <path
         inkscape:connector-curvature="0"
         id="circle6199"
         d="m 1445.4745,525.88246 a 159.99998,159.99998 0 0 1 226.2741,-1e-5 l -113.137,113.13708 z"
         style="fill:#ff9600;fill-opacity:0.66101697;fill-rule:evenodd;stroke-width:0.33927" />
      <path
         inkscape:connector-curvature="0"
         id="circle6210"
         d="m 1658.6116,639.01953 a 100,100 0 0 1 -100,100 100,100 0 0 1 -100,-100 100,100 0 0 1 100,-100 100,100 0 0 1 100,100 z"
         style="fill:#ffffff;fill-rule:evenodd;stroke-width:0.21204375" />
    </g>
  </g>
</svg>
