<?xml version="1.0" encoding="UTF-8" standalone="no"?>
<!-- Created with Inkscape (http://www.inkscape.org/) -->

<svg
   xmlns:dc="http://purl.org/dc/elements/1.1/"
   xmlns:cc="http://creativecommons.org/ns#"
   xmlns:rdf="http://www.w3.org/1999/02/22-rdf-syntax-ns#"
   xmlns:svg="http://www.w3.org/2000/svg"
   xmlns="http://www.w3.org/2000/svg"
   xmlns:sodipodi="http://sodipodi.sourceforge.net/DTD/sodipodi-0.dtd"
   xmlns:inkscape="http://www.inkscape.org/namespaces/inkscape"
   width="18.898367mm"
   height="52.916664mm"
   viewBox="0 0 18.898367 52.916664"
   version="1.1"
   id="svg8"
   inkscape:version="0.92.4 (unknown)"
   sodipodi:docname="arrow_up_down.svg">
  <defs
     id="defs2" />
  <sodipodi:namedview
     id="base"
     pagecolor="#ffffff"
     bordercolor="#666666"
     borderopacity="1.0"
     inkscape:pageopacity="0.0"
     inkscape:pageshadow="2"
     inkscape:zoom="0.35"
     inkscape:cx="142.24422"
     inkscape:cy="54.285746"
     inkscape:document-units="mm"
     inkscape:current-layer="layer1"
     showgrid="false"
     inkscape:window-width="927"
     inkscape:window-height="1025"
     inkscape:window-x="67"
     inkscape:window-y="27"
     inkscape:window-maximized="0" />
  <metadata
     id="metadata5">
    <rdf:RDF>
      <cc:Work
         rdf:about="">
        <dc:format>image/svg+xml</dc:format>
        <dc:type
           rdf:resource="http://purl.org/dc/dcmitype/StillImage" />
        <dc:title></dc:title>
      </cc:Work>
    </rdf:RDF>
  </metadata>
  <g
     inkscape:label="Layer 1"
     inkscape:groupmode="layer"
     id="layer1"
     transform="translate(-68.197878,-110.27977)">
    <g
       style="display:inline"
       id="g2494"
       transform="matrix(0.10342801,0,0,0.10342801,51.188728,110.27977)">
      <g
         id="g2438">
        <path
           id="path2436"
           d="M 328.906,401.994 H 292.353 V 109.636 h 36.553 c 4.948,0 9.236,-1.809 12.847,-5.426 3.613,-3.615 5.421,-7.898 5.421,-12.845 0,-4.949 -1.801,-9.231 -5.428,-12.851 L 268.659,5.424 C 265.044,1.809 260.76,0 255.813,0 c -4.948,0 -9.229,1.809 -12.847,5.424 l -73.088,73.09 c -3.618,3.619 -5.424,7.902 -5.424,12.851 0,4.946 1.807,9.229 5.424,12.845 3.619,3.617 7.901,5.426 12.85,5.426 h 36.545 v 292.358 h -36.542 c -4.952,0 -9.235,1.808 -12.85,5.421 -3.617,3.621 -5.424,7.905 -5.424,12.854 0,4.945 1.807,9.227 5.424,12.847 l 73.089,73.088 c 3.617,3.617 7.898,5.424 12.847,5.424 4.95,0 9.234,-1.807 12.849,-5.424 l 73.087,-73.088 c 3.613,-3.62 5.421,-7.901 5.421,-12.847 0,-4.948 -1.808,-9.232 -5.421,-12.854 -3.611,-3.613 -7.896,-5.421 -12.847,-5.421 z"
           inkscape:connector-curvature="0" />
      </g>
      <g
         id="g2440" />
      <g
         id="g2442" />
      <g
         id="g2444" />
      <g
         id="g2446" />
      <g
         id="g2448" />
      <g
         id="g2450" />
      <g
         id="g2452" />
      <g
         id="g2454" />
      <g
         id="g2456" />
      <g
         id="g2458" />
      <g
         id="g2460" />
      <g
         id="g2462" />
      <g
         id="g2464" />
      <g
         id="g2466" />
      <g
         id="g2468" />
    </g>
  </g>
</svg>
