<?xml version="1.0" encoding="UTF-8" standalone="no"?>
<!-- Created with Inkscape (http://www.inkscape.org/) -->

<svg
   xmlns:dc="http://purl.org/dc/elements/1.1/"
   xmlns:cc="http://creativecommons.org/ns#"
   xmlns:rdf="http://www.w3.org/1999/02/22-rdf-syntax-ns#"
   xmlns:svg="http://www.w3.org/2000/svg"
   xmlns="http://www.w3.org/2000/svg"
   xmlns:sodipodi="http://sodipodi.sourceforge.net/DTD/sodipodi-0.dtd"
   xmlns:inkscape="http://www.inkscape.org/namespaces/inkscape"
   width="23.761538mm"
   height="7.4193854mm"
   viewBox="0 0 23.761537 7.4193854"
   version="1.1"
   id="svg8"
   inkscape:version="0.92.4 (unknown)"
   sodipodi:docname="buttontext_play_fr.svg">
  <defs
     id="defs2" />
  <sodipodi:namedview
     id="base"
     pagecolor="#ffffff"
     bordercolor="#666666"
     borderopacity="1.0"
     inkscape:pageopacity="0.0"
     inkscape:pageshadow="2"
     inkscape:zoom="1.4"
     inkscape:cx="67.609842"
     inkscape:cy="100.3589"
     inkscape:document-units="mm"
     inkscape:current-layer="layer1"
     showgrid="false"
     inkscape:window-width="927"
     inkscape:window-height="1025"
     inkscape:window-x="67"
     inkscape:window-y="27"
     inkscape:window-maximized="0" />
  <metadata
     id="metadata5">
    <rdf:RDF>
      <cc:Work
         rdf:about="">
        <dc:format>image/svg+xml</dc:format>
        <dc:type
           rdf:resource="http://purl.org/dc/dcmitype/StillImage" />
        <dc:title></dc:title>
      </cc:Work>
    </rdf:RDF>
  </metadata>
  <g
     inkscape:label="Layer 1"
     inkscape:groupmode="layer"
     id="layer1"
     transform="translate(-60.176872,-213.97159)">
    <g
       style="display:inline"
       id="g4105"
       transform="matrix(0.26458333,0,0,0.26458333,34.211957,56.653511)">
      <path
         d="m 119.459,614.38312 q -1.51563,-1.90625 -1.5,-6.92188 0,-2.54687 1.5,-4.42187 1.48437,-1.84375 3.54687,-1.84375 1.875,0 3.45313,1.84375 1.57812,1.84375 1.57812,4.42187 0,5.07813 -1.57812,6.92188 -1.57813,1.84375 -3.54688,1.84375 -1.96875,0 -3.45312,-1.84375 z m 3.54687,-15.8125 q -0.21875,0 -0.67187,0.0625 -3.79688,0.34375 -6.46875,3.01562 -2.76563,2.73438 -2.76563,7.20313 0,4.125 2.42188,6.6875 2.42187,2.5625 6.8125,2.98437 0.29687,0.0781 0.42187,0.0625 0.0469,-0.0156 0.10938,0 h 0.26562 q 0.0469,0.0156 0.10938,0 0.14062,-0.0469 0.42187,-0.0625 4.26563,-0.26562 6.8125,-2.98437 2.4375,-2.60938 2.42188,-6.6875 0.0156,-4.4375 -2.76563,-7.20313 -2.5,-2.53125 -6.46875,-3.01562 -0.42187,-0.0625 -0.65625,-0.0625 z"
         style="font-style:normal;font-variant:normal;font-weight:normal;font-stretch:normal;font-size:32px;line-height:1.25;font-family:Dyuthi;-inkscape-font-specification:Dyuthi;letter-spacing:0px;word-spacing:0px;display:inline;fill:#000000;fill-opacity:1;stroke:none"
         id="path4039"
         inkscape:connector-curvature="0" />
      <path
         d="m 158.49025,614.96124 v -4.9375 l 5.67187,0.14063 q 0.70313,0.0156 1.25,-0.51563 0.51563,-0.5 0.51563,-1.25 v -0.0625 q 0.0156,-0.73437 -0.5,-1.21875 -0.5625,-0.53125 -1.26563,-0.51562 l -5.67187,0.14062 v -4.4375 l 6.01562,0.28125 q 0.60938,0.0312 1.14063,-0.39062 0.17187,-0.14063 0.60937,-1 l 0.0156,-0.0625 q 0.42187,-0.85938 -0.34375,-1.79688 -0.5,-0.625 -1.39063,-0.625 H 156.584 q -1.1875,0 -1.96875,0.79688 -0.82813,0.85937 -0.82813,2 v 14.125 q 0,1.14062 0.82813,1.96875 0.82812,0.82812 1.96875,0.82812 h 8.375 q 0.75,0.0156 1.26562,-0.51562 0.51563,-0.5 0.51563,-1.25 v -0.0625 q 0,-0.78125 -0.51563,-1.25 -0.57812,-0.51563 -1.26562,-0.51563 z"
         style="font-style:normal;font-variant:normal;font-weight:normal;font-stretch:normal;font-size:32px;line-height:1.25;font-family:Dyuthi;-inkscape-font-specification:Dyuthi;letter-spacing:0px;word-spacing:0px;display:inline;fill:#000000;fill-opacity:1;stroke:none"
         id="path4043"
         inkscape:connector-curvature="0" />
      <path
         inkscape:connector-curvature="0"
         id="path4067"
         d="m 122.71077,594.75911 c -6.68158,0.0498 -12.92029,5.60533 -13.3997,12.3409 -0.62222,5.05772 1.49105,10.61411 6.06782,13.18006 5.85227,3.66306 14.42283,2.56002 18.70554,-3.00189 3.42945,-4.67602 3.49829,-11.52869 0.41506,-16.39132 -2.54869,-3.82921 -7.20929,-6.17209 -11.78872,-6.12775 z m 0.26274,10.4249 c 1.67484,1.05837 0.9828,3.23014 0.95328,4.84851 -0.15532,0.7193 -0.10481,2.12569 -1.10025,2.18655 -1.0608,-1.31485 -0.8074,-3.23089 -0.97832,-4.81279 0.12404,-0.74455 0.37952,-1.92712 1.12529,-2.22227 z"
         style="display:inline;opacity:0.97000002;fill:#000000;fill-opacity:1;stroke:#000000;stroke-width:0.33631638;stroke-linecap:round;stroke-linejoin:round;stroke-miterlimit:4;stroke-dasharray:none;stroke-opacity:1" />
      <path
         inkscape:connector-curvature="0"
         id="path4069"
         d="m 159.02407,594.81084 c -2.52406,-0.0923 -5.33484,0.056 -7.18162,2.03054 -2.48199,2.52448 -1.71022,6.36733 -1.89293,9.56317 0.12125,3.72602 -0.28987,7.50804 0.33656,11.19632 0.78875,2.99722 3.87912,4.88276 6.89958,4.69168 3.18944,-0.0338 6.45364,0.36944 9.5915,-0.31037 3.55856,-1.02895 4.95407,-5.82943 2.68741,-8.69529 -0.31152,-0.65685 -1.61681,-1.04453 -0.64783,-1.70991 1.46291,-2.03904 1.13799,-5.00851 -0.29765,-6.87248 1.97326,-1.98437 2.57758,-5.48627 0.48814,-7.61844 -1.23698,-1.69717 -3.28308,-2.56006 -5.36251,-2.27687 -1.54022,2.2e-4 -3.08044,-8.8e-4 -4.62065,0.002 z"
         style="display:inline;opacity:0.97000002;fill:#000000;fill-opacity:1;stroke:#000000;stroke-width:0.33631638;stroke-linecap:round;stroke-linejoin:round;stroke-miterlimit:4;stroke-dasharray:none;stroke-opacity:1" />
      <path
         d="m 104.2715,598.77374 q -0.76563,0 -1.21875,0.625 -0.48438,0.625 -0.28125,1.34375 v 0.0312 q 0.0781,0.51563 0.53125,0.84375 0.45312,0.34375 1,0.34375 h 2.07812 v 9.51563 q 0,2.375 -1.35937,3.04687 -0.625,0.32813 -1.17188,0.29688 -0.65625,-0.0312 -1.17187,0.48437 -0.45313,0.46875 -0.45313,1.1875 v 0.0312 q 0,1.17188 1,1.5625 0.42188,0.17188 0.71875,0.23438 3.28125,0.6875 5.1875,-1.73438 1.65625,-2.10937 1.65625,-5.42187 v -10.21875 q -0.0156,-0.92188 -0.64062,-1.54688 -0.60938,-0.625 -1.5,-0.625 z"
         style="font-style:normal;font-variant:normal;font-weight:normal;font-stretch:normal;font-size:32px;line-height:1.25;font-family:Dyuthi;-inkscape-font-specification:Dyuthi;letter-spacing:0px;word-spacing:0px;display:inline;fill:#000000;fill-opacity:1;stroke:none"
         id="path4037"
         inkscape:connector-curvature="0" />
      <path
         d="m 146.59962,610.61749 q 0.0156,1.5 -1.10937,2.625 -1.10938,1.10938 -2.4375,1.10938 h -0.10938 q -1.34375,0 -2.48437,-1.10938 -1.15625,-1.125 -1.14063,-2.70312 l 0.0937,-9.53125 q 0,-0.9375 -0.65625,-1.625 -0.67187,-0.6875 -1.625,-0.6875 h -0.0625 q -1.25,0.0156 -1.9375,0.6875 -0.65625,0.65625 -0.65625,1.625 v 8.875 q 0,3.5625 2.48438,6.04687 2.5,2.5 6.04687,2.5 h 0.17188 q 3.46875,0.0156 5.875,-2.45312 2.39062,-2.4375 2.39062,-5.875 v -9.09375 q 0,-0.96875 -0.65625,-1.625 -0.67187,-0.6875 -1.90625,-0.6875 h -0.0625 q -0.96875,0.0156 -1.65625,0.6875 -0.65625,0.6875 -0.65625,1.625 z"
         style="font-style:normal;font-variant:normal;font-weight:normal;font-stretch:normal;font-size:32px;line-height:1.25;font-family:Dyuthi;-inkscape-font-specification:Dyuthi;letter-spacing:0px;word-spacing:0px;display:inline;fill:#000000;fill-opacity:1;stroke:none"
         id="path4041"
         inkscape:connector-curvature="0" />
      <path
         d="m 173.66212,600.92999 h 2.25 q 1.10938,0 1.96875,0.90625 0.84375,0.85938 0.84375,3.21875 0,2.375 -0.84375,3.23438 -0.79687,0.84375 -1.96875,0.875 h -2.25 z m 7.125,9.29688 q 0.67188,-0.57813 1.10938,-1.26563 1.20312,-1.875 1.20312,-3.76562 0,-2.32813 -1.54687,-4.125 -1.51563,-1.78125 -3.79688,-2.10938 l -0.14062,-0.0312 q -0.25,-0.0625 -0.84375,-0.0625 h -5.39063 q -0.96875,0 -1.65625,0.6875 -0.6875,0.6875 -0.6875,1.625 v 15.17188 q 0,0.90625 0.6875,1.59375 0.65625,0.65625 1.59375,0.65625 h 0.0625 q 0.89063,0 1.59375,-0.65625 0.6875,-0.625 0.6875,-1.59375 v -4.8125 l 3.4375,-0.0625 1.46875,4.35937 q 0.73438,2.20313 2.5625,2.67188 0.875,0.25 1.67188,-0.21875 h 0.0312 q 0.6875,-0.0156 1.03125,-1.375 0.26562,-1.0625 -0.23438,-1.90625 z"
         style="font-style:normal;font-variant:normal;font-weight:normal;font-stretch:normal;font-size:32px;line-height:1.25;font-family:Dyuthi;-inkscape-font-specification:Dyuthi;letter-spacing:0px;word-spacing:0px;display:inline;fill:#000000;fill-opacity:1;stroke:none"
         id="path4045"
         inkscape:connector-curvature="0" />
      <path
         inkscape:connector-curvature="0"
         id="path4071"
         d="m 105.65067,594.81207 c -2.83153,-0.27154 -5.986652,1.30617 -6.635184,4.24377 -0.693534,2.60892 0.802157,5.60419 3.423104,6.41309 -0.0302,1.9009 0.0666,3.87439 -0.0829,5.73199 -3.555895,0.90421 -5.309104,5.61581 -3.017488,8.54544 2.369478,3.11066 7.226568,3.26005 10.401098,1.36465 2.59755,-1.67534 4.36724,-4.63158 4.80008,-7.65374 -0.0679,-4.69203 0.3513,-9.41778 -0.16178,-14.08982 -0.58527,-3.04204 -3.79743,-4.62354 -6.67479,-4.53116 -0.6835,-0.0328 -1.36806,-0.0277 -2.05211,-0.0242 z"
         style="display:inline;opacity:0.97000002;fill:#000000;fill-opacity:1;stroke:#000000;stroke-width:0.33631638;stroke-linecap:round;stroke-linejoin:round;stroke-miterlimit:4;stroke-dasharray:none;stroke-opacity:1" />
      <path
         inkscape:connector-curvature="0"
         id="path4073"
         d="m 148.73875,594.82192 c -2.44589,-0.0183 -4.90462,1.9259 -5.77346,3.80039 -1.57745,-3.48736 -6.36766,-4.97487 -9.53937,-2.72107 -1.96578,1.29313 -3.20979,3.58539 -2.8329,5.96221 0.14175,3.71613 -0.11557,7.47332 0.27904,11.16344 1.61012,5.5589 7.34146,10.06416 13.28375,9.18366 6.2158,-0.22187 11.22745,-6.08313 11.18815,-12.16654 0.0642,-3.63681 0.30937,-7.3395 -0.36374,-10.9311 -0.79561,-2.63893 -3.51536,-4.43255 -6.24147,-4.29099 z"
         style="display:inline;opacity:0.97000002;fill:#000000;fill-opacity:1;stroke:#000000;stroke-width:0.33631638;stroke-linecap:round;stroke-linejoin:round;stroke-miterlimit:4;stroke-dasharray:none;stroke-opacity:1" />
      <path
         inkscape:connector-curvature="0"
         id="path4075"
         d="m 171.91551,595.01077 c -2.92721,-0.19343 -5.90345,1.73061 -6.45414,4.70235 -0.73886,4.15173 -0.23769,8.40804 -0.37644,12.602 0.096,3.09135 -0.36924,7.03128 2.59132,9.01429 2.71655,1.98665 6.84731,1.27807 8.71171,-1.53419 2.39552,3.44957 8.31158,3.59864 10.51798,-0.11822 1.63598,-2.6013 0.73789,-5.85572 -0.86909,-8.23256 -0.71869,-0.69239 -0.4225,-1.36018 0.042,-2.09383 1.74463,-3.91751 0.80088,-8.91608 -2.53017,-11.7136 -2.53223,-2.83217 -6.61799,-2.52996 -10.01267,-2.60918 -0.54005,-0.013 -1.08022,-0.0266 -1.62046,-0.0171 z"
         style="display:inline;opacity:0.97000002;fill:#000000;fill-opacity:1;stroke:#000000;stroke-width:0.33631638;stroke-linecap:round;stroke-linejoin:round;stroke-miterlimit:4;stroke-dasharray:none;stroke-opacity:1" />
      <text
         id="text3985"
         y="618.32062"
         x="99.880875"
         style="font-style:normal;font-variant:normal;font-weight:normal;font-stretch:normal;font-size:32px;line-height:1.25;font-family:Dyuthi;-inkscape-font-specification:Dyuthi;letter-spacing:0px;word-spacing:0px;display:inline;fill:#ffffff;fill-opacity:1;stroke:none"
         xml:space="preserve"><tspan
           y="618.32062"
           x="99.880875"
           id="tspan3983"
           sodipodi:role="line">JOUER</tspan></text>
    </g>
  </g>
</svg>
