<?xml version="1.0" encoding="UTF-8" standalone="no"?>
<!-- Created with Inkscape (http://www.inkscape.org/) -->

<svg
   xmlns:dc="http://purl.org/dc/elements/1.1/"
   xmlns:cc="http://creativecommons.org/ns#"
   xmlns:rdf="http://www.w3.org/1999/02/22-rdf-syntax-ns#"
   xmlns:svg="http://www.w3.org/2000/svg"
   xmlns="http://www.w3.org/2000/svg"
   xmlns:sodipodi="http://sodipodi.sourceforge.net/DTD/sodipodi-0.dtd"
   xmlns:inkscape="http://www.inkscape.org/namespaces/inkscape"
   width="60.854168mm"
   height="13.229167mm"
   viewBox="0 0 60.854168 13.229167"
   version="1.1"
   id="svg8"
   inkscape:version="0.92.4 (unknown)"
   sodipodi:docname="button_pressed.svg">
  <defs
     id="defs2" />
  <sodipodi:namedview
     id="base"
     pagecolor="#ffffff"
     bordercolor="#666666"
     borderopacity="1.0"
     inkscape:pageopacity="0.0"
     inkscape:pageshadow="2"
     inkscape:zoom="1.4"
     inkscape:cx="115.76427"
     inkscape:cy="209.69676"
     inkscape:document-units="mm"
     inkscape:current-layer="layer1"
     showgrid="false"
     inkscape:window-width="927"
     inkscape:window-height="1025"
     inkscape:window-x="67"
     inkscape:window-y="27"
     inkscape:window-maximized="0" />
  <metadata
     id="metadata5">
    <rdf:RDF>
      <cc:Work
         rdf:about="">
        <dc:format>image/svg+xml</dc:format>
        <dc:type
           rdf:resource="http://purl.org/dc/dcmitype/StillImage" />
        <dc:title></dc:title>
      </cc:Work>
    </rdf:RDF>
  </metadata>
  <g
     inkscape:label="Layer 1"
     inkscape:groupmode="layer"
     id="layer1"
     transform="translate(-47.436012,-237.09078)">
    <g
       transform="matrix(0.26458333,0,0,0.26458333,47.436014,40.318391)"
       style="display:inline"
       id="g4767">
      <g
         style="display:inline;fill:#697e00;fill-opacity:0"
         transform="matrix(2.8530671,0,0,-1.5674964,216.80171,743.70666)"
         id="g4989">
        <path
           inkscape:connector-curvature="0"
           id="path4987"
           style="fill:#697e00;fill-opacity:0;fill-rule:nonzero;stroke:none"
           d="m 0,0 h -71.363 c -2.551,0 -4.626,-2.075 -4.626,-4.626 V -27.27 c 0,-2.552 2.075,-4.628 4.626,-4.628 H 0 c 2.551,0 4.626,2.076 4.626,4.628 V -4.626 C 4.626,-2.075 2.551,0 0,0" />
      </g>
      <g
         style="display:inline;fill:#697e00;fill-opacity:0.50251255"
         transform="matrix(2.9088601,0,0,-1.4862706,219.26868,748.70666)"
         id="g4751">
        <path
           inkscape:connector-curvature="0"
           id="path4749"
           style="fill:#697e00;fill-opacity:0.50251255;fill-rule:nonzero;stroke:none"
           d="m 0,0 h -71.363 c -1.179,0 -2.134,-0.956 -2.134,-2.134 v -22.645 c 0,-1.179 0.955,-2.134 2.134,-2.134 H 0 c 1.179,0 2.134,0.955 2.134,2.134 V -2.134 C 2.134,-0.956 1.179,0 0,0" />
      </g>
    </g>
  </g>
</svg>
