<?xml version="1.0" encoding="UTF-8" standalone="no"?>
<!-- Created with Inkscape (http://www.inkscape.org/) -->

<svg
   xmlns:dc="http://purl.org/dc/elements/1.1/"
   xmlns:cc="http://creativecommons.org/ns#"
   xmlns:rdf="http://www.w3.org/1999/02/22-rdf-syntax-ns#"
   xmlns:svg="http://www.w3.org/2000/svg"
   xmlns="http://www.w3.org/2000/svg"
   xmlns:sodipodi="http://sodipodi.sourceforge.net/DTD/sodipodi-0.dtd"
   xmlns:inkscape="http://www.inkscape.org/namespaces/inkscape"
   width="47.767662mm"
   height="7.4130092mm"
   viewBox="0 0 47.767661 7.4130092"
   version="1.1"
   id="svg8"
   inkscape:version="0.92.4 (unknown)"
   sodipodi:docname="buttontext_settings_fr.svg">
  <defs
     id="defs2" />
  <sodipodi:namedview
     id="base"
     pagecolor="#ffffff"
     bordercolor="#666666"
     borderopacity="1.0"
     inkscape:pageopacity="0.0"
     inkscape:pageshadow="2"
     inkscape:zoom="1.4"
     inkscape:cx="60.828836"
     inkscape:cy="129.82148"
     inkscape:document-units="mm"
     inkscape:current-layer="layer1"
     showgrid="false"
     inkscape:window-width="927"
     inkscape:window-height="1025"
     inkscape:window-x="67"
     inkscape:window-y="27"
     inkscape:window-maximized="0" />
  <metadata
     id="metadata5">
    <rdf:RDF>
      <cc:Work
         rdf:about="">
        <dc:format>image/svg+xml</dc:format>
        <dc:type
           rdf:resource="http://purl.org/dc/dcmitype/StillImage" />
        <dc:title></dc:title>
      </cc:Work>
    </rdf:RDF>
  </metadata>
  <g
     inkscape:label="Layer 1"
     inkscape:groupmode="layer"
     id="layer1"
     transform="translate(-61.971014,-221.77327)">
    <g
       style="display:inline"
       id="g4425"
       transform="matrix(0.26458333,0,0,0.26458333,49.565342,42.398704)">
      <path
         d="m 55.472921,684.03 h 2.221712 q 1.157142,0 1.943998,0.87943 0.95657,1.00285 0.95657,3.34799 0,2.46857 -0.95657,3.48686 -0.786856,0.84857 -1.943998,0.84857 h -2.221712 z m 3.563996,10.70742 q 2.99314,-0.0309 4.566853,-2.484 1.187998,-1.85143 1.187998,-3.71828 0,-2.31428 -1.527427,-4.07314 -1.496569,-1.75886 -3.749138,-2.09828 l -0.138857,-0.0154 q -0.447429,-0.0617 -0.833142,-0.0617 h -5.322852 q -0.95657,0 -1.635427,0.67886 -0.678856,0.67886 -0.678856,1.57371 v 14.78056 q 0,0.98743 0.678856,1.60457 0.617142,0.67885 1.573713,0.648 h 0.06171 q 0.894856,0.0308 1.573713,-0.648 0.678856,-0.648 0.678856,-1.60457 v -4.536 z"
         style="font-style:normal;font-variant:normal;font-weight:normal;font-stretch:normal;font-size:31.59768105px;line-height:1.25;font-family:Dyuthi;-inkscape-font-specification:Dyuthi;letter-spacing:0px;word-spacing:0px;display:inline;fill:#000000;fill-opacity:1;stroke:none;stroke-width:0.98742753"
         id="path4214"
         inkscape:connector-curvature="0" />
      <path
         d="m 90.218027,684.26143 h 2.221712 q 1.095427,0 1.943998,0.89485 0.833142,0.84858 0.833142,3.17829 0,2.34514 -0.833142,3.19371 -0.786857,0.83314 -1.943998,0.864 h -2.221712 z m 7.035421,9.17999 q 0.663428,-0.57086 1.095427,-1.24971 1.187999,-1.85143 1.187999,-3.71829 0,-2.29885 -1.527427,-4.07313 -1.49657,-1.75886 -3.749139,-2.08286 l -0.138857,-0.0309 q -0.246857,-0.0617 -0.833142,-0.0617 h -5.322851 q -0.956571,0 -1.635427,0.67886 -0.678857,0.67885 -0.678857,1.60457 v 14.98112 q 0,0.89486 0.678857,1.57372 0.647999,0.64799 1.573713,0.64799 h 0.06171 q 0.879427,0 1.573712,-0.64799 0.678857,-0.61715 0.678857,-1.57372 v -4.75199 l 3.394282,-0.0617 1.450284,4.30457 q 0.725142,2.17543 2.530283,2.63828 0.863999,0.24686 1.650856,-0.216 h 0.03086 q 0.678856,-0.0154 1.018282,-1.35771 0.26229,-1.04914 -0.23142,-1.88228 z"
         style="font-style:normal;font-variant:normal;font-weight:normal;font-stretch:normal;font-size:31.59768105px;line-height:1.25;font-family:Dyuthi;-inkscape-font-specification:Dyuthi;letter-spacing:0px;word-spacing:0px;display:inline;fill:#000000;fill-opacity:1;stroke:none;stroke-width:0.98742753"
         id="path4219"
         inkscape:connector-curvature="0" />
      <path
         d="m 126.53684,687.40885 3.37886,11.84913 q 0.29314,1.01829 1.15714,1.69715 0.87943,0.66342 1.944,0.66342 h 0.0617 q 1.03371,0 1.97486,-0.66342 0.87942,-0.648 1.17257,-1.69715 l 3.34799,-11.84913 -0.27771,12.18856 q -0.0154,0.83314 0.60171,1.43486 0.60172,0.58628 1.45029,0.58628 h 0.0308 q 1.08,0 1.728,-0.61714 0.61714,-0.58628 0.61714,-1.404 v -13.53084 q 0,-1.58914 -1.12628,-2.68457 -1.09543,-1.09543 -2.65371,-1.09543 h -0.0463 q -1.26514,0 -2.28342,0.756 -1.00286,0.77143 -1.35772,1.97486 l -3.17828,11.12399 -3.20914,-11.15485 q -0.35486,-1.21886 -1.35771,-1.944 -1.00286,-0.756 -2.25257,-0.756 h -0.0463 q -1.58914,0 -2.68456,1.09543 -1.09543,1.09543 -1.09543,2.68457 v 13.53084 q 0,0.78686 0.61714,1.404 0.61714,0.61714 1.404,0.61714 h 0.33943 q 0.864,0 1.46571,-0.61714 0.58628,-0.57086 0.57086,-1.404 z"
         style="font-style:normal;font-variant:normal;font-weight:normal;font-stretch:normal;font-size:31.59768105px;line-height:1.25;font-family:Dyuthi;-inkscape-font-specification:Dyuthi;letter-spacing:0px;word-spacing:0px;display:inline;fill:#000000;fill-opacity:1;stroke:none;stroke-width:0.98742753"
         id="path4223"
         inkscape:connector-curvature="0" />
      <path
         d="m 161.08138,684.462 q 0.0771,0.432 0.55543,0.84857 0.44742,0.37029 0.95657,0.324 l 3.54856,-0.27771 v 14.00912 q 0,1.01829 0.67886,1.69715 0.66343,0.67885 1.66629,0.67885 h 0.0154 q 1.01829,0 1.69714,-0.67885 0.67886,-0.67886 0.67886,-1.69715 v -14.00912 l 3.54857,0.27771 q 0.44743,0.0463 0.95657,-0.324 0.432,-0.35486 0.55543,-0.84857 v -0.0617 q 0.26228,-0.87943 -0.27772,-1.60457 -0.46285,-0.58629 -1.23428,-0.58629 h -11.8337 q -0.77143,0 -1.23429,0.58629 -0.50914,0.648 -0.27771,1.60457 z"
         style="font-style:normal;font-variant:normal;font-weight:normal;font-stretch:normal;font-size:31.59768105px;line-height:1.25;font-family:Dyuthi;-inkscape-font-specification:Dyuthi;letter-spacing:0px;word-spacing:0px;display:inline;fill:#000000;fill-opacity:1;stroke:none;stroke-width:0.98742753"
         id="path4227"
         inkscape:connector-curvature="0" />
      <path
         d="m 199.83791,698.11627 v -4.87542 l 5.60056,0.13885 q 0.69429,0.0154 1.23429,-0.50914 0.50914,-0.49371 0.50914,-1.23428 v -0.0617 q 0.0154,-0.72514 -0.49372,-1.20342 -0.55542,-0.52457 -1.24971,-0.50915 l -5.60056,0.13886 v -4.38171 l 5.93999,0.27772 q 0.60171,0.0309 1.12628,-0.38572 0.16972,-0.13886 0.60172,-0.98743 l 0.0154,-0.0617 q 0.41657,-0.84857 -0.33943,-1.77428 -0.49372,-0.61715 -1.37314,-0.61715 h -7.85314 q -1.17257,0 -1.944,0.78686 -0.81771,0.84857 -0.81771,1.97486 v 13.94741 q 0,1.12628 0.81771,1.944 0.81772,0.81771 1.944,0.81771 h 8.26971 q 0.74057,0.0154 1.24971,-0.50914 0.50914,-0.49372 0.50914,-1.23429 v -0.0617 q 0,-0.77143 -0.50914,-1.23428 -0.57086,-0.50915 -1.24971,-0.50915 z"
         style="font-style:normal;font-variant:normal;font-weight:normal;font-stretch:normal;font-size:31.59768105px;line-height:1.25;font-family:Dyuthi;-inkscape-font-specification:Dyuthi;letter-spacing:0px;word-spacing:0px;display:inline;fill:#000000;fill-opacity:1;stroke:none;stroke-width:0.98742753"
         id="path4231"
         inkscape:connector-curvature="0" />
      <path
         inkscape:connector-curvature="0"
         id="path4286"
         d="m 56.474878,678.41316 c -2.609669,0.15712 -5.789152,-0.5221 -7.632806,1.8339 -2.060643,1.5714 -1.793604,4.26787 -1.752606,6.56293 0.110392,4.69973 -0.238233,9.43021 0.236473,14.11075 0.677543,3.53482 4.987808,5.55508 8.207154,4.02824 2.560192,-0.91797 3.964432,-3.63517 3.818167,-6.26464 0.449134,-0.40055 1.593112,-0.12396 2.269767,-0.43007 4.977004,-1.37937 7.999645,-7.14894 6.732486,-12.08596 -0.743592,-3.45427 -3.641661,-6.36996 -7.003033,-7.35117 -1.588975,-0.41118 -3.245881,-0.41082 -4.875602,-0.40398 z"
         style="display:inline;opacity:0.97000002;fill:#000000;fill-opacity:1;stroke:#000000;stroke-width:0.33631638;stroke-linecap:round;stroke-linejoin:round;stroke-miterlimit:4;stroke-dasharray:none;stroke-opacity:1" />
      <path
         inkscape:connector-curvature="0"
         id="path4289"
         d="m 89.687352,678.38853 c -2.551343,-0.1685 -5.481658,0.38522 -6.875476,2.77312 -1.631971,2.93579 -0.962891,6.45277 -1.118778,9.66507 0.135132,3.48403 -0.173491,7.01315 0.27841,10.46577 0.966323,2.8217 4.103646,4.76754 7.093462,4.14176 1.567578,-0.19962 2.871525,-1.21199 3.878394,-2.37007 2.59079,3.41247 8.839156,3.24847 10.672876,-0.83586 1.30667,-2.75966 0.13196,-5.83529 -1.47467,-8.18786 -0.38295,-0.7507 0.66813,-1.55803 0.71302,-2.3961 1.79687,-4.96844 -1.0763,-10.973 -6.076349,-12.66999 -2.286225,-0.72494 -4.726806,-0.55284 -7.090889,-0.58584 z m 8.9761,18.50027 c -0.576121,0.18127 0.391232,-0.16053 0,0 z m -0.570243,0.15355 c -0.527305,0.0677 -0.10747,0.002 0,0 z"
         style="display:inline;opacity:0.97000002;fill:#000000;fill-opacity:1;stroke:#000000;stroke-width:0.33631638;stroke-linecap:round;stroke-linejoin:round;stroke-miterlimit:4;stroke-dasharray:none;stroke-opacity:1" />
      <path
         inkscape:connector-curvature="0"
         id="path4291"
         d="m 126.11355,678.39222 c -3.7726,0.0781 -7.37929,3.11386 -7.49117,7.01043 -0.29597,5.03283 -0.0807,10.09257 -0.0259,15.1255 0.37747,2.85818 3.36595,4.99991 6.18114,4.98738 1.44242,-0.0225 2.83551,-0.63341 3.91411,-1.57566 2.46983,2.01234 6.29497,2.02836 8.77124,0.0189 3.0334,2.93109 9.00862,1.45629 9.85794,-2.81961 0.64792,-4.08933 0.24563,-8.26678 0.32689,-12.39176 0.0168,-3.0622 -0.11529,-6.71885 -2.89442,-8.65429 -2.74445,-2.15448 -6.83949,-2.25929 -9.58616,-0.0505 -0.93463,0.69164 -1.71686,1.62393 -2.08843,2.7375 -1.04436,-2.72579 -4.15387,-4.34101 -6.96527,-4.38788 z"
         style="display:inline;opacity:0.97000002;fill:#000000;fill-opacity:1;stroke:#000000;stroke-width:0.33631638;stroke-linecap:round;stroke-linejoin:round;stroke-miterlimit:4;stroke-dasharray:none;stroke-opacity:1" />
      <path
         inkscape:connector-curvature="0"
         id="path4293"
         d="m 166.47193,678.38812 c -2.79208,0.0949 -6.33789,-0.49211 -8.2183,2.12494 -2.49359,3.03945 -0.59786,8.28737 3.32915,8.89156 1.26374,0.0655 0.27912,2.1074 0.58995,3.01502 0.17601,3.37117 -0.4666,6.97392 0.9504,10.14861 2.07908,4.04721 8.73513,4.00364 10.81616,-0.0119 1.28413,-3.04498 0.68954,-6.46259 0.85743,-9.67895 0.0394,-1.11695 -0.0805,-2.38282 0.0601,-3.40421 3.77022,-0.13021 6.08972,-4.64817 4.48846,-7.92388 -0.87851,-2.38066 -3.53424,-3.32898 -5.8933,-3.1411 -2.32639,-0.0356 -4.65348,-0.0171 -6.98008,-0.0201 z"
         style="display:inline;opacity:0.97000002;fill:#000000;fill-opacity:1;stroke:#000000;stroke-width:0.33631638;stroke-linecap:round;stroke-linejoin:round;stroke-miterlimit:4;stroke-dasharray:none;stroke-opacity:1" />
      <path
         inkscape:connector-curvature="0"
         id="path4295"
         d="m 201.08107,678.17792 c -2.97266,-0.0193 -6.67432,-0.0833 -8.48509,2.74981 -1.77328,2.64999 -0.98415,6.03508 -1.20408,9.0266 0.12648,3.65319 -0.29411,7.36474 0.33332,10.97914 0.87333,3.02402 4.1408,4.75396 7.16759,4.52074 3.10377,-0.0915 6.28684,0.28085 9.33416,-0.40957 3.98916,-1.29768 4.80727,-7.3406 1.41186,-9.74587 1.82752,-1.97062 1.87895,-5.22205 0.16545,-7.27727 1.75224,-1.89968 2.44964,-4.97289 0.77346,-7.14796 -1.11453,-1.849 -3.15865,-3.03357 -5.34568,-2.69726 -1.38366,6.8e-4 -2.76733,-0.002 -4.15099,0.002 z"
         style="display:inline;opacity:0.97000002;fill:#000000;fill-opacity:1;stroke:#000000;stroke-width:0.33631638;stroke-linecap:round;stroke-linejoin:round;stroke-miterlimit:4;stroke-dasharray:none;stroke-opacity:1" />
      <path
         d="m 71.672904,693.24085 2.514854,-6.92742 2.499426,6.92742 z m 6.063422,-8.42399 q -0.401143,-1.11086 -1.38857,-1.80514 -1.002856,-0.69429 -2.005712,-0.69429 h -0.432 q -1.018284,0 -2.005712,0.69429 -0.987428,0.69428 -1.38857,1.86685 L 65.84091,698.4557 q -0.385714,1.11086 0.308571,2.08285 0.678856,0.95657 1.835998,0.95657 h 0.339428 q 0.879428,0 1.542856,-0.46285 0.647999,-0.432 0.786856,-1.17257 l 0.740571,-3.78 h 5.847422 l 0.802285,3.82628 q 0.123428,0.67886 0.786856,1.12629 0.617143,0.46285 1.342285,0.46285 h 0.339428 q 1.141713,0 1.866855,-0.98742 0.678856,-0.95657 0.277714,-2.052 z"
         style="font-style:normal;font-variant:normal;font-weight:normal;font-stretch:normal;font-size:31.59768105px;line-height:1.25;font-family:Dyuthi;-inkscape-font-specification:Dyuthi;letter-spacing:0px;word-spacing:0px;display:inline;fill:#000000;fill-opacity:1;stroke:none;stroke-width:0.98742753"
         id="path4217"
         inkscape:connector-curvature="0" />
      <path
         d="m 108.45458,693.24085 2.51485,-6.92742 2.49943,6.92742 z m 6.06342,-8.42399 q -0.40114,-1.11086 -1.38857,-1.80514 -1.00286,-0.69429 -2.00571,-0.69429 h -0.432 q -1.01829,0 -2.00571,0.69429 -0.98743,0.69428 -1.38857,1.86685 l -4.67486,13.57713 q -0.38571,1.11086 0.30857,2.08285 0.67886,0.95657 1.836,0.95657 h 0.33943 q 0.87943,0 1.54286,-0.46285 0.648,-0.432 0.78685,-1.17257 l 0.74057,-3.78 h 5.84743 l 0.80228,3.82628 q 0.12343,0.67886 0.78686,1.12629 0.61714,0.46285 1.34228,0.46285 h 0.33943 q 1.14171,0 1.86685,-0.98742 0.67886,-0.95657 0.27772,-2.052 z"
         style="font-style:normal;font-variant:normal;font-weight:normal;font-stretch:normal;font-size:31.59768105px;line-height:1.25;font-family:Dyuthi;-inkscape-font-specification:Dyuthi;letter-spacing:0px;word-spacing:0px;display:inline;fill:#000000;fill-opacity:1;stroke:none;stroke-width:0.98742753"
         id="path4221"
         inkscape:connector-curvature="0" />
      <path
         d="m 150.65168,698.11627 v -4.87542 l 5.60057,0.13885 q 0.69428,0.0154 1.23428,-0.50914 0.50914,-0.49371 0.50914,-1.23428 v -0.0617 q 0.0154,-0.72514 -0.49371,-1.20342 -0.55543,-0.52457 -1.24971,-0.50915 l -5.60057,0.13886 v -4.38171 l 5.93999,0.27772 q 0.60172,0.0309 1.12629,-0.38572 0.16971,-0.13886 0.60171,-0.98743 l 0.0154,-0.0617 q 0.41657,-0.84857 -0.33943,-1.77428 -0.49371,-0.61715 -1.37314,-0.61715 h -7.85313 q -1.17257,0 -1.944,0.78686 -0.81772,0.84857 -0.81772,1.97486 v 13.94741 q 0,1.12628 0.81772,1.944 0.81771,0.81771 1.944,0.81771 h 8.2697 q 0.74057,0.0154 1.24971,-0.50914 0.50915,-0.49372 0.50915,-1.23429 v -0.0617 q 0,-0.77143 -0.50915,-1.23428 -0.57085,-0.50915 -1.24971,-0.50915 z"
         style="font-style:normal;font-variant:normal;font-weight:normal;font-stretch:normal;font-size:31.59768105px;line-height:1.25;font-family:Dyuthi;-inkscape-font-specification:Dyuthi;letter-spacing:0px;word-spacing:0px;display:inline;fill:#000000;fill-opacity:1;stroke:none;stroke-width:0.98742753"
         id="path4225"
         inkscape:connector-curvature="0" />
      <path
         d="m 182.72764,684.26143 h 2.22172 q 1.09542,0 1.94399,0.89485 0.83315,0.84858 0.83315,3.17829 0,2.34514 -0.83315,3.19371 -0.78685,0.83314 -1.94399,0.864 h -2.22172 z m 7.03542,9.17999 q 0.66343,-0.57086 1.09543,-1.24971 1.188,-1.85143 1.188,-3.71829 0,-2.29885 -1.52743,-4.07313 -1.49657,-1.75886 -3.74913,-2.08286 l -0.13886,-0.0309 q -0.24686,-0.0617 -0.83314,-0.0617 h -5.32286 q -0.95657,0 -1.63542,0.67886 -0.67886,0.67885 -0.67886,1.60457 v 14.98112 q 0,0.89486 0.67886,1.57372 0.648,0.64799 1.57371,0.64799 h 0.0617 q 0.87943,0 1.57372,-0.64799 0.67885,-0.61715 0.67885,-1.57372 v -4.75199 l 3.39429,-0.0617 1.45028,4.30457 q 0.72514,2.17543 2.53028,2.63828 0.864,0.24686 1.65086,-0.216 h 0.0309 q 0.67885,-0.0154 1.01828,-1.35771 0.26229,-1.04914 -0.23143,-1.88228 z"
         style="font-style:normal;font-variant:normal;font-weight:normal;font-stretch:normal;font-size:31.59768105px;line-height:1.25;font-family:Dyuthi;-inkscape-font-specification:Dyuthi;letter-spacing:0px;word-spacing:0px;display:inline;fill:#000000;fill-opacity:1;stroke:none;stroke-width:0.98742753"
         id="path4229"
         inkscape:connector-curvature="0" />
      <path
         d="m 218.3676,690.10885 q -1.97485,-0.756 -2.68456,-1.20343 -0.81772,-0.54 -0.81772,-1.38857 0,-0.72514 0.61714,-1.23428 0.74057,-0.55543 2.06743,-0.54 1.03371,0 2.32971,0.37029 0.74057,0.20057 1.35772,-0.16972 0.64799,-0.38571 0.86399,-1.09543 l 0.0309,-0.0308 q 0.16972,-0.72515 -0.216,-1.43486 -0.40114,-0.67886 -1.12628,-0.84857 -2.00572,-0.49371 -3.19371,-0.49371 -3.28629,-0.0309 -5.32286,1.60457 -2.02114,1.57371 -2.02114,4.21199 0,3.888 5.35371,5.80114 1.74343,0.61714 2.45314,1.188 0.69429,0.55543 0.69429,1.37314 0,0.94114 -0.78686,1.43485 -0.78685,0.57086 -2.14457,0.57086 -1.12628,0 -2.97771,-0.58628 -0.78686,-0.26229 -1.49657,0.13885 -0.69428,0.38572 -0.89485,1.17257 l -0.0309,0.0617 q -0.16972,0.72514 0.23143,1.404 0.38571,0.67885 1.09542,0.84857 2.28343,0.67885 3.79543,0.67885 3.99599,0 6.07885,-1.91314 1.74343,-1.63542 1.74343,-4.11942 0,-2.02114 -1.23429,-3.42514 -1.188,-1.41943 -3.76457,-2.376 z"
         style="font-style:normal;font-variant:normal;font-weight:normal;font-stretch:normal;font-size:31.59768105px;line-height:1.25;font-family:Dyuthi;-inkscape-font-specification:Dyuthi;letter-spacing:0px;word-spacing:0px;display:inline;fill:#000000;fill-opacity:1;stroke:none;stroke-width:0.98742753"
         id="path4233"
         inkscape:connector-curvature="0" />
      <path
         inkscape:connector-curvature="0"
         id="path4317"
         d="m 73.946744,678.38935 c -3.265308,0.13699 -6.366028,2.40771 -7.16684,5.63757 -1.737234,4.84741 -3.603171,9.68107 -4.827158,14.68716 -0.53674,3.75992 3.222076,7.20035 6.922977,6.558 2.549844,-0.0303 4.990867,-2.05074 5.498395,-4.35873 0.70999,2.85538 3.62922,4.75456 6.52352,4.36489 3.940693,0.0195 7.014816,-4.61945 5.33672,-8.21786 -1.794838,-5.10826 -3.482713,-10.2809 -5.693986,-15.22416 -1.399795,-2.12059 -4.077028,-3.43109 -6.593628,-3.44687 z"
         style="display:inline;opacity:0.97000002;fill:#000000;fill-opacity:1;stroke:#000000;stroke-width:0.33631638;stroke-linecap:round;stroke-linejoin:round;stroke-miterlimit:4;stroke-dasharray:none;stroke-opacity:1" />
      <path
         inkscape:connector-curvature="0"
         id="path4319"
         d="m 110.73135,678.38935 c -3.20154,0.16011 -6.36102,2.30105 -7.11881,5.52344 -1.69737,4.77907 -3.57534,9.52086 -4.879371,14.42225 -0.753968,3.82408 2.968341,7.51018 6.774031,6.95757 2.58512,-0.0335 4.9144,-1.98052 5.63674,-4.42319 0.69245,2.8461 3.56456,4.75748 6.45086,4.42853 3.75841,-0.006 7.04926,-4.37153 5.49839,-7.94605 -1.81071,-5.21167 -3.52766,-10.48401 -5.77324,-15.52448 -1.40379,-2.11457 -4.07382,-3.42253 -6.5886,-3.43807 z"
         style="display:inline;opacity:0.97000002;fill:#000000;fill-opacity:1;stroke:#000000;stroke-width:0.33631638;stroke-linecap:round;stroke-linejoin:round;stroke-miterlimit:4;stroke-dasharray:none;stroke-opacity:1" />
      <path
         inkscape:connector-curvature="0"
         id="path4321"
         d="m 151.8948,678.17792 c -2.97266,-0.0193 -6.67432,-0.0833 -8.48509,2.74981 -1.77328,2.64999 -0.98415,6.03508 -1.20408,9.0266 0.12648,3.65319 -0.29411,7.36474 0.33332,10.97914 0.87332,3.02402 4.1408,4.75396 7.16759,4.52074 3.10377,-0.0915 6.28684,0.28085 9.33416,-0.40957 3.98916,-1.29768 4.80727,-7.3406 1.41186,-9.74587 1.82752,-1.97062 1.87895,-5.22205 0.16544,-7.27727 1.75225,-1.89968 2.44965,-4.97289 0.77347,-7.14796 -1.11454,-1.849 -3.15865,-3.03357 -5.34568,-2.69726 -1.38366,6.8e-4 -2.76733,-0.002 -4.15099,0.002 z"
         style="display:inline;opacity:0.97000002;fill:#000000;fill-opacity:1;stroke:#000000;stroke-width:0.33631638;stroke-linecap:round;stroke-linejoin:round;stroke-miterlimit:4;stroke-dasharray:none;stroke-opacity:1" />
      <path
         inkscape:connector-curvature="0"
         id="path4323"
         d="m 178.16705,678.64922 c -2.74501,1.30324 -4.23063,4.38015 -3.96439,7.3494 -0.0221,4.88968 -0.0702,9.79953 0.13643,14.67633 0.54982,2.97148 3.7023,5.2427 6.73378,4.81513 1.79427,-0.0355 3.34919,-1.27595 4.44289,-2.46859 1.9521,2.58564 5.8133,3.28028 8.5319,1.52106 2.88594,-1.79085 3.47067,-5.95016 1.63272,-8.69981 -0.26865,-0.96125 -1.71066,-1.85802 -0.84613,-2.82822 2.22902,-4.28539 0.8387,-9.96981 -3.12463,-12.73667 -3.46309,-2.65618 -8.07897,-1.68266 -12.11675,-1.89137 -0.47528,0.0876 -0.95055,0.17516 -1.42582,0.26274 z"
         style="display:inline;opacity:0.97000002;fill:#000000;fill-opacity:1;stroke:#000000;stroke-width:0.33631638;stroke-linecap:round;stroke-linejoin:round;stroke-miterlimit:4;stroke-dasharray:none;stroke-opacity:1" />
      <path
         inkscape:connector-curvature="0"
         id="path4325"
         d="m 216.64022,678.28795 c -5.2019,-0.24299 -10.34088,4.13825 -10.2689,9.48312 -0.0961,2.54135 1.16843,5.0362 2.98136,6.69471 -3.21968,1.79024 -3.84675,6.82239 -0.91921,9.18384 2.77842,2.15858 6.61151,2.43088 9.98645,1.94474 4.41359,-0.59919 8.43857,-4.15976 8.79218,-8.73019 0.31624,-3.02099 -1.00508,-6.11699 -3.33032,-8.0532 2.53825,-1.92614 2.87255,-5.86471 0.76155,-8.22809 -1.94389,-2.32271 -5.23315,-2.31247 -8.00311,-2.29493 z"
         style="display:inline;opacity:0.97000002;fill:#000000;fill-opacity:1;stroke:#000000;stroke-width:0.33631638;stroke-linecap:round;stroke-linejoin:round;stroke-miterlimit:4;stroke-dasharray:none;stroke-opacity:1" />
      <text
         id="text3955"
         y="701.43341"
         x="48.591785"
         style="font-style:normal;font-variant:normal;font-weight:normal;font-stretch:normal;font-size:31.59768105px;line-height:1.25;font-family:Dyuthi;-inkscape-font-specification:Dyuthi;letter-spacing:0px;word-spacing:0px;display:inline;fill:#ffffff;fill-opacity:1;stroke:none;stroke-width:0.98742753"
         xml:space="preserve"><tspan
           style="fill:#ffffff;stroke-width:0.98742753"
           y="701.43341"
           x="48.591785"
           id="tspan3953"
           sodipodi:role="line">PARAMETRES</tspan></text>
    </g>
  </g>
</svg>
