<?xml version="1.0" encoding="UTF-8" standalone="no"?>
<!-- Created with Inkscape (http://www.inkscape.org/) -->

<svg
   xmlns:dc="http://purl.org/dc/elements/1.1/"
   xmlns:cc="http://creativecommons.org/ns#"
   xmlns:rdf="http://www.w3.org/1999/02/22-rdf-syntax-ns#"
   xmlns:svg="http://www.w3.org/2000/svg"
   xmlns="http://www.w3.org/2000/svg"
   xmlns:sodipodi="http://sodipodi.sourceforge.net/DTD/sodipodi-0.dtd"
   xmlns:inkscape="http://www.inkscape.org/namespaces/inkscape"
   width="52.639793mm"
   height="15.468377mm"
   viewBox="0 0 52.639791 15.468377"
   version="1.1"
   id="svg8"
   inkscape:version="0.92.4 (unknown)"
   sodipodi:docname="buttontext_continuewithoutconnect_fr.svg">
  <defs
     id="defs2" />
  <sodipodi:namedview
     id="base"
     pagecolor="#ffffff"
     bordercolor="#666666"
     borderopacity="1.0"
     inkscape:pageopacity="0.0"
     inkscape:pageshadow="2"
     inkscape:zoom="1.4"
     inkscape:cx="126.84841"
     inkscape:cy="207.91444"
     inkscape:document-units="mm"
     inkscape:current-layer="layer1"
     showgrid="false"
     inkscape:window-width="927"
     inkscape:window-height="1025"
     inkscape:window-x="67"
     inkscape:window-y="27"
     inkscape:window-maximized="0" />
  <metadata
     id="metadata5">
    <rdf:RDF>
      <cc:Work
         rdf:about="">
        <dc:format>image/svg+xml</dc:format>
        <dc:type
           rdf:resource="http://purl.org/dc/dcmitype/StillImage" />
        <dc:title></dc:title>
      </cc:Work>
    </rdf:RDF>
  </metadata>
  <g
     inkscape:label="Layer 1"
     inkscape:groupmode="layer"
     id="layer1"
     transform="translate(-44.503335,-234.38)">
    <g
       style="display:inline"
       id="g11281"
       transform="matrix(0.26458333,0,0,0.26458333,-58.208452,126.67347)">
      <g
         id="g11114">
        <path
           inkscape:connector-curvature="0"
           id="path10840"
           style="font-style:normal;font-variant:normal;font-weight:normal;font-stretch:normal;font-size:32px;line-height:1.25;font-family:Dyuthi;-inkscape-font-specification:Dyuthi;letter-spacing:0px;word-spacing:0px;display:inline;fill:#000000;fill-opacity:1;stroke:none"
           d="m 416.83914,428.65335 q -1.04687,-0.0156 -2.09375,-1.17187 -1.04687,-1.14063 -1.0625,-4.65625 0,-1.5625 1.0625,-2.76563 0.89063,-0.98437 2.09375,-1 1.39063,0.0156 2.3125,1 0.8125,0.90625 0.82813,2.76563 -0.0156,3.70312 -0.82813,4.65625 -1.04687,1.15625 -2.3125,1.17187 z m 7.53125,-4.79687 q -0.0156,-3.09375 -2.21875,-5.28125 -2.1875,-2.20313 -5.32812,-2.20313 -0.21875,0 -0.42188,0.0156 -2.70312,-0.0156 -4.89062,2.15625 -2.17188,2.17187 -2.1875,5.29687 0,3.10938 2.25,5.35938 2.26562,2.25 5.26562,2.125 0.20313,0.0156 0.42188,0 2.65625,0.0156 4.875,-2.17188 2.21875,-2.20312 2.23437,-5.29687 z" />
        <path
           inkscape:connector-curvature="0"
           id="path10844"
           style="font-style:normal;font-variant:normal;font-weight:normal;font-stretch:normal;font-size:32px;line-height:1.25;font-family:Dyuthi;-inkscape-font-specification:Dyuthi;letter-spacing:0px;word-spacing:0px;display:inline;fill:#000000;fill-opacity:1;stroke:none"
           d="m 449.68289,427.45023 q -1.32812,-0.6875 -1.3125,-3.07813 v -4.10937 h 1.3125 q 0.60938,0 1.01563,-0.40625 0.4375,-0.39063 0.4375,-1.04688 v -0.0312 q 0,-0.57812 -0.4375,-1.03125 -0.4375,-0.45312 -1.01563,-0.45312 h -1.3125 v -1.59375 q -0.0156,-0.73438 -0.46875,-1.3125 -0.625,-0.79688 -1.15625,-0.79688 h -0.0625 q -0.85937,-0.0156 -1.32812,0.375 -0.85938,0.64063 -0.85938,1.73438 v 1.59375 h -0.5625 q -0.625,0 -1.0625,0.45312 -0.42187,0.42188 -0.42187,1.03125 v 0.0312 q 0,0.65625 0.42187,1.04688 0.42188,0.40625 1.0625,0.40625 h 0.5625 v 3.82812 0 q 0,2.92188 0.96875,4.84375 1.14063,2.23438 3.01563,2.21875 1.15625,0.0156 1.6875,-1.59375 0.21875,-0.6875 0.14062,-1.20312 -0.10937,-0.60938 -0.625,-0.90625 z" />
        <path
           inkscape:connector-curvature="0"
           id="path10848"
           style="font-style:normal;font-variant:normal;font-weight:normal;font-stretch:normal;font-size:32px;line-height:1.25;font-family:Dyuthi;-inkscape-font-specification:Dyuthi;letter-spacing:0px;word-spacing:0px;display:inline;fill:#000000;fill-opacity:1;stroke:none"
           d="m 474.21414,423.77835 q -0.0156,-3.60937 -1.09375,-5.03125 -2,-2.5625 -5.75,-1.9375 -1.09375,0.1875 -3.34375,1.51563 v -0.0312 q 0,-0.51563 -0.39062,-0.96875 -0.40625,-0.45313 -1.03125,-0.45313 h -1.625 q -0.54688,0.0156 -1.03125,0.45313 -0.42188,0.39062 -0.42188,1 v 11.10937 q 0,0.89063 0.65625,1.54688 0.42188,0.42187 1.54688,0.42187 h 0.0781 q 1.10938,0.0156 1.54688,-0.42187 0.625,-0.625 0.625,-1.54688 v -6.60937 q 0,0 0,-0.0312 0,-0.0469 0.0469,-0.34375 0.15625,-0.78125 1.51563,-1.59375 1.51562,-0.92188 2.9375,-0.23438 1.3125,0.65625 1.3125,2.89063 v 5.92187 q 0,0.92188 0.65625,1.54688 0.4375,0.42187 1.54687,0.42187 h 0.0156 q 1.125,0.0156 1.57812,-0.42187 0.65625,-0.65625 0.65625,-1.54688 z" />
        <path
           inkscape:connector-curvature="0"
           id="path10852"
           style="font-style:normal;font-variant:normal;font-weight:normal;font-stretch:normal;font-size:32px;line-height:1.25;font-family:Dyuthi;-inkscape-font-specification:Dyuthi;letter-spacing:0px;word-spacing:0px;display:inline;fill:#000000;fill-opacity:1;stroke:none"
           d="m 499.63602,419.54398 q 1.15625,0 2.09375,0.51562 1.09375,0.60938 1.60937,2.42188 h -6.84375 q 0.26563,-1.35938 0.95313,-1.98438 1.0625,-0.95312 2.1875,-0.95312 z m -0.0312,-2.78125 q -2.95313,-0.0625 -5.0625,2.0625 -2.09375,2.125 -2.09375,5.125 0,3 2.21875,5.125 2.14062,2.04687 4.48437,2.04687 3.26563,0.0156 5.125,-1 1.28125,-0.70312 1.4375,-1.40625 l 0.0312,-0.0156 q 0.20313,-0.84375 -0.29687,-1.5625 -0.64063,-0.875 -1.6875,-0.40625 l -1.60938,0.71875 q -2.89062,1.28125 -4.625,-0.29688 -0.46875,-0.45312 -0.92187,-1.875 h 8.70312 q 1.25,0 1.25,-1.3125 v -0.0156 q 0.0156,-3.14063 -2.09375,-5.14063 -2.09375,-2 -4.85937,-2.04687 z" />
        <path
           inkscape:connector-curvature="0"
           id="path10858"
           style="font-style:normal;font-variant:normal;font-weight:normal;font-stretch:normal;font-size:32px;line-height:1.25;font-family:Dyuthi;-inkscape-font-specification:Dyuthi;letter-spacing:0px;word-spacing:0px;display:inline;fill:#000000;fill-opacity:1;stroke:none"
           d="m 543.72977,423.65335 q 0,-1.90625 0.375,-2.76562 0.42187,-0.90625 1.10937,-1.21875 1.42188,-0.6875 2.85938,-0.14063 1.25,0.48438 1.53125,1.35938 v 5.28125 q 0,1.73437 -1.48438,2.25 -0.73437,0.23437 -1.45312,0.14062 -1.21875,0.0312 -2.07813,-1.10937 -0.85937,-1.14063 -0.85937,-2.76563 z m -2.28125,5.39063 q 2,2.10937 4.84375,2.10937 0.8125,0 2.34375,-1 0.375,-0.25 0.79687,-0.1875 0.4375,0.0469 0.75,0.39063 0.73438,0.79687 1.14063,0.79687 h 1.875 q 0.375,0 0.65625,-0.28125 0.26562,-0.23437 0.26562,-0.625 v -11.40625 q 0,-0.6875 -0.48437,-1.20312 -0.5,-0.45313 -1.17188,-0.45313 h -1.20312 q -0.6875,0 -1.14063,0.45313 -0.51562,0.51562 -0.51562,1.20312 v 0 q -0.90625,-2.10937 -3.3125,-2.10937 -2.84375,0 -4.84375,2.10937 -2,2.10938 -2,5.10938 0,2.98437 2,5.09375 z" />
        <path
           inkscape:connector-curvature="0"
           id="path10862"
           style="font-style:normal;font-variant:normal;font-weight:normal;font-stretch:normal;font-size:32px;line-height:1.25;font-family:Dyuthi;-inkscape-font-specification:Dyuthi;letter-spacing:0px;word-spacing:0px;display:inline;fill:#000000;fill-opacity:1;stroke:none"
           d="m 572.83914,428.82523 q 0.14063,-0.59375 0.76563,-0.96875 0.5625,-0.34375 1.21875,-0.125 1.26562,0.40625 2.23437,0.375 1.875,-0.0312 1.875,-1.17188 0,-0.51562 -0.42187,-0.875 -0.375,-0.29687 -1.625,-0.73437 -4.0625,-1.39063 -4.03125,-4.25 0.0469,-2.04688 1.57812,-3.29688 1.54688,-1.29687 4.15625,-1.3125 1.21875,-0.0156 2.51563,0.34375 0.57812,0.15625 0.90625,0.6875 0.34375,0.54688 0.17187,1.14063 v 0.0156 q -0.10937,0.59375 -0.6875,0.95313 -0.5625,0.34375 -1.1875,0.17187 -0.85937,-0.23437 -1.57812,-0.26562 -1.67188,-0.0312 -1.67188,1.10937 0,0.48438 0.51563,0.85938 0.4375,0.34375 1.76562,0.79687 3.75,1.32813 3.78125,4.3125 0.0312,2.04688 -1.5,3.3125 -1.54687,1.28125 -4.5625,1.28125 -1.57812,0 -3.14062,-0.42187 -0.54688,-0.15625 -0.90625,-0.75 -0.34375,-0.54688 -0.17188,-1.14063 z" />
        <path
           style="display:inline;opacity:0.97000002;fill:#000000;fill-opacity:0.97989951;stroke:#000000;stroke-width:0.47562319;stroke-linecap:round;stroke-linejoin:round;stroke-miterlimit:4;stroke-dasharray:none;stroke-opacity:1"
           d="m 416.40686,412.62391 c -6.23273,-0.10423 -11.67545,6.06017 -10.80603,12.23894 0.31384,4.76991 4.211,9.11788 8.85233,10.10757 4.35885,0.82052 9.18377,-0.77901 11.60783,-4.63721 2.9698,-3.93801 2.84865,-9.74963 -0.4337,-13.47095 -2.16357,-2.84565 -5.65165,-4.45328 -9.22043,-4.23835 z"
           id="path10924"
           inkscape:connector-curvature="0" />
        <path
           style="display:inline;opacity:0.97000002;fill:#000000;fill-opacity:0.97989951;stroke:#000000;stroke-width:0.47562319;stroke-linecap:round;stroke-linejoin:round;stroke-miterlimit:4;stroke-dasharray:none;stroke-opacity:1"
           d="m 446.38761,409.70352 c -2.84708,-0.0264 -5.13018,2.40416 -5.61725,5.04363 -2.57015,1.9305 -2.6603,6.39909 0.008,8.28509 -0.0161,4.07571 0.51344,9.14454 4.61921,11.19676 3.40983,1.99001 8.18524,-0.34519 8.60906,-4.29407 0.41253,-2.00348 -0.66365,-3.91396 -1.67908,-5.47675 -0.47408,-1.63009 1.69804,-1.95511 2.09246,-3.38835 1.38987,-2.4796 0.14681,-5.93401 -2.49423,-6.97933 -0.76109,-2.37275 -2.90442,-4.51123 -5.53772,-4.38698 z"
           id="path10926"
           inkscape:connector-curvature="0" />
        <path
           style="display:inline;opacity:0.97000002;fill:#000000;fill-opacity:0.97989951;stroke:#000000;stroke-width:0.47562319;stroke-linecap:round;stroke-linejoin:round;stroke-miterlimit:4;stroke-dasharray:none;stroke-opacity:1"
           d="m 468.38054,412.93395 c -1.69722,-0.16762 -3.25669,1.22061 -4.83287,0.27462 -3.31157,-0.9671 -7.50443,0.97035 -7.76545,4.68656 -0.19868,4.36528 -0.41778,8.80924 0.19972,13.14583 1.03723,4.92647 8.61736,5.66315 10.95408,1.40446 2.24261,4.44294 10.05651,3.41628 10.90473,-1.58154 0.6007,-4.12658 0.49268,-8.48753 -0.68568,-12.50659 -1.32054,-3.46838 -5.14531,-5.596 -8.77453,-5.42334 z"
           id="path10928"
           inkscape:connector-curvature="0" />
        <path
           style="display:inline;opacity:0.97000002;fill:#000000;fill-opacity:0.97989951;stroke:#000000;stroke-width:0.47562319;stroke-linecap:round;stroke-linejoin:round;stroke-miterlimit:4;stroke-dasharray:none;stroke-opacity:1"
           d="m 499.13174,412.97459 c -6.79901,-0.0772 -12.01836,7.33466 -10.12441,13.74616 1.36362,5.41077 7.11947,9.18248 12.63548,8.08479 3.61039,-0.39176 8.25329,-2.67034 8.00466,-6.89283 -0.41419,-1.50393 0.91914,-2.81579 0.5835,-4.42297 0.24829,-5.89545 -5.37629,-10.75787 -11.09923,-10.51515 z m 0.99688,7.59999 c 0.36748,0.698 0.69845,2.68705 -0.37971,2.83214 -0.7718,-0.81322 -0.42127,-2.35136 0.14515,-3.24553 l 0.1467,0.25855 z"
           id="path10930"
           inkscape:connector-curvature="0" />
        <path
           style="display:inline;opacity:0.97000002;fill:#000000;fill-opacity:0.97989951;stroke:#000000;stroke-width:0.47562319;stroke-linecap:round;stroke-linejoin:round;stroke-miterlimit:4;stroke-dasharray:none;stroke-opacity:1"
           d="m 545.858,412.94614 c -6.46527,0.10239 -11.35206,6.88052 -10.02338,13.06513 0.82553,5.91592 7.47214,10.74065 13.26136,8.21541 2.82598,1.19085 7.33668,1.33982 8.52081,-2.11078 0.52076,-3.95129 0.11348,-8.05412 0.20611,-12.06444 0.23943,-2.6939 -0.9249,-5.82639 -3.82438,-6.48756 -1.48334,-0.59346 -3.14126,-0.14136 -4.56812,0.0279 -1.12007,-0.48897 -2.3544,-0.68847 -3.5724,-0.64563 z"
           id="path10932"
           inkscape:connector-curvature="0" />
        <path
           style="display:inline;opacity:0.97000002;fill:#000000;fill-opacity:0.97989951;stroke:#000000;stroke-width:0.47562319;stroke-linecap:round;stroke-linejoin:round;stroke-miterlimit:4;stroke-dasharray:none;stroke-opacity:1"
           d="m 578.60238,412.68488 c -4.78802,-0.25721 -9.89586,3.4961 -9.52465,8.6137 -0.038,1.51371 0.66322,3.04869 1.36672,4.22847 -2.85751,2.78045 -1.21434,7.94159 2.53778,8.94232 4.616,1.0997 10.76696,0.52955 13.14524,-4.21744 1.3172,-2.75955 1.00177,-6.36444 -1.09152,-8.66538 2.37397,-2.97421 0.43869,-7.83867 -3.27223,-8.53532 -1.02709,-0.2861 -2.09874,-0.37048 -3.16134,-0.36635 z"
           id="path10934"
           inkscape:connector-curvature="0" />
        <path
           inkscape:connector-curvature="0"
           id="path10838"
           style="font-style:normal;font-variant:normal;font-weight:normal;font-stretch:normal;font-size:32px;line-height:1.25;font-family:Dyuthi;-inkscape-font-specification:Dyuthi;letter-spacing:0px;word-spacing:0px;display:inline;fill:#000000;fill-opacity:1;stroke:none"
           d="m 406.43289,427.3721 q -0.625,-0.17187 -1.3125,0.10938 -1.0625,0.45312 -2.20312,0.45312 -2.45313,0 -4.17188,-1.9375 -1.70312,-1.9375 -1.70312,-4.67187 0,-2.75 1.71875,-4.73438 1.70312,-1.9375 4.15625,-1.9375 1.14062,0 2.23437,0.5 0.625,0.29688 1.25,0.0937 l 0.0625,-0.0312 q 1.1875,-0.39062 1.21875,-1.65625 0,-1.3125 -1.20312,-1.65625 -1.35938,-0.45312 -2.875,-0.5625 -0.45313,-0.0625 -0.6875,-0.0312 -0.21875,-0.0312 -0.6875,0.0312 -4.39063,0.39063 -7.125,3.01563 -2.84375,2.75 -2.84375,7.1875 0,4.10937 2.5,6.73437 2.6875,2.73438 7.46875,2.96875 0.29687,0.0469 0.46875,0.0469 h 0.10937 q 0.0625,0 0.10938,0 0.0625,0 0.125,0 h 0.10937 q 0.17188,0 0.45313,-0.0469 1.51562,-0.0625 2.82812,-0.40625 1.34375,-0.34375 1.34375,-1.70312 0.0156,-1.375 -1.29687,-1.76563 z" />
        <path
           inkscape:connector-curvature="0"
           id="path10842"
           style="font-style:normal;font-variant:normal;font-weight:normal;font-stretch:normal;font-size:32px;line-height:1.25;font-family:Dyuthi;-inkscape-font-specification:Dyuthi;letter-spacing:0px;word-spacing:0px;display:inline;fill:#000000;fill-opacity:1;stroke:none"
           d="m 440.83914,423.77835 q -0.0156,-3.60937 -1.09375,-5.03125 -2,-2.5625 -5.75,-1.9375 -1.09375,0.1875 -3.34375,1.51563 v -0.0312 q 0,-0.51563 -0.39062,-0.96875 -0.40625,-0.45313 -1.03125,-0.45313 h -1.625 q -0.54688,0.0156 -1.03125,0.45313 -0.42188,0.39062 -0.42188,1 v 11.10937 q 0,0.89063 0.65625,1.54688 0.42188,0.42187 1.54688,0.42187 h 0.0781 q 1.10938,0.0156 1.54688,-0.42187 0.625,-0.625 0.625,-1.54688 v -6.60937 q 0,0 0,-0.0312 0,-0.0469 0.0469,-0.34375 0.15625,-0.78125 1.51563,-1.59375 1.51562,-0.92188 2.9375,-0.23438 1.3125,0.65625 1.3125,2.89063 v 5.92187 q 0,0.92188 0.65625,1.54688 0.4375,0.42187 1.54687,0.42187 h 0.0156 q 1.125,0.0156 1.57812,-0.42187 0.65625,-0.65625 0.65625,-1.54688 z" />
        <path
           inkscape:connector-curvature="0"
           id="path10846"
           style="font-style:normal;font-variant:normal;font-weight:normal;font-stretch:normal;font-size:32px;line-height:1.25;font-family:Dyuthi;-inkscape-font-specification:Dyuthi;letter-spacing:0px;word-spacing:0px;display:inline;fill:#000000;fill-opacity:1;stroke:none"
           d="m 455.21414,431.15335 q -0.96875,0 -1.65625,-0.67187 -0.67187,-0.6875 -0.67187,-1.65625 v -9.21875 q 0,-0.96875 0.6875,-1.65625 0.6875,-0.6875 1.64062,-0.6875 h 0.0312 q 0.9375,0.0156 1.625,0.6875 0.6875,0.6875 0.6875,1.65625 v 9.21875 q 0,0.96875 -0.6875,1.65625 -0.67187,0.67187 -1.625,0.67187 z m 1.46875,-15.89062 q -0.73437,0.71875 -1.71875,0.71875 -1,0 -1.70312,-0.71875 -0.6875,-0.6875 -0.6875,-1.70313 0,-0.98437 0.6875,-1.6875 0.70312,-0.70312 1.70312,-0.70312 0.96875,0 1.71875,0.70312 0.67188,0.65625 0.6875,1.6875 -0.0156,1.01563 -0.6875,1.70313 z" />
        <path
           inkscape:connector-curvature="0"
           id="path10850"
           style="font-style:normal;font-variant:normal;font-weight:normal;font-stretch:normal;font-size:32px;line-height:1.25;font-family:Dyuthi;-inkscape-font-specification:Dyuthi;letter-spacing:0px;word-spacing:0px;display:inline;fill:#000000;fill-opacity:1;stroke:none"
           d="m 476.21414,424.3096 q 0,3.01563 1.65625,5.125 1.92188,2.45313 5.1875,1.76563 1.375,-0.28125 3.3125,-1.42188 v 0 q -0.0156,0.5 0.45313,1 0.40625,0.42188 0.96875,0.42188 h 1.65625 q 0.625,0 1.01562,-0.42188 0.40625,-0.42187 0.40625,-1 v -10.9375 q 0,-0.92187 -0.625,-1.54687 -0.42187,-0.42188 -1.54687,-0.42188 h -0.0469 q -1.125,-0.0156 -1.57812,0.42188 -0.65625,0.625 -0.65625,1.54687 v 6.46875 0.0156 q 0,0.0937 -0.0469,0.34375 -0.20312,1 -1.48437,1.78125 -1.26563,0.75 -2.90625,-0.0625 -1.375,-0.65625 -1.375,-2.76563 v -5.98437 q 0,-0.71875 -0.625,-1.34375 -0.4375,-0.42188 -1.54688,-0.42188 h -0.0469 q -1.10938,-0.0156 -1.54688,0.42188 -0.625,0.64062 -0.625,1.34375 z" />
        <path
           inkscape:connector-curvature="0"
           id="path10854"
           style="font-style:normal;font-variant:normal;font-weight:normal;font-stretch:normal;font-size:32px;line-height:1.25;font-family:Dyuthi;-inkscape-font-specification:Dyuthi;letter-spacing:0px;word-spacing:0px;display:inline;fill:#000000;fill-opacity:1;stroke:none"
           d="m 516.74539,416.7471 q -2.39062,0 -3.29687,0.64063 -0.46875,0.3125 -0.9375,1.04687 -1.0625,-1.625 -2.20313,-1.625 h -0.0781 q -0.89063,0 -1.57813,0.65625 -0.625,0.625 -0.625,1.54688 v 9.92187 q 0,0.92188 0.625,1.54688 0.625,0.64062 1.54688,0.64062 h 0.0469 q 0.92188,0 1.54688,-0.64062 0.65625,-0.67188 0.65625,-1.54688 v -6.04687 q 0,0 0.0312,0 0,0 0,-0.0312 0,-0.15625 0.0312,-0.34375 0.1875,-0.82813 1.21875,-1.5625 1.01562,-0.71875 2.45312,-0.48438 0.85938,0.125 1.07813,-1.26562 l 0.3125,-1.45313 q 0.0781,-0.375 -0.17188,-0.70312 -0.21875,-0.29688 -0.65625,-0.29688 z" />
        <path
           inkscape:connector-curvature="0"
           id="path10856"
           style="font-style:normal;font-variant:normal;font-weight:normal;font-stretch:normal;font-size:32px;line-height:1.25;font-family:Dyuthi;-inkscape-font-specification:Dyuthi;letter-spacing:0px;word-spacing:0px;display:inline;fill:#000000;fill-opacity:1;stroke:none"
           d="m 527.52664,428.82523 q 0.14063,-0.59375 0.76563,-0.96875 0.5625,-0.34375 1.21875,-0.125 1.26562,0.40625 2.23437,0.375 1.875,-0.0312 1.875,-1.17188 0,-0.51562 -0.42187,-0.875 -0.375,-0.29687 -1.625,-0.73437 -4.0625,-1.39063 -4.03125,-4.25 0.0469,-2.04688 1.57812,-3.29688 1.54688,-1.29687 4.15625,-1.3125 1.21875,-0.0156 2.51563,0.34375 0.57812,0.15625 0.90625,0.6875 0.34375,0.54688 0.17187,1.14063 v 0.0156 q -0.10937,0.59375 -0.6875,0.95313 -0.5625,0.34375 -1.1875,0.17187 -0.85937,-0.23437 -1.57812,-0.26562 -1.67188,-0.0312 -1.67188,1.10937 0,0.48438 0.51563,0.85938 0.4375,0.34375 1.76562,0.79687 3.75,1.32813 3.78125,4.3125 0.0312,2.04688 -1.5,3.3125 -1.54687,1.28125 -4.5625,1.28125 -1.57812,0 -3.14062,-0.42187 -0.54688,-0.15625 -0.90625,-0.75 -0.34375,-0.54688 -0.17188,-1.14063 z" />
        <path
           inkscape:connector-curvature="0"
           id="path10860"
           style="font-style:normal;font-variant:normal;font-weight:normal;font-stretch:normal;font-size:32px;line-height:1.25;font-family:Dyuthi;-inkscape-font-specification:Dyuthi;letter-spacing:0px;word-spacing:0px;display:inline;fill:#000000;fill-opacity:1;stroke:none"
           d="m 570.77664,423.77835 q -0.0156,-3.60937 -1.09375,-5.03125 -2,-2.5625 -5.75,-1.9375 -1.09375,0.1875 -3.34375,1.51563 v -0.0312 q 0,-0.51563 -0.39062,-0.96875 -0.40625,-0.45313 -1.03125,-0.45313 h -1.625 q -0.54688,0.0156 -1.03125,0.45313 -0.42188,0.39062 -0.42188,1 v 11.10937 q 0,0.89063 0.65625,1.54688 0.42188,0.42187 1.54688,0.42187 h 0.0781 q 1.10938,0.0156 1.54688,-0.42187 0.625,-0.625 0.625,-1.54688 v -6.60937 q 0,0 0,-0.0312 0,-0.0469 0.0469,-0.34375 0.15625,-0.78125 1.51563,-1.59375 1.51562,-0.92188 2.9375,-0.23438 1.3125,0.65625 1.3125,2.89063 v 5.92187 q 0,0.92188 0.65625,1.54688 0.4375,0.42187 1.54687,0.42187 h 0.0156 q 1.125,0.0156 1.57812,-0.42187 0.65625,-0.65625 0.65625,-1.54688 z" />
        <path
           style="display:inline;opacity:0.97000002;fill:#000000;fill-opacity:0.97989951;stroke:#000000;stroke-width:0.47562319;stroke-linecap:round;stroke-linejoin:round;stroke-miterlimit:4;stroke-dasharray:none;stroke-opacity:1"
           d="m 402.86681,407.55184 c -6.53299,-0.15193 -13.0724,4.4874 -14.14328,11.11026 -1.2886,6.17194 1.89505,13.28946 8.07737,15.38601 3.82461,1.3219 8.3107,1.53081 12.05591,-0.1303 3.7953,-2.00173 3.49501,-8.13993 -0.42558,-9.83063 -1.92461,-1.30349 -4.05532,-0.0466 -6.09043,-0.17186 -1.94757,-1.02958 -1.79722,-4.2811 0.0546,-5.27064 2.2753,0.24375 4.906,1.09461 6.83767,-0.69207 3.05688,-2.05966 3.02956,-7.05836 -0.22005,-8.91329 -1.80515,-1.18156 -4.02647,-1.51068 -6.14618,-1.48748 z"
           id="path10946"
           inkscape:connector-curvature="0" />
        <path
           style="display:inline;opacity:0.97000002;fill:#000000;fill-opacity:0.97989951;stroke:#000000;stroke-width:0.47562319;stroke-linecap:round;stroke-linejoin:round;stroke-miterlimit:4;stroke-dasharray:none;stroke-opacity:1"
           d="m 435.2402,412.92931 c -1.76381,-0.23302 -3.41399,1.17388 -5.0535,0.25546 -3.23514,-0.93643 -7.56047,0.80079 -7.72481,4.55651 -0.14866,4.44473 -0.39607,8.95835 0.20378,13.374 1.03415,4.79158 8.58535,5.64378 10.85538,1.41374 2.26978,4.08589 9.73512,3.54587 10.70791,-1.3133 0.57852,-3.87378 0.5271,-7.90212 -0.0877,-11.7704 -0.84343,-4.03797 -4.89986,-6.65343 -8.90109,-6.51601 z"
           id="path10948"
           inkscape:connector-curvature="0" />
        <path
           style="display:inline;opacity:0.97000002;fill:#000000;fill-opacity:0.97989951;stroke:#000000;stroke-width:0.47562319;stroke-linecap:round;stroke-linejoin:round;stroke-miterlimit:4;stroke-dasharray:none;stroke-opacity:1"
           d="m 455.11047,413.50642 c -3.31231,-0.0424 -6.22695,2.88606 -5.91688,6.23798 -0.0203,3.78175 -0.52535,7.68224 0.38497,11.38655 1.44116,4.21416 7.54717,5.03505 10.32182,1.70172 2.30766,-2.79467 1.26879,-6.73138 1.58502,-10.05532 0.18089,-3.26735 -0.32262,-7.40289 -3.81277,-8.77452 -0.80077,-0.35998 -1.68579,-0.52343 -2.56216,-0.49641 z"
           id="path10950"
           inkscape:connector-curvature="0" />
        <path
           style="display:inline;opacity:0.97000002;fill:#000000;fill-opacity:0.97989951;stroke:#000000;stroke-width:0.47562319;stroke-linecap:round;stroke-linejoin:round;stroke-miterlimit:4;stroke-dasharray:none;stroke-opacity:1"
           d="m 454.74469,407.32599 c -3.54287,0.15071 -5.89275,3.51145 -6.67199,6.62282 -0.36559,2.04814 1.1417,3.84646 2.93413,4.53969 3.36415,3.32466 9.608,0.88976 10.28639,-3.63336 0.54469,-3.76012 -2.63145,-7.74366 -6.54853,-7.52915 z m -3.12766,11.14045 c -0.11334,-0.007 -0.37579,-0.0931 0,0 z m 1.11184,0.0139 c -0.36138,0.0277 0.25373,-0.0346 0,0 z"
           id="path10952"
           inkscape:connector-curvature="0" />
        <path
           style="display:inline;opacity:0.97000002;fill:#000000;fill-opacity:0.97989951;stroke:#000000;stroke-width:0.47562319;stroke-linecap:round;stroke-linejoin:round;stroke-miterlimit:4;stroke-dasharray:none;stroke-opacity:1"
           d="m 488.2781,412.99724 c -1.89956,0.0197 -3.83764,1.16076 -4.73823,2.68989 -2.49662,-4.07617 -9.55201,-3.33415 -10.94247,1.31853 -0.63957,3.49701 -0.29974,7.16532 0.25604,10.66204 0.99879,4.75613 5.99807,8.57202 10.8937,7.25105 1.27957,-0.59933 2.41339,-0.22116 3.7251,-0.006 2.83974,0.42876 6.37189,-0.67978 7.01648,-3.82903 0.55515,-4.43236 0.30966,-8.95887 0.0192,-13.40593 -0.3125,-3.04508 -3.33451,-4.91582 -6.22978,-4.68075 z"
           id="path10954"
           inkscape:connector-curvature="0" />
        <path
           style="display:inline;opacity:0.97000002;fill:#000000;fill-opacity:0.97989951;stroke:#000000;stroke-width:0.47562319;stroke-linecap:round;stroke-linejoin:round;stroke-miterlimit:4;stroke-dasharray:none;stroke-opacity:1"
           d="m 515.31698,413.04601 c -1.3772,0.0118 -2.63099,0.90053 -3.91205,0.10102 -4.02288,-0.9668 -7.78963,3.02643 -7.31027,6.98107 0.16574,3.7223 -0.54509,7.61877 0.65259,11.2107 1.53339,3.8584 7.19509,4.85996 9.88753,1.65992 2.31468,-2.34671 1.23851,-6.0431 1.76385,-8.79484 4.0047,-0.31192 5.69684,-5.0547 4.62347,-8.46702 -0.62281,-2.47458 -3.46144,-3.18211 -5.70512,-2.69085 z"
           id="path10956"
           inkscape:connector-curvature="0" />
        <path
           style="display:inline;opacity:0.97000002;fill:#000000;fill-opacity:0.97989951;stroke:#000000;stroke-width:0.47562319;stroke-linecap:round;stroke-linejoin:round;stroke-miterlimit:4;stroke-dasharray:none;stroke-opacity:1"
           d="m 532.48459,412.8277 c -5.97772,-0.58066 -11.06776,6.83568 -7.68185,12.03863 0.96782,0.9274 -0.94905,1.72514 -0.90109,2.87279 -1.19846,3.59706 2.09277,7.30715 5.75486,7.07977 3.52809,0.1624 7.6798,0.14336 10.02977,-2.97671 2.55488,-2.84042 2.53395,-7.63898 -0.097,-10.424 2.84231,-3.12945 -0.0433,-8.2979 -3.96836,-8.50803 -1.04093,-0.11543 -2.09108,-0.0843 -3.13637,-0.0824 z"
           id="path10958"
           inkscape:connector-curvature="0" />
        <path
           style="display:inline;opacity:0.97000002;fill:#000000;fill-opacity:0.97989951;stroke:#000000;stroke-width:0.47562319;stroke-linecap:round;stroke-linejoin:round;stroke-miterlimit:4;stroke-dasharray:none;stroke-opacity:1"
           d="m 565.14768,412.93511 c -1.75102,-0.20973 -3.39587,1.15417 -5.02504,0.27927 -2.95654,-0.82346 -6.75572,0.31798 -7.48155,3.6351 -0.73291,4.21854 -0.38428,8.56539 -0.27404,12.82824 -0.0539,3.84665 4.10529,6.41974 7.61566,5.3676 1.43196,-0.35079 2.76455,-1.23203 3.51434,-2.51862 2.30076,4.33978 9.82757,3.26464 10.86641,-1.55367 0.83208,-3.90586 0.28549,-8.00284 -0.40525,-11.89232 -0.96488,-3.82507 -4.96556,-6.34155 -8.81053,-6.1456 z"
           id="path10960"
           inkscape:connector-curvature="0" />
        <path
           inkscape:connector-curvature="0"
           id="path10974"
           style="font-style:normal;font-variant:normal;font-weight:normal;font-stretch:normal;font-size:32px;line-height:1.25;font-family:Dyuthi;-inkscape-font-specification:Dyuthi;letter-spacing:0px;word-spacing:0px;fill:#ffffff;fill-opacity:1;stroke:none"
           d="m 406.43289,427.3721 q -0.625,-0.17187 -1.3125,0.10938 -1.0625,0.45312 -2.20312,0.45312 -2.45313,0 -4.17188,-1.9375 -1.70312,-1.9375 -1.70312,-4.67187 0,-2.75 1.71875,-4.73438 1.70312,-1.9375 4.15625,-1.9375 1.14062,0 2.23437,0.5 0.625,0.29688 1.25,0.0937 l 0.0625,-0.0312 q 1.1875,-0.39062 1.21875,-1.65625 0,-1.3125 -1.20312,-1.65625 -1.35938,-0.45312 -2.875,-0.5625 -0.45313,-0.0625 -0.6875,-0.0312 -0.21875,-0.0312 -0.6875,0.0312 -4.39063,0.39063 -7.125,3.01563 -2.84375,2.75 -2.84375,7.1875 0,4.10937 2.5,6.73437 2.6875,2.73438 7.46875,2.96875 0.29687,0.0469 0.46875,0.0469 h 0.10937 q 0.0625,0 0.10938,0 0.0625,0 0.125,0 h 0.10937 q 0.17188,0 0.45313,-0.0469 1.51562,-0.0625 2.82812,-0.40625 1.34375,-0.34375 1.34375,-1.70312 0.0156,-1.375 -1.29687,-1.76563 z" />
        <path
           inkscape:connector-curvature="0"
           id="path10976"
           style="font-style:normal;font-variant:normal;font-weight:normal;font-stretch:normal;font-size:32px;line-height:1.25;font-family:Dyuthi;-inkscape-font-specification:Dyuthi;letter-spacing:0px;word-spacing:0px;fill:#ffffff;fill-opacity:1;stroke:none"
           d="m 416.83914,428.65335 q -1.04687,-0.0156 -2.09375,-1.17187 -1.04687,-1.14063 -1.0625,-4.65625 0,-1.5625 1.0625,-2.76563 0.89063,-0.98437 2.09375,-1 1.39063,0.0156 2.3125,1 0.8125,0.90625 0.82813,2.76563 -0.0156,3.70312 -0.82813,4.65625 -1.04687,1.15625 -2.3125,1.17187 z m 7.53125,-4.79687 q -0.0156,-3.09375 -2.21875,-5.28125 -2.1875,-2.20313 -5.32812,-2.20313 -0.21875,0 -0.42188,0.0156 -2.70312,-0.0156 -4.89062,2.15625 -2.17188,2.17187 -2.1875,5.29687 0,3.10938 2.25,5.35938 2.26562,2.25 5.26562,2.125 0.20313,0.0156 0.42188,0 2.65625,0.0156 4.875,-2.17188 2.21875,-2.20312 2.23437,-5.29687 z" />
        <path
           inkscape:connector-curvature="0"
           id="path10978"
           style="font-style:normal;font-variant:normal;font-weight:normal;font-stretch:normal;font-size:32px;line-height:1.25;font-family:Dyuthi;-inkscape-font-specification:Dyuthi;letter-spacing:0px;word-spacing:0px;fill:#ffffff;fill-opacity:1;stroke:none"
           d="m 440.83914,423.77835 q -0.0156,-3.60937 -1.09375,-5.03125 -2,-2.5625 -5.75,-1.9375 -1.09375,0.1875 -3.34375,1.51563 v -0.0312 q 0,-0.51563 -0.39062,-0.96875 -0.40625,-0.45313 -1.03125,-0.45313 h -1.625 q -0.54688,0.0156 -1.03125,0.45313 -0.42188,0.39062 -0.42188,1 v 11.10937 q 0,0.89063 0.65625,1.54688 0.42188,0.42187 1.54688,0.42187 h 0.0781 q 1.10938,0.0156 1.54688,-0.42187 0.625,-0.625 0.625,-1.54688 v -6.60937 q 0,0 0,-0.0312 0,-0.0469 0.0469,-0.34375 0.15625,-0.78125 1.51563,-1.59375 1.51562,-0.92188 2.9375,-0.23438 1.3125,0.65625 1.3125,2.89063 v 5.92187 q 0,0.92188 0.65625,1.54688 0.4375,0.42187 1.54687,0.42187 h 0.0156 q 1.125,0.0156 1.57812,-0.42187 0.65625,-0.65625 0.65625,-1.54688 z" />
        <path
           inkscape:connector-curvature="0"
           id="path10980"
           style="font-style:normal;font-variant:normal;font-weight:normal;font-stretch:normal;font-size:32px;line-height:1.25;font-family:Dyuthi;-inkscape-font-specification:Dyuthi;letter-spacing:0px;word-spacing:0px;fill:#ffffff;fill-opacity:1;stroke:none"
           d="m 449.68289,427.45023 q -1.32812,-0.6875 -1.3125,-3.07813 v -4.10937 h 1.3125 q 0.60938,0 1.01563,-0.40625 0.4375,-0.39063 0.4375,-1.04688 v -0.0312 q 0,-0.57812 -0.4375,-1.03125 -0.4375,-0.45312 -1.01563,-0.45312 h -1.3125 v -1.59375 q -0.0156,-0.73438 -0.46875,-1.3125 -0.625,-0.79688 -1.15625,-0.79688 h -0.0625 q -0.85937,-0.0156 -1.32812,0.375 -0.85938,0.64063 -0.85938,1.73438 v 1.59375 h -0.5625 q -0.625,0 -1.0625,0.45312 -0.42187,0.42188 -0.42187,1.03125 v 0.0312 q 0,0.65625 0.42187,1.04688 0.42188,0.40625 1.0625,0.40625 h 0.5625 v 3.82812 0 q 0,2.92188 0.96875,4.84375 1.14063,2.23438 3.01563,2.21875 1.15625,0.0156 1.6875,-1.59375 0.21875,-0.6875 0.14062,-1.20312 -0.10937,-0.60938 -0.625,-0.90625 z" />
        <path
           inkscape:connector-curvature="0"
           id="path10982"
           style="font-style:normal;font-variant:normal;font-weight:normal;font-stretch:normal;font-size:32px;line-height:1.25;font-family:Dyuthi;-inkscape-font-specification:Dyuthi;letter-spacing:0px;word-spacing:0px;fill:#ffffff;fill-opacity:1;stroke:none"
           d="m 455.21414,431.15335 q -0.96875,0 -1.65625,-0.67187 -0.67187,-0.6875 -0.67187,-1.65625 v -9.21875 q 0,-0.96875 0.6875,-1.65625 0.6875,-0.6875 1.64062,-0.6875 h 0.0312 q 0.9375,0.0156 1.625,0.6875 0.6875,0.6875 0.6875,1.65625 v 9.21875 q 0,0.96875 -0.6875,1.65625 -0.67187,0.67187 -1.625,0.67187 z m 1.46875,-15.89062 q -0.73437,0.71875 -1.71875,0.71875 -1,0 -1.70312,-0.71875 -0.6875,-0.6875 -0.6875,-1.70313 0,-0.98437 0.6875,-1.6875 0.70312,-0.70312 1.70312,-0.70312 0.96875,0 1.71875,0.70312 0.67188,0.65625 0.6875,1.6875 -0.0156,1.01563 -0.6875,1.70313 z" />
        <path
           inkscape:connector-curvature="0"
           id="path10984"
           style="font-style:normal;font-variant:normal;font-weight:normal;font-stretch:normal;font-size:32px;line-height:1.25;font-family:Dyuthi;-inkscape-font-specification:Dyuthi;letter-spacing:0px;word-spacing:0px;fill:#ffffff;fill-opacity:1;stroke:none"
           d="m 474.21414,423.77835 q -0.0156,-3.60937 -1.09375,-5.03125 -2,-2.5625 -5.75,-1.9375 -1.09375,0.1875 -3.34375,1.51563 v -0.0312 q 0,-0.51563 -0.39062,-0.96875 -0.40625,-0.45313 -1.03125,-0.45313 h -1.625 q -0.54688,0.0156 -1.03125,0.45313 -0.42188,0.39062 -0.42188,1 v 11.10937 q 0,0.89063 0.65625,1.54688 0.42188,0.42187 1.54688,0.42187 h 0.0781 q 1.10938,0.0156 1.54688,-0.42187 0.625,-0.625 0.625,-1.54688 v -6.60937 q 0,0 0,-0.0312 0,-0.0469 0.0469,-0.34375 0.15625,-0.78125 1.51563,-1.59375 1.51562,-0.92188 2.9375,-0.23438 1.3125,0.65625 1.3125,2.89063 v 5.92187 q 0,0.92188 0.65625,1.54688 0.4375,0.42187 1.54687,0.42187 h 0.0156 q 1.125,0.0156 1.57812,-0.42187 0.65625,-0.65625 0.65625,-1.54688 z" />
        <path
           inkscape:connector-curvature="0"
           id="path10986"
           style="font-style:normal;font-variant:normal;font-weight:normal;font-stretch:normal;font-size:32px;line-height:1.25;font-family:Dyuthi;-inkscape-font-specification:Dyuthi;letter-spacing:0px;word-spacing:0px;fill:#ffffff;fill-opacity:1;stroke:none"
           d="m 476.21414,424.3096 q 0,3.01563 1.65625,5.125 1.92188,2.45313 5.1875,1.76563 1.375,-0.28125 3.3125,-1.42188 v 0 q -0.0156,0.5 0.45313,1 0.40625,0.42188 0.96875,0.42188 h 1.65625 q 0.625,0 1.01562,-0.42188 0.40625,-0.42187 0.40625,-1 v -10.9375 q 0,-0.92187 -0.625,-1.54687 -0.42187,-0.42188 -1.54687,-0.42188 h -0.0469 q -1.125,-0.0156 -1.57812,0.42188 -0.65625,0.625 -0.65625,1.54687 v 6.46875 0.0156 q 0,0.0937 -0.0469,0.34375 -0.20312,1 -1.48437,1.78125 -1.26563,0.75 -2.90625,-0.0625 -1.375,-0.65625 -1.375,-2.76563 v -5.98437 q 0,-0.71875 -0.625,-1.34375 -0.4375,-0.42188 -1.54688,-0.42188 h -0.0469 q -1.10938,-0.0156 -1.54688,0.42188 -0.625,0.64062 -0.625,1.34375 z" />
        <path
           inkscape:connector-curvature="0"
           id="path10988"
           style="font-style:normal;font-variant:normal;font-weight:normal;font-stretch:normal;font-size:32px;line-height:1.25;font-family:Dyuthi;-inkscape-font-specification:Dyuthi;letter-spacing:0px;word-spacing:0px;fill:#ffffff;fill-opacity:1;stroke:none"
           d="m 499.63602,419.54398 q 1.15625,0 2.09375,0.51562 1.09375,0.60938 1.60937,2.42188 h -6.84375 q 0.26563,-1.35938 0.95313,-1.98438 1.0625,-0.95312 2.1875,-0.95312 z m -0.0312,-2.78125 q -2.95313,-0.0625 -5.0625,2.0625 -2.09375,2.125 -2.09375,5.125 0,3 2.21875,5.125 2.14062,2.04687 4.48437,2.04687 3.26563,0.0156 5.125,-1 1.28125,-0.70312 1.4375,-1.40625 l 0.0312,-0.0156 q 0.20313,-0.84375 -0.29687,-1.5625 -0.64063,-0.875 -1.6875,-0.40625 l -1.60938,0.71875 q -2.89062,1.28125 -4.625,-0.29688 -0.46875,-0.45312 -0.92187,-1.875 h 8.70312 q 1.25,0 1.25,-1.3125 v -0.0156 q 0.0156,-3.14063 -2.09375,-5.14063 -2.09375,-2 -4.85937,-2.04687 z" />
        <path
           inkscape:connector-curvature="0"
           id="path10990"
           style="font-style:normal;font-variant:normal;font-weight:normal;font-stretch:normal;font-size:32px;line-height:1.25;font-family:Dyuthi;-inkscape-font-specification:Dyuthi;letter-spacing:0px;word-spacing:0px;fill:#ffffff;fill-opacity:1;stroke:none"
           d="m 516.74539,416.7471 q -2.39062,0 -3.29687,0.64063 -0.46875,0.3125 -0.9375,1.04687 -1.0625,-1.625 -2.20313,-1.625 h -0.0781 q -0.89063,0 -1.57813,0.65625 -0.625,0.625 -0.625,1.54688 v 9.92187 q 0,0.92188 0.625,1.54688 0.625,0.64062 1.54688,0.64062 h 0.0469 q 0.92188,0 1.54688,-0.64062 0.65625,-0.67188 0.65625,-1.54688 v -6.04687 q 0,0 0.0312,0 0,0 0,-0.0312 0,-0.15625 0.0312,-0.34375 0.1875,-0.82813 1.21875,-1.5625 1.01562,-0.71875 2.45312,-0.48438 0.85938,0.125 1.07813,-1.26562 l 0.3125,-1.45313 q 0.0781,-0.375 -0.17188,-0.70312 -0.21875,-0.29688 -0.65625,-0.29688 z" />
        <path
           inkscape:connector-curvature="0"
           id="path10992"
           style="font-style:normal;font-variant:normal;font-weight:normal;font-stretch:normal;font-size:32px;line-height:1.25;font-family:Dyuthi;-inkscape-font-specification:Dyuthi;letter-spacing:0px;word-spacing:0px;fill:#ffffff;fill-opacity:1;stroke:none"
           d="m 527.52664,428.82523 q 0.14063,-0.59375 0.76563,-0.96875 0.5625,-0.34375 1.21875,-0.125 1.26562,0.40625 2.23437,0.375 1.875,-0.0312 1.875,-1.17188 0,-0.51562 -0.42187,-0.875 -0.375,-0.29687 -1.625,-0.73437 -4.0625,-1.39063 -4.03125,-4.25 0.0469,-2.04688 1.57812,-3.29688 1.54688,-1.29687 4.15625,-1.3125 1.21875,-0.0156 2.51563,0.34375 0.57812,0.15625 0.90625,0.6875 0.34375,0.54688 0.17187,1.14063 v 0.0156 q -0.10937,0.59375 -0.6875,0.95313 -0.5625,0.34375 -1.1875,0.17187 -0.85937,-0.23437 -1.57812,-0.26562 -1.67188,-0.0312 -1.67188,1.10937 0,0.48438 0.51563,0.85938 0.4375,0.34375 1.76562,0.79687 3.75,1.32813 3.78125,4.3125 0.0312,2.04688 -1.5,3.3125 -1.54687,1.28125 -4.5625,1.28125 -1.57812,0 -3.14062,-0.42187 -0.54688,-0.15625 -0.90625,-0.75 -0.34375,-0.54688 -0.17188,-1.14063 z" />
        <path
           inkscape:connector-curvature="0"
           id="path10994"
           style="font-style:normal;font-variant:normal;font-weight:normal;font-stretch:normal;font-size:32px;line-height:1.25;font-family:Dyuthi;-inkscape-font-specification:Dyuthi;letter-spacing:0px;word-spacing:0px;fill:#ffffff;fill-opacity:1;stroke:none"
           d="m 543.72977,423.65335 q 0,-1.90625 0.375,-2.76562 0.42187,-0.90625 1.10937,-1.21875 1.42188,-0.6875 2.85938,-0.14063 1.25,0.48438 1.53125,1.35938 v 5.28125 q 0,1.73437 -1.48438,2.25 -0.73437,0.23437 -1.45312,0.14062 -1.21875,0.0312 -2.07813,-1.10937 -0.85937,-1.14063 -0.85937,-2.76563 z m -2.28125,5.39063 q 2,2.10937 4.84375,2.10937 0.8125,0 2.34375,-1 0.375,-0.25 0.79687,-0.1875 0.4375,0.0469 0.75,0.39063 0.73438,0.79687 1.14063,0.79687 h 1.875 q 0.375,0 0.65625,-0.28125 0.26562,-0.23437 0.26562,-0.625 v -11.40625 q 0,-0.6875 -0.48437,-1.20312 -0.5,-0.45313 -1.17188,-0.45313 h -1.20312 q -0.6875,0 -1.14063,0.45313 -0.51562,0.51562 -0.51562,1.20312 v 0 q -0.90625,-2.10937 -3.3125,-2.10937 -2.84375,0 -4.84375,2.10937 -2,2.10938 -2,5.10938 0,2.98437 2,5.09375 z" />
        <path
           inkscape:connector-curvature="0"
           id="path10996"
           style="font-style:normal;font-variant:normal;font-weight:normal;font-stretch:normal;font-size:32px;line-height:1.25;font-family:Dyuthi;-inkscape-font-specification:Dyuthi;letter-spacing:0px;word-spacing:0px;fill:#ffffff;fill-opacity:1;stroke:none"
           d="m 570.77664,423.77835 q -0.0156,-3.60937 -1.09375,-5.03125 -2,-2.5625 -5.75,-1.9375 -1.09375,0.1875 -3.34375,1.51563 v -0.0312 q 0,-0.51563 -0.39062,-0.96875 -0.40625,-0.45313 -1.03125,-0.45313 h -1.625 q -0.54688,0.0156 -1.03125,0.45313 -0.42188,0.39062 -0.42188,1 v 11.10937 q 0,0.89063 0.65625,1.54688 0.42188,0.42187 1.54688,0.42187 h 0.0781 q 1.10938,0.0156 1.54688,-0.42187 0.625,-0.625 0.625,-1.54688 v -6.60937 q 0,0 0,-0.0312 0,-0.0469 0.0469,-0.34375 0.15625,-0.78125 1.51563,-1.59375 1.51562,-0.92188 2.9375,-0.23438 1.3125,0.65625 1.3125,2.89063 v 5.92187 q 0,0.92188 0.65625,1.54688 0.4375,0.42187 1.54687,0.42187 h 0.0156 q 1.125,0.0156 1.57812,-0.42187 0.65625,-0.65625 0.65625,-1.54688 z" />
        <path
           inkscape:connector-curvature="0"
           id="path10998"
           style="font-style:normal;font-variant:normal;font-weight:normal;font-stretch:normal;font-size:32px;line-height:1.25;font-family:Dyuthi;-inkscape-font-specification:Dyuthi;letter-spacing:0px;word-spacing:0px;fill:#ffffff;fill-opacity:1;stroke:none"
           d="m 572.83914,428.82523 q 0.14063,-0.59375 0.76563,-0.96875 0.5625,-0.34375 1.21875,-0.125 1.26562,0.40625 2.23437,0.375 1.875,-0.0312 1.875,-1.17188 0,-0.51562 -0.42187,-0.875 -0.375,-0.29687 -1.625,-0.73437 -4.0625,-1.39063 -4.03125,-4.25 0.0469,-2.04688 1.57812,-3.29688 1.54688,-1.29687 4.15625,-1.3125 1.21875,-0.0156 2.51563,0.34375 0.57812,0.15625 0.90625,0.6875 0.34375,0.54688 0.17187,1.14063 v 0.0156 q -0.10937,0.59375 -0.6875,0.95313 -0.5625,0.34375 -1.1875,0.17187 -0.85937,-0.23437 -1.57812,-0.26562 -1.67188,-0.0312 -1.67188,1.10937 0,0.48438 0.51563,0.85938 0.4375,0.34375 1.76562,0.79687 3.75,1.32813 3.78125,4.3125 0.0312,2.04688 -1.5,3.3125 -1.54687,1.28125 -4.5625,1.28125 -1.57812,0 -3.14062,-0.42187 -0.54688,-0.15625 -0.90625,-0.75 -0.34375,-0.54688 -0.17188,-1.14063 z" />
      </g>
      <g
         transform="translate(-186.17908,30.023714)"
         id="g11171">
        <path
           inkscape:connector-curvature="0"
           id="path10866"
           style="font-style:normal;font-variant:normal;font-weight:normal;font-stretch:normal;font-size:32px;line-height:1.25;font-family:Dyuthi;-inkscape-font-specification:Dyuthi;letter-spacing:0px;word-spacing:0px;display:inline;fill:#000000;fill-opacity:1;stroke:none"
           d="m 612.01102,419.54398 q 1.15625,0 2.09375,0.51562 1.09375,0.60938 1.60937,2.42188 h -6.84375 q 0.26563,-1.35938 0.95313,-1.98438 1.0625,-0.95312 2.1875,-0.95312 z m -0.0312,-2.78125 q -2.95313,-0.0625 -5.0625,2.0625 -2.09375,2.125 -2.09375,5.125 0,3 2.21875,5.125 2.14062,2.04687 4.48437,2.04687 3.26563,0.0156 5.125,-1 1.28125,-0.70312 1.4375,-1.40625 l 0.0312,-0.0156 q 0.20313,-0.84375 -0.29687,-1.5625 -0.64063,-0.875 -1.6875,-0.40625 l -1.60938,0.71875 q -2.89062,1.28125 -4.625,-0.29688 -0.46875,-0.45312 -0.92187,-1.875 h 8.70312 q 1.25,0 1.25,-1.3125 v -0.0156 q 0.0156,-3.14063 -2.09375,-5.14063 -2.09375,-2 -4.85937,-2.04687 z" />
        <path
           inkscape:connector-curvature="0"
           id="path10870"
           style="font-style:normal;font-variant:normal;font-weight:normal;font-stretch:normal;font-size:32px;line-height:1.25;font-family:Dyuthi;-inkscape-font-specification:Dyuthi;letter-spacing:0px;word-spacing:0px;display:inline;fill:#000000;fill-opacity:1;stroke:none"
           d="m 648.77664,428.65335 q -1.04687,-0.0156 -2.09375,-1.17187 -1.04687,-1.14063 -1.0625,-4.65625 0,-1.5625 1.0625,-2.76563 0.89063,-0.98437 2.09375,-1 1.39063,0.0156 2.3125,1 0.8125,0.90625 0.82813,2.76563 -0.0156,3.70312 -0.82813,4.65625 -1.04687,1.15625 -2.3125,1.17187 z m 7.53125,-4.79687 q -0.0156,-3.09375 -2.21875,-5.28125 -2.1875,-2.20313 -5.32812,-2.20313 -0.21875,0 -0.42188,0.0156 -2.70312,-0.0156 -4.89062,2.15625 -2.17188,2.17187 -2.1875,5.29687 0,3.10938 2.25,5.35938 2.26562,2.25 5.26562,2.125 0.20313,0.0156 0.42188,0 2.65625,0.0156 4.875,-2.17188 2.21875,-2.20312 2.23437,-5.29687 z" />
        <path
           inkscape:connector-curvature="0"
           id="path10874"
           style="font-style:normal;font-variant:normal;font-weight:normal;font-stretch:normal;font-size:32px;line-height:1.25;font-family:Dyuthi;-inkscape-font-specification:Dyuthi;letter-spacing:0px;word-spacing:0px;display:inline;fill:#000000;fill-opacity:1;stroke:none"
           d="m 689.46414,423.77835 q -0.0156,-3.60937 -1.09375,-5.03125 -2,-2.5625 -5.75,-1.9375 -1.09375,0.1875 -3.34375,1.51563 v -0.0312 q 0,-0.51563 -0.39062,-0.96875 -0.40625,-0.45313 -1.03125,-0.45313 h -1.625 q -0.54688,0.0156 -1.03125,0.45313 -0.42188,0.39062 -0.42188,1 v 11.10937 q 0,0.89063 0.65625,1.54688 0.42188,0.42187 1.54688,0.42187 h 0.0781 q 1.10938,0.0156 1.54688,-0.42187 0.625,-0.625 0.625,-1.54688 v -6.60937 q 0,0 0,-0.0312 0,-0.0469 0.0469,-0.34375 0.15625,-0.78125 1.51563,-1.59375 1.51562,-0.92188 2.9375,-0.23438 1.3125,0.65625 1.3125,2.89063 v 5.92187 q 0,0.92188 0.65625,1.54688 0.4375,0.42187 1.54687,0.42187 h 0.0156 q 1.125,0.0156 1.57812,-0.42187 0.65625,-0.65625 0.65625,-1.54688 z" />
        <path
           inkscape:connector-curvature="0"
           id="path10878"
           style="font-style:normal;font-variant:normal;font-weight:normal;font-stretch:normal;font-size:32px;line-height:1.25;font-family:Dyuthi;-inkscape-font-specification:Dyuthi;letter-spacing:0px;word-spacing:0px;display:inline;fill:#000000;fill-opacity:1;stroke:none"
           d="m 717.88602,429.38773 q 0,-0.73438 -0.5625,-1.1875 -0.57813,-0.51563 -1.29688,-0.40625 -0.70312,0.10937 -1.3125,0.0625 -1.45312,0 -2.53125,-1.14063 -1.07812,-1.14062 -1.07812,-2.75 v -0.17187 q 0,-1.04688 0.48437,-1.90625 0.51563,-0.90625 1.32813,-1.21875 1.48437,-0.57813 3.03125,-0.29688 0.73437,0.17188 1.375,-0.28125 0.5625,-0.45312 0.5625,-1.25 v -0.10937 q 0,-0.51563 -0.28125,-0.96875 -0.34375,-0.40625 -0.85938,-0.57813 -1.07812,-0.28125 -2.21875,-0.3125 -3.25,0 -5.53125,2.10938 -2.34375,2.10937 -2.34375,5.10937 0,2.95313 2.34375,5.07813 2.28125,2.10937 5.53125,2.10937 1.14063,0 2.21875,-0.29687 0.51563,-0.10938 0.85938,-0.5625 0.28125,-0.4375 0.28125,-0.96875 z" />
        <path
           inkscape:connector-curvature="0"
           id="path10882"
           style="font-style:normal;font-variant:normal;font-weight:normal;font-stretch:normal;font-size:32px;line-height:1.25;font-family:Dyuthi;-inkscape-font-specification:Dyuthi;letter-spacing:0px;word-spacing:0px;display:inline;fill:#000000;fill-opacity:1;stroke:none"
           d="m 736.76102,419.54398 q 1.15625,0 2.09375,0.51562 1.09375,0.60938 1.60937,2.42188 h -6.84375 q 0.26563,-1.35938 0.95313,-1.98438 1.0625,-0.95312 2.1875,-0.95312 z m -0.0312,-2.78125 q -2.95313,-0.0625 -5.0625,2.0625 -2.09375,2.125 -2.09375,5.125 0,3 2.21875,5.125 2.14062,2.04687 4.48437,2.04687 3.26563,0.0156 5.125,-1 1.28125,-0.70312 1.4375,-1.40625 l 0.0312,-0.0156 q 0.20313,-0.84375 -0.29687,-1.5625 -0.64063,-0.875 -1.6875,-0.40625 l -1.60938,0.71875 q -2.89062,1.28125 -4.625,-0.29688 -0.46875,-0.45312 -0.92187,-1.875 h 8.70312 q 1.25,0 1.25,-1.3125 v -0.0156 q 0.0156,-3.14063 -2.09375,-5.14063 -2.09375,-2 -4.85937,-2.04687 z" />
        <path
           style="display:inline;opacity:0.97000002;fill:#000000;fill-opacity:0.97989951;stroke:#000000;stroke-width:0.47562319;stroke-linecap:round;stroke-linejoin:round;stroke-miterlimit:4;stroke-dasharray:none;stroke-opacity:1"
           d="m 611.49772,412.97459 c -6.79901,-0.0772 -12.01836,7.33466 -10.12441,13.74616 1.33606,5.28477 6.86395,9.03181 12.27842,8.12891 3.69144,-0.2595 8.30027,-2.39443 8.35766,-6.6211 -0.47691,-1.65157 0.87547,-3.0211 0.58756,-4.73882 0.24829,-5.89545 -5.37629,-10.75787 -11.09923,-10.51515 z m 0.99688,7.59999 c 0.36748,0.698 0.69845,2.68705 -0.37971,2.83214 -0.7718,-0.81322 -0.42127,-2.35136 0.14515,-3.24553 l 0.1467,0.25855 z"
           id="path10936"
           inkscape:connector-curvature="0" />
        <path
           style="display:inline;opacity:0.97000002;fill:#000000;fill-opacity:0.97989951;stroke:#000000;stroke-width:0.47562319;stroke-linecap:round;stroke-linejoin:round;stroke-miterlimit:4;stroke-dasharray:none;stroke-opacity:1"
           d="m 648.50251,412.58385 c -6.22973,-0.12559 -11.80123,5.88129 -10.91286,12.11992 0.0783,4.85267 4.05402,9.12094 8.63751,10.26085 6.50975,1.61959 13.45889,-3.67115 13.8524,-10.31311 0.62938,-6.42185 -5.13164,-12.43091 -11.57705,-12.06766 z"
           id="path10938"
           inkscape:connector-curvature="0" />
        <path
           style="display:inline;opacity:0.97000002;fill:#000000;fill-opacity:0.97989951;stroke:#000000;stroke-width:0.47562319;stroke-linecap:round;stroke-linejoin:round;stroke-miterlimit:4;stroke-dasharray:none;stroke-opacity:1"
           d="m 683.59771,412.93395 c -1.69767,-0.16692 -3.25646,1.20307 -4.83054,0.27462 -3.31265,-0.96774 -7.50646,0.97193 -7.76546,4.68947 -0.21796,4.25029 -0.35529,8.56065 0.0993,12.7963 0.86039,5.01284 8.66533,6.2254 11.07601,1.80333 2.26128,4.2818 9.96279,3.47148 10.88673,-1.46194 0.57639,-3.69828 0.37784,-7.54143 -0.18985,-11.23218 -0.93065,-4.21374 -5.00074,-7.13106 -9.27617,-6.8696 z"
           id="path10940"
           inkscape:connector-curvature="0" />
        <path
           style="display:inline;opacity:0.97000002;fill:#000000;fill-opacity:0.97989951;stroke:#000000;stroke-width:0.47562319;stroke-linecap:round;stroke-linejoin:round;stroke-miterlimit:4;stroke-dasharray:none;stroke-opacity:1"
           d="m 714.23918,413.03265 c -5.98901,0.0777 -11.85995,5.29819 -11.3094,11.53468 0.0599,6.7198 7.34747,11.82932 13.74442,10.30672 3.8119,-0.15756 6.09479,-4.63 4.44909,-7.92164 -0.57269,-1.68863 -2.81988,-2.67514 -3.99797,-2.85014 4.26808,-0.36418 6.02695,-6.26148 3.02896,-9.12288 -1.53111,-1.53001 -3.83706,-1.9143 -5.9151,-1.94674 z"
           id="path10942"
           inkscape:connector-curvature="0" />
        <path
           style="display:inline;opacity:0.97000002;fill:#000000;fill-opacity:0.97989951;stroke:#000000;stroke-width:0.47562319;stroke-linecap:round;stroke-linejoin:round;stroke-miterlimit:4;stroke-dasharray:none;stroke-opacity:1"
           d="m 736.3401,412.97575 c -5.8668,0.0134 -10.95916,5.45808 -10.49309,11.32741 -0.12689,6.0152 5.82616,11.46558 11.83833,10.53837 3.8261,-0.0787 8.68889,-1.89309 9.04044,-6.28087 -0.21029,-1.20504 0.0288,-2.15486 0.59162,-3.22521 1.38983,-6.30917 -4.62154,-12.80328 -10.9773,-12.3597 z m 0.48073,10.4211 c -0.1231,0.0369 -0.18315,-0.45459 0,0 z"
           id="path10944"
           inkscape:connector-curvature="0" />
        <path
           inkscape:connector-curvature="0"
           id="path10864"
           style="font-style:normal;font-variant:normal;font-weight:normal;font-stretch:normal;font-size:32px;line-height:1.25;font-family:Dyuthi;-inkscape-font-specification:Dyuthi;letter-spacing:0px;word-spacing:0px;display:inline;fill:#000000;fill-opacity:1;stroke:none"
           d="m 593.08914,428.82523 q 0.14063,-0.59375 0.76563,-0.96875 0.5625,-0.34375 1.21875,-0.125 1.26562,0.40625 2.23437,0.375 1.875,-0.0312 1.875,-1.17188 0,-0.51562 -0.42187,-0.875 -0.375,-0.29687 -1.625,-0.73437 -4.0625,-1.39063 -4.03125,-4.25 0.0469,-2.04688 1.57812,-3.29688 1.54688,-1.29687 4.15625,-1.3125 1.21875,-0.0156 2.51563,0.34375 0.57812,0.15625 0.90625,0.6875 0.34375,0.54688 0.17187,1.14063 v 0.0156 q -0.10937,0.59375 -0.6875,0.95313 -0.5625,0.34375 -1.1875,0.17187 -0.85937,-0.23437 -1.57812,-0.26562 -1.67188,-0.0312 -1.67188,1.10937 0,0.48438 0.51563,0.85938 0.4375,0.34375 1.76562,0.79687 3.75,1.32813 3.78125,4.3125 0.0312,2.04688 -1.5,3.3125 -1.54687,1.28125 -4.5625,1.28125 -1.57812,0 -3.14062,-0.42187 -0.54688,-0.15625 -0.90625,-0.75 -0.34375,-0.54688 -0.17188,-1.14063 z" />
        <path
           inkscape:connector-curvature="0"
           id="path10868"
           style="font-style:normal;font-variant:normal;font-weight:normal;font-stretch:normal;font-size:32px;line-height:1.25;font-family:Dyuthi;-inkscape-font-specification:Dyuthi;letter-spacing:0px;word-spacing:0px;display:inline;fill:#000000;fill-opacity:1;stroke:none"
           d="m 639.69852,429.38773 q 0,-0.73438 -0.5625,-1.1875 -0.57813,-0.51563 -1.29688,-0.40625 -0.70312,0.10937 -1.3125,0.0625 -1.45312,0 -2.53125,-1.14063 -1.07812,-1.14062 -1.07812,-2.75 v -0.17187 q 0,-1.04688 0.48437,-1.90625 0.51563,-0.90625 1.32813,-1.21875 1.48437,-0.57813 3.03125,-0.29688 0.73437,0.17188 1.375,-0.28125 0.5625,-0.45312 0.5625,-1.25 v -0.10937 q 0,-0.51563 -0.28125,-0.96875 -0.34375,-0.40625 -0.85938,-0.57813 -1.07812,-0.28125 -2.21875,-0.3125 -3.25,0 -5.53125,2.10938 -2.34375,2.10937 -2.34375,5.10937 0,2.95313 2.34375,5.07813 2.28125,2.10937 5.53125,2.10937 1.14063,0 2.21875,-0.29687 0.51563,-0.10938 0.85938,-0.5625 0.28125,-0.4375 0.28125,-0.96875 z" />
        <path
           inkscape:connector-curvature="0"
           id="path10872"
           style="font-style:normal;font-variant:normal;font-weight:normal;font-stretch:normal;font-size:32px;line-height:1.25;font-family:Dyuthi;-inkscape-font-specification:Dyuthi;letter-spacing:0px;word-spacing:0px;display:inline;fill:#000000;fill-opacity:1;stroke:none"
           d="m 672.77664,423.77835 q -0.0156,-3.60937 -1.09375,-5.03125 -2,-2.5625 -5.75,-1.9375 -1.09375,0.1875 -3.34375,1.51563 v -0.0312 q 0,-0.51563 -0.39062,-0.96875 -0.40625,-0.45313 -1.03125,-0.45313 h -1.625 q -0.54688,0.0156 -1.03125,0.45313 -0.42188,0.39062 -0.42188,1 v 11.10937 q 0,0.89063 0.65625,1.54688 0.42188,0.42187 1.54688,0.42187 h 0.0781 q 1.10938,0.0156 1.54688,-0.42187 0.625,-0.625 0.625,-1.54688 v -6.60937 q 0,0 0,-0.0312 0,-0.0469 0.0469,-0.34375 0.15625,-0.78125 1.51563,-1.59375 1.51562,-0.92188 2.9375,-0.23438 1.3125,0.65625 1.3125,2.89063 v 5.92187 q 0,0.92188 0.65625,1.54688 0.4375,0.42187 1.54687,0.42187 h 0.0156 q 1.125,0.0156 1.57812,-0.42187 0.65625,-0.65625 0.65625,-1.54688 z" />
        <path
           inkscape:connector-curvature="0"
           id="path10876"
           style="font-style:normal;font-variant:normal;font-weight:normal;font-stretch:normal;font-size:32px;line-height:1.25;font-family:Dyuthi;-inkscape-font-specification:Dyuthi;letter-spacing:0px;word-spacing:0px;display:inline;fill:#000000;fill-opacity:1;stroke:none"
           d="m 698.26102,419.54398 q 1.15625,0 2.09375,0.51562 1.09375,0.60938 1.60937,2.42188 h -6.84375 q 0.26563,-1.35938 0.95313,-1.98438 1.0625,-0.95312 2.1875,-0.95312 z m -0.0312,-2.78125 q -2.95313,-0.0625 -5.0625,2.0625 -2.09375,2.125 -2.09375,5.125 0,3 2.21875,5.125 2.14062,2.04687 4.48437,2.04687 3.26563,0.0156 5.125,-1 1.28125,-0.70312 1.4375,-1.40625 l 0.0312,-0.0156 q 0.20313,-0.84375 -0.29687,-1.5625 -0.64063,-0.875 -1.6875,-0.40625 l -1.60938,0.71875 q -2.89062,1.28125 -4.625,-0.29688 -0.46875,-0.45312 -0.92187,-1.875 h 8.70312 q 1.25,0 1.25,-1.3125 v -0.0156 q 0.0156,-3.14063 -2.09375,-5.14063 -2.09375,-2 -4.85937,-2.04687 z" />
        <path
           inkscape:connector-curvature="0"
           id="path10880"
           style="font-style:normal;font-variant:normal;font-weight:normal;font-stretch:normal;font-size:32px;line-height:1.25;font-family:Dyuthi;-inkscape-font-specification:Dyuthi;letter-spacing:0px;word-spacing:0px;display:inline;fill:#000000;fill-opacity:1;stroke:none"
           d="m 726.68289,427.45023 q -1.32812,-0.6875 -1.3125,-3.07813 v -4.10937 h 1.3125 q 0.60938,0 1.01563,-0.40625 0.4375,-0.39063 0.4375,-1.04688 v -0.0312 q 0,-0.57812 -0.4375,-1.03125 -0.4375,-0.45312 -1.01563,-0.45312 h -1.3125 v -1.59375 q -0.0156,-0.73438 -0.46875,-1.3125 -0.625,-0.79688 -1.15625,-0.79688 h -0.0625 q -0.85937,-0.0156 -1.32812,0.375 -0.85938,0.64063 -0.85938,1.73438 v 1.59375 h -0.5625 q -0.625,0 -1.0625,0.45312 -0.42187,0.42188 -0.42187,1.03125 v 0.0312 q 0,0.65625 0.42187,1.04688 0.42188,0.40625 1.0625,0.40625 h 0.5625 v 3.82812 0 q 0,2.92188 0.96875,4.84375 1.14063,2.23438 3.01563,2.21875 1.15625,0.0156 1.6875,-1.59375 0.21875,-0.6875 0.14062,-1.20312 -0.10937,-0.60938 -0.625,-0.90625 z" />
        <path
           inkscape:connector-curvature="0"
           id="path10884"
           style="font-style:normal;font-variant:normal;font-weight:normal;font-stretch:normal;font-size:32px;line-height:1.25;font-family:Dyuthi;-inkscape-font-specification:Dyuthi;letter-spacing:0px;word-spacing:0px;display:inline;fill:#000000;fill-opacity:1;stroke:none"
           d="m 753.87039,416.7471 q -2.39062,0 -3.29687,0.64063 -0.46875,0.3125 -0.9375,1.04687 -1.0625,-1.625 -2.20313,-1.625 h -0.0781 q -0.89063,0 -1.57813,0.65625 -0.625,0.625 -0.625,1.54688 v 9.92187 q 0,0.92188 0.625,1.54688 0.625,0.64062 1.54688,0.64062 h 0.0469 q 0.92188,0 1.54688,-0.64062 0.65625,-0.67188 0.65625,-1.54688 v -6.04687 q 0,0 0.0312,0 0,0 0,-0.0312 0,-0.15625 0.0312,-0.34375 0.1875,-0.82813 1.21875,-1.5625 1.01562,-0.71875 2.45312,-0.48438 0.85938,0.125 1.07813,-1.26562 l 0.3125,-1.45313 q 0.0781,-0.375 -0.17188,-0.70312 -0.21875,-0.29688 -0.65625,-0.29688 z" />
        <path
           style="display:inline;opacity:0.97000002;fill:#000000;fill-opacity:0.97989951;stroke:#000000;stroke-width:0.47562319;stroke-linecap:round;stroke-linejoin:round;stroke-miterlimit:4;stroke-dasharray:none;stroke-opacity:1"
           d="m 598.50401,412.68952 c -4.64995,-0.16312 -9.3777,3.54649 -9.11708,8.44533 -0.12889,1.55842 0.82403,3.14431 1.31505,4.34982 -2.77331,2.6361 -1.44741,7.61917 2.0942,8.832 4.25494,1.16106 9.73059,0.95762 12.75219,-2.70963 2.1597,-2.84122 2.18911,-7.36197 -0.30133,-10.017 2.37827,-2.97318 0.44328,-7.84211 -3.26933,-8.53881 -1.12807,-0.3132 -2.30796,-0.38662 -3.4737,-0.36171 z"
           id="path10962"
           inkscape:connector-curvature="0" />
        <path
           style="display:inline;opacity:0.97000002;fill:#000000;fill-opacity:0.97989951;stroke:#000000;stroke-width:0.47562319;stroke-linecap:round;stroke-linejoin:round;stroke-miterlimit:4;stroke-dasharray:none;stroke-opacity:1"
           d="m 636.36343,413.03091 c -5.9746,-0.0464 -11.92607,4.93861 -11.6624,11.16193 -0.10923,6.89874 7.22894,12.23699 13.7926,10.68121 3.81191,-0.15756 6.09479,-4.63 4.4491,-7.92164 -0.57269,-1.68863 -2.81988,-2.67514 -3.99797,-2.85014 4.15137,-0.35925 5.96808,-5.96877 3.20023,-8.9011 -1.42172,-1.63653 -3.68525,-2.2245 -5.78156,-2.17026 z"
           id="path10964"
           inkscape:connector-curvature="0" />
        <path
           style="display:inline;opacity:0.97000002;fill:#000000;fill-opacity:0.97989951;stroke:#000000;stroke-width:0.47562319;stroke-linecap:round;stroke-linejoin:round;stroke-miterlimit:4;stroke-dasharray:none;stroke-opacity:1"
           d="m 666.94452,412.93395 c -1.69447,-0.16569 -3.25046,1.22027 -4.82417,0.27462 -3.31157,-0.9671 -7.50443,0.97035 -7.76545,4.68656 -0.19868,4.36528 -0.41778,8.80924 0.19973,13.14583 1.03936,5.04491 8.67133,5.46676 10.97556,1.51709 2.32273,4.29041 10.04862,3.30943 10.83157,-1.68837 0.57497,-4.37976 0.68551,-9.08854 -0.96088,-13.25962 -1.5895,-3.03407 -5.07332,-4.83515 -8.45636,-4.67611 z"
           id="path10966"
           inkscape:connector-curvature="0" />
        <path
           style="display:inline;opacity:0.97000002;fill:#000000;fill-opacity:0.97989951;stroke:#000000;stroke-width:0.47562319;stroke-linecap:round;stroke-linejoin:round;stroke-miterlimit:4;stroke-dasharray:none;stroke-opacity:1"
           d="m 697.85422,412.9833 c -6.42566,-0.0732 -11.7724,6.47737 -10.42458,12.76089 0.93393,5.60647 6.51109,10.01465 12.225,9.11882 3.91488,-0.16215 8.72444,-2.55753 8.58584,-7.04551 -0.31856,-1.45985 1.26818,-2.62466 0.86218,-4.20815 -0.21369,-4.63697 -3.39398,-8.95181 -7.9315,-10.17609 -1.07384,-0.31889 -2.19672,-0.47417 -3.31694,-0.44996 z"
           id="path10968"
           inkscape:connector-curvature="0" />
        <path
           style="display:inline;opacity:0.97000002;fill:#000000;fill-opacity:0.97989951;stroke:#000000;stroke-width:0.47562319;stroke-linecap:round;stroke-linejoin:round;stroke-miterlimit:4;stroke-dasharray:none;stroke-opacity:1"
           d="m 723.30401,409.71978 c -2.86048,-0.0399 -4.87534,2.51351 -5.6788,4.92983 -2.41577,1.9594 -2.60678,6.30649 -0.0662,8.24851 0.0492,4.15179 0.88441,9.03742 4.83578,11.27515 3.23433,2.01492 7.99286,-0.0291 8.50339,-3.88244 0.67817,-2.08597 -0.3158,-4.21311 -1.52058,-5.80653 -0.51767,-1.80608 1.96941,-2.14234 2.28171,-3.8044 1.12747,-2.60423 -0.62394,-5.56267 -2.82805,-6.83674 -0.78092,-2.33938 -2.98745,-4.20876 -5.52726,-4.12338 z"
           id="path10970"
           inkscape:connector-curvature="0" />
        <path
           style="display:inline;opacity:0.97000002;fill:#000000;fill-opacity:0.97989951;stroke:#000000;stroke-width:0.47562319;stroke-linecap:round;stroke-linejoin:round;stroke-miterlimit:4;stroke-dasharray:none;stroke-opacity:1"
           d="m 753.04555,412.97169 c -1.66469,-0.10914 -3.17281,1.03531 -4.72488,0.1405 -3.8471,-0.8199 -7.43415,2.91945 -7.0011,6.71789 0.1555,3.8609 -0.55013,7.88758 0.60295,11.62891 1.5774,3.85272 7.2147,4.60961 9.86663,1.466 2.27633,-2.31531 1.49455,-5.80712 1.66979,-8.72053 3.26653,-0.25399 5.32941,-3.51493 5.0175,-6.61124 0.11913,-2.97388 -2.62724,-4.93902 -5.43089,-4.62153 z"
           id="path10972"
           inkscape:connector-curvature="0" />
        <path
           inkscape:connector-curvature="0"
           id="path11000"
           style="font-style:normal;font-variant:normal;font-weight:normal;font-stretch:normal;font-size:32px;line-height:1.25;font-family:Dyuthi;-inkscape-font-specification:Dyuthi;letter-spacing:0px;word-spacing:0px;fill:#ffffff;fill-opacity:1;stroke:none"
           d="m 593.08914,428.82523 q 0.14063,-0.59375 0.76563,-0.96875 0.5625,-0.34375 1.21875,-0.125 1.26562,0.40625 2.23437,0.375 1.875,-0.0312 1.875,-1.17188 0,-0.51562 -0.42187,-0.875 -0.375,-0.29687 -1.625,-0.73437 -4.0625,-1.39063 -4.03125,-4.25 0.0469,-2.04688 1.57812,-3.29688 1.54688,-1.29687 4.15625,-1.3125 1.21875,-0.0156 2.51563,0.34375 0.57812,0.15625 0.90625,0.6875 0.34375,0.54688 0.17187,1.14063 v 0.0156 q -0.10937,0.59375 -0.6875,0.95313 -0.5625,0.34375 -1.1875,0.17187 -0.85937,-0.23437 -1.57812,-0.26562 -1.67188,-0.0312 -1.67188,1.10937 0,0.48438 0.51563,0.85938 0.4375,0.34375 1.76562,0.79687 3.75,1.32813 3.78125,4.3125 0.0312,2.04688 -1.5,3.3125 -1.54687,1.28125 -4.5625,1.28125 -1.57812,0 -3.14062,-0.42187 -0.54688,-0.15625 -0.90625,-0.75 -0.34375,-0.54688 -0.17188,-1.14063 z" />
        <path
           inkscape:connector-curvature="0"
           id="path11002"
           style="font-style:normal;font-variant:normal;font-weight:normal;font-stretch:normal;font-size:32px;line-height:1.25;font-family:Dyuthi;-inkscape-font-specification:Dyuthi;letter-spacing:0px;word-spacing:0px;fill:#ffffff;fill-opacity:1;stroke:none"
           d="m 612.01102,419.54398 q 1.15625,0 2.09375,0.51562 1.09375,0.60938 1.60937,2.42188 h -6.84375 q 0.26563,-1.35938 0.95313,-1.98438 1.0625,-0.95312 2.1875,-0.95312 z m -0.0312,-2.78125 q -2.95313,-0.0625 -5.0625,2.0625 -2.09375,2.125 -2.09375,5.125 0,3 2.21875,5.125 2.14062,2.04687 4.48437,2.04687 3.26563,0.0156 5.125,-1 1.28125,-0.70312 1.4375,-1.40625 l 0.0312,-0.0156 q 0.20313,-0.84375 -0.29687,-1.5625 -0.64063,-0.875 -1.6875,-0.40625 l -1.60938,0.71875 q -2.89062,1.28125 -4.625,-0.29688 -0.46875,-0.45312 -0.92187,-1.875 h 8.70312 q 1.25,0 1.25,-1.3125 v -0.0156 q 0.0156,-3.14063 -2.09375,-5.14063 -2.09375,-2 -4.85937,-2.04687 z" />
        <path
           inkscape:connector-curvature="0"
           id="path11004"
           style="font-style:normal;font-variant:normal;font-weight:normal;font-stretch:normal;font-size:32px;line-height:1.25;font-family:Dyuthi;-inkscape-font-specification:Dyuthi;letter-spacing:0px;word-spacing:0px;fill:#ffffff;fill-opacity:1;stroke:none"
           d="m 639.69852,429.38773 q 0,-0.73438 -0.5625,-1.1875 -0.57813,-0.51563 -1.29688,-0.40625 -0.70312,0.10937 -1.3125,0.0625 -1.45312,0 -2.53125,-1.14063 -1.07812,-1.14062 -1.07812,-2.75 v -0.17187 q 0,-1.04688 0.48437,-1.90625 0.51563,-0.90625 1.32813,-1.21875 1.48437,-0.57813 3.03125,-0.29688 0.73437,0.17188 1.375,-0.28125 0.5625,-0.45312 0.5625,-1.25 v -0.10937 q 0,-0.51563 -0.28125,-0.96875 -0.34375,-0.40625 -0.85938,-0.57813 -1.07812,-0.28125 -2.21875,-0.3125 -3.25,0 -5.53125,2.10938 -2.34375,2.10937 -2.34375,5.10937 0,2.95313 2.34375,5.07813 2.28125,2.10937 5.53125,2.10937 1.14063,0 2.21875,-0.29687 0.51563,-0.10938 0.85938,-0.5625 0.28125,-0.4375 0.28125,-0.96875 z" />
        <path
           inkscape:connector-curvature="0"
           id="path11006"
           style="font-style:normal;font-variant:normal;font-weight:normal;font-stretch:normal;font-size:32px;line-height:1.25;font-family:Dyuthi;-inkscape-font-specification:Dyuthi;letter-spacing:0px;word-spacing:0px;fill:#ffffff;fill-opacity:1;stroke:none"
           d="m 648.77664,428.65335 q -1.04687,-0.0156 -2.09375,-1.17187 -1.04687,-1.14063 -1.0625,-4.65625 0,-1.5625 1.0625,-2.76563 0.89063,-0.98437 2.09375,-1 1.39063,0.0156 2.3125,1 0.8125,0.90625 0.82813,2.76563 -0.0156,3.70312 -0.82813,4.65625 -1.04687,1.15625 -2.3125,1.17187 z m 7.53125,-4.79687 q -0.0156,-3.09375 -2.21875,-5.28125 -2.1875,-2.20313 -5.32812,-2.20313 -0.21875,0 -0.42188,0.0156 -2.70312,-0.0156 -4.89062,2.15625 -2.17188,2.17187 -2.1875,5.29687 0,3.10938 2.25,5.35938 2.26562,2.25 5.26562,2.125 0.20313,0.0156 0.42188,0 2.65625,0.0156 4.875,-2.17188 2.21875,-2.20312 2.23437,-5.29687 z" />
        <path
           inkscape:connector-curvature="0"
           id="path11008"
           style="font-style:normal;font-variant:normal;font-weight:normal;font-stretch:normal;font-size:32px;line-height:1.25;font-family:Dyuthi;-inkscape-font-specification:Dyuthi;letter-spacing:0px;word-spacing:0px;fill:#ffffff;fill-opacity:1;stroke:none"
           d="m 672.77664,423.77835 q -0.0156,-3.60937 -1.09375,-5.03125 -2,-2.5625 -5.75,-1.9375 -1.09375,0.1875 -3.34375,1.51563 v -0.0312 q 0,-0.51563 -0.39062,-0.96875 -0.40625,-0.45313 -1.03125,-0.45313 h -1.625 q -0.54688,0.0156 -1.03125,0.45313 -0.42188,0.39062 -0.42188,1 v 11.10937 q 0,0.89063 0.65625,1.54688 0.42188,0.42187 1.54688,0.42187 h 0.0781 q 1.10938,0.0156 1.54688,-0.42187 0.625,-0.625 0.625,-1.54688 v -6.60937 q 0,0 0,-0.0312 0,-0.0469 0.0469,-0.34375 0.15625,-0.78125 1.51563,-1.59375 1.51562,-0.92188 2.9375,-0.23438 1.3125,0.65625 1.3125,2.89063 v 5.92187 q 0,0.92188 0.65625,1.54688 0.4375,0.42187 1.54687,0.42187 h 0.0156 q 1.125,0.0156 1.57812,-0.42187 0.65625,-0.65625 0.65625,-1.54688 z" />
        <path
           inkscape:connector-curvature="0"
           id="path11010"
           style="font-style:normal;font-variant:normal;font-weight:normal;font-stretch:normal;font-size:32px;line-height:1.25;font-family:Dyuthi;-inkscape-font-specification:Dyuthi;letter-spacing:0px;word-spacing:0px;fill:#ffffff;fill-opacity:1;stroke:none"
           d="m 689.46414,423.77835 q -0.0156,-3.60937 -1.09375,-5.03125 -2,-2.5625 -5.75,-1.9375 -1.09375,0.1875 -3.34375,1.51563 v -0.0312 q 0,-0.51563 -0.39062,-0.96875 -0.40625,-0.45313 -1.03125,-0.45313 h -1.625 q -0.54688,0.0156 -1.03125,0.45313 -0.42188,0.39062 -0.42188,1 v 11.10937 q 0,0.89063 0.65625,1.54688 0.42188,0.42187 1.54688,0.42187 h 0.0781 q 1.10938,0.0156 1.54688,-0.42187 0.625,-0.625 0.625,-1.54688 v -6.60937 q 0,0 0,-0.0312 0,-0.0469 0.0469,-0.34375 0.15625,-0.78125 1.51563,-1.59375 1.51562,-0.92188 2.9375,-0.23438 1.3125,0.65625 1.3125,2.89063 v 5.92187 q 0,0.92188 0.65625,1.54688 0.4375,0.42187 1.54687,0.42187 h 0.0156 q 1.125,0.0156 1.57812,-0.42187 0.65625,-0.65625 0.65625,-1.54688 z" />
        <path
           inkscape:connector-curvature="0"
           id="path11012"
           style="font-style:normal;font-variant:normal;font-weight:normal;font-stretch:normal;font-size:32px;line-height:1.25;font-family:Dyuthi;-inkscape-font-specification:Dyuthi;letter-spacing:0px;word-spacing:0px;fill:#ffffff;fill-opacity:1;stroke:none"
           d="m 698.26102,419.54398 q 1.15625,0 2.09375,0.51562 1.09375,0.60938 1.60937,2.42188 h -6.84375 q 0.26563,-1.35938 0.95313,-1.98438 1.0625,-0.95312 2.1875,-0.95312 z m -0.0312,-2.78125 q -2.95313,-0.0625 -5.0625,2.0625 -2.09375,2.125 -2.09375,5.125 0,3 2.21875,5.125 2.14062,2.04687 4.48437,2.04687 3.26563,0.0156 5.125,-1 1.28125,-0.70312 1.4375,-1.40625 l 0.0312,-0.0156 q 0.20313,-0.84375 -0.29687,-1.5625 -0.64063,-0.875 -1.6875,-0.40625 l -1.60938,0.71875 q -2.89062,1.28125 -4.625,-0.29688 -0.46875,-0.45312 -0.92187,-1.875 h 8.70312 q 1.25,0 1.25,-1.3125 v -0.0156 q 0.0156,-3.14063 -2.09375,-5.14063 -2.09375,-2 -4.85937,-2.04687 z" />
        <path
           inkscape:connector-curvature="0"
           id="path11014"
           style="font-style:normal;font-variant:normal;font-weight:normal;font-stretch:normal;font-size:32px;line-height:1.25;font-family:Dyuthi;-inkscape-font-specification:Dyuthi;letter-spacing:0px;word-spacing:0px;fill:#ffffff;fill-opacity:1;stroke:none"
           d="m 717.88602,429.38773 q 0,-0.73438 -0.5625,-1.1875 -0.57813,-0.51563 -1.29688,-0.40625 -0.70312,0.10937 -1.3125,0.0625 -1.45312,0 -2.53125,-1.14063 -1.07812,-1.14062 -1.07812,-2.75 v -0.17187 q 0,-1.04688 0.48437,-1.90625 0.51563,-0.90625 1.32813,-1.21875 1.48437,-0.57813 3.03125,-0.29688 0.73437,0.17188 1.375,-0.28125 0.5625,-0.45312 0.5625,-1.25 v -0.10937 q 0,-0.51563 -0.28125,-0.96875 -0.34375,-0.40625 -0.85938,-0.57813 -1.07812,-0.28125 -2.21875,-0.3125 -3.25,0 -5.53125,2.10938 -2.34375,2.10937 -2.34375,5.10937 0,2.95313 2.34375,5.07813 2.28125,2.10937 5.53125,2.10937 1.14063,0 2.21875,-0.29687 0.51563,-0.10938 0.85938,-0.5625 0.28125,-0.4375 0.28125,-0.96875 z" />
        <path
           inkscape:connector-curvature="0"
           id="path11016"
           style="font-style:normal;font-variant:normal;font-weight:normal;font-stretch:normal;font-size:32px;line-height:1.25;font-family:Dyuthi;-inkscape-font-specification:Dyuthi;letter-spacing:0px;word-spacing:0px;fill:#ffffff;fill-opacity:1;stroke:none"
           d="m 726.68289,427.45023 q -1.32812,-0.6875 -1.3125,-3.07813 v -4.10937 h 1.3125 q 0.60938,0 1.01563,-0.40625 0.4375,-0.39063 0.4375,-1.04688 v -0.0312 q 0,-0.57812 -0.4375,-1.03125 -0.4375,-0.45312 -1.01563,-0.45312 h -1.3125 v -1.59375 q -0.0156,-0.73438 -0.46875,-1.3125 -0.625,-0.79688 -1.15625,-0.79688 h -0.0625 q -0.85937,-0.0156 -1.32812,0.375 -0.85938,0.64063 -0.85938,1.73438 v 1.59375 h -0.5625 q -0.625,0 -1.0625,0.45312 -0.42187,0.42188 -0.42187,1.03125 v 0.0312 q 0,0.65625 0.42187,1.04688 0.42188,0.40625 1.0625,0.40625 h 0.5625 v 3.82812 0 q 0,2.92188 0.96875,4.84375 1.14063,2.23438 3.01563,2.21875 1.15625,0.0156 1.6875,-1.59375 0.21875,-0.6875 0.14062,-1.20312 -0.10937,-0.60938 -0.625,-0.90625 z" />
        <path
           inkscape:connector-curvature="0"
           id="path11018"
           style="font-style:normal;font-variant:normal;font-weight:normal;font-stretch:normal;font-size:32px;line-height:1.25;font-family:Dyuthi;-inkscape-font-specification:Dyuthi;letter-spacing:0px;word-spacing:0px;fill:#ffffff;fill-opacity:1;stroke:none"
           d="m 736.76102,419.54398 q 1.15625,0 2.09375,0.51562 1.09375,0.60938 1.60937,2.42188 h -6.84375 q 0.26563,-1.35938 0.95313,-1.98438 1.0625,-0.95312 2.1875,-0.95312 z m -0.0312,-2.78125 q -2.95313,-0.0625 -5.0625,2.0625 -2.09375,2.125 -2.09375,5.125 0,3 2.21875,5.125 2.14062,2.04687 4.48437,2.04687 3.26563,0.0156 5.125,-1 1.28125,-0.70312 1.4375,-1.40625 l 0.0312,-0.0156 q 0.20313,-0.84375 -0.29687,-1.5625 -0.64063,-0.875 -1.6875,-0.40625 l -1.60938,0.71875 q -2.89062,1.28125 -4.625,-0.29688 -0.46875,-0.45312 -0.92187,-1.875 h 8.70312 q 1.25,0 1.25,-1.3125 v -0.0156 q 0.0156,-3.14063 -2.09375,-5.14063 -2.09375,-2 -4.85937,-2.04687 z" />
        <path
           inkscape:connector-curvature="0"
           id="path11020"
           style="font-style:normal;font-variant:normal;font-weight:normal;font-stretch:normal;font-size:32px;line-height:1.25;font-family:Dyuthi;-inkscape-font-specification:Dyuthi;letter-spacing:0px;word-spacing:0px;fill:#ffffff;fill-opacity:1;stroke:none"
           d="m 753.87039,416.7471 q -2.39062,0 -3.29687,0.64063 -0.46875,0.3125 -0.9375,1.04687 -1.0625,-1.625 -2.20313,-1.625 h -0.0781 q -0.89063,0 -1.57813,0.65625 -0.625,0.625 -0.625,1.54688 v 9.92187 q 0,0.92188 0.625,1.54688 0.625,0.64062 1.54688,0.64062 h 0.0469 q 0.92188,0 1.54688,-0.64062 0.65625,-0.67188 0.65625,-1.54688 v -6.04687 q 0,0 0.0312,0 0,0 0,-0.0312 0,-0.15625 0.0312,-0.34375 0.1875,-0.82813 1.21875,-1.5625 1.01562,-0.71875 2.45312,-0.48438 0.85938,0.125 1.07813,-1.26562 l 0.3125,-1.45313 q 0.0781,-0.375 -0.17188,-0.70312 -0.21875,-0.29688 -0.65625,-0.29688 z" />
      </g>
    </g>
  </g>
</svg>
