<?xml version="1.0" encoding="UTF-8" standalone="no"?>
<!-- Created with Inkscape (http://www.inkscape.org/) -->

<svg
   xmlns:dc="http://purl.org/dc/elements/1.1/"
   xmlns:cc="http://creativecommons.org/ns#"
   xmlns:rdf="http://www.w3.org/1999/02/22-rdf-syntax-ns#"
   xmlns:svg="http://www.w3.org/2000/svg"
   xmlns="http://www.w3.org/2000/svg"
   xmlns:sodipodi="http://sodipodi.sourceforge.net/DTD/sodipodi-0.dtd"
   xmlns:inkscape="http://www.inkscape.org/namespaces/inkscape"
   width="28.397036mm"
   height="7.4216504mm"
   viewBox="0 0 28.397035 7.4216504"
   version="1.1"
   id="svg8"
   inkscape:version="0.92.4 (unknown)"
   sodipodi:docname="buttontext_scores_fr.svg">
  <defs
     id="defs2" />
  <sodipodi:namedview
     id="base"
     pagecolor="#ffffff"
     bordercolor="#666666"
     borderopacity="1.0"
     inkscape:pageopacity="0.0"
     inkscape:pageshadow="2"
     inkscape:zoom="1.4"
     inkscape:cx="70.559243"
     inkscape:cy="65.812641"
     inkscape:document-units="mm"
     inkscape:current-layer="layer1"
     showgrid="false"
     inkscape:window-width="927"
     inkscape:window-height="1025"
     inkscape:window-x="67"
     inkscape:window-y="27"
     inkscape:window-maximized="0" />
  <metadata
     id="metadata5">
    <rdf:RDF>
      <cc:Work
         rdf:about="">
        <dc:format>image/svg+xml</dc:format>
        <dc:type
           rdf:resource="http://purl.org/dc/dcmitype/StillImage" />
        <dc:title></dc:title>
      </cc:Work>
    </rdf:RDF>
  </metadata>
  <g
     inkscape:label="Layer 1"
     inkscape:groupmode="layer"
     id="layer1"
     transform="translate(-59.39651,-204.82896)">
    <g
       style="display:inline"
       id="g4381"
       transform="matrix(0.26458333,0,0,0.26458333,35.777366,36.279604)">
      <path
         d="m 101.39524,649.22225 q -1.974854,-0.75599 -2.684567,-1.20342 -0.817714,-0.54 -0.817714,-1.38857 0,-0.72514 0.617143,-1.23429 0.74057,-0.55543 2.067428,-0.54 1.03371,0 2.32971,0.37029 0.74057,0.20057 1.35771,-0.16972 0.648,-0.38571 0.864,-1.09542 l 0.0309,-0.0309 q 0.16971,-0.72514 -0.216,-1.43486 -0.40114,-0.67885 -1.12629,-0.84857 -2.00571,-0.49371 -3.19371,-0.49371 -3.286279,-0.0309 -5.322848,1.60457 -2.021141,1.57371 -2.021141,4.212 0,3.88799 5.353709,5.80113 1.74343,0.61714 2.45314,1.188 0.69429,0.55543 0.69429,1.37314 0,0.94114 -0.78686,1.43486 -0.78686,0.57085 -2.14457,0.57085 -1.126285,0 -2.977711,-0.58628 -0.786857,-0.26229 -1.49657,0.13886 -0.694285,0.38571 -0.894856,1.17257 l -0.03086,0.0617 q -0.169714,0.72514 0.231429,1.404 0.385714,0.67886 1.095427,0.84857 2.283426,0.67886 3.795425,0.67886 3.995996,0 6.078856,-1.91314 1.74342,-1.63543 1.74342,-4.11943 0,-2.02114 -1.23428,-3.42514 -1.188,-1.41943 -3.76457,-2.376 z"
         style="font-style:normal;font-variant:normal;font-weight:normal;font-stretch:normal;font-size:31.59768105px;line-height:1.25;font-family:Dyuthi;-inkscape-font-specification:Dyuthi;letter-spacing:0px;word-spacing:0px;display:inline;fill:#000000;fill-opacity:1;stroke:none;stroke-width:0.98742753"
         id="path4201"
         inkscape:connector-curvature="0" />
      <path
         d="m 132.51464,656.65882 q -1.49657,-1.88229 -1.48114,-6.83485 0,-2.51486 1.48114,-4.36628 1.46571,-1.82057 3.50228,-1.82057 1.85143,0 3.40971,1.82057 1.55828,1.82057 1.55828,4.36628 0,5.01428 -1.55828,6.83485 -1.55828,1.82057 -3.50228,1.82057 -1.944,0 -3.40971,-1.82057 z m 3.50228,-15.6137 q -0.216,0 -0.66343,0.0617 -3.74914,0.33943 -6.38742,2.97772 -2.73085,2.69999 -2.73085,7.11256 0,4.07314 2.39142,6.60342 2.39143,2.53028 6.72685,2.94686 0.29314,0.0771 0.41657,0.0617 0.0463,-0.0154 0.108,0 h 0.26229 q 0.0463,0.0154 0.108,0 0.13886,-0.0463 0.41657,-0.0617 4.21199,-0.26229 6.72685,-2.94686 2.40685,-2.57657 2.39143,-6.60342 0.0154,-4.38171 -2.73086,-7.11256 -2.46857,-2.49943 -6.38742,-2.97772 -0.41657,-0.0617 -0.648,-0.0617 z"
         style="font-style:normal;font-variant:normal;font-weight:normal;font-stretch:normal;font-size:31.59768105px;line-height:1.25;font-family:Dyuthi;-inkscape-font-specification:Dyuthi;letter-spacing:0px;word-spacing:0px;display:inline;fill:#000000;fill-opacity:1;stroke:none;stroke-width:0.98742753"
         id="path4205"
         inkscape:connector-curvature="0" />
      <path
         d="m 169.0186,657.22967 v -4.87542 l 5.60056,0.13886 q 0.69429,0.0154 1.23429,-0.50914 0.50914,-0.49372 0.50914,-1.23429 v -0.0617 q 0.0154,-0.72514 -0.49372,-1.20343 -0.55542,-0.52457 -1.24971,-0.50914 l -5.60056,0.13885 v -4.38171 l 5.93999,0.27772 q 0.60171,0.0309 1.12628,-0.38571 0.16972,-0.13886 0.60172,-0.98743 l 0.0154,-0.0617 q 0.41657,-0.84857 -0.33943,-1.77428 -0.49372,-0.61714 -1.37314,-0.61714 h -7.85314 q -1.17257,0 -1.944,0.78685 -0.81771,0.84857 -0.81771,1.97486 v 13.94741 q 0,1.12629 0.81771,1.944 0.81772,0.81771 1.944,0.81771 h 8.26971 q 0.74057,0.0154 1.24971,-0.50914 0.50914,-0.49371 0.50914,-1.23428 v -0.0617 q 0,-0.77142 -0.50914,-1.23428 -0.57086,-0.50914 -1.24971,-0.50914 z"
         style="font-style:normal;font-variant:normal;font-weight:normal;font-stretch:normal;font-size:31.59768105px;line-height:1.25;font-family:Dyuthi;-inkscape-font-specification:Dyuthi;letter-spacing:0px;word-spacing:0px;display:inline;fill:#000000;fill-opacity:1;stroke:none;stroke-width:0.98742753"
         id="path4209"
         inkscape:connector-curvature="0" />
      <path
         inkscape:connector-curvature="0"
         id="path4297"
         d="m 168.22659,637.28707 c -2.89775,-0.18812 -6.17236,1.11631 -7.1106,4.08654 -1.09576,3.74951 -0.44885,7.72767 -0.62267,11.57607 0.1745,3.17174 -0.54812,6.92782 1.81201,9.4864 2.35051,2.54419 6.0414,2.03444 9.1551,2.08866 2.9127,-0.0746 6.60586,0.43214 8.54418,-2.29532 1.66966,-2.31605 1.31922,-5.80749 -0.98912,-7.58206 -0.2701,-0.64592 0.93946,-1.46238 0.97724,-2.3254 0.57285,-1.76332 0.138,-3.79175 -1.08054,-5.18392 2.43591,-2.25048 2.33833,-6.5353 -0.35841,-8.54134 -2.40754,-1.96085 -5.73561,-1.09044 -8.57991,-1.30851 -0.58243,-10e-4 -1.16487,-0.009 -1.74728,-10e-4 z"
         style="display:inline;opacity:0.97000002;fill:#000000;fill-opacity:1;stroke:#000000;stroke-width:0.33631638;stroke-linecap:round;stroke-linejoin:round;stroke-miterlimit:4;stroke-dasharray:none;stroke-opacity:1" />
      <path
         inkscape:connector-curvature="0"
         id="path4299"
         d="m 135.81549,637.24314 c -6.55354,0.0308 -12.78751,5.32388 -13.29621,11.97152 -0.81362,5.31111 1.61033,11.16271 6.50502,13.67138 5.60924,3.13439 13.31232,2.05077 17.54289,-2.88201 4.75049,-5.6341 3.92723,-15.19268 -1.98497,-19.71836 -2.46777,-1.95083 -5.61645,-3.0681 -8.76673,-3.04253 z m 0.10674,10.3584 c 1.61612,0.90204 1.06239,3.03254 0.99803,4.5369 -0.17531,0.75987 -0.17444,2.07527 -1.01486,2.3598 -1.07999,-1.15179 -0.81261,-2.98103 -0.96395,-4.43796 0.008,-0.90315 0.1975,-1.89869 0.98078,-2.45874 z"
         style="display:inline;opacity:0.97000002;fill:#000000;fill-opacity:1;stroke:#000000;stroke-width:0.33631638;stroke-linecap:round;stroke-linejoin:round;stroke-miterlimit:4;stroke-dasharray:none;stroke-opacity:1" />
      <path
         inkscape:connector-curvature="0"
         id="path4301"
         d="m 100.26169,637.26695 c -4.789,-0.11289 -9.810111,3.05148 -10.70448,7.95591 -0.454241,3.03321 0.360944,6.36405 2.832332,8.34756 -3.188074,1.74383 -3.852336,6.58883 -1.140076,9.05082 2.669223,2.19006 6.446469,2.55622 9.770094,2.15534 4.67137,-0.53518 9.0528,-4.3225 9.24829,-9.19615 0.22999,-2.91691 -1.1594,-5.87559 -3.35537,-7.69603 3.14269,-2.38276 2.65211,-7.93361 -1.00542,-9.55989 -1.76998,-0.73929 -3.73462,-1.04256 -5.64537,-1.05756 z"
         style="display:inline;opacity:0.97000002;fill:#000000;fill-opacity:1;stroke:#000000;stroke-width:0.33631638;stroke-linecap:round;stroke-linejoin:round;stroke-miterlimit:4;stroke-dasharray:none;stroke-opacity:1" />
      <path
         d="m 122.60951,656.9211 q -0.61715,-0.16971 -1.296,0.108 -1.04915,0.44743 -2.17543,0.44743 -2.42228,0 -4.11942,-1.91314 -1.68172,-1.91314 -1.68172,-4.61314 0,-2.71542 1.69714,-4.67485 1.68172,-1.91314 4.104,-1.91314 1.12628,0 2.20628,0.49371 0.61715,0.29315 1.23429,0.0926 l 0.0617,-0.0308 q 1.17257,-0.38572 1.20343,-1.63543 0,-1.296 -1.188,-1.63543 -1.34228,-0.44742 -2.83885,-0.55542 -0.44743,-0.0617 -0.67886,-0.0309 -0.216,-0.0309 -0.67886,0.0309 -4.33542,0.38571 -7.03542,2.97771 -2.80799,2.71542 -2.80799,7.09713 0,4.05771 2.46856,6.64971 2.65372,2.7 7.37485,2.93143 0.29315,0.0463 0.46286,0.0463 h 0.108 q 0.0617,0 0.108,0 0.0617,0 0.12343,0 h 0.108 q 0.16971,0 0.44743,-0.0463 1.49657,-0.0617 2.79257,-0.40115 1.32685,-0.33943 1.32685,-1.68171 0.0154,-1.35771 -1.28057,-1.74343 z"
         style="font-style:normal;font-variant:normal;font-weight:normal;font-stretch:normal;font-size:31.59768105px;line-height:1.25;font-family:Dyuthi;-inkscape-font-specification:Dyuthi;letter-spacing:0px;word-spacing:0px;display:inline;fill:#000000;fill-opacity:1;stroke:none;stroke-width:0.98742753"
         id="path4203"
         inkscape:connector-curvature="0" />
      <path
         d="m 151.90833,643.37483 h 2.22171 q 1.09543,0 1.944,0.89486 0.83314,0.84857 0.83314,3.17828 0,2.34514 -0.83314,3.19371 -0.78686,0.83314 -1.944,0.864 h -2.22171 z m 7.03542,9.17999 q 0.66343,-0.57085 1.09543,-1.24971 1.188,-1.85143 1.188,-3.71828 0,-2.29886 -1.52743,-4.07314 -1.49657,-1.75886 -3.74914,-2.08286 l -0.13885,-0.0308 q -0.24686,-0.0617 -0.83315,-0.0617 h -5.32285 q -0.95657,0 -1.63543,0.67886 -0.67885,0.67886 -0.67885,1.60457 v 14.98113 q 0,0.89485 0.67885,1.57371 0.648,0.648 1.57372,0.648 h 0.0617 q 0.87943,0 1.57371,-0.648 0.67886,-0.61714 0.67886,-1.57371 v -4.752 l 3.39428,-0.0617 1.45029,4.30456 q 0.72514,2.17543 2.53028,2.63829 0.864,0.24685 1.65086,-0.216 h 0.0308 q 0.67886,-0.0154 1.01829,-1.35772 0.26228,-1.04914 -0.23143,-1.88228 z"
         style="font-style:normal;font-variant:normal;font-weight:normal;font-stretch:normal;font-size:31.59768105px;line-height:1.25;font-family:Dyuthi;-inkscape-font-specification:Dyuthi;letter-spacing:0px;word-spacing:0px;display:inline;fill:#000000;fill-opacity:1;stroke:none;stroke-width:0.98742753"
         id="path4207"
         inkscape:connector-curvature="0" />
      <path
         d="m 187.54829,649.22225 q -1.97485,-0.75599 -2.68456,-1.20342 -0.81772,-0.54 -0.81772,-1.38857 0,-0.72514 0.61714,-1.23429 0.74058,-0.55543 2.06743,-0.54 1.03371,0 2.32971,0.37029 0.74057,0.20057 1.35772,-0.16972 0.648,-0.38571 0.86399,-1.09542 l 0.0309,-0.0309 q 0.16972,-0.72514 -0.216,-1.43486 -0.40114,-0.67885 -1.12628,-0.84857 -2.00571,-0.49371 -3.19371,-0.49371 -3.28629,-0.0309 -5.32285,1.60457 -2.02115,1.57371 -2.02115,4.212 0,3.88799 5.35371,5.80113 1.74343,0.61714 2.45314,1.188 0.69429,0.55543 0.69429,1.37314 0,0.94114 -0.78686,1.43486 -0.78685,0.57085 -2.14457,0.57085 -1.12628,0 -2.97771,-0.58628 -0.78685,-0.26229 -1.49657,0.13886 -0.69428,0.38571 -0.89485,1.17257 l -0.0309,0.0617 q -0.16972,0.72514 0.23143,1.404 0.38571,0.67886 1.09542,0.84857 2.28343,0.67886 3.79543,0.67886 3.99599,0 6.07885,-1.91314 1.74343,-1.63543 1.74343,-4.11943 0,-2.02114 -1.23429,-3.42514 -1.188,-1.41943 -3.76457,-2.376 z"
         style="font-style:normal;font-variant:normal;font-weight:normal;font-stretch:normal;font-size:31.59768105px;line-height:1.25;font-family:Dyuthi;-inkscape-font-specification:Dyuthi;letter-spacing:0px;word-spacing:0px;display:inline;fill:#000000;fill-opacity:1;stroke:none;stroke-width:0.98742753"
         id="path4211"
         inkscape:connector-curvature="0" />
      <path
         inkscape:connector-curvature="0"
         id="path4311"
         d="m 119.08794,637.20619 c -5.88931,-0.0195 -11.88939,3.66044 -13.66367,9.4277 -0.8558,3.20504 -0.93934,6.78142 0.30913,9.8912 1.76586,4.52092 6.28028,7.49431 11.02806,7.96829 2.92644,0.4046 6.14519,0.21964 8.73546,-1.30477 3.19788,-2.0581 3.00444,-7.27028 -0.18803,-9.23721 -1.84051,-1.33825 -4.18347,-0.93664 -6.22013,-0.40438 -1.85648,-0.21359 -2.24945,-2.90024 -1.38763,-4.25856 0.56083,-1.24492 1.98683,-1.02213 3.00229,-0.55752 3.5478,1.00658 7.43846,-2.2195 6.99975,-5.9192 -0.0499,-2.93551 -2.80988,-4.90145 -5.50003,-5.29477 -1.02211,-0.22249 -2.06948,-0.32366 -3.1152,-0.31078 z"
         style="display:inline;opacity:0.97000002;fill:#000000;fill-opacity:1;stroke:#000000;stroke-width:0.33631638;stroke-linecap:round;stroke-linejoin:round;stroke-miterlimit:4;stroke-dasharray:none;stroke-opacity:1" />
      <path
         inkscape:connector-curvature="0"
         id="path4313"
         d="m 147.26634,637.76576 c -2.27229,1.23211 -4.17087,3.65866 -3.80121,6.37121 0.0518,5.19192 -0.10248,10.40266 0.0762,15.58298 0.40831,2.43431 2.68763,4.40115 5.06216,4.92074 2.25528,0.38555 4.67628,-0.67073 6.01814,-2.50431 2.05856,2.43477 5.93155,3.55544 8.64972,1.52394 2.70826,-1.78431 3.4978,-5.71242 1.70868,-8.41735 -0.38431,-0.85299 -1.01313,-1.68107 -1.33016,-2.50308 2.94286,-4.62334 1.12655,-11.3568 -3.66902,-13.95844 -3.42046,-2.01079 -7.53695,-1.03258 -11.28868,-1.27843 -0.47528,0.0876 -0.95055,0.17516 -1.42582,0.26274 z"
         style="display:inline;opacity:0.97000002;fill:#000000;fill-opacity:1;stroke:#000000;stroke-width:0.33631638;stroke-linecap:round;stroke-linejoin:round;stroke-miterlimit:4;stroke-dasharray:none;stroke-opacity:1" />
      <path
         inkscape:connector-curvature="0"
         id="path4315"
         d="m 186.19849,637.27352 c -4.73581,0.002 -9.88496,3.13995 -10.49264,8.14475 -0.43578,2.96831 0.51134,6.19821 2.84711,8.16734 -2.78842,1.63537 -3.92057,5.71451 -1.74809,8.29829 2.41104,2.89949 6.59175,3.25915 10.10715,2.93292 4.64311,-0.42081 9.11465,-4.01103 9.45602,-8.85335 0.37201,-3.03273 -1.01299,-6.15748 -3.27366,-8.08564 2.86975,-2.22222 2.76845,-7.15141 -0.37319,-9.07996 -1.93033,-1.17992 -4.29261,-1.55142 -6.5227,-1.52435 z"
         style="display:inline;opacity:0.97000002;fill:#000000;fill-opacity:1;stroke:#000000;stroke-width:0.33631638;stroke-linecap:round;stroke-linejoin:round;stroke-miterlimit:4;stroke-dasharray:none;stroke-opacity:1" />
      <text
         id="text3955-2"
         y="660.54681"
         x="90.965538"
         style="font-style:normal;font-variant:normal;font-weight:normal;font-stretch:normal;font-size:31.59768105px;line-height:1.25;font-family:Dyuthi;-inkscape-font-specification:Dyuthi;letter-spacing:0px;word-spacing:0px;display:inline;fill:#ffffff;fill-opacity:1;stroke:none;stroke-width:0.98742753"
         xml:space="preserve"><tspan
           style="fill:#ffffff;stroke-width:0.98742753"
           y="660.54681"
           x="90.965538"
           id="tspan3953-4"
           sodipodi:role="line">SCORES</tspan></text>
    </g>
  </g>
</svg>
