<?xml version="1.0" encoding="UTF-8" standalone="no"?>
<!-- Created with Inkscape (http://www.inkscape.org/) -->

<svg
   xmlns:dc="http://purl.org/dc/elements/1.1/"
   xmlns:cc="http://creativecommons.org/ns#"
   xmlns:rdf="http://www.w3.org/1999/02/22-rdf-syntax-ns#"
   xmlns:svg="http://www.w3.org/2000/svg"
   xmlns="http://www.w3.org/2000/svg"
   xmlns:sodipodi="http://sodipodi.sourceforge.net/DTD/sodipodi-0.dtd"
   xmlns:inkscape="http://www.inkscape.org/namespaces/inkscape"
   width="53.704636mm"
   height="7.4521627mm"
   viewBox="0 0 53.704636 7.4521627"
   version="1.1"
   id="svg8"
   inkscape:version="0.92.4 (unknown)"
   sodipodi:docname="buttontext_disconnect_fr.svg">
  <defs
     id="defs2" />
  <sodipodi:namedview
     id="base"
     pagecolor="#ffffff"
     bordercolor="#666666"
     borderopacity="1.0"
     inkscape:pageopacity="0.0"
     inkscape:pageshadow="2"
     inkscape:zoom="1.4"
     inkscape:cx="117.96763"
     inkscape:cy="203.77959"
     inkscape:document-units="mm"
     inkscape:current-layer="layer1"
     showgrid="false"
     inkscape:window-width="927"
     inkscape:window-height="1025"
     inkscape:window-x="67"
     inkscape:window-y="27"
     inkscape:window-maximized="0" />
  <metadata
     id="metadata5">
    <rdf:RDF>
      <cc:Work
         rdf:about="">
        <dc:format>image/svg+xml</dc:format>
        <dc:type
           rdf:resource="http://purl.org/dc/dcmitype/StillImage" />
        <dc:title></dc:title>
      </cc:Work>
    </rdf:RDF>
  </metadata>
  <g
     inkscape:label="Layer 1"
     inkscape:groupmode="layer"
     id="layer1"
     transform="translate(-46.853041,-241.3022)">
    <g
       style="display:inline"
       id="g4487"
       transform="matrix(0.26458333,0,0,0.26458333,1.7428131,103.22356)">
      <path
         d="m 180.47153,543.61084 q -0.625,0 -1.09375,-0.45313 -0.42188,-0.4375 -0.42188,-1.09375 v -12.20312 q 0,-0.67188 0.42188,-1.09375 0.45312,-0.45313 1.09375,-0.45313 h 0.0156 q 3,0 5.10938,1.9375 1.92187,1.76563 1.92187,4.67188 0,4.98437 -1.92187,6.75 -2.10938,1.9375 -5.10938,1.9375 z m -4.375,-17.3125 q -0.59375,0.0469 -0.98438,0.45312 -0.40625,0.42188 -0.40625,1.03125 v 16.25 q 0,0.625 0.39063,1.0625 0.40625,0.42188 1.03125,0.45313 3.875,0.1875 4.90625,0.1875 5.59375,0 8.73437,-2.73438 2.90625,-2.59375 2.90625,-6.84375 0,-4.73437 -3.54687,-7.5 -3.35938,-2.59375 -8.60938,-2.59375 -1.04687,0 -4.42187,0.23438 z"
         style="font-style:normal;font-variant:normal;font-weight:normal;font-stretch:normal;font-size:32px;line-height:1.25;font-family:Dyuthi;-inkscape-font-specification:Dyuthi;letter-spacing:0px;word-spacing:0px;display:inline;fill:#000000;fill-opacity:1;stroke:none"
         id="path4379"
         inkscape:connector-curvature="0" />
      <path
         d="m 224.34653,542.00146 q -0.625,-0.17187 -1.3125,0.10938 -1.0625,0.45312 -2.20313,0.45312 -2.45312,0 -4.17187,-1.9375 -1.70313,-1.9375 -1.70313,-4.67187 0,-2.75 1.71875,-4.73438 1.70313,-1.9375 4.15625,-1.9375 1.14063,0 2.23438,0.5 0.625,0.29688 1.25,0.0937 l 0.0625,-0.0312 q 1.1875,-0.39062 1.21875,-1.65625 0,-1.3125 -1.20313,-1.65625 -1.35937,-0.45312 -2.875,-0.5625 -0.45312,-0.0625 -0.6875,-0.0312 -0.21875,-0.0312 -0.6875,0.0312 -4.39062,0.39063 -7.125,3.01563 -2.84375,2.75 -2.84375,7.1875 0,4.10937 2.5,6.73437 2.6875,2.73438 7.46875,2.96875 0.29688,0.0469 0.46875,0.0469 h 0.10938 q 0.0625,0 0.10937,0 0.0625,0 0.125,0 h 0.10938 q 0.17187,0 0.45312,-0.0469 1.51563,-0.0625 2.82813,-0.40625 1.34375,-0.34375 1.34375,-1.70312 0.0156,-1.375 -1.29688,-1.76563 z"
         style="font-style:normal;font-variant:normal;font-weight:normal;font-stretch:normal;font-size:32px;line-height:1.25;font-family:Dyuthi;-inkscape-font-specification:Dyuthi;letter-spacing:0px;word-spacing:0px;display:inline;fill:#000000;fill-opacity:1;stroke:none"
         id="path4383"
         inkscape:connector-curvature="0" />
      <path
         d="m 254.0184,532.72021 6.95313,11.34375 q 1.07812,1.76563 3.07812,1.76563 h 0.0937 q 1.67188,0 2.5625,-1.09375 1.04688,-1.65625 1.04688,-2.5625 v -13.6875 q 0,-0.96875 -0.65625,-1.625 -0.67188,-0.65625 -1.90625,-0.65625 h -0.0625 q -0.90625,0 -1.59375,0.65625 -0.70313,0.70312 -0.6875,1.625 l 0.29687,10.85937 -8.21875,-12.17187 q -0.65625,-0.96875 -1.875,-0.96875 h -1.375 q -0.96875,0 -1.59375,0.65625 -0.6875,0.6875 -0.6875,1.625 v 15.03125 q 0,0.96875 0.6875,1.625 0.67188,0.6875 1.875,0.6875 h 0.0625 q 0.96875,0 1.625,-0.6875 0.67188,-0.73438 0.65625,-1.625 z"
         style="font-style:normal;font-variant:normal;font-weight:normal;font-stretch:normal;font-size:32px;line-height:1.25;font-family:Dyuthi;-inkscape-font-specification:Dyuthi;letter-spacing:0px;word-spacing:0px;display:inline;fill:#000000;fill-opacity:1;stroke:none"
         id="path4387"
         inkscape:connector-curvature="0" />
      <path
         d="m 295.47153,542.31396 v -4.9375 l 5.67187,0.14063 q 0.70313,0.0156 1.25,-0.51563 0.51563,-0.5 0.51563,-1.25 v -0.0625 q 0.0156,-0.73437 -0.5,-1.21875 -0.5625,-0.53125 -1.26563,-0.51562 l -5.67187,0.14062 v -4.4375 l 6.01562,0.28125 q 0.60938,0.0312 1.14063,-0.39062 0.17187,-0.14063 0.60937,-1 l 0.0156,-0.0625 q 0.42187,-0.85938 -0.34375,-1.79688 -0.5,-0.625 -1.39063,-0.625 h -7.95312 q -1.1875,0 -1.96875,0.79688 -0.82813,0.85937 -0.82813,2 v 14.125 q 0,1.14062 0.82813,1.96875 0.82812,0.82812 1.96875,0.82812 h 8.375 q 0.75,0.0156 1.26562,-0.51562 0.51563,-0.5 0.51563,-1.25 v -0.0625 q 0,-0.78125 -0.51563,-1.25 -0.57812,-0.51563 -1.26562,-0.51563 z"
         style="font-style:normal;font-variant:normal;font-weight:normal;font-stretch:normal;font-size:32px;line-height:1.25;font-family:Dyuthi;-inkscape-font-specification:Dyuthi;letter-spacing:0px;word-spacing:0px;display:inline;fill:#000000;fill-opacity:1;stroke:none"
         id="path4391"
         inkscape:connector-curvature="0" />
      <path
         d="m 327.22153,543.53271 q 0,0.95313 -0.6875,1.65625 -0.65625,0.67188 -1.625,0.67188 h -0.0469 q -0.96875,0 -1.65625,-0.67188 -0.6875,-0.6875 -0.6875,-1.65625 v -15.29687 q 0,-0.98438 0.6875,-1.65625 0.6875,-0.6875 1.65625,-0.6875 h 0.0469 q 0.9375,0 1.625,0.6875 0.6875,0.67187 0.6875,1.65625 z"
         style="font-style:normal;font-variant:normal;font-weight:normal;font-stretch:normal;font-size:32px;line-height:1.25;font-family:Dyuthi;-inkscape-font-specification:Dyuthi;letter-spacing:0px;word-spacing:0px;display:inline;fill:#000000;fill-opacity:1;stroke:none"
         id="path4395"
         inkscape:connector-curvature="0" />
      <path
         d="m 355.5809,532.72021 6.95313,11.34375 q 1.07812,1.76563 3.07812,1.76563 h 0.0937 q 1.67188,0 2.5625,-1.09375 1.04688,-1.65625 1.04688,-2.5625 v -13.6875 q 0,-0.96875 -0.65625,-1.625 -0.67188,-0.65625 -1.90625,-0.65625 h -0.0625 q -0.90625,0 -1.59375,0.65625 -0.70313,0.70312 -0.6875,1.625 l 0.29687,10.85937 -8.21875,-12.17187 q -0.65625,-0.96875 -1.875,-0.96875 h -1.375 q -0.96875,0 -1.59375,0.65625 -0.6875,0.6875 -0.6875,1.625 v 15.03125 q 0,0.96875 0.6875,1.625 0.67188,0.6875 1.875,0.6875 h 0.0625 q 0.96875,0 1.625,-0.6875 0.67188,-0.73438 0.65625,-1.625 z"
         style="font-style:normal;font-variant:normal;font-weight:normal;font-stretch:normal;font-size:32px;line-height:1.25;font-family:Dyuthi;-inkscape-font-specification:Dyuthi;letter-spacing:0px;word-spacing:0px;display:inline;fill:#000000;fill-opacity:1;stroke:none"
         id="path4399"
         inkscape:connector-curvature="0" />
      <path
         inkscape:connector-curvature="0"
         id="path4418"
         d="m 179.72145,522.24702 c -3.0907,0.0715 -7.45628,0.23361 -8.42791,3.88418 -0.84089,5.73023 -0.54978,11.58417 -0.3083,17.3563 -0.12738,2.67794 1.53277,5.50133 4.39627,5.74614 4.70074,0.50048 9.76858,0.58432 14.11976,-1.5147 6.71086,-3.0819 8.95252,-12.26967 5.16933,-18.40957 -3.01364,-5.1333 -9.23319,-7.33608 -14.94915,-7.06235 z m 3.04348,10.65275 c 1.33937,1.06647 0.43938,3.08384 0.65084,4.55535 0.11637,0.485 -0.76808,2.13629 -0.6361,0.95975 0.002,-1.8106 -0.11007,-3.84066 -0.0147,-5.5151 z"
         style="display:inline;opacity:0.97000002;fill:#000000;fill-opacity:0.97989951;stroke:#000000;stroke-width:0.47562319;stroke-linecap:round;stroke-linejoin:round;stroke-miterlimit:4;stroke-dasharray:none;stroke-opacity:1" />
      <path
         inkscape:connector-curvature="0"
         id="path4421"
         d="m 220.41592,522.19709 c -6.2829,0.0351 -12.554,4.39512 -13.72584,10.76481 -1.6583,6.66675 2.34083,14.50904 9.24132,16.10744 3.3986,0.80486 7.15912,0.94079 10.47857,-0.24966 3.85616,-1.63097 4.09913,-7.44742 0.65434,-9.63903 -1.91625,-1.47467 -4.37929,-0.82388 -6.52705,-0.55157 -2.1421,-0.64239 -2.16548,-4.17452 -0.39713,-5.24741 1.8961,-0.45126 3.92485,0.88033 5.82453,-0.0726 4.33553,-1.49525 4.44336,-8.48276 0.17011,-10.16331 -1.77427,-0.82414 -3.78991,-0.95843 -5.71885,-0.94869 z"
         style="display:inline;opacity:0.97000002;fill:#000000;fill-opacity:0.97989951;stroke:#000000;stroke-width:0.47562319;stroke-linecap:round;stroke-linejoin:round;stroke-miterlimit:4;stroke-dasharray:none;stroke-opacity:1" />
      <path
         inkscape:connector-curvature="0"
         id="path4423"
         d="m 265.20357,522.46358 c -2.59448,0.002 -5.38818,1.66002 -5.89129,4.34866 -1.26407,-2.22586 -3.10785,-4.60097 -5.97411,-4.26924 -2.81589,-0.50525 -5.97237,0.58125 -7.15662,3.35364 -1.31187,3.59981 -0.51261,7.56481 -0.75187,11.31463 0.31081,3.06257 -0.77513,6.54003 0.90676,9.27468 1.6736,2.5076 4.96794,4.13237 7.8666,2.71112 1.58732,-0.42952 2.89748,-2.21777 3.55034,-3.23275 2.16039,4.03975 8.22588,5.03782 11.38662,1.62566 3.14758,-2.83766 2.18445,-7.39919 2.41876,-11.15148 -0.2107,-3.55524 0.51348,-7.30297 -0.69381,-10.72301 -0.99007,-2.12858 -3.36992,-3.32559 -5.66138,-3.25191 z"
         style="display:inline;opacity:0.97000002;fill:#000000;fill-opacity:0.97989951;stroke:#000000;stroke-width:0.47562319;stroke-linecap:round;stroke-linejoin:round;stroke-miterlimit:4;stroke-dasharray:none;stroke-opacity:1" />
      <path
         inkscape:connector-curvature="0"
         id="path4425"
         d="m 295.9629,522.15238 c -3.00011,-0.24579 -6.27228,0.53953 -8.02981,3.1866 -1.64102,2.49104 -0.58391,5.75984 -0.88638,8.59251 0.20781,3.91679 -0.47043,7.97032 0.54692,11.7971 1.26253,3.12123 4.87279,4.23281 7.98599,3.96804 3.61557,-0.14892 8.20937,0.89618 10.86293,-2.25737 1.86867,-2.38714 1.27153,-6.33492 -1.10014,-8.0136 1.78707,-2.02412 1.6318,-5.35906 0.15676,-7.38168 2.7543,-2.61954 1.9829,-7.60688 -1.49445,-9.18675 -2.50898,-1.08388 -5.38933,-0.57288 -8.04182,-0.70485 z"
         style="display:inline;opacity:0.97000002;fill:#000000;fill-opacity:0.97989951;stroke:#000000;stroke-width:0.47562319;stroke-linecap:round;stroke-linejoin:round;stroke-miterlimit:4;stroke-dasharray:none;stroke-opacity:1" />
      <path
         inkscape:connector-curvature="0"
         id="path4427"
         d="m 324.72498,522.13729 c -3.60641,-0.0318 -6.36938,3.43183 -6.10553,6.92069 0.042,5.34884 -0.42759,10.76943 0.38842,16.07318 0.82296,4.32252 6.84358,6.10765 9.93074,2.98221 3.13901,-2.15861 1.78878,-6.31715 2.07654,-9.52145 -0.21058,-4.24296 0.46492,-8.61276 -0.53299,-12.77424 -0.85017,-2.31356 -3.33933,-3.76926 -5.75718,-3.68039 z"
         style="display:inline;opacity:0.97000002;fill:#000000;fill-opacity:0.97989951;stroke:#000000;stroke-width:0.47562319;stroke-linecap:round;stroke-linejoin:round;stroke-miterlimit:4;stroke-dasharray:none;stroke-opacity:1" />
      <path
         inkscape:connector-curvature="0"
         id="path4429"
         d="m 366.65553,522.40494 c -2.60265,0.0281 -5.07364,1.8766 -5.76821,4.39569 -1.33959,-2.32775 -3.47026,-4.53524 -6.37609,-4.37014 -3.47872,-0.32405 -7.35149,2.08078 -7.31143,5.85936 -0.10074,5.67013 -0.34077,11.39021 0.25721,17.03639 1.01415,4.33424 7.23834,5.8988 10.22379,2.58198 1.04923,-0.62192 1.56615,-3.01505 2.43607,-0.99115 2.35971,3.44859 7.69487,3.78692 10.51051,0.71239 3.60017,-3.45456 2.32986,-8.82008 2.59842,-13.2573 -0.17693,-3.65617 0.80904,-8.39105 -2.7395,-10.81938 -1.10701,-0.78707 -2.47476,-1.18872 -3.83077,-1.14784 z"
         style="display:inline;opacity:0.97000002;fill:#000000;fill-opacity:0.97989951;stroke:#000000;stroke-width:0.47562319;stroke-linecap:round;stroke-linejoin:round;stroke-miterlimit:4;stroke-dasharray:none;stroke-opacity:1" />
      <path
         d="m 199.72153,542.31396 v -4.9375 l 5.67187,0.14063 q 0.70313,0.0156 1.25,-0.51563 0.51563,-0.5 0.51563,-1.25 v -0.0625 q 0.0156,-0.73437 -0.5,-1.21875 -0.5625,-0.53125 -1.26563,-0.51562 l -5.67187,0.14062 v -4.4375 l 6.01562,0.28125 q 0.60938,0.0312 1.14063,-0.39062 0.17187,-0.14063 0.60937,-1 l 0.0156,-0.0625 q 0.42187,-0.85938 -0.34375,-1.79688 -0.5,-0.625 -1.39063,-0.625 h -7.95312 q -1.1875,0 -1.96875,0.79688 -0.82813,0.85937 -0.82813,2 v 14.125 q 0,1.14062 0.82813,1.96875 0.82812,0.82812 1.96875,0.82812 h 8.375 q 0.75,0.0156 1.26562,-0.51562 0.51563,-0.5 0.51563,-1.25 v -0.0625 q 0,-0.78125 -0.51563,-1.25 -0.57812,-0.51563 -1.26562,-0.51563 z"
         style="font-style:normal;font-variant:normal;font-weight:normal;font-stretch:normal;font-size:32px;line-height:1.25;font-family:Dyuthi;-inkscape-font-specification:Dyuthi;letter-spacing:0px;word-spacing:0px;display:inline;fill:#000000;fill-opacity:1;stroke:none"
         id="path4381"
         inkscape:connector-curvature="0" />
      <path
         d="m 234.37778,541.73584 q -1.51563,-1.90625 -1.5,-6.92188 0,-2.54687 1.5,-4.42187 1.48437,-1.84375 3.54687,-1.84375 1.875,0 3.45313,1.84375 1.57812,1.84375 1.57812,4.42187 0,5.07813 -1.57812,6.92188 -1.57813,1.84375 -3.54688,1.84375 -1.96875,0 -3.45312,-1.84375 z m 3.54687,-15.8125 q -0.21875,0 -0.67187,0.0625 -3.79688,0.34375 -6.46875,3.01562 -2.76563,2.73438 -2.76563,7.20313 0,4.125 2.42188,6.6875 2.42187,2.5625 6.8125,2.98437 0.29687,0.0781 0.42187,0.0625 0.0469,-0.0156 0.10938,0 h 0.26562 q 0.0469,0.0156 0.10938,0 0.14062,-0.0469 0.42187,-0.0625 4.26563,-0.26562 6.8125,-2.98437 2.4375,-2.60938 2.42188,-6.6875 0.0156,-4.4375 -2.76563,-7.20313 -2.5,-2.53125 -6.46875,-3.01562 -0.42187,-0.0625 -0.65625,-0.0625 z"
         style="font-style:normal;font-variant:normal;font-weight:normal;font-stretch:normal;font-size:32px;line-height:1.25;font-family:Dyuthi;-inkscape-font-specification:Dyuthi;letter-spacing:0px;word-spacing:0px;display:inline;fill:#000000;fill-opacity:1;stroke:none"
         id="path4385"
         inkscape:connector-curvature="0" />
      <path
         d="m 274.7059,532.72021 6.95313,11.34375 q 1.07812,1.76563 3.07812,1.76563 h 0.0937 q 1.67188,0 2.5625,-1.09375 1.04688,-1.65625 1.04688,-2.5625 v -13.6875 q 0,-0.96875 -0.65625,-1.625 -0.67188,-0.65625 -1.90625,-0.65625 h -0.0625 q -0.90625,0 -1.59375,0.65625 -0.70313,0.70312 -0.6875,1.625 l 0.29687,10.85937 -8.21875,-12.17187 q -0.65625,-0.96875 -1.875,-0.96875 h -1.375 q -0.96875,0 -1.59375,0.65625 -0.6875,0.6875 -0.6875,1.625 v 15.03125 q 0,0.96875 0.6875,1.625 0.67188,0.6875 1.875,0.6875 h 0.0625 q 0.96875,0 1.625,-0.6875 0.67188,-0.73438 0.65625,-1.625 z"
         style="font-style:normal;font-variant:normal;font-weight:normal;font-stretch:normal;font-size:32px;line-height:1.25;font-family:Dyuthi;-inkscape-font-specification:Dyuthi;letter-spacing:0px;word-spacing:0px;display:inline;fill:#000000;fill-opacity:1;stroke:none"
         id="path4389"
         inkscape:connector-curvature="0" />
      <path
         d="m 317.4559,526.00146 q -1.53125,0 -2.07812,1.26563 l -2.42188,5.51562 -2.42187,-5.51562 q -0.5625,-1.26563 -2.07813,-1.26563 h -0.34375 q -1.46875,0 -2.07812,1.23438 -0.60938,1.17187 0.10937,2.42187 l 3.6875,6.4375 -3.6875,6.04688 q -0.8125,1.32812 -0.10937,2.5625 0.6875,1.26562 2.07812,1.26562 h 0.34375 q 1.5,0 2.07813,-1.26562 l 2.42187,-5.3125 2.42188,5.3125 q 0.57812,1.26562 2.07812,1.26562 h 0.0625 q 1.71875,0 2.375,-1.26562 0.67188,-1.26563 -0.125,-2.5625 l -3.67187,-6.04688 3.67187,-6.4375 q 0.73438,-1.29687 0.125,-2.42187 -0.70312,-1.23438 -2.375,-1.23438 z"
         style="font-style:normal;font-variant:normal;font-weight:normal;font-stretch:normal;font-size:32px;line-height:1.25;font-family:Dyuthi;-inkscape-font-specification:Dyuthi;letter-spacing:0px;word-spacing:0px;display:inline;fill:#000000;fill-opacity:1;stroke:none"
         id="path4393"
         inkscape:connector-curvature="0" />
      <path
         d="m 335.94028,541.73584 q -1.51563,-1.90625 -1.5,-6.92188 0,-2.54687 1.5,-4.42187 1.48437,-1.84375 3.54687,-1.84375 1.875,0 3.45313,1.84375 1.57812,1.84375 1.57812,4.42187 0,5.07813 -1.57812,6.92188 -1.57813,1.84375 -3.54688,1.84375 -1.96875,0 -3.45312,-1.84375 z m 3.54687,-15.8125 q -0.21875,0 -0.67187,0.0625 -3.79688,0.34375 -6.46875,3.01562 -2.76563,2.73438 -2.76563,7.20313 0,4.125 2.42188,6.6875 2.42187,2.5625 6.8125,2.98437 0.29687,0.0781 0.42187,0.0625 0.0469,-0.0156 0.10938,0 h 0.26562 q 0.0469,0.0156 0.10938,0 0.14062,-0.0469 0.42187,-0.0625 4.26563,-0.26562 6.8125,-2.98437 2.4375,-2.60938 2.42188,-6.6875 0.0156,-4.4375 -2.76563,-7.20313 -2.5,-2.53125 -6.46875,-3.01562 -0.42187,-0.0625 -0.65625,-0.0625 z"
         style="font-style:normal;font-variant:normal;font-weight:normal;font-stretch:normal;font-size:32px;line-height:1.25;font-family:Dyuthi;-inkscape-font-specification:Dyuthi;letter-spacing:0px;word-spacing:0px;display:inline;fill:#000000;fill-opacity:1;stroke:none"
         id="path4397"
         inkscape:connector-curvature="0" />
      <path
         inkscape:connector-curvature="0"
         id="path4431"
         d="m 200.05272,522.15122 c -3.39031,-0.27071 -7.46802,1.00386 -8.43198,4.66392 -1.1137,4.77827 -0.33913,9.75943 -0.44648,14.61879 -0.18281,2.92551 0.84156,6.10315 3.65543,7.456 3.16271,1.34594 6.76962,0.67366 10.12201,0.84686 3.50489,0.40638 7.00521,-2.42422 6.85864,-6.04144 0.11613,-1.73823 -1.10513,-3.40273 -2.21729,-4.34633 1.7221,-2.03681 1.67746,-5.26488 0.19624,-7.31085 2.73676,-2.62331 1.97401,-7.59138 -1.49387,-9.1763 -2.57098,-1.11187 -5.52422,-0.5692 -8.2427,-0.71065 z"
         style="display:inline;opacity:0.97000002;fill:#000000;fill-opacity:0.97989951;stroke:#000000;stroke-width:0.47562319;stroke-linecap:round;stroke-linejoin:round;stroke-miterlimit:4;stroke-dasharray:none;stroke-opacity:1" />
      <path
         inkscape:connector-curvature="0"
         id="path4433"
         d="m 237.90749,522.19767 c -7.21274,-0.10427 -13.96687,6.21828 -13.64837,13.5673 -0.39521,5.23823 2.58638,10.49695 7.4511,12.59256 5.73531,2.67961 13.4722,1.34331 17.26979,-3.95792 3.56041,-4.5153 3.42514,-11.38574 0.3234,-16.09524 -2.59419,-3.68152 -6.805,-6.23469 -11.39592,-6.1067 z m -0.008,10.29917 c 1.77992,1.01744 1.13132,3.61276 0.92547,5.26483 -0.2248,0.49876 -0.26364,1.79957 -0.96727,1.86197 -1.41678,-1.65296 -1.303,-4.29833 -0.71703,-6.29597 0.17516,-0.28221 0.38559,-0.76611 0.75883,-0.83083 z"
         style="display:inline;opacity:0.97000002;fill:#000000;fill-opacity:0.97989951;stroke:#000000;stroke-width:0.47562319;stroke-linecap:round;stroke-linejoin:round;stroke-miterlimit:4;stroke-dasharray:none;stroke-opacity:1" />
      <path
         inkscape:connector-curvature="0"
         id="path4435"
         d="m 285.77637,522.40436 c -2.60806,0.0444 -5.06401,1.9087 -5.77344,4.42355 -1.31541,-2.35308 -3.46357,-4.50488 -6.35635,-4.40613 -3.4266,-0.3763 -7.24272,1.94359 -7.27543,5.65848 -0.15292,5.73817 -0.36108,11.53022 0.22991,17.24598 1.02669,4.35046 7.21577,5.86986 10.24629,2.60862 1.11556,-0.5053 1.37147,-3.16308 2.25102,-1.22332 2.18582,3.29238 7.1019,4.10935 10.09654,1.4271 3.8777,-2.92694 3.07319,-8.17279 3.17526,-12.41311 -0.30006,-3.55326 0.77725,-7.6054 -1.31852,-10.76713 -1.18856,-1.66738 -3.23594,-2.63622 -5.27528,-2.55404 z"
         style="display:inline;opacity:0.97000002;fill:#000000;fill-opacity:0.97989951;stroke:#000000;stroke-width:0.47562319;stroke-linecap:round;stroke-linejoin:round;stroke-miterlimit:4;stroke-dasharray:none;stroke-opacity:1" />
      <path
         inkscape:connector-curvature="0"
         id="path4437"
         d="m 308.06946,522.15238 c -4.50799,-0.17046 -7.82711,5.54694 -5.19574,9.31449 0.75437,1.56551 1.65583,3.05248 2.48727,4.57682 -1.56729,2.99093 -4.63954,6.30508 -2.90007,9.87592 1.4755,4.17962 7.5953,5.21279 10.42457,1.87242 2.82029,3.22012 8.89865,2.46429 10.54128,-1.6338 1.74104,-2.62282 -0.0305,-5.50592 -1.46542,-7.78461 -0.749,-1.26921 -2.01982,-2.5396 -0.53298,-3.8267 1.75511,-2.85386 3.68977,-6.81264 1.28892,-9.87824 -2.1999,-3.13108 -7.44594,-3.335 -9.80509,-0.50918 -1.18457,-1.40484 -3.02589,-2.09978 -4.84274,-2.00712 z"
         style="display:inline;opacity:0.97000002;fill:#000000;fill-opacity:0.97989951;stroke:#000000;stroke-width:0.47562319;stroke-linecap:round;stroke-linejoin:round;stroke-miterlimit:4;stroke-dasharray:none;stroke-opacity:1" />
      <path
         inkscape:connector-curvature="0"
         id="path4439"
         d="m 339.28688,522.2267 c -7.19164,-0.0784 -13.82128,6.31655 -13.47967,13.61378 -0.43539,5.91953 3.60306,11.77338 9.39751,13.23292 6.45099,2.09531 14.35283,-0.93359 16.96788,-7.37878 1.68064,-4.36379 1.30043,-9.72376 -1.37775,-13.62772 -2.5934,-3.67143 -7.00556,-5.93933 -11.50797,-5.8402 z m 0.0923,10.26898 c 1.67085,0.87965 1.13497,3.32224 1.05494,4.85087 -0.18547,0.59877 -0.30303,2.64586 -1.33536,2.17374 -0.57001,-2.09026 -1.24621,-4.70286 -0.14922,-6.71922 0.11239,-0.12687 0.25021,-0.28311 0.42964,-0.30539 z"
         style="display:inline;opacity:0.97000002;fill:#000000;fill-opacity:0.97989951;stroke:#000000;stroke-width:0.47562319;stroke-linecap:round;stroke-linejoin:round;stroke-miterlimit:4;stroke-dasharray:none;stroke-opacity:1" />
      <text
         id="text4287"
         y="545.67334"
         x="172.36215"
         style="font-style:normal;font-variant:normal;font-weight:normal;font-stretch:normal;font-size:32px;line-height:1.25;font-family:Dyuthi;-inkscape-font-specification:Dyuthi;letter-spacing:0px;word-spacing:0px;fill:#ffffff;fill-opacity:1;stroke:none"
         xml:space="preserve"><tspan
           y="545.67334"
           x="172.36215"
           id="tspan4285"
           sodipodi:role="line">DECONNEXION</tspan></text>
    </g>
  </g>
</svg>
