<?xml version="1.0" encoding="UTF-8" standalone="no"?>
<!-- Created with Inkscape (http://www.inkscape.org/) -->

<svg
   xmlns:dc="http://purl.org/dc/elements/1.1/"
   xmlns:cc="http://creativecommons.org/ns#"
   xmlns:rdf="http://www.w3.org/1999/02/22-rdf-syntax-ns#"
   xmlns:svg="http://www.w3.org/2000/svg"
   xmlns="http://www.w3.org/2000/svg"
   xmlns:sodipodi="http://sodipodi.sourceforge.net/DTD/sodipodi-0.dtd"
   xmlns:inkscape="http://www.inkscape.org/namespaces/inkscape"
   width="42.194969mm"
   height="7.4014463mm"
   viewBox="0 0 42.194969 7.4014463"
   version="1.1"
   id="svg8"
   inkscape:version="0.92.4 (unknown)"
   sodipodi:docname="buttontext_resume_fr.svg">
  <defs
     id="defs2" />
  <sodipodi:namedview
     id="base"
     pagecolor="#ffffff"
     bordercolor="#666666"
     borderopacity="1.0"
     inkscape:pageopacity="0.0"
     inkscape:pageshadow="2"
     inkscape:zoom="1.4"
     inkscape:cx="191.99186"
     inkscape:cy="141.33802"
     inkscape:document-units="mm"
     inkscape:current-layer="layer1"
     showgrid="false"
     inkscape:window-width="927"
     inkscape:window-height="1025"
     inkscape:window-x="67"
     inkscape:window-y="27"
     inkscape:window-maximized="0" />
  <metadata
     id="metadata5">
    <rdf:RDF>
      <cc:Work
         rdf:about="">
        <dc:format>image/svg+xml</dc:format>
        <dc:type
           rdf:resource="http://purl.org/dc/dcmitype/StillImage" />
        <dc:title></dc:title>
      </cc:Work>
    </rdf:RDF>
  </metadata>
  <g
     inkscape:label="Layer 1"
     inkscape:groupmode="layer"
     id="layer1"
     transform="translate(-27.267462,-224.83192)">
    <g
       style="display:inline"
       id="g5113"
       transform="matrix(0.26458333,0,0,0.26458333,-23.571285,110.44116)">
      <path
         d="m 200.7852,438.62357 h 2.25 q 1.10938,0 1.96875,0.90625 0.84375,0.85937 0.84375,3.21875 0,2.375 -0.84375,3.23437 -0.79687,0.84375 -1.96875,0.875 h -2.25 z m 7.125,9.29687 q 0.67188,-0.57812 1.10938,-1.26562 1.20312,-1.875 1.20312,-3.76563 0,-2.32812 -1.54687,-4.125 -1.51563,-1.78125 -3.79688,-2.10937 l -0.14062,-0.0312 q -0.25,-0.0625 -0.84375,-0.0625 h -5.39063 q -0.96875,0 -1.65625,0.6875 -0.6875,0.6875 -0.6875,1.625 v 15.17187 q 0,0.90625 0.6875,1.59375 0.65625,0.65625 1.59375,0.65625 h 0.0625 q 0.89063,0 1.59375,-0.65625 0.6875,-0.625 0.6875,-1.59375 v -4.8125 l 3.4375,-0.0625 1.46875,4.35938 q 0.73438,2.20312 2.5625,2.67187 0.875,0.25 1.67188,-0.21875 h 0.0312 q 0.6875,-0.0156 1.03125,-1.375 0.26562,-1.0625 -0.23438,-1.90625 z"
         style="font-style:normal;font-variant:normal;font-weight:normal;font-stretch:normal;font-size:32px;line-height:1.25;font-family:Dyuthi;-inkscape-font-specification:Dyuthi;letter-spacing:0px;word-spacing:0px;display:inline;fill:#000000;fill-opacity:1;stroke:none"
         id="path5015"
         inkscape:connector-curvature="0" />
      <path
         d="m 233.2852,438.38919 h 2.25 q 1.17188,0 1.96875,0.89063 0.96875,1.01562 0.96875,3.39062 0,2.5 -0.96875,3.53125 -0.79687,0.85938 -1.96875,0.85938 h -2.25 z m 3.60938,10.84375 q 3.03125,-0.0312 4.625,-2.51562 1.20312,-1.875 1.20312,-3.76563 0,-2.34375 -1.54687,-4.125 -1.51563,-1.78125 -3.79688,-2.125 l -0.14062,-0.0156 q -0.45313,-0.0625 -0.84375,-0.0625 h -5.39063 q -0.96875,0 -1.65625,0.6875 -0.6875,0.6875 -0.6875,1.59375 v 14.96875 q 0,1 0.6875,1.625 0.625,0.6875 1.59375,0.65625 h 0.0625 q 0.90625,0.0312 1.59375,-0.65625 0.6875,-0.65625 0.6875,-1.625 v -4.59375 z"
         style="font-style:normal;font-variant:normal;font-weight:normal;font-stretch:normal;font-size:32px;line-height:1.25;font-family:Dyuthi;-inkscape-font-specification:Dyuthi;letter-spacing:0px;word-spacing:0px;display:inline;fill:#000000;fill-opacity:1;stroke:none"
         id="path5019"
         inkscape:connector-curvature="0" />
      <path
         d="m 265.80083,452.65482 v -4.9375 l 5.67187,0.14062 q 0.70313,0.0156 1.25,-0.51562 0.51563,-0.5 0.51563,-1.25 v -0.0625 q 0.0156,-0.73438 -0.5,-1.21875 -0.5625,-0.53125 -1.26563,-0.51563 l -5.67187,0.14063 v -4.4375 l 6.01562,0.28125 q 0.60938,0.0312 1.14063,-0.39063 0.17187,-0.14062 0.60937,-1 l 0.0156,-0.0625 q 0.42187,-0.85937 -0.34375,-1.79687 -0.5,-0.625 -1.39063,-0.625 h -7.95312 q -1.1875,0 -1.96875,0.79687 -0.82813,0.85938 -0.82813,2 v 14.125 q 0,1.14063 0.82813,1.96875 0.82812,0.82813 1.96875,0.82813 h 8.375 q 0.75,0.0156 1.26562,-0.51563 0.51563,-0.5 0.51563,-1.25 v -0.0625 q 0,-0.78125 -0.51563,-1.25 -0.57812,-0.51562 -1.26562,-0.51562 z"
         style="font-style:normal;font-variant:normal;font-weight:normal;font-stretch:normal;font-size:32px;line-height:1.25;font-family:Dyuthi;-inkscape-font-specification:Dyuthi;letter-spacing:0px;word-spacing:0px;display:inline;fill:#000000;fill-opacity:1;stroke:none"
         id="path5023"
         inkscape:connector-curvature="0" />
      <path
         d="m 302.80083,453.95169 q -0.625,0 -1.09375,-0.45312 -0.42188,-0.4375 -0.42188,-1.09375 v -12.20313 q 0,-0.67187 0.42188,-1.09375 0.45312,-0.45312 1.09375,-0.45312 h 0.0156 q 3,0 5.10938,1.9375 1.92187,1.76562 1.92187,4.67187 0,4.98438 -1.92187,6.75 -2.10938,1.9375 -5.10938,1.9375 z m -4.375,-17.3125 q -0.59375,0.0469 -0.98438,0.45313 -0.40625,0.42187 -0.40625,1.03125 v 16.25 q 0,0.625 0.39063,1.0625 0.40625,0.42187 1.03125,0.45312 3.875,0.1875 4.90625,0.1875 5.59375,0 8.73437,-2.73437 2.90625,-2.59375 2.90625,-6.84375 0,-4.73438 -3.54687,-7.5 -3.35938,-2.59375 -8.60938,-2.59375 -1.04687,0 -4.42187,0.23437 z"
         style="font-style:normal;font-variant:normal;font-weight:normal;font-stretch:normal;font-size:32px;line-height:1.25;font-family:Dyuthi;-inkscape-font-specification:Dyuthi;letter-spacing:0px;word-spacing:0px;display:inline;fill:#000000;fill-opacity:1;stroke:none"
         id="path5027"
         inkscape:connector-curvature="0" />
      <path
         d="m 339.30083,452.65482 v -4.9375 l 5.67187,0.14062 q 0.70313,0.0156 1.25,-0.51562 0.51563,-0.5 0.51563,-1.25 v -0.0625 q 0.0156,-0.73438 -0.5,-1.21875 -0.5625,-0.53125 -1.26563,-0.51563 l -5.67187,0.14063 v -4.4375 l 6.01562,0.28125 q 0.60938,0.0312 1.14063,-0.39063 0.17187,-0.14062 0.60937,-1 l 0.0156,-0.0625 q 0.42187,-0.85937 -0.34375,-1.79687 -0.5,-0.625 -1.39063,-0.625 h -7.95312 q -1.1875,0 -1.96875,0.79687 -0.82813,0.85938 -0.82813,2 v 14.125 q 0,1.14063 0.82813,1.96875 0.82812,0.82813 1.96875,0.82813 h 8.375 q 0.75,0.0156 1.26562,-0.51563 0.51563,-0.5 0.51563,-1.25 v -0.0625 q 0,-0.78125 -0.51563,-1.25 -0.57812,-0.51562 -1.26562,-0.51562 z"
         style="font-style:normal;font-variant:normal;font-weight:normal;font-stretch:normal;font-size:32px;line-height:1.25;font-family:Dyuthi;-inkscape-font-specification:Dyuthi;letter-spacing:0px;word-spacing:0px;display:inline;fill:#000000;fill-opacity:1;stroke:none"
         id="path5031"
         inkscape:connector-curvature="0" />
      <path
         inkscape:connector-curvature="0"
         id="path5049"
         d="m 200.09746,432.57191 c -2.97667,-0.17844 -6.18728,1.1691 -7.44358,4.00135 -0.64124,2.79487 -0.14128,5.72497 -0.29926,8.57685 0.096,3.51614 -0.19733,7.06787 0.15238,10.56083 0.92758,3.49997 5.43519,5.57711 8.68045,3.76711 0.92664,-0.41512 1.77017,-1.31351 2.42918,-1.86428 2.39593,3.13782 7.79074,3.45525 10.12726,0.0883 1.79691,-2.32817 1.43144,-5.6029 -0.19665,-7.91074 -0.35186,-0.78818 -1.36361,-1.5361 -0.53453,-2.352 2.07741,-4.27056 0.9379,-9.94672 -3.02857,-12.72805 -2.76598,-2.28665 -6.51954,-2.08401 -9.88668,-2.13934 z"
         style="display:inline;opacity:0.97000002;fill:#000000;fill-opacity:0.97989951;stroke:#000000;stroke-width:0.33631638;stroke-linecap:round;stroke-linejoin:round;stroke-miterlimit:4;stroke-dasharray:none;stroke-opacity:1" />
      <path
         inkscape:connector-curvature="0"
         id="path5051"
         d="m 228.87607,432.98205 c -2.23988,1.16021 -4.43559,3.29833 -4.05372,6.03987 0.0673,5.24343 -0.31179,10.50822 0.12196,15.73899 0.29822,4.11705 5.43371,6.65607 8.92396,4.52418 2.2245,-1.1778 3.48529,-3.68682 3.26709,-6.17497 3.53939,-0.0884 6.85829,-2.25284 8.28886,-5.50373 2.11215,-3.87048 1.24709,-8.96913 -1.98128,-11.96116 -2.21446,-2.69709 -5.89987,-2.86034 -9.11158,-2.83356 -1.81948,0.0374 -3.66598,-0.25646 -5.45529,0.17038 z"
         style="display:inline;opacity:0.97000002;fill:#000000;fill-opacity:0.97989951;stroke:#000000;stroke-width:0.33631638;stroke-linecap:round;stroke-linejoin:round;stroke-miterlimit:4;stroke-dasharray:none;stroke-opacity:1" />
      <path
         inkscape:connector-curvature="0"
         id="path5053"
         d="m 265.03788,432.56165 c -2.87885,-0.16807 -6.16789,1.02159 -7.17792,3.96173 -1.14199,3.57282 -0.5448,7.40403 -0.73975,11.09163 0.15741,3.43437 -0.66872,7.4547 1.8827,10.24632 2.14924,2.60047 5.78082,2.13926 8.77944,2.22856 2.92057,-0.13239 6.4822,0.51386 8.65671,-1.95473 2.27861,-2.30212 1.83023,-6.44283 -0.79153,-8.29829 1.83804,-1.98925 1.87852,-5.29312 0.16463,-7.37212 2.19497,-2.18048 2.41692,-6.06803 0.0579,-8.2248 -2.21183,-2.36928 -5.74932,-1.48126 -8.6177,-1.67773 -0.73814,-0.001 -1.47634,-0.009 -2.21447,-5.7e-4 z"
         style="display:inline;opacity:0.97000002;fill:#000000;fill-opacity:0.97989951;stroke:#000000;stroke-width:0.33631638;stroke-linecap:round;stroke-linejoin:round;stroke-miterlimit:4;stroke-dasharray:none;stroke-opacity:1" />
      <path
         inkscape:connector-curvature="0"
         id="path5055"
         d="m 302.9055,432.57725 c -3.42581,-0.0467 -8.34218,-0.15544 -9.43673,3.9798 -0.62809,3.75182 -0.25432,7.5997 -0.40386,11.39049 0.16172,3.12011 -0.48895,6.51827 1.02173,9.39568 1.48354,2.58623 4.74785,2.51169 7.34542,2.5351 4.58001,0.19462 9.58417,-0.37667 13.12422,-3.59019 5.25681,-4.50366 5.80947,-13.23051 1.24148,-18.40913 -3.12037,-3.67786 -8.14429,-5.46184 -12.89226,-5.30175 z m 2.40003,10.92536 c 1.01399,1.17266 0.42418,2.92443 0.37482,4.32999 -0.0707,0.42097 -0.11501,0.8832 -0.43394,1.20207 -0.004,-1.86303 -0.005,-3.72611 4.1e-4,-5.58913 z"
         style="display:inline;opacity:0.97000002;fill:#000000;fill-opacity:0.97989951;stroke:#000000;stroke-width:0.33631638;stroke-linecap:round;stroke-linejoin:round;stroke-miterlimit:4;stroke-dasharray:none;stroke-opacity:1" />
      <path
         inkscape:connector-curvature="0"
         id="path5057"
         d="m 339.67861,432.56617 c -2.53538,-0.0678 -5.46352,-0.0394 -7.21775,2.11634 -2.31925,2.61446 -1.61682,6.38428 -1.79366,9.58452 0.13101,3.70693 -0.3261,7.48875 0.44133,11.14254 0.86459,3.0859 4.18186,4.87846 7.26619,4.61121 3.18176,-0.0476 6.41705,0.26797 9.55661,-0.28861 2.95143,-1.39483 4.63835,-5.4258 2.68577,-8.28434 -0.1356,-0.80556 -1.92625,-1.36719 -1.10929,-2.06831 1.52715,-1.99667 1.5175,-5.05798 -0.19541,-6.94104 2.18761,-2.16382 2.38411,-6.03731 0.0673,-8.1854 -1.84684,-2.31425 -4.9755,-1.57992 -7.54906,-1.68856 -0.71735,-3.6e-4 -1.43471,10e-4 -2.15206,0.002 z"
         style="display:inline;opacity:0.97000002;fill:#000000;fill-opacity:0.97989951;stroke:#000000;stroke-width:0.33631638;stroke-linecap:round;stroke-linejoin:round;stroke-miterlimit:4;stroke-dasharray:none;stroke-opacity:1" />
      <path
         d="m 218.11333,452.65482 v -4.9375 l 5.67187,0.14062 q 0.70313,0.0156 1.25,-0.51562 0.51563,-0.5 0.51563,-1.25 v -0.0625 q 0.0156,-0.73438 -0.5,-1.21875 -0.5625,-0.53125 -1.26563,-0.51563 l -5.67187,0.14063 v -4.4375 l 6.01562,0.28125 q 0.60938,0.0312 1.14063,-0.39063 0.17187,-0.14062 0.60937,-1 l 0.0156,-0.0625 q 0.42187,-0.85937 -0.34375,-1.79687 -0.5,-0.625 -1.39063,-0.625 h -7.95312 q -1.1875,0 -1.96875,0.79687 -0.82813,0.85938 -0.82813,2 v 14.125 q 0,1.14063 0.82813,1.96875 0.82812,0.82813 1.96875,0.82813 h 8.375 q 0.75,0.0156 1.26562,-0.51563 0.51563,-0.5 0.51563,-1.25 v -0.0625 q 0,-0.78125 -0.51563,-1.25 -0.57812,-0.51562 -1.26562,-0.51562 z"
         style="font-style:normal;font-variant:normal;font-weight:normal;font-stretch:normal;font-size:32px;line-height:1.25;font-family:Dyuthi;-inkscape-font-specification:Dyuthi;letter-spacing:0px;word-spacing:0px;display:inline;fill:#000000;fill-opacity:1;stroke:none"
         id="path5017"
         inkscape:connector-curvature="0" />
      <path
         d="m 248.4727,438.62357 h 2.25 q 1.10938,0 1.96875,0.90625 0.84375,0.85937 0.84375,3.21875 0,2.375 -0.84375,3.23437 -0.79687,0.84375 -1.96875,0.875 h -2.25 z m 7.125,9.29687 q 0.67188,-0.57812 1.10938,-1.26562 1.20312,-1.875 1.20312,-3.76563 0,-2.32812 -1.54687,-4.125 -1.51563,-1.78125 -3.79688,-2.10937 l -0.14062,-0.0312 q -0.25,-0.0625 -0.84375,-0.0625 h -5.39063 q -0.96875,0 -1.65625,0.6875 -0.6875,0.6875 -0.6875,1.625 v 15.17187 q 0,0.90625 0.6875,1.59375 0.65625,0.65625 1.59375,0.65625 h 0.0625 q 0.89063,0 1.59375,-0.65625 0.6875,-0.625 0.6875,-1.59375 v -4.8125 l 3.4375,-0.0625 1.46875,4.35938 q 0.73438,2.20312 2.5625,2.67187 0.875,0.25 1.67188,-0.21875 h 0.0312 q 0.6875,-0.0156 1.03125,-1.375 0.26562,-1.0625 -0.23438,-1.90625 z"
         style="font-style:normal;font-variant:normal;font-weight:normal;font-stretch:normal;font-size:32px;line-height:1.25;font-family:Dyuthi;-inkscape-font-specification:Dyuthi;letter-spacing:0px;word-spacing:0px;display:inline;fill:#000000;fill-opacity:1;stroke:none"
         id="path5021"
         inkscape:connector-curvature="0" />
      <path
         d="m 280.9727,443.06107 6.95313,11.34375 q 1.07812,1.76562 3.07812,1.76562 h 0.0937 q 1.67188,0 2.5625,-1.09375 1.04688,-1.65625 1.04688,-2.5625 v -13.6875 q 0,-0.96875 -0.65625,-1.625 -0.67188,-0.65625 -1.90625,-0.65625 h -0.0625 q -0.90625,0 -1.59375,0.65625 -0.70313,0.70313 -0.6875,1.625 l 0.29687,10.85938 -8.21875,-12.17188 q -0.65625,-0.96875 -1.875,-0.96875 h -1.375 q -0.96875,0 -1.59375,0.65625 -0.6875,0.6875 -0.6875,1.625 v 15.03125 q 0,0.96875 0.6875,1.625 0.67188,0.6875 1.875,0.6875 h 0.0625 q 0.96875,0 1.625,-0.6875 0.67188,-0.73437 0.65625,-1.625 z"
         style="font-style:normal;font-variant:normal;font-weight:normal;font-stretch:normal;font-size:32px;line-height:1.25;font-family:Dyuthi;-inkscape-font-specification:Dyuthi;letter-spacing:0px;word-spacing:0px;display:inline;fill:#000000;fill-opacity:1;stroke:none"
         id="path5025"
         inkscape:connector-curvature="0" />
      <path
         d="m 321.9727,438.62357 h 2.25 q 1.10938,0 1.96875,0.90625 0.84375,0.85937 0.84375,3.21875 0,2.375 -0.84375,3.23437 -0.79687,0.84375 -1.96875,0.875 h -2.25 z m 7.125,9.29687 q 0.67188,-0.57812 1.10938,-1.26562 1.20312,-1.875 1.20312,-3.76563 0,-2.32812 -1.54687,-4.125 -1.51563,-1.78125 -3.79688,-2.10937 l -0.14062,-0.0312 q -0.25,-0.0625 -0.84375,-0.0625 h -5.39063 q -0.96875,0 -1.65625,0.6875 -0.6875,0.6875 -0.6875,1.625 v 15.17187 q 0,0.90625 0.6875,1.59375 0.65625,0.65625 1.59375,0.65625 h 0.0625 q 0.89063,0 1.59375,-0.65625 0.6875,-0.625 0.6875,-1.59375 v -4.8125 l 3.4375,-0.0625 1.46875,4.35938 q 0.73438,2.20312 2.5625,2.67187 0.875,0.25 1.67188,-0.21875 h 0.0312 q 0.6875,-0.0156 1.03125,-1.375 0.26562,-1.0625 -0.23438,-1.90625 z"
         style="font-style:normal;font-variant:normal;font-weight:normal;font-stretch:normal;font-size:32px;line-height:1.25;font-family:Dyuthi;-inkscape-font-specification:Dyuthi;letter-spacing:0px;word-spacing:0px;display:inline;fill:#000000;fill-opacity:1;stroke:none"
         id="path5029"
         inkscape:connector-curvature="0" />
      <path
         inkscape:connector-curvature="0"
         id="path5059"
         d="m 219.25214,432.56576 c -2.92144,-0.0171 -6.55665,-0.14152 -8.37261,2.62665 -1.84981,2.58642 -1.07434,5.96664 -1.28645,8.93094 0.12181,3.79555 -0.28591,7.65292 0.38408,11.40651 0.90322,3.04615 4.19366,4.82407 7.26408,4.5145 3.30811,-0.0905 6.79647,0.50368 9.95941,-0.70426 3.70511,-1.62103 3.9403,-7.27075 0.78578,-9.56441 1.76593,-1.99343 1.86313,-5.25515 0.16052,-7.3175 1.98705,-2.0632 2.57494,-5.68573 0.3621,-7.82207 -1.19664,-1.84167 -3.4428,-2.29838 -5.49676,-2.0716 -1.25338,4.2e-4 -2.50677,-0.001 -3.76015,10e-4 z"
         style="display:inline;opacity:0.97000002;fill:#000000;fill-opacity:0.97989951;stroke:#000000;stroke-width:0.33631638;stroke-linecap:round;stroke-linejoin:round;stroke-miterlimit:4;stroke-dasharray:none;stroke-opacity:1" />
      <path
         inkscape:connector-curvature="0"
         id="path5061"
         d="m 248.1104,432.56822 c -2.85765,-0.13068 -6.14614,0.78184 -7.42549,3.59963 -1.29305,2.82648 -0.61907,6.05748 -0.78798,9.06189 0.11506,3.49958 -0.14558,7.03675 0.22582,10.51128 1.02189,3.57091 5.78566,5.58557 9.04685,3.61058 0.82275,-0.36348 1.55136,-1.31575 2.09581,-1.73537 2.45237,3.30138 8.5251,3.41241 10.53494,-0.39042 1.25713,-2.49318 0.83847,-5.51524 -0.75253,-7.75638 -0.77353,-0.84482 -0.77135,-1.66165 -0.11085,-2.56384 1.63344,-3.84319 0.71364,-8.58362 -2.35897,-11.44592 -2.72984,-2.75136 -6.8351,-2.92965 -10.4676,-2.89145 z"
         style="display:inline;opacity:0.97000002;fill:#000000;fill-opacity:0.97989951;stroke:#000000;stroke-width:0.33631638;stroke-linecap:round;stroke-linejoin:round;stroke-miterlimit:4;stroke-dasharray:none;stroke-opacity:1" />
      <path
         inkscape:connector-curvature="0"
         id="path5063"
         d="m 279.09978,432.59901 c -3.41769,-0.14805 -6.65166,2.72066 -6.56991,6.21151 -0.10495,5.19115 -0.21737,10.40023 0.085,15.58542 0.0795,2.85873 2.41048,5.18323 5.18023,5.59364 2.69893,0.45698 5.81332,-1.0242 6.78545,-3.6645 2.08737,3.85648 7.7509,4.98714 11.10763,2.14221 2.05743,-1.83249 3.16496,-4.64089 2.82864,-7.38525 -0.11415,-4.63045 0.2442,-9.29335 -0.23812,-13.90384 -0.88431,-4.36972 -7.00551,-5.93414 -10.17899,-3.00271 -0.8811,0.76031 -1.55067,1.77558 -1.86714,2.89802 -1.2433,-1.93511 -2.76883,-4.05573 -5.25618,-4.32055 -0.61799,-0.11615 -1.24803,-0.16558 -1.87659,-0.15395 z"
         style="display:inline;opacity:0.97000002;fill:#000000;fill-opacity:0.97989951;stroke:#000000;stroke-width:0.33631638;stroke-linecap:round;stroke-linejoin:round;stroke-miterlimit:4;stroke-dasharray:none;stroke-opacity:1" />
      <path
         inkscape:connector-curvature="0"
         id="path5065"
         d="m 322.06921,432.67126 c -2.73958,-0.10176 -6.06225,0.20078 -7.57328,2.85574 -1.5805,2.62123 -0.85658,5.85445 -1.06516,8.75605 0.14032,3.88027 -0.34021,7.8337 0.41938,11.66351 1.06504,4.24477 7.131,5.56738 10.08333,2.50061 0.69202,-1.28948 1.20951,-0.47175 1.98007,0.21848 2.85139,2.35365 7.89658,1.85021 9.52333,-1.70957 1.38159,-2.61421 0.39492,-5.64962 -1.15691,-7.94153 -1.00467,-0.98905 0.4061,-2.03274 0.51039,-3.15862 1.63027,-4.72841 -0.97074,-10.23373 -5.49642,-12.2281 -2.22175,-1.2056 -4.79822,-0.91155 -7.22473,-0.95657 z"
         style="display:inline;opacity:0.97000002;fill:#000000;fill-opacity:0.97989951;stroke:#000000;stroke-width:0.33631638;stroke-linecap:round;stroke-linejoin:round;stroke-miterlimit:4;stroke-dasharray:none;stroke-opacity:1" />
      <text
         id="text5007"
         y="456.01419"
         x="193.81645"
         style="font-style:normal;font-variant:normal;font-weight:normal;font-stretch:normal;font-size:32px;line-height:1.25;font-family:Dyuthi;-inkscape-font-specification:Dyuthi;letter-spacing:0px;word-spacing:0px;fill:#ffffff;fill-opacity:1;stroke:none"
         xml:space="preserve"><tspan
           y="456.01419"
           x="193.81645"
           id="tspan5005"
           sodipodi:role="line">REPRENDRE</tspan></text>
    </g>
  </g>
</svg>
