<?xml version="1.0" encoding="UTF-8" standalone="no"?>
<!-- Created with Inkscape (http://www.inkscape.org/) -->

<svg
   xmlns:dc="http://purl.org/dc/elements/1.1/"
   xmlns:cc="http://creativecommons.org/ns#"
   xmlns:rdf="http://www.w3.org/1999/02/22-rdf-syntax-ns#"
   xmlns:svg="http://www.w3.org/2000/svg"
   xmlns="http://www.w3.org/2000/svg"
   xmlns:sodipodi="http://sodipodi.sourceforge.net/DTD/sodipodi-0.dtd"
   xmlns:inkscape="http://www.inkscape.org/namespaces/inkscape"
   width="60.854164mm"
   height="13.229167mm"
   viewBox="0 0 60.854164 13.229167"
   version="1.1"
   id="svg8"
   inkscape:version="0.92.4 (unknown)"
   sodipodi:docname="button.svg">
  <defs
     id="defs2" />
  <sodipodi:namedview
     id="base"
     pagecolor="#ffffff"
     bordercolor="#666666"
     borderopacity="1.0"
     inkscape:pageopacity="0.0"
     inkscape:pageshadow="2"
     inkscape:zoom="1.4"
     inkscape:cx="221.47856"
     inkscape:cy="162.55391"
     inkscape:document-units="mm"
     inkscape:current-layer="layer1"
     showgrid="false"
     inkscape:window-width="927"
     inkscape:window-height="1025"
     inkscape:window-x="67"
     inkscape:window-y="27"
     inkscape:window-maximized="0" />
  <metadata
     id="metadata5">
    <rdf:RDF>
      <cc:Work
         rdf:about="">
        <dc:format>image/svg+xml</dc:format>
        <dc:type
           rdf:resource="http://purl.org/dc/dcmitype/StillImage" />
        <dc:title></dc:title>
      </cc:Work>
    </rdf:RDF>
  </metadata>
  <g
     inkscape:label="Layer 1"
     inkscape:groupmode="layer"
     id="layer1"
     transform="translate(-19.465774,-201.93899)">
    <g
       transform="matrix(0.26458333,0,0,0.26458333,19.465774,5.1666035)"
       style="display:inline"
       id="g4773">
      <g
         id="g3681-3-6"
         transform="matrix(2.853067,0,0,-1.5674964,216.80171,743.70666)"
         style="display:inline">
        <path
           d="m 0,0 h -71.363 c -2.551,0 -4.626,-2.075 -4.626,-4.626 V -27.27 c 0,-2.552 2.075,-4.628 4.626,-4.628 H 0 c 2.551,0 4.626,2.076 4.626,4.628 V -4.626 C 4.626,-2.075 2.551,0 0,0"
           style="fill:#1e3000;fill-opacity:1;fill-rule:nonzero;stroke:none"
           id="path3679-7-5"
           inkscape:connector-curvature="0" />
      </g>
      <g
         id="g3685-4-7"
         transform="matrix(2.9088601,0,0,-1.4862706,218.79249,748.70666)"
         style="display:inline">
        <path
           d="m 0,0 h -71.363 c -1.179,0 -2.134,-0.956 -2.134,-2.134 v -22.645 c 0,-1.179 0.955,-2.134 2.134,-2.134 H 0 c 1.179,0 2.134,0.955 2.134,2.134 V -2.134 C 2.134,-0.956 1.179,0 0,0"
           style="fill:#9cb900;fill-opacity:1;fill-rule:nonzero;stroke:none"
           id="path3683-1-8"
           inkscape:connector-curvature="0" />
      </g>
    </g>
  </g>
</svg>
