<?xml version="1.0" encoding="UTF-8" standalone="no"?>
<!-- Created with Inkscape (http://www.inkscape.org/) -->

<svg
   xmlns:dc="http://purl.org/dc/elements/1.1/"
   xmlns:cc="http://creativecommons.org/ns#"
   xmlns:rdf="http://www.w3.org/1999/02/22-rdf-syntax-ns#"
   xmlns:svg="http://www.w3.org/2000/svg"
   xmlns="http://www.w3.org/2000/svg"
   xmlns:sodipodi="http://sodipodi.sourceforge.net/DTD/sodipodi-0.dtd"
   xmlns:inkscape="http://www.inkscape.org/namespaces/inkscape"
   width="22.4895mm"
   height="7.4084473mm"
   viewBox="0 0 22.489499 7.4084473"
   version="1.1"
   id="svg8"
   inkscape:version="0.92.4 (unknown)"
   sodipodi:docname="buttontext_menu_fr.svg">
  <defs
     id="defs2" />
  <sodipodi:namedview
     id="base"
     pagecolor="#ffffff"
     bordercolor="#666666"
     borderopacity="1.0"
     inkscape:pageopacity="0.0"
     inkscape:pageshadow="2"
     inkscape:zoom="1.4"
     inkscape:cx="112.37164"
     inkscape:cy="126.54001"
     inkscape:document-units="mm"
     inkscape:current-layer="layer1"
     showgrid="false"
     inkscape:window-width="927"
     inkscape:window-height="1025"
     inkscape:window-x="67"
     inkscape:window-y="27"
     inkscape:window-maximized="0" />
  <metadata
     id="metadata5">
    <rdf:RDF>
      <cc:Work
         rdf:about="">
        <dc:format>image/svg+xml</dc:format>
        <dc:type
           rdf:resource="http://purl.org/dc/dcmitype/StillImage" />
        <dc:title></dc:title>
      </cc:Work>
    </rdf:RDF>
  </metadata>
  <g
     inkscape:label="Layer 1"
     inkscape:groupmode="layer"
     id="layer1"
     transform="translate(-48.333648,-220.90961)">
    <g
       style="display:inline"
       id="g3897"
       transform="matrix(0.26494198,0,0,0.26593588,7.1945066,241.09894)">
      <path
         inkscape:connector-curvature="0"
         id="path3715-1"
         d="m 166.95587,-74.493082 c -2.17871,0.06885 -5.10488,-0.256564 -6.18972,2.151685 0.0761,6.598415 -0.15186,13.257334 0.11382,19.818007 1.07068,2.162431 4.8459,2.539355 5.69967,0.01279 0.65302,-1.99825 0.36677,-4.14528 0.43951,-6.20888 2.9206,-0.218022 6.58541,0.472397 8.61661,-2.228323 2.91585,-2.911337 3.11994,-8.149957 0.14863,-11.094004 -2.23134,-2.417608 -5.78276,-2.469053 -8.82852,-2.451275 z m 0.95217,2.945358 c 2.01905,-0.275427 4.02597,1.092076 4.00785,3.239137 0.23264,1.99534 0.37664,5.378873 -2.23703,5.84717 -0.80996,-0.07209 -2.80126,0.725592 -2.65971,-0.476088 0,-2.870073 0,-5.740146 0,-8.610219 0.2963,0 0.5926,0 0.88889,0 z"
         style="display:inline;opacity:0.97000002;fill:none;fill-opacity:1;stroke:none;stroke-width:0.47562319;stroke-linecap:round;stroke-linejoin:round;stroke-miterlimit:4;stroke-dasharray:none;stroke-opacity:1" />
      <text
         xml:space="preserve"
         style="font-style:normal;font-variant:normal;font-weight:normal;font-stretch:normal;font-size:32px;line-height:1.25;font-family:Dyuthi;-inkscape-font-specification:Dyuthi;letter-spacing:0px;word-spacing:0px;display:inline;fill:#ffffff;fill-opacity:1;stroke:none"
         x="156.96732"
         y="-52.291138"
         id="text3868"><tspan
           sodipodi:role="line"
           id="tspan3866"
           x="156.96732"
           y="-52.291138">MENU</tspan></text>
      <path
         inkscape:connector-curvature="0"
         id="path3873"
         d="m 162.77204,-75.555833 c -3.24151,-0.07423 -6.12694,2.411607 -7.11019,5.405956 -0.47858,1.536896 -0.16797,3.190089 -0.26723,4.777521 0.0259,3.963248 -0.12601,7.931933 0.0581,11.891801 0.24764,3.208969 3.49526,5.736973 6.6668,5.283477 1.29134,-0.130743 2.56951,-0.602134 3.56228,-1.451885 2.50712,1.964474 6.30454,1.944385 8.81743,6.16e-4 2.46848,2.177407 6.61658,1.909571 8.78376,-0.572091 1.13423,-1.099764 1.53842,-2.703842 1.47035,-4.24234 0.0472,-4.896224 0.0248,-9.79683 -0.0345,-14.690832 -0.27535,-2.212191 -1.7861,-4.168446 -3.64804,-5.337042 -1.71207,-1.176264 -3.89601,-1.23493 -5.87709,-0.918207 -2.16027,0.523781 -4.11093,1.985923 -5.10099,3.993346 -1.32338,-2.498853 -4.08004,-4.346845 -6.96712,-4.141552 -0.11782,4.11e-4 -0.23565,8.21e-4 -0.35347,0.0012 z"
         style="display:inline;opacity:0.97000002;fill:#000000;fill-opacity:1;stroke:#000000;stroke-width:0.16815819;stroke-linecap:round;stroke-linejoin:round;stroke-miterlimit:4;stroke-dasharray:none;stroke-opacity:1" />
      <path
         inkscape:connector-curvature="0"
         id="path3875"
         d="m 189.86497,-75.817554 c -1.99886,0.07794 -4.0478,-0.182653 -6.0087,0.301133 -1.76011,0.501369 -3.34519,1.93265 -3.50911,3.833645 -0.14596,1.016049 0.30978,1.975251 0.49532,2.934968 -0.0163,5.497359 0.0475,11.003645 -0.0815,16.495283 0.14234,2.238075 2.27194,3.955353 4.46486,3.897798 3.31671,0.07768 6.6415,0.146927 9.95626,4.1e-4 3.14092,-0.228373 5.41343,-3.576985 4.81941,-6.598875 -0.20891,-1.414431 -1.05191,-2.696067 -2.12523,-3.582988 1.83964,-1.977026 1.8561,-5.261024 0.12912,-7.311967 1.80482,-1.936432 2.36229,-5.120329 0.78126,-7.36041 -0.96862,-1.664837 -2.86339,-2.568271 -4.7533,-2.567045 -1.38834,-0.06441 -2.77907,-0.03466 -4.16839,-0.04195 z"
         style="display:inline;opacity:0.97000002;fill:#000000;fill-opacity:1;stroke:#000000;stroke-width:0.16815819;stroke-linecap:round;stroke-linejoin:round;stroke-miterlimit:4;stroke-dasharray:none;stroke-opacity:1" />
      <path
         inkscape:connector-curvature="0"
         id="path3877"
         d="m 214.28773,-75.707939 c -2.63008,-0.02088 -5.19818,1.722936 -6.01855,4.245009 -1.00324,-1.503754 -2.02687,-3.208972 -3.84952,-3.807501 -1.68987,-0.588497 -3.54705,-0.505203 -5.29162,-0.247017 -2.06932,0.411887 -3.52361,2.488735 -3.33915,4.568311 0.0924,0.842895 0.02,1.72707 -0.54335,2.406395 -1.06471,1.672503 -0.96185,3.858535 0.004,5.549918 0.5233,1.193376 -0.56698,2.203753 -0.69361,3.351258 -0.38886,1.712654 0.33441,3.431492 1.40344,4.744229 0.62225,1.095192 -0.23575,2.34322 0.21984,3.487455 0.42672,1.941313 2.35949,3.220281 4.29223,3.219782 2.56392,0.2204 5.17896,-1.279231 6.24722,-3.624268 1.3217,2.344273 4.02376,3.828326 6.71851,3.587235 2.37658,0.101403 4.62786,-1.260474 5.84963,-3.263317 0.8556,-1.380567 1.57892,-2.933095 1.40487,-4.599914 -0.0187,-4.749067 0.13196,-9.502433 -0.0466,-14.248912 -0.26303,-3.129887 -3.30618,-5.451472 -6.35704,-5.368663 z"
         style="display:inline;opacity:0.97000002;fill:#000000;fill-opacity:1;stroke:#000000;stroke-width:0.16815819;stroke-linecap:round;stroke-linejoin:round;stroke-miterlimit:4;stroke-dasharray:none;stroke-opacity:1" />
      <path
         inkscape:connector-curvature="0"
         id="path3879"
         d="m 233.49557,-75.832744 c -2.47373,-0.05129 -4.80012,1.51368 -5.82347,3.742661 -0.26268,0.123547 -0.55416,-0.859405 -0.86775,-1.165892 -1.23886,-1.909707 -3.61561,-2.784304 -5.82704,-2.522828 -1.8848,-0.02736 -3.79415,1.170275 -4.26012,3.053621 -0.40012,1.275575 0.16157,2.572194 0.044,3.870575 0.0875,4.548108 0.0132,9.102648 0.12636,13.647344 0.11328,1.914507 1.76024,3.155668 3.0822,4.332086 2.35489,1.942597 5.46768,2.775631 8.48822,2.584609 6.09463,-0.04546 11.49915,-5.60859 11.53693,-11.668347 0.0294,-3.393703 0.17551,-6.794768 -0.0133,-10.185148 -0.13747,-2.947036 -2.70535,-5.461524 -5.62798,-5.650001 -0.28499,-0.02866 -0.5716,-0.04023 -0.85798,-0.03868 z"
         style="display:inline;opacity:0.97000002;fill:#000000;fill-opacity:1;stroke:#000000;stroke-width:0.16815819;stroke-linecap:round;stroke-linejoin:round;stroke-miterlimit:4;stroke-dasharray:none;stroke-opacity:1" />
      <text
         id="text3864"
         y="-52.142506"
         x="156.96732"
         style="font-style:normal;font-variant:normal;font-weight:normal;font-stretch:normal;font-size:32px;line-height:1.25;font-family:Dyuthi;-inkscape-font-specification:Dyuthi;letter-spacing:0px;word-spacing:0px;fill:#ffffff;fill-opacity:1;stroke:none"
         xml:space="preserve"><tspan
           y="-52.142506"
           x="156.96732"
           id="tspan3862"
           sodipodi:role="line">MENU</tspan></text>
    </g>
  </g>
</svg>
