<?xml version="1.0" encoding="UTF-8" standalone="no"?>
<!-- Created with Inkscape (http://www.inkscape.org/) -->

<svg
   xmlns:dc="http://purl.org/dc/elements/1.1/"
   xmlns:cc="http://creativecommons.org/ns#"
   xmlns:rdf="http://www.w3.org/1999/02/22-rdf-syntax-ns#"
   xmlns:svg="http://www.w3.org/2000/svg"
   xmlns="http://www.w3.org/2000/svg"
   xmlns:sodipodi="http://sodipodi.sourceforge.net/DTD/sodipodi-0.dtd"
   xmlns:inkscape="http://www.inkscape.org/namespaces/inkscape"
   width="71.906761mm"
   height="71.906761mm"
   viewBox="0 0 71.906761 71.906761"
   version="1.1"
   id="svg8"
   inkscape:version="0.92.4 (unknown)"
   sodipodi:docname="compass.svg">
  <defs
     id="defs2" />
  <sodipodi:namedview
     id="base"
     pagecolor="#ffffff"
     bordercolor="#666666"
     borderopacity="1.0"
     inkscape:pageopacity="0.0"
     inkscape:pageshadow="2"
     inkscape:zoom="0.35"
     inkscape:cx="100.98816"
     inkscape:cy="338.74395"
     inkscape:document-units="mm"
     inkscape:current-layer="layer1"
     showgrid="false"
     inkscape:window-width="927"
     inkscape:window-height="1025"
     inkscape:window-x="67"
     inkscape:window-y="27"
     inkscape:window-maximized="0" />
  <metadata
     id="metadata5">
    <rdf:RDF>
      <cc:Work
         rdf:about="">
        <dc:format>image/svg+xml</dc:format>
        <dc:type
           rdf:resource="http://purl.org/dc/dcmitype/StillImage" />
        <dc:title></dc:title>
      </cc:Work>
    </rdf:RDF>
  </metadata>
  <g
     inkscape:label="Layer 1"
     inkscape:groupmode="layer"
     id="layer1"
     transform="translate(-79.113546,-166.55257)">
    <g
       style="display:inline"
       id="g5851"
       transform="matrix(0.14381352,0,0,0.14381352,79.113546,-203.3358)">
      <path
         style="fill:#666666;fill-rule:evenodd;stroke-width:0.53010935"
         d="M 500,2822 A 250,250 0 0 1 250,3072 250,250 0 0 1 0,2822 250,250 0 0 1 250,2572 250,250 0 0 1 500,2822 Z"
         id="path6084-0"
         inkscape:connector-curvature="0" />
      <path
         style="fill:#999999;fill-opacity:1;fill-rule:evenodd;stroke-width:0.42408749"
         d="M 449.99997,2821.8062 A 199.99997,199.99997 0 0 1 250,3021.8061 199.99997,199.99997 0 0 1 50.000031,2821.8062 199.99997,199.99997 0 0 1 250,2621.8062 a 199.99997,199.99997 0 0 1 199.99997,200 z"
         id="path6084-5-9"
         inkscape:connector-curvature="0" />
    </g>
  </g>
</svg>
