<?xml version="1.0" encoding="UTF-8" standalone="no"?>
<!-- Created with Inkscape (http://www.inkscape.org/) -->

<svg
   xmlns:dc="http://purl.org/dc/elements/1.1/"
   xmlns:cc="http://creativecommons.org/ns#"
   xmlns:rdf="http://www.w3.org/1999/02/22-rdf-syntax-ns#"
   xmlns:svg="http://www.w3.org/2000/svg"
   xmlns="http://www.w3.org/2000/svg"
   xmlns:sodipodi="http://sodipodi.sourceforge.net/DTD/sodipodi-0.dtd"
   xmlns:inkscape="http://www.inkscape.org/namespaces/inkscape"
   width="51.843376mm"
   height="52.916668mm"
   viewBox="0 0 51.843376 52.916668"
   version="1.1"
   id="svg8"
   inkscape:version="0.92.4 (unknown)"
   sodipodi:docname="start_flag.svg">
  <defs
     id="defs2" />
  <sodipodi:namedview
     id="base"
     pagecolor="#ffffff"
     bordercolor="#666666"
     borderopacity="1.0"
     inkscape:pageopacity="0.0"
     inkscape:pageshadow="2"
     inkscape:zoom="0.35"
     inkscape:cx="95.114571"
     inkscape:cy="71.428595"
     inkscape:document-units="mm"
     inkscape:current-layer="layer1"
     showgrid="false"
     inkscape:window-width="927"
     inkscape:window-height="1025"
     inkscape:window-x="67"
     inkscape:window-y="27"
     inkscape:window-maximized="0" />
  <metadata
     id="metadata5">
    <rdf:RDF>
      <cc:Work
         rdf:about="">
        <dc:format>image/svg+xml</dc:format>
        <dc:type
           rdf:resource="http://purl.org/dc/dcmitype/StillImage" />
        <dc:title></dc:title>
      </cc:Work>
    </rdf:RDF>
  </metadata>
  <g
     inkscape:label="Layer 1"
     inkscape:groupmode="layer"
     id="layer1"
     transform="translate(-80.667603,-114.81548)">
    <g
       id="Page-1"
       transform="matrix(0.91272527,0,0,0.91272527,80.563087,114.79457)"
       style="display:inline;fill:none;fill-rule:evenodd;stroke:none;stroke-width:1">
      <g
         id="020---Racing-Flag"
         style="fill-rule:nonzero">
        <path
           id="Shape"
           d="m 56.89,10.53 -1.39,6.2 -1.5,6.69 -1.5,6.7 -1.09,4.86 c -0.07713,0.34574 -0.331421,0.624873 -0.668496,0.733806 C 50.40443,35.822738 50.034879,35.745212 49.77,35.51 48.388598,34.194321 46.721935,33.215541 44.9,32.65 c -2.249096,-0.632009 -4.60171,-0.808795 -6.92,-0.52 -2.463796,0.291275 -4.908105,0.728713 -7.32,1.31 -2.413073,0.573242 -4.857105,1.007291 -7.32,1.3 -2.31829,0.288795 -4.670904,0.112009 -6.92,-0.52 v -0.01 c -2.397594,-0.752547 -4.519633,-2.196229 -6.1,-4.15 l 1.5,-6.69 1.51,-6.7 1.5,-6.69 1.5,-6.7 c 1.580004,1.9563586 3.701821,3.4033687 6.1,4.16 2.245746,0.63163 4.595017,0.8084204 6.91,0.52 2.463614,-0.2878366 4.907929,-0.7219363 7.32,-1.3 2.416616,-0.572408 4.863928,-1.0064469 7.33,-1.3 2.314983,-0.2884204 4.664254,-0.11163 6.91,0.52 2.232684,0.6924816 4.227611,1.9947259 5.76,3.76 0.216557,0.2417616 0.30231,0.573587 0.23,0.89 z"
           inkscape:connector-curvature="0"
           style="fill:#e6e7e8" />
        <path
           id="path2114"
           d="m 20.93,14.14 c -0.51,2.23 -1.01,4.45 -1.51,6.68 -2.394588,-0.753006 -4.513289,-2.196784 -6.09,-4.15 l 1.5,-6.69 c 1.580004,1.956359 3.701821,3.403369 6.1,4.16 z"
           inkscape:connector-curvature="0"
           style="fill:#2c2f38" />
        <path
           id="path2116"
           d="m 17.92,27.52 c -0.1,0.45 -0.2,0.89 -0.3,1.34 -0.4,1.79 -0.8,3.573333 -1.2,5.35 -2.397594,-0.752547 -4.519633,-2.196229 -6.1,-4.15 l 1.5,-6.69 c 1.577499,1.956884 3.700564,3.401264 6.1,4.15 z"
           inkscape:connector-curvature="0"
           style="fill:#2c2f38" />
        <path
           id="path2118"
           d="m 29.34,7.96 c -0.5,2.23 -1,4.47 -1.5,6.7 -2.314973,0.288799 -4.66432,0.112002 -6.91,-0.52 0.49,-2.23 1,-4.47 1.5,-6.7 2.245746,0.63163 4.595017,0.8084204 6.91,0.52 z"
           inkscape:connector-curvature="0"
           style="fill:#2c2f38" />
        <path
           id="path2120"
           d="m 32.16,26.74 c -0.1,0.45 -0.2,0.89 -0.3,1.34 -0.4,1.79 -0.8,3.57 -1.2,5.36 -2.413073,0.573242 -4.857105,1.007291 -7.32,1.3 0.4,-1.79 0.8,-3.57 1.2,-5.36 0.1,-0.45 0.2,-0.89 0.3,-1.34 2.462639,-0.294433 4.906573,-0.728465 7.32,-1.3 z"
           inkscape:connector-curvature="0"
           style="fill:#2c2f38" />
        <path
           id="path2122"
           d="m 43.99,5.36 -1.5,6.69 c -2.466971,0.292124 -4.914558,0.72955 -7.33,1.31 0.5,-2.23 1,-4.47 1.5,-6.7 2.416616,-0.572408 4.863928,-1.0064469 7.33,-1.3 z"
           inkscape:connector-curvature="0"
           style="fill:#2c2f38" />
        <path
           id="path2124"
           d="m 46.4,25.97 c -0.1,0.44 -0.2,0.89 -0.3,1.33 -0.4,1.78 -0.8,3.57 -1.2,5.35 -2.249096,-0.632009 -4.60171,-0.808795 -6.92,-0.52 0.4,-1.78 0.8,-3.57 1.2,-5.35 0.1,-0.45 0.2,-0.89 0.3,-1.34 2.318846,-0.290149 4.672386,-0.109892 6.92,0.53 z"
           inkscape:connector-curvature="0"
           style="fill:#2c2f38" />
        <path
           id="path2126"
           d="m 54,23.42 -1.5,6.7 c -1.580367,-1.953771 -3.702406,-3.397454 -6.1,-4.15 0.5,-2.23 1,-4.463333 1.5,-6.7 2.397594,0.752546 4.519633,2.196229 6.1,4.15 z"
           inkscape:connector-curvature="0"
           style="fill:#2c2f38" />
        <path
           id="path2128"
           d="m 56.89,10.53 -1.39,6.2 c -1.580367,-1.953771 -3.702406,-3.397454 -6.1,-4.15 0.5,-2.23 1,-4.4633333 1.5,-6.7 2.232684,0.6924816 4.227611,1.9947259 5.76,3.76 0.216557,0.2417616 0.30231,0.573587 0.23,0.89 z"
           inkscape:connector-curvature="0"
           style="fill:#2c2f38" />
        <path
           id="path2130"
           d="m 49.4,12.58 -1.5,6.69 c -2.244193,-0.639898 -4.59447,-0.820166 -6.91,-0.53 l 1.5,-6.69 c 2.31553,-0.290166 4.665807,-0.109898 6.91,0.53 z"
           inkscape:connector-curvature="0"
           style="fill:#2c2f38" />
        <path
           id="path2132"
           d="m 26.34,21.35 -1.5,6.69 c -2.318034,0.29882 -4.672655,0.121884 -6.92,-0.52 0.5,-2.23 1,-4.47 1.5,-6.7 2.247541,0.640298 4.601164,0.820561 6.92,0.53 z"
           inkscape:connector-curvature="0"
           style="fill:#2c2f38" />
        <path
           id="path2134"
           d="m 35.16,13.36 c -0.5,2.23 -1,4.45 -1.5,6.68 -2.412075,0.580429 -4.856333,1.017858 -7.32,1.31 l 1.5,-6.69 c 2.462767,-0.293572 4.906749,-0.727612 7.32,-1.3 z"
           inkscape:connector-curvature="0"
           style="fill:#2c2f38" />
        <path
           id="path2136"
           d="m 40.99,18.74 c -0.51,2.23 -1.01,4.47 -1.51,6.7 -2.462895,0.292709 -4.906927,0.726758 -7.32,1.3 0.5,-2.23 1,-4.47 1.5,-6.7 2.416616,-0.572408 4.863928,-1.006447 7.33,-1.3 z"
           inkscape:connector-curvature="0"
           style="fill:#2c2f38" />
        <path
           id="path2138"
           d="m 17.38,2.77 c -0.0035,0.2018153 -0.02699,0.4027886 -0.07,0.6 L 5.54,55.86 C 5.3818615,56.570777 4.9466199,57.189061 4.3308377,57.57768 3.7150555,57.966299 2.9696513,58.093117 2.26,57.93 L 2.16,57.9 C 0.73601685,57.528295 -0.13881627,56.09675 0.18,54.66 L 11.95,2.16 c 0.336776,-1.47549144 1.803189,-2.40094063 3.28,-2.07 h 0.02 c 1.244972,0.2922558 2.126326,1.4011894 2.13,2.68 z"
           inkscape:connector-curvature="0"
           style="fill:#af8066" />
        <path
           id="path2140"
           d="m 17.38,2.77 c -0.0035,0.2018153 -0.02699,0.4027886 -0.07,0.6 L 5.54,55.86 C 5.3818615,56.570777 4.9466199,57.189061 4.3308377,57.57768 3.7150555,57.966299 2.9696513,58.093117 2.26,57.93 L 2.16,57.9 15.25,0.09 c 1.244972,0.2922558 2.126326,1.4011894 2.13,2.68 z"
           inkscape:connector-curvature="0"
           style="fill:#7f5b53" />
      </g>
    </g>
  </g>
</svg>
