<?xml version="1.0" encoding="UTF-8" standalone="no"?>
<!-- Created with Inkscape (http://www.inkscape.org/) -->

<svg
   xmlns:dc="http://purl.org/dc/elements/1.1/"
   xmlns:cc="http://creativecommons.org/ns#"
   xmlns:rdf="http://www.w3.org/1999/02/22-rdf-syntax-ns#"
   xmlns:svg="http://www.w3.org/2000/svg"
   xmlns="http://www.w3.org/2000/svg"
   xmlns:sodipodi="http://sodipodi.sourceforge.net/DTD/sodipodi-0.dtd"
   xmlns:inkscape="http://www.inkscape.org/namespaces/inkscape"
   width="52.806412mm"
   height="52.916664mm"
   viewBox="0 0 52.806412 52.916664"
   version="1.1"
   id="svg8"
   inkscape:version="0.92.4 (unknown)"
   sodipodi:docname="target.svg">
  <defs
     id="defs2" />
  <sodipodi:namedview
     id="base"
     pagecolor="#ffffff"
     bordercolor="#666666"
     borderopacity="1.0"
     inkscape:pageopacity="0.0"
     inkscape:pageshadow="2"
     inkscape:zoom="0.35"
     inkscape:cx="-396.52237"
     inkscape:cy="-37.142835"
     inkscape:document-units="mm"
     inkscape:current-layer="layer1"
     showgrid="false"
     inkscape:window-width="927"
     inkscape:window-height="1025"
     inkscape:window-x="67"
     inkscape:window-y="27"
     inkscape:window-maximized="0" />
  <metadata
     id="metadata5">
    <rdf:RDF>
      <cc:Work
         rdf:about="">
        <dc:format>image/svg+xml</dc:format>
        <dc:type
           rdf:resource="http://purl.org/dc/dcmitype/StillImage" />
        <dc:title></dc:title>
      </cc:Work>
    </rdf:RDF>
  </metadata>
  <g
     inkscape:label="Layer 1"
     inkscape:groupmode="layer"
     id="layer1"
     transform="translate(-210.74654,-86.089292)">
    <g
       style="display:inline"
       id="g2246"
       transform="matrix(0.10550584,0,0,0.10550584,210.69147,86.089292)">
      <path
         id="path2167"
         d="m 501.029,250.776 c 0,4.18 0,9.404 0,13.584 -2.09,34.482 -10.449,65.829 -24.033,95.086 C 436.245,443.038 350.563,501.552 251.298,501.552 112.327,501.552 0.522,388.703 0.522,250.776 0.522,111.804 112.327,0 251.298,0 389.224,0 501.029,111.804 501.029,250.776 Z"
         style="fill:#ff7058"
         inkscape:connector-curvature="0" />
      <path
         style="fill:#ffffff"
         d="M 448.78401,250.776 A 198.53101,198.53101 0 0 1 250.25301,449.30701 198.53101,198.53101 0 0 1 51.722,250.776 198.53101,198.53101 0 0 1 250.25301,52.244995 198.53101,198.53101 0 0 1 448.78401,250.776 Z"
         id="circle2169"
         inkscape:connector-curvature="0" />
      <path
         style="fill:#ff7058"
         d="m 397.584,250.77499 a 147.33099,147.33099 0 0 1 -147.33099,147.331 147.33099,147.33099 0 0 1 -147.331,-147.331 A 147.33099,147.33099 0 0 1 250.25301,103.444 147.33099,147.33099 0 0 1 397.584,250.77499 Z"
         id="circle2171"
         inkscape:connector-curvature="0" />
      <path
         style="fill:#ffffff"
         d="m 345.339,250.77499 a 95.085999,95.085999 0 0 1 -95.08599,95.086 95.085999,95.085999 0 0 1 -95.086,-95.086 95.085999,95.085999 0 0 1 95.086,-95.08599 95.085999,95.085999 0 0 1 95.08599,95.08599 z"
         id="circle2173"
         inkscape:connector-curvature="0" />
      <path
         style="fill:#ff7058"
         d="m 293.09401,250.776 a 42.841,42.841 0 0 1 -42.841,42.841 42.841,42.841 0 0 1 -42.841,-42.841 42.841,42.841 0 0 1 42.841,-42.841 42.841,42.841 0 0 1 42.841,42.841 z"
         id="circle2175"
         inkscape:connector-curvature="0" />
      <path
         id="path2177"
         d="m 501.029,264.359 c -2.09,34.482 -10.449,65.829 -24.033,95.086 l -36.571,-9.404 -10.449,-35.527 -182.857,-49.11 c -9.404,-2.09 -14.629,-11.494 -11.494,-20.898 2.09,-9.404 11.494,-14.629 20.898,-11.494 L 438.335,282.122 465.502,256 Z"
         style="opacity:0.2;fill:#334a5e;enable-background:new"
         inkscape:connector-curvature="0" />
      <path
         id="path2179"
         d="m 400.718,99.265 c -6.269,-6.269 -17.763,-6.269 -24.033,0 L 239.804,236.147 c -6.269,6.269 -6.269,17.763 0,24.033 v 0 c 6.269,6.269 17.763,6.269 24.033,0 L 400.719,123.298 c 6.269,-6.269 6.269,-17.763 -10e-4,-24.033 z"
         style="fill:#40596b"
         inkscape:connector-curvature="0" />
      <path
         style="fill:#84dbff"
         d="M 377.731,121.208 364.147,65.829 425.796,4.18 439.38,60.604 Z"
         id="polygon2181"
         inkscape:connector-curvature="0" />
      <path
         style="fill:#54c0eb"
         d="m 494.759,74.188 -55.379,-13.584 -61.649,60.604 56.424,13.584 z"
         id="polygon2183"
         inkscape:connector-curvature="0" />
      <g
         id="g2185" />
      <g
         id="g2187" />
      <g
         id="g2189" />
      <g
         id="g2191" />
      <g
         id="g2193" />
      <g
         id="g2195" />
      <g
         id="g2197" />
      <g
         id="g2199" />
      <g
         id="g2201" />
      <g
         id="g2203" />
      <g
         id="g2205" />
      <g
         id="g2207" />
      <g
         id="g2209" />
      <g
         id="g2211" />
      <g
         id="g2213" />
    </g>
  </g>
</svg>
