<?xml version="1.0" encoding="UTF-8" standalone="no"?>
<!-- Created with Inkscape (http://www.inkscape.org/) -->

<svg
   xmlns:dc="http://purl.org/dc/elements/1.1/"
   xmlns:cc="http://creativecommons.org/ns#"
   xmlns:rdf="http://www.w3.org/1999/02/22-rdf-syntax-ns#"
   xmlns:svg="http://www.w3.org/2000/svg"
   xmlns="http://www.w3.org/2000/svg"
   xmlns:sodipodi="http://sodipodi.sourceforge.net/DTD/sodipodi-0.dtd"
   xmlns:inkscape="http://www.inkscape.org/namespaces/inkscape"
   width="6.727417mm"
   height="18.166126mm"
   viewBox="0 0 6.7274174 18.166125"
   version="1.1"
   id="svg8"
   inkscape:version="0.92.4 (unknown)"
   sodipodi:docname="drawing73.svg">
  <defs
     id="defs2" />
  <sodipodi:namedview
     id="base"
     pagecolor="#ffffff"
     bordercolor="#666666"
     borderopacity="1.0"
     inkscape:pageopacity="0.0"
     inkscape:pageshadow="2"
     inkscape:zoom="0.98994949"
     inkscape:cx="-37.798704"
     inkscape:cy="162.08301"
     inkscape:document-units="mm"
     inkscape:current-layer="layer1"
     showgrid="false"
     inkscape:window-width="927"
     inkscape:window-height="1025"
     inkscape:window-x="67"
     inkscape:window-y="27"
     inkscape:window-maximized="0" />
  <metadata
     id="metadata5">
    <rdf:RDF>
      <cc:Work
         rdf:about="">
        <dc:format>image/svg+xml</dc:format>
        <dc:type
           rdf:resource="http://purl.org/dc/dcmitype/StillImage" />
        <dc:title></dc:title>
      </cc:Work>
    </rdf:RDF>
  </metadata>
  <g
     inkscape:label="Layer 1"
     inkscape:groupmode="layer"
     id="layer1"
     transform="translate(-291.95442,-237.46682)">
    <g
       transform="matrix(0.26458333,0,0,0.26458333,210.14967,176.8424)"
       id="g1776">
      <g
         transform="matrix(0.26458333,0,0,0.26458333,301.99987,235.87854)"
         id="use1774">
        <path
           style="fill:#876844;stroke:none"
           inkscape:connector-curvature="0"
           d="m 59.7,200.1 -1.15,7.7 36.4,3.5 -4,-14.75 z"
           id="path1707" />
        <path
           style="fill:#9c7b53;stroke:none"
           inkscape:connector-curvature="0"
           d="m 101.15,234 -6.2,-22.7 -36.4,-3.5 -3.9,26.2 z"
           id="path1709" />
        <path
           style="fill:#648c44;stroke:none"
           inkscape:connector-curvature="0"
           d="m 44.45,48.2 55.2,11.35 -39.1,-85.05 -16.1,73.7 m -11.35,77.3 73.7,-9.35 -9.55,-34.3 -48.3,-11.35 -15.85,55 m 5.5,27.5 -7.9,35.15 87.55,-6.85 -17.75,-41.35 z"
           id="path1711" />
        <path
           style="fill:#ddeaee;stroke:none"
           inkscape:connector-curvature="0"
           d="m 123.25,192.9 -5,-11.6 -87.55,6.85 -3.55,15.6 32.55,-3.65 31.25,-3.55 32.3,-3.65 m -90.15,-67.4 -3.7,12.8 12.7,-0.75 55.95,-3.4 13.5,-0.8 -4.75,-17.2 -73.7,9.35 M 93.7,68.95 104.75,70.6 99.65,59.55 44.45,48.2 41.6,61.15 l 9.6,1.4 z"
           id="path1713" />
        <path
           style="fill:#597b3e;stroke:none"
           inkscape:connector-curvature="0"
           d="m 42.1,137.55 -3.5,15.45 61.9,-13.05 -2.45,-5.8 -55.95,3.4 M 97.25,81.85 93.7,68.95 51.2,62.55 48.95,70.5 Z"
           id="path1715" />
      </g>
    </g>
  </g>
</svg>
