<?xml version="1.0" encoding="UTF-8" standalone="no"?>
<!-- Created with Inkscape (http://www.inkscape.org/) -->

<svg
   xmlns:dc="http://purl.org/dc/elements/1.1/"
   xmlns:cc="http://creativecommons.org/ns#"
   xmlns:rdf="http://www.w3.org/1999/02/22-rdf-syntax-ns#"
   xmlns:svg="http://www.w3.org/2000/svg"
   xmlns="http://www.w3.org/2000/svg"
   xmlns:sodipodi="http://sodipodi.sourceforge.net/DTD/sodipodi-0.dtd"
   xmlns:inkscape="http://www.inkscape.org/namespaces/inkscape"
   width="6.727417mm"
   height="18.166126mm"
   viewBox="0 0 6.7274174 18.166125"
   version="1.1"
   id="svg8"
   inkscape:version="0.92.4 (unknown)"
   sodipodi:docname="drawing69.svg">
  <defs
     id="defs2" />
  <sodipodi:namedview
     id="base"
     pagecolor="#ffffff"
     bordercolor="#666666"
     borderopacity="1.0"
     inkscape:pageopacity="0.0"
     inkscape:pageshadow="2"
     inkscape:zoom="0.98994949"
     inkscape:cx="-124.34144"
     inkscape:cy="99.55805"
     inkscape:document-units="mm"
     inkscape:current-layer="layer1"
     showgrid="false"
     inkscape:window-width="927"
     inkscape:window-height="1025"
     inkscape:window-x="67"
     inkscape:window-y="27"
     inkscape:window-maximized="0" />
  <metadata
     id="metadata5">
    <rdf:RDF>
      <cc:Work
         rdf:about="">
        <dc:format>image/svg+xml</dc:format>
        <dc:type
           rdf:resource="http://purl.org/dc/dcmitype/StillImage" />
        <dc:title></dc:title>
      </cc:Work>
    </rdf:RDF>
  </metadata>
  <g
     inkscape:label="Layer 1"
     inkscape:groupmode="layer"
     id="layer1"
     transform="translate(-314.85218,-220.92376)">
    <g
       transform="matrix(0.26458333,0,0,0.26458333,256.04478,165.52494)"
       id="g1768">
      <g
         transform="matrix(0.26458333,0,0,0.26458333,297.1016,216.12825)"
         id="use1766">
        <path
           style="fill:#876844;stroke:none"
           inkscape:connector-curvature="0"
           d="m -250.3,200.1 -1.15,7.7 36.4,3.5 -4,-14.75 z"
           id="path1508" />
        <path
           style="fill:#9c7b53;stroke:none"
           inkscape:connector-curvature="0"
           d="m -208.85,234 -6.2,-22.7 -36.4,-3.5 -3.9,26.2 z"
           id="path1510" />
        <path
           style="fill:#648c44;stroke:none"
           inkscape:connector-curvature="0"
           d="m -186.75,192.9 -22.75,-52.95 -61.9,13.05 -11.45,50.75 32.55,-3.65 31.25,-3.55 32.3,-3.65 m -93.85,-54.6 12.7,-0.75 55.95,-3.4 13.5,-0.8 -14.3,-51.5 -48.3,-11.35 -19.55,67.8 m 64.3,-69.35 11.05,1.65 -44.2,-96.1 -18.95,86.65 9.6,1.4 z"
           id="path1512" />
        <path
           style="fill:#597b3e;stroke:none"
           inkscape:connector-curvature="0"
           d="m -267.9,137.55 -3.5,15.45 61.9,-13.05 -2.45,-5.8 -55.95,3.4 m 55.15,-55.7 -3.55,-12.9 -42.5,-6.4 -2.25,7.95 z"
           id="path1514" />
      </g>
    </g>
  </g>
</svg>
