<?xml version="1.0" encoding="UTF-8" standalone="no"?>
<!-- Created with Inkscape (http://www.inkscape.org/) -->

<svg
   xmlns:dc="http://purl.org/dc/elements/1.1/"
   xmlns:cc="http://creativecommons.org/ns#"
   xmlns:rdf="http://www.w3.org/1999/02/22-rdf-syntax-ns#"
   xmlns:svg="http://www.w3.org/2000/svg"
   xmlns="http://www.w3.org/2000/svg"
   xmlns:sodipodi="http://sodipodi.sourceforge.net/DTD/sodipodi-0.dtd"
   xmlns:inkscape="http://www.inkscape.org/namespaces/inkscape"
   width="7.3504558mm"
   height="16.818542mm"
   viewBox="0 0 7.3504562 16.818541"
   version="1.1"
   id="svg8"
   inkscape:version="0.92.4 (unknown)"
   sodipodi:docname="drawing72.svg">
  <defs
     id="defs2" />
  <sodipodi:namedview
     id="base"
     pagecolor="#ffffff"
     bordercolor="#666666"
     borderopacity="1.0"
     inkscape:pageopacity="0.0"
     inkscape:pageshadow="2"
     inkscape:zoom="0.98994949"
     inkscape:cx="-75.765762"
     inkscape:cy="150.98683"
     inkscape:document-units="mm"
     inkscape:current-layer="layer1"
     showgrid="false"
     inkscape:window-width="927"
     inkscape:window-height="1025"
     inkscape:window-x="67"
     inkscape:window-y="27"
     inkscape:window-maximized="0" />
  <metadata
     id="metadata5">
    <rdf:RDF>
      <cc:Work
         rdf:about="">
        <dc:format>image/svg+xml</dc:format>
        <dc:type
           rdf:resource="http://purl.org/dc/dcmitype/StillImage" />
        <dc:title></dc:title>
      </cc:Work>
    </rdf:RDF>
  </metadata>
  <g
     inkscape:label="Layer 1"
     inkscape:groupmode="layer"
     id="layer1"
     transform="translate(-301.99987,-235.87854)">
    <g
       transform="matrix(0.26458333,0,0,0.26458333,220.64173,190.77239)"
       id="g1760">
      <g
         transform="matrix(0.26458333,0,0,0.26458333,305.14056,244.56329)"
         id="use1758">
        <path
           style="fill:#648c44;stroke:none"
           inkscape:connector-curvature="0"
           d="m 110.9,-95.95 -17.45,-38.35 -72.15,5.2 -8.75,36.55 98.35,-3.4 m -12.2,-44.95 -17,-51.85 -47.95,-4.65 -15.75,44.8 80.7,11.7 m -49,-139.1 -24.2,75.8 56.25,-13.7 z"
           id="path1662" />
        <path
           style="fill:#9c7b53;stroke:none"
           inkscape:connector-curvature="0"
           d="m 68.6,-76.3 -18.85,3.8 -1.9,32.75 H 73.1 Z"
           id="path1664" />
        <path
           style="fill:#ddeaee;stroke:none"
           inkscape:connector-curvature="0"
           d="m 50.3,-82.05 17.35,-2 46.25,-5.25 -3,-6.65 -98.35,3.4 -3.65,15.2 41.4,-4.7 m 41.95,-55 7.9,0.55 -1.45,-4.4 -80.7,-11.7 -3.6,10.15 9.95,0.65 67.9,4.75 m -66.75,-67.15 -0.55,1.7 10.95,-0.95 41.1,-3.7 9.85,-0.85 -5.1,-9.9 z"
           id="path1666" />
        <path
           style="fill:#876844;stroke:none"
           inkscape:connector-curvature="0"
           d="m 67.65,-84.05 -17.35,2 -0.55,9.55 18.85,-3.8 z"
           id="path1668" />
        <path
           style="fill:#597b3e;stroke:none"
           inkscape:connector-curvature="0"
           d="m 93.45,-134.3 -1.2,-2.75 -67.9,-4.75 -3.05,12.7 72.15,-5.2 M 77,-207.15 l -41.1,3.7 -2.15,6.05 47.95,4.65 z"
           id="path1670" />
      </g>
    </g>
  </g>
</svg>
