<?xml version="1.0" encoding="UTF-8" standalone="no"?>
<!-- Created with Inkscape (http://www.inkscape.org/) -->

<svg
   xmlns:dc="http://purl.org/dc/elements/1.1/"
   xmlns:cc="http://creativecommons.org/ns#"
   xmlns:rdf="http://www.w3.org/1999/02/22-rdf-syntax-ns#"
   xmlns:svg="http://www.w3.org/2000/svg"
   xmlns="http://www.w3.org/2000/svg"
   xmlns:sodipodi="http://sodipodi.sourceforge.net/DTD/sodipodi-0.dtd"
   xmlns:inkscape="http://www.inkscape.org/namespaces/inkscape"
   width="8.9360542mm"
   height="16.076496mm"
   viewBox="0 0 8.9360542 16.076496"
   version="1.1"
   id="svg8"
   inkscape:version="0.92.4 (unknown)"
   sodipodi:docname="drawing40.svg">
  <defs
     id="defs2" />
  <sodipodi:namedview
     id="base"
     pagecolor="#ffffff"
     bordercolor="#666666"
     borderopacity="1.0"
     inkscape:pageopacity="0.0"
     inkscape:pageshadow="2"
     inkscape:zoom="0.98994949"
     inkscape:cx="-191.54513"
     inkscape:cy="239.87171"
     inkscape:document-units="mm"
     inkscape:current-layer="layer1"
     showgrid="false"
     inkscape:window-width="927"
     inkscape:window-height="1025"
     inkscape:window-x="67"
     inkscape:window-y="27"
     inkscape:window-maximized="0" />
  <metadata
     id="metadata5">
    <rdf:RDF>
      <cc:Work
         rdf:about="">
        <dc:format>image/svg+xml</dc:format>
        <dc:type
           rdf:resource="http://purl.org/dc/dcmitype/StillImage" />
        <dc:title></dc:title>
      </cc:Work>
    </rdf:RDF>
  </metadata>
  <g
     inkscape:label="Layer 1"
     inkscape:groupmode="layer"
     id="layer1"
     transform="translate(-332.63313,-260.13808)">
    <g
       transform="matrix(0.26458333,0,0,0.26458333,197.66337,147.94682)"
       id="g1864">
      <g
         transform="matrix(0.26458333,0,0,0.26458333,331.48849,260.38519)"
         id="use1862">
        <path
           style="fill:#a19489;stroke:none"
           inkscape:connector-curvature="0"
           d="m 752.45,827.45 q 0.5,-0.05 0.95,-0.1 -0.85,-4.35 -1.5,-8.65 -1.05,0.2 -2.15,0.35 -5.2,0.85 -10.8,0.85 -5.7,0 -11.05,-0.85 -0.95,-0.2 -1.85,-0.35 -0.6,4.5 -1.35,8.65 0.2,0.05 0.45,0.1 6.7,1.05 13.8,1.05 7,0 13.5,-1.05 z"
           id="path515" />
        <path
           style="fill:#c6c4c3;stroke:none"
           inkscape:connector-curvature="0"
           d="m 753.4,827.35 q -0.45,0.05 -0.95,0.1 -6.5,1.05 -13.5,1.05 -7.1,0 -13.8,-1.05 -0.25,-0.05 -0.45,-0.1 -2.15,11.85 -5.7,20.8 h 39.95 q -3.4,-10.25 -5.55,-20.8 z"
           id="path517" />
        <path
           style="fill:#936234;stroke:none"
           inkscape:connector-curvature="0"
           d="m 683.5,787.95 q 0.45,0.75 0.9,1.5 h 10.5 l -2.05,10.75 q 0.5,0.5 1,1 13.9,13.95 32.2,17.5 0.9,0.15 1.85,0.35 5.35,0.85 11.05,0.85 5.6,0 10.8,-0.85 1.1,-0.15 2.15,-0.35 10.6,-2.1 19.75,-7.7 v -8.55 l 8.1,2.75 q 2.2,-1.9 4.3,-4 17.4,-17.45 18.65,-41.55 0.1,-1.75 0.1,-3.55 0,-1.3 -0.05,-2.55 -0.15,-7.2 -0.5,-14.05 -2.7,20.7 -18.2,36.15 -14.6,14.65 -34,17.85 -0.15,0 -0.25,0.05 h -0.05 q -5.2,0.8 -10.8,0.8 -5.7,0 -11.05,-0.85 h -0.05 q -0.15,-0.05 -0.25,-0.05 -19.25,-3.25 -33.75,-17.8 -6.25,-6.2 -10.35,-13.2 -6.15,-10.55 -7.75,-22.95 -0.45,6.85 -0.55,14.05 -0.05,1.25 -0.05,2.55 0,1.8 0.1,3.55 0.75,15.6 8.25,28.3 z"
           id="path519" />
        <path
           style="fill:#a67344;stroke:none"
           inkscape:connector-curvature="0"
           d="m 762.8,628.25 q -11.05,-9.75 -23.85,-9.75 -26.45,0 -45.1,41.2 -3.1,6.8 -5.7,14.1 l 5.05,6.5 -8.1,2.9 q -0.85,2.8 -1.6,5.65 -6.15,23.2 -7.75,50.65 1.6,12.4 7.75,22.95 4.1,7 10.35,13.2 14.5,14.55 33.75,17.8 0.1,0 0.25,0.05 h 0.05 q 5.35,0.85 11.05,0.85 5.6,0 10.8,-0.8 h 0.05 q 0.1,-0.05 0.25,-0.05 19.4,-3.2 34,-17.85 15.5,-15.45 18.2,-36.15 -1.45,-23.8 -6.3,-44.4 l -7.5,-1.35 4.9,-8.65 q -3.85,-13.4 -9.3,-25.4 -5.6,-12.3 -11.85,-20.95 h -11.45 z"
           id="path521" />
      </g>
    </g>
  </g>
</svg>
