<?xml version="1.0" encoding="UTF-8" standalone="no"?>
<!-- Created with Inkscape (http://www.inkscape.org/) -->

<svg
   xmlns:dc="http://purl.org/dc/elements/1.1/"
   xmlns:cc="http://creativecommons.org/ns#"
   xmlns:rdf="http://www.w3.org/1999/02/22-rdf-syntax-ns#"
   xmlns:svg="http://www.w3.org/2000/svg"
   xmlns="http://www.w3.org/2000/svg"
   xmlns:sodipodi="http://sodipodi.sourceforge.net/DTD/sodipodi-0.dtd"
   xmlns:inkscape="http://www.inkscape.org/namespaces/inkscape"
   width="4.8688016mm"
   height="9.9896193mm"
   viewBox="0 0 4.8688019 9.9896182"
   version="1.1"
   id="svg8"
   inkscape:version="0.92.4 (unknown)"
   sodipodi:docname="drawing97.svg">
  <defs
     id="defs2" />
  <sodipodi:namedview
     id="base"
     pagecolor="#ffffff"
     bordercolor="#666666"
     borderopacity="1.0"
     inkscape:pageopacity="0.0"
     inkscape:pageshadow="2"
     inkscape:zoom="0.98994949"
     inkscape:cx="-77.572319"
     inkscape:cy="70.615127"
     inkscape:document-units="mm"
     inkscape:current-layer="layer1"
     showgrid="false"
     inkscape:window-width="927"
     inkscape:window-height="1025"
     inkscape:window-x="67"
     inkscape:window-y="27"
     inkscape:window-maximized="0" />
  <metadata
     id="metadata5">
    <rdf:RDF>
      <cc:Work
         rdf:about="">
        <dc:format>image/svg+xml</dc:format>
        <dc:type
           rdf:resource="http://purl.org/dc/dcmitype/StillImage" />
        <dc:title></dc:title>
      </cc:Work>
    </rdf:RDF>
  </metadata>
  <g
     inkscape:label="Layer 1"
     inkscape:groupmode="layer"
     id="layer1"
     transform="translate(-302.47786,-221.44245)">
    <g
       transform="matrix(0.26458333,0,0,0.26458333,190.20766,170.89027)"
       id="g1884">
      <g
         transform="matrix(0.26458333,0,0,0.26458333,280.858,239.68056)"
         id="use1882">
        <path
           style="fill:#648c44;stroke:none"
           inkscape:connector-curvature="0"
           d="m 585.2,-180.4 q -3.4,-3.35 -8.2,-3.35 -4.8,0 -8.2,3.35 -3.35,3.4 -3.35,8.2 v 47.85 q -0.95,-0.5 -1.75,-1.3 -2.15,-2.2 -2.15,-5.3 v -30.25 q 0,-4 -2.85,-6.8 -2.8,-2.85 -6.8,-2.85 -4,0 -6.85,2.85 -2.8,2.8 -2.8,6.8 v 30.25 q 0,11.05 7.8,18.9 v 0.05 q 5.85,5.8 13.5,7.3 l 0.05,0.05 q 0.9,0.15 1.85,0.25 v 63.35 H 588.6 V -73.5 q 0.9,-0.1 1.8,-0.3 h 0.1 q 7.65,-1.5 13.5,-7.35 7.8,-7.85 7.8,-18.9 v -30.25 q 0,-4 -2.8,-6.8 -2.85,-2.85 -6.85,-2.85 -4,0 -6.8,2.85 -2.85,2.8 -2.85,6.8 v 30.25 q 0,3.05 -2.15,5.25 -0.8,0.8 -1.75,1.35 v -78.75 q 0,-4.8 -3.4,-8.2 z"
           id="path2612" />
      </g>
    </g>
  </g>
</svg>
