<?xml version="1.0" encoding="UTF-8" standalone="no"?>
<!-- Created with Inkscape (http://www.inkscape.org/) -->

<svg
   xmlns:dc="http://purl.org/dc/elements/1.1/"
   xmlns:cc="http://creativecommons.org/ns#"
   xmlns:rdf="http://www.w3.org/1999/02/22-rdf-syntax-ns#"
   xmlns:svg="http://www.w3.org/2000/svg"
   xmlns="http://www.w3.org/2000/svg"
   xmlns:sodipodi="http://sodipodi.sourceforge.net/DTD/sodipodi-0.dtd"
   xmlns:inkscape="http://www.inkscape.org/namespaces/inkscape"
   width="8.9325533mm"
   height="16.076496mm"
   viewBox="0 0 8.9325533 16.076496"
   version="1.1"
   id="svg8"
   inkscape:version="0.92.4 (unknown)"
   sodipodi:docname="drawing34.svg">
  <defs
     id="defs2" />
  <sodipodi:namedview
     id="base"
     pagecolor="#ffffff"
     bordercolor="#666666"
     borderopacity="1.0"
     inkscape:pageopacity="0.0"
     inkscape:pageshadow="2"
     inkscape:zoom="0.98994949"
     inkscape:cx="-238.30582"
     inkscape:cy="185.85654"
     inkscape:document-units="mm"
     inkscape:current-layer="layer1"
     showgrid="false"
     inkscape:window-width="927"
     inkscape:window-height="1025"
     inkscape:window-x="67"
     inkscape:window-y="27"
     inkscape:window-maximized="0" />
  <metadata
     id="metadata5">
    <rdf:RDF>
      <cc:Work
         rdf:about="">
        <dc:format>image/svg+xml</dc:format>
        <dc:type
           rdf:resource="http://purl.org/dc/dcmitype/StillImage" />
        <dc:title></dc:title>
      </cc:Work>
    </rdf:RDF>
  </metadata>
  <g
     inkscape:label="Layer 1"
     inkscape:groupmode="layer"
     id="layer1"
     transform="translate(-345.00523,-245.84658)">
    <g
       transform="matrix(0.26458333,0,0,0.26458333,222.68838,155.34972)"
       id="g1848">
      <g
         transform="matrix(0.26458333,0,0,0.26458333,363.63679,245.03913)"
         id="use1846">
        <path
           style="fill:#876844;stroke:none"
           inkscape:connector-curvature="0"
           d="m 422.9,575.55 q 6.65,1.05 13.8,1.05 6.95,0 13.5,-1 0.5,-0.1 0.95,-0.15 -0.85,-4.3 -1.5,-8.65 -1.05,0.2 -2.15,0.4 -5.2,0.8 -10.8,0.8 -5.7,0 -11.1,-0.85 -0.9,-0.2 -1.85,-0.35 -0.55,4.5 -1.3,8.65 0.2,0.05 0.45,0.1 z"
           id="path266" />
        <path
           style="fill:#9c7b53;stroke:none"
           inkscape:connector-curvature="0"
           d="m 436.7,576.6 q -7.15,0 -13.8,-1.05 -0.25,-0.05 -0.45,-0.1 -2.15,11.85 -5.75,20.8 h 40 q -3.4,-10.25 -5.55,-20.8 -0.45,0.05 -0.95,0.15 -6.55,1 -13.5,1 z"
           id="path268" />
        <path
           style="fill:#648c44;stroke:none"
           inkscape:connector-curvature="0"
           d="m 391.55,407.8 q -6.2,13.65 -10.3,29.15 -6.15,23.2 -7.75,50.65 1.6,12.4 7.75,22.95 4.1,7 10.3,13.2 14.55,14.55 33.8,17.8 0.1,0 0.25,0.05 5.4,0.85 11.1,0.85 5.6,0 10.8,-0.8 h 0.05 q 0.05,-0.05 0.25,-0.05 19.4,-3.2 34,-17.85 15.5,-15.45 18.15,-36.15 -2.7,-45.75 -18.15,-79.8 -18.7,-41.2 -45.1,-41.2 -26.45,0 -45.15,41.2 z"
           id="path270" />
        <path
           style="fill:#597b3e;stroke:none"
           inkscape:connector-curvature="0"
           d="m 500.5,504.2 q 0,-1.3 -0.05,-2.55 -0.1,-7.2 -0.5,-14.05 -2.65,20.7 -18.15,36.15 -14.6,14.65 -34,17.85 -0.2,0 -0.25,0.05 h -0.05 q -5.2,0.8 -10.8,0.8 -5.7,0 -11.1,-0.85 -0.15,-0.05 -0.25,-0.05 -19.25,-3.25 -33.8,-17.8 -6.2,-6.2 -10.3,-13.2 -6.15,-10.55 -7.75,-22.95 -0.5,6.85 -0.55,14.05 -0.05,1.25 -0.05,2.55 0,1.8 0.1,3.6 0.75,15.55 8.25,28.25 4.1,7.05 10.3,13.25 13.95,13.95 32.2,17.5 0.95,0.15 1.85,0.35 5.4,0.85 11.1,0.85 5.6,0 10.8,-0.8 1.1,-0.2 2.15,-0.4 18.2,-3.55 32.15,-17.5 17.4,-17.45 18.65,-41.5 0.05,-1.8 0.05,-3.6 z"
           id="path272" />
      </g>
    </g>
  </g>
</svg>
