<?xml version="1.0" encoding="UTF-8" standalone="no"?>
<!-- Created with Inkscape (http://www.inkscape.org/) -->

<svg
   xmlns:dc="http://purl.org/dc/elements/1.1/"
   xmlns:cc="http://creativecommons.org/ns#"
   xmlns:rdf="http://www.w3.org/1999/02/22-rdf-syntax-ns#"
   xmlns:svg="http://www.w3.org/2000/svg"
   xmlns="http://www.w3.org/2000/svg"
   xmlns:sodipodi="http://sodipodi.sourceforge.net/DTD/sodipodi-0.dtd"
   xmlns:inkscape="http://www.inkscape.org/namespaces/inkscape"
   width="14.592404mm"
   height="8.2990141mm"
   viewBox="0 0 14.592406 8.2990139"
   version="1.1"
   id="svg8"
   inkscape:version="0.92.4 (unknown)"
   sodipodi:docname="drawing56.svg">
  <defs
     id="defs2" />
  <sodipodi:namedview
     id="base"
     pagecolor="#ffffff"
     bordercolor="#666666"
     borderopacity="1.0"
     inkscape:pageopacity="0.0"
     inkscape:pageshadow="2"
     inkscape:zoom="0.98994949"
     inkscape:cx="-1.8150156"
     inkscape:cy="-53.010334"
     inkscape:document-units="mm"
     inkscape:current-layer="layer1"
     showgrid="false"
     inkscape:window-width="927"
     inkscape:window-height="1025"
     inkscape:window-x="67"
     inkscape:window-y="27"
     inkscape:window-maximized="0" />
  <metadata
     id="metadata5">
    <rdf:RDF>
      <cc:Work
         rdf:about="">
        <dc:format>image/svg+xml</dc:format>
        <dc:type
           rdf:resource="http://purl.org/dc/dcmitype/StillImage" />
        <dc:title></dc:title>
      </cc:Work>
    </rdf:RDF>
  </metadata>
  <g
     inkscape:label="Layer 1"
     inkscape:groupmode="layer"
     id="layer1"
     transform="translate(-282.43372,-190.42383)">
    <g
       transform="matrix(0.26458333,0,0,0.26458333,213.23217,190.71452)"
       id="g1920">
      <g
         transform="matrix(0.26458333,0,0,0.26458333,272.3574,187.08621)"
         id="use1918">
        <path
           style="fill:#c9dee5;stroke:none"
           inkscape:connector-curvature="0"
           d="m 167.6,-611.15 q 0,-0.3 0,-0.6 0,-11.85 -8.4,-20.25 -8.4,-8.4 -20.25,-8.4 -3.6,0 -6.85,0.8 -0.45,-18.15 -13.4,-31.1 -13.4,-13.45 -32.45,-13.45 -4.85,0 -9.4,0.9 -3,-8.75 -10.05,-15.8 -12.2,-12.2 -29.45,-12.2 -17.3,0 -29.55,12.2 -11.25,11.3 -12.1,26.9 -3.8,2.5 -7.2,5.95 -8.45,8.4 -11.25,19.2 -6.25,1.5 -11.1,6.35 -7,7.05 -7,16.95 0,6.95 3.5,12.55 34.1,36.9 204.95,0 z"
           id="path1067" />
      </g>
    </g>
  </g>
</svg>
