<?xml version="1.0" encoding="UTF-8" standalone="no"?>
<!-- Created with Inkscape (http://www.inkscape.org/) -->

<svg
   xmlns:dc="http://purl.org/dc/elements/1.1/"
   xmlns:cc="http://creativecommons.org/ns#"
   xmlns:rdf="http://www.w3.org/1999/02/22-rdf-syntax-ns#"
   xmlns:svg="http://www.w3.org/2000/svg"
   xmlns="http://www.w3.org/2000/svg"
   xmlns:sodipodi="http://sodipodi.sourceforge.net/DTD/sodipodi-0.dtd"
   xmlns:inkscape="http://www.inkscape.org/namespaces/inkscape"
   width="16.61903mm"
   height="9.3580093mm"
   viewBox="0 0 16.619032 9.3580091"
   version="1.1"
   id="svg8"
   inkscape:version="0.92.4 (unknown)"
   sodipodi:docname="drawing55.svg">
  <defs
     id="defs2" />
  <sodipodi:namedview
     id="base"
     pagecolor="#ffffff"
     bordercolor="#666666"
     borderopacity="1.0"
     inkscape:pageopacity="0.0"
     inkscape:pageshadow="2"
     inkscape:zoom="0.98994949"
     inkscape:cx="36.268716"
     inkscape:cy="-61.622448"
     inkscape:document-units="mm"
     inkscape:current-layer="layer1"
     showgrid="false"
     inkscape:window-width="927"
     inkscape:window-height="1025"
     inkscape:window-x="67"
     inkscape:window-y="27"
     inkscape:window-maximized="0" />
  <metadata
     id="metadata5">
    <rdf:RDF>
      <cc:Work
         rdf:about="">
        <dc:format>image/svg+xml</dc:format>
        <dc:type
           rdf:resource="http://purl.org/dc/dcmitype/StillImage" />
        <dc:title></dc:title>
      </cc:Work>
    </rdf:RDF>
  </metadata>
  <g
     inkscape:label="Layer 1"
     inkscape:groupmode="layer"
     id="layer1"
     transform="translate(-272.3574,-187.08621)">
    <g
       transform="matrix(0.26458333,0,0,0.26458333,194.18746,205.95056)"
       id="g1908">
      <g
         transform="matrix(0.26458333,0,0,0.26458333,308.46294,161.37984)"
         id="use1906">
        <path
           style="fill:#c9dee5;stroke:none"
           inkscape:connector-curvature="0"
           d="m -42.35,-810.15 q -6.85,6.5 -6.85,16.15 0,9.65 6.85,16.85 6.15,6.5 14.65,7.5 2.55,3.6 5.7,7 15.15,15.8 36.45,16.85 17.3,0.8 30.5,-8.4 9.9,6.55 22.3,7.1 13.85,0.7 24.6,-6.3 9.05,4.75 19.9,5.3 17.7,0.85 30.6,-10.05 7.7,7.4 18.35,7.9 11.35,0.6 19.45,-7.1 8.05,-7.7 8.05,-19.1 0,-11.35 -8.05,-19.85 -8.1,-8.45 -19.45,-8.95 -2.2,-0.15 -4.2,0.05 -3.1,-11.3 -11.95,-20.6 -13.55,-14.2 -32.8,-15.15 -10.25,-0.5 -18.9,2.95 -2.45,-14.4 -13.3,-25.75 -13.95,-14.65 -33.7,-15.6 -19.75,-0.95 -33.75,12.3 -8.75,8.45 -12.05,19.4 -12.25,2.85 -22.05,12.1 -9.4,9 -12.9,20.65 -4.05,1.55 -7.45,4.75 z"
           id="path1034" />
      </g>
    </g>
  </g>
</svg>
