<?xml version="1.0" encoding="UTF-8" standalone="no"?>
<!-- Created with Inkscape (http://www.inkscape.org/) -->

<svg
   xmlns:dc="http://purl.org/dc/elements/1.1/"
   xmlns:cc="http://creativecommons.org/ns#"
   xmlns:rdf="http://www.w3.org/1999/02/22-rdf-syntax-ns#"
   xmlns:svg="http://www.w3.org/2000/svg"
   xmlns="http://www.w3.org/2000/svg"
   xmlns:sodipodi="http://sodipodi.sourceforge.net/DTD/sodipodi-0.dtd"
   xmlns:inkscape="http://www.inkscape.org/namespaces/inkscape"
   width="15.873484mm"
   height="8.7033901mm"
   viewBox="0 0 15.873485 8.7033899"
   version="1.1"
   id="svg8"
   inkscape:version="0.92.4 (unknown)"
   sodipodi:docname="drawing58.svg">
  <defs
     id="defs2" />
  <sodipodi:namedview
     id="base"
     pagecolor="#ffffff"
     bordercolor="#666666"
     borderopacity="1.0"
     inkscape:pageopacity="0.0"
     inkscape:pageshadow="2"
     inkscape:zoom="0.98994949"
     inkscape:cx="-164.18471"
     inkscape:cy="-72.59601"
     inkscape:document-units="mm"
     inkscape:current-layer="layer1"
     showgrid="false"
     inkscape:window-width="927"
     inkscape:window-height="1025"
     inkscape:window-x="67"
     inkscape:window-y="27"
     inkscape:window-maximized="0" />
  <metadata
     id="metadata5">
    <rdf:RDF>
      <cc:Work
         rdf:about="">
        <dc:format>image/svg+xml</dc:format>
        <dc:type
           rdf:resource="http://purl.org/dc/dcmitype/StillImage" />
        <dc:title></dc:title>
      </cc:Work>
    </rdf:RDF>
  </metadata>
  <g
     inkscape:label="Layer 1"
     inkscape:groupmode="layer"
     id="layer1"
     transform="translate(-325.39404,-184.83741)">
    <g
       transform="matrix(0.26458333,0,0,0.26458333,269.65517,199.2221)"
       id="g1912">
      <g
         transform="matrix(0.26458333,0,0,0.26458333,293.50762,176.18424)"
         id="use1910">
        <path
           style="fill:#c9dee5;stroke:none"
           inkscape:connector-curvature="0"
           d="m -292.25,-802.1 q -8.65,0.95 -14.8,7.75 -6.05,6.8 -6.05,15.45 0,8.65 6.05,14.05 6.15,5.4 14.8,4.45 4.8,-0.6 8.8,-2.9 2.05,2.65 4.7,5 11.65,10.35 28.15,8.5 9.05,-1.05 16.65,-5.45 13.3,6.3 29.85,4.4 11.95,-1.35 22.1,-6.5 14.2,12.2 34.05,9.95 19.65,-2.2 33.7,-17.35 1.05,-0.05 2.15,-0.15 10.65,-1.25 18.2,-9.65 7.55,-8.4 7.55,-19.1 0,-10.6 -7.55,-17.3 -3.3,-2.9 -7.2,-4.35 -3.3,-11.15 -12.4,-19.2 -14.25,-12.65 -34.45,-10.35 -1.3,0.15 -2.6,0.35 -4.15,-7.5 -11.1,-13.65 -17.55,-15.6 -42.45,-12.8 -24.8,2.85 -42.45,22.45 -8.8,9.8 -13.2,21 -10.7,3.55 -19,12.85 -5.35,5.95 -8.2,12.55 -2.55,-0.3 -5.3,0 z"
           id="path1133" />
      </g>
    </g>
  </g>
</svg>
