<?xml version="1.0" encoding="UTF-8" standalone="no"?>
<!-- Created with Inkscape (http://www.inkscape.org/) -->

<svg
   xmlns:dc="http://purl.org/dc/elements/1.1/"
   xmlns:cc="http://creativecommons.org/ns#"
   xmlns:rdf="http://www.w3.org/1999/02/22-rdf-syntax-ns#"
   xmlns:svg="http://www.w3.org/2000/svg"
   xmlns="http://www.w3.org/2000/svg"
   xmlns:sodipodi="http://sodipodi.sourceforge.net/DTD/sodipodi-0.dtd"
   xmlns:inkscape="http://www.inkscape.org/namespaces/inkscape"
   width="18.561651mm"
   height="9.6128492mm"
   viewBox="0 0 18.561652 9.6128497"
   version="1.1"
   id="svg4971"
   inkscape:version="0.92.4 (unknown)"
   sodipodi:docname="drawing23.svg">
  <defs
     id="defs4965" />
  <sodipodi:namedview
     id="base"
     pagecolor="#ffffff"
     bordercolor="#666666"
     borderopacity="1.0"
     inkscape:pageopacity="0.0"
     inkscape:pageshadow="2"
     inkscape:zoom="1.4"
     inkscape:cx="-81.303931"
     inkscape:cy="-83.243535"
     inkscape:document-units="mm"
     inkscape:current-layer="layer1"
     showgrid="false"
     inkscape:window-width="927"
     inkscape:window-height="1025"
     inkscape:window-x="67"
     inkscape:window-y="27"
     inkscape:window-maximized="0" />
  <metadata
     id="metadata4968">
    <rdf:RDF>
      <cc:Work
         rdf:about="">
        <dc:format>image/svg+xml</dc:format>
        <dc:type
           rdf:resource="http://purl.org/dc/dcmitype/StillImage" />
        <dc:title></dc:title>
      </cc:Work>
    </rdf:RDF>
  </metadata>
  <g
     inkscape:label="Layer 1"
     inkscape:groupmode="layer"
     id="layer1"
     transform="translate(-136.23328,-115.91564)">
    <g
       transform="matrix(0.26458333,0,0,0.26458333,21.120426,140.0769)"
       id="g1948">
      <g
         transform="matrix(0.26458333,0,0,0.26458333,138.14357,139.65588)"
         id="use1946">
        <path
           style="fill:#c9dee5;stroke:none"
           inkscape:connector-curvature="0"
           d="m 1167.95,-815.05 q -16.05,-0.2 -27.8,10.4 -5.65,5.05 -8.85,11.45 -1.2,2.3 -3.25,3.7 5.4,5.85 12.8,6.95 3.7,14.25 14.6,26.25 16.55,18.1 39.95,20.35 23.3,2.25 39.85,-12.65 1.25,-1.2 2.45,-2.35 2.1,0.3 4.25,0.55 20.9,2 36.7,-8.55 1.65,2.15 3.55,4.3 13.2,14.4 31.8,16.25 15.9,1.5 27.8,-6.9 6.05,5.2 13.6,6.8 0,-0.6 0,-1.2 -0.05,-8 -5.7,-14.2 h -0.05 q -5.6,-6.15 -13.5,-7.05 -1.15,-0.1 -2.25,-0.15 -3.05,-0.1 -5.5,-1.9 -2.5,-1.85 -3.55,-4.7 -2.7,-7.35 -8.45,-13.65 -10.5,-11.55 -25.3,-13 h -0.05 q -6.05,-0.6 -11.35,0.65 -3.7,0.85 -7.05,-0.95 -3.4,-1.85 -4.65,-5.45 -3.8,-10.55 -12.2,-19.75 h -0.05 q -15.2,-16.7 -36.75,-18.85 -20.8,-2 -35.55,11.2 -4.15,3.75 -7.1,8.1 -1.45,2.05 -3.65,3.2 -2.25,1.15 -4.75,1.15 z"
           id="path6569" />
        <path
           style="fill:#e8f2f5;stroke:none"
           inkscape:connector-curvature="0"
           d="m 1314,-828.3 q -7.8,-0.75 -14.6,0.85 -4.4,-12.4 -14.25,-23.15 -17.85,-19.6 -43.2,-22.05 -25.3,-2.45 -43.2,13.7 -5.1,4.6 -8.7,9.9 -20,-0.2 -34.6,12.95 -7.05,6.35 -11.1,14.35 -1.15,-0.2 -2.3,-0.3 -8.25,-0.8 -14.05,4.45 -5.75,5.2 -5.75,13.45 0,8.2 5.75,14.6 l 0.05,0.05 q 2.05,-1.4 3.25,-3.7 3.2,-6.4 8.85,-11.45 11.75,-10.6 27.8,-10.4 2.5,0 4.75,-1.15 2.2,-1.15 3.65,-3.2 2.95,-4.35 7.1,-8.1 14.75,-13.2 35.55,-11.2 21.55,2.15 36.75,18.85 h 0.05 q 8.4,9.2 12.2,19.75 1.25,3.6 4.65,5.45 3.35,1.8 7.05,0.95 5.3,-1.25 11.35,-0.65 h 0.05 q 14.8,1.45 25.3,13 5.75,6.3 8.45,13.65 1.05,2.85 3.55,4.7 2.45,1.8 5.5,1.9 1.1,0.05 2.25,0.15 7.9,0.9 13.5,7.05 h 0.05 q 5.65,6.2 5.7,14.2 0,0.6 0,1.2 1.7,0.35 3.5,0.55 11.85,1.1 20.15,-6.4 8.35,-7.55 8.35,-19.35 0,-11.8 -8.35,-20.95 -8.3,-9.1 -20.15,-10.3 -1.35,-0.1 -2.65,-0.15 -3.3,-9.15 -10.45,-17 -13.15,-14.45 -31.8,-16.2 z"
           id="path6571" />
      </g>
    </g>
  </g>
</svg>
