<?xml version="1.0" encoding="UTF-8" standalone="no"?>
<!-- Created with Inkscape (http://www.inkscape.org/) -->

<svg
   xmlns:dc="http://purl.org/dc/elements/1.1/"
   xmlns:cc="http://creativecommons.org/ns#"
   xmlns:rdf="http://www.w3.org/1999/02/22-rdf-syntax-ns#"
   xmlns:svg="http://www.w3.org/2000/svg"
   xmlns="http://www.w3.org/2000/svg"
   xmlns:sodipodi="http://sodipodi.sourceforge.net/DTD/sodipodi-0.dtd"
   xmlns:inkscape="http://www.inkscape.org/namespaces/inkscape"
   width="16.339012mm"
   height="8.1940079mm"
   viewBox="0 0 16.339014 8.1940077"
   version="1.1"
   id="svg8"
   inkscape:version="0.92.4 (unknown)"
   sodipodi:docname="drawing57.svg">
  <defs
     id="defs2" />
  <sodipodi:namedview
     id="base"
     pagecolor="#ffffff"
     bordercolor="#666666"
     borderopacity="1.0"
     inkscape:pageopacity="0.0"
     inkscape:pageshadow="2"
     inkscape:zoom="0.98994949"
     inkscape:cx="-43.669128"
     inkscape:cy="-107.22611"
     inkscape:document-units="mm"
     inkscape:current-layer="layer1"
     showgrid="false"
     inkscape:window-width="927"
     inkscape:window-height="1025"
     inkscape:window-x="67"
     inkscape:window-y="27"
     inkscape:window-maximized="0" />
  <metadata
     id="metadata5">
    <rdf:RDF>
      <cc:Work
         rdf:about="">
        <dc:format>image/svg+xml</dc:format>
        <dc:type
           rdf:resource="http://purl.org/dc/dcmitype/StillImage" />
        <dc:title></dc:title>
      </cc:Work>
    </rdf:RDF>
  </metadata>
  <g
     inkscape:label="Layer 1"
     inkscape:groupmode="layer"
     id="layer1"
     transform="translate(-293.50762,-176.18424)">
    <g
       transform="matrix(0.26458333,0,0,0.26458333,240.2962,175.76337)"
       id="g1916">
      <g
         transform="matrix(0.26458333,0,0,0.26458333,282.43372,190.42383)"
         id="use1914">
        <path
           style="fill:#c9dee5;stroke:none"
           inkscape:connector-curvature="0"
           d="m -105.6,-649.1 q -6,-5.95 -13.7,-7.75 -3.05,-4.85 -7.35,-9.15 -14.5,-14.5 -34.85,-14.75 -3.8,-9.75 -11.8,-17.75 -15.2,-15.2 -36.75,-15.2 -21.5,0 -36.7,15.2 -4.2,4.2 -7.25,8.9 -10.7,3.15 -19.2,11.65 -8.2,8.2 -11.4,18.4 -8.1,1.65 -14.3,7.85 -8.45,8.45 -8.45,20.45 0,11.5 7.85,19.8 73.8,29.6 225.45,0 0.1,-1.05 0.1,-2.1 0,-8.7 -6.2,-14.85 -6.1,-6.15 -14.85,-6.15 -1.35,0 -2.6,0.15 -1.65,-8.35 -8,-14.7 z"
           id="path1100" />
      </g>
    </g>
  </g>
</svg>
