<?xml version="1.0" encoding="UTF-8" standalone="no"?>
<!-- Created with Inkscape (http://www.inkscape.org/) -->

<svg
   xmlns:dc="http://purl.org/dc/elements/1.1/"
   xmlns:cc="http://creativecommons.org/ns#"
   xmlns:rdf="http://www.w3.org/1999/02/22-rdf-syntax-ns#"
   xmlns:svg="http://www.w3.org/2000/svg"
   xmlns="http://www.w3.org/2000/svg"
   xmlns:sodipodi="http://sodipodi.sourceforge.net/DTD/sodipodi-0.dtd"
   xmlns:inkscape="http://www.inkscape.org/namespaces/inkscape"
   width="18.561651mm"
   height="9.6128492mm"
   viewBox="0 0 18.561653 9.612849"
   version="1.1"
   id="svg8"
   inkscape:version="0.92.4 (unknown)"
   sodipodi:docname="drawing52.svg">
  <defs
     id="defs2" />
  <sodipodi:namedview
     id="base"
     pagecolor="#ffffff"
     bordercolor="#666666"
     borderopacity="1.0"
     inkscape:pageopacity="0.0"
     inkscape:pageshadow="2"
     inkscape:zoom="0.98994949"
     inkscape:cx="-146.39122"
     inkscape:cy="-120.55592"
     inkscape:document-units="mm"
     inkscape:current-layer="layer1"
     showgrid="false"
     inkscape:window-width="927"
     inkscape:window-height="1025"
     inkscape:window-x="67"
     inkscape:window-y="27"
     inkscape:window-maximized="0" />
  <metadata
     id="metadata5">
    <rdf:RDF>
      <cc:Work
         rdf:about="">
        <dc:format>image/svg+xml</dc:format>
        <dc:type
           rdf:resource="http://purl.org/dc/dcmitype/StillImage" />
        <dc:title></dc:title>
      </cc:Work>
    </rdf:RDF>
  </metadata>
  <g
     inkscape:label="Layer 1"
     inkscape:groupmode="layer"
     id="layer1"
     transform="translate(-320.68617,-171.23856)">
    <g
       transform="matrix(0.26458333,0,0,0.26458333,221.40875,183.67135)"
       id="g1904">
      <g
         transform="matrix(0.26458333,0,0,0.26458333,315.26717,187.66168)"
         id="use1902">
        <path
           style="fill:#c9dee5;stroke:none"
           inkscape:connector-curvature="0"
           d="m 226.6,-818.05 q 0,8.2 5.75,14.6 5.4,5.9 12.85,7 3.7,14.25 14.6,26.25 16.55,18.1 39.95,20.35 23.3,2.25 39.85,-12.65 1.25,-1.2 2.45,-2.35 2.1,0.3 4.25,0.55 20.9,2 36.7,-8.55 1.65,2.15 3.55,4.3 13.2,14.4 31.8,16.25 15.9,1.5 27.8,-6.9 7.4,6.4 17.1,7.35 11.85,1.1 20.15,-6.4 8.35,-7.55 8.35,-19.35 0,-11.8 -8.35,-20.95 -8.3,-9.1 -20.15,-10.3 -1.35,-0.1 -2.65,-0.15 -3.3,-9.15 -10.45,-17 -13.15,-14.45 -31.8,-16.2 -7.8,-0.75 -14.6,0.85 -4.4,-12.4 -14.25,-23.15 -17.85,-19.6 -43.2,-22.05 -25.3,-2.45 -43.2,13.7 -5.1,4.6 -8.7,9.9 -20,-0.2 -34.6,12.95 -7.05,6.35 -11.1,14.35 -1.15,-0.2 -2.3,-0.3 -8.25,-0.8 -14.05,4.45 -5.75,5.2 -5.75,13.45 z"
           id="path935" />
      </g>
    </g>
  </g>
</svg>
