<?xml version="1.0" encoding="UTF-8" standalone="no"?>
<!-- Created with Inkscape (http://www.inkscape.org/) -->

<svg
   xmlns:dc="http://purl.org/dc/elements/1.1/"
   xmlns:cc="http://creativecommons.org/ns#"
   xmlns:rdf="http://www.w3.org/1999/02/22-rdf-syntax-ns#"
   xmlns:svg="http://www.w3.org/2000/svg"
   xmlns="http://www.w3.org/2000/svg"
   xmlns:sodipodi="http://sodipodi.sourceforge.net/DTD/sodipodi-0.dtd"
   xmlns:inkscape="http://www.inkscape.org/namespaces/inkscape"
   width="14.592404mm"
   height="8.2995176mm"
   viewBox="0 0 14.592405 8.2995175"
   version="1.1"
   id="svg8"
   inkscape:version="0.92.4 (unknown)"
   sodipodi:docname="drawing49.svg">
  <defs
     id="defs2" />
  <sodipodi:namedview
     id="base"
     pagecolor="#ffffff"
     bordercolor="#666666"
     borderopacity="1.0"
     inkscape:pageopacity="0.0"
     inkscape:pageshadow="2"
     inkscape:zoom="0.98994949"
     inkscape:cx="-99.185202"
     inkscape:cy="-24.675008"
     inkscape:document-units="mm"
     inkscape:current-layer="layer1"
     showgrid="false"
     inkscape:window-width="927"
     inkscape:window-height="1025"
     inkscape:window-x="67"
     inkscape:window-y="27"
     inkscape:window-maximized="0" />
  <metadata
     id="metadata5">
    <rdf:RDF>
      <cc:Work
         rdf:about="">
        <dc:format>image/svg+xml</dc:format>
        <dc:type
           rdf:resource="http://purl.org/dc/dcmitype/StillImage" />
        <dc:title></dc:title>
      </cc:Work>
    </rdf:RDF>
  </metadata>
  <g
     inkscape:label="Layer 1"
     inkscape:groupmode="layer"
     id="layer1"
     transform="translate(-308.19624,-197.92039)">
    <g
       transform="matrix(0.26458333,0,0,0.26458333,157.03312,198.19275)"
       id="g1956">
      <g
         transform="matrix(0.26458333,0,0,0.26458333,345.15936,183.47779)"
         id="use1954">
        <path
           style="fill:#c9dee5;stroke:none"
           inkscape:connector-curvature="0"
           d="m 985.3,-625.7 v -0.05 q -10.5,-10.5 -25.4,-10.5 -3.85,0 -7.45,0.7 -3.65,0.75 -6.9,-1.15 -3.3,-1.9 -4.5,-5.4 -2.3,-6.6 -7.65,-11.95 -9.3,-9.3 -22.4,-9.3 -13.15,0 -22.45,9.25 l -0.05,0.05 q -8.5,8.55 -9.15,20.35 -0.15,2.35 -1.35,4.45 -1.2,2.05 -3.15,3.35 -2.95,1.95 -5.55,4.65 l -0.1,0.05 q -6.45,6.4 -8.6,14.6 -0.75,2.7 -2.7,4.65 -0.65,0.65 -1.4,1.15 0.75,1.85 1.8,3.55 29.9,32.35 164.85,8 -4.65,-3.25 -10.55,-3.25 -2.35,0 -4.45,0.5 -2.95,0.75 -5.85,-0.3 -2.9,-1.1 -4.65,-3.6 -1.8,-2.5 -1.9,-5.55 -0.35,-14.15 -10.45,-24.25 z"
           id="path831" />
        <path
           style="fill:#e8f2f5;stroke:none"
           inkscape:connector-curvature="0"
           d="m 981.9,-670.25 q -4.85,0 -9.4,0.9 -3,-8.75 -10.05,-15.8 -12.2,-12.2 -29.45,-12.2 -17.3,0 -29.55,12.2 -11.25,11.3 -12.1,26.9 -3.8,2.5 -7.2,5.95 -8.45,8.4 -11.25,19.2 -6.25,1.5 -11.1,6.35 -7,7.05 -7,16.95 0,4.8 1.7,9 0.75,-0.5 1.4,-1.15 1.95,-1.95 2.7,-4.65 2.15,-8.2 8.6,-14.6 l 0.1,-0.05 q 2.6,-2.7 5.55,-4.65 1.95,-1.3 3.15,-3.35 1.2,-2.1 1.35,-4.45 0.65,-11.8 9.15,-20.35 l 0.05,-0.05 q 9.3,-9.25 22.45,-9.25 13.1,0 22.4,9.3 5.35,5.35 7.65,11.95 1.2,3.5 4.5,5.4 3.25,1.9 6.9,1.15 3.6,-0.7 7.45,-0.7 14.9,0 25.4,10.5 v 0.05 q 10.1,10.1 10.45,24.25 0.1,3.05 1.9,5.55 1.75,2.5 4.65,3.6 2.9,1.05 5.85,0.3 2.1,-0.5 4.45,-0.5 5.9,0 10.55,3.25 19,-3.45 40.1,-8 0,-0.3 0,-0.6 0,-11.85 -8.4,-20.25 -8.4,-8.4 -20.25,-8.4 -3.6,0 -6.85,0.8 -0.45,-18.15 -13.4,-31.1 -13.4,-13.45 -32.45,-13.45 z"
           id="path833" />
      </g>
    </g>
  </g>
</svg>
