<?xml version="1.0" encoding="UTF-8" standalone="no"?>
<!-- Created with Inkscape (http://www.inkscape.org/) -->

<svg
   xmlns:dc="http://purl.org/dc/elements/1.1/"
   xmlns:cc="http://creativecommons.org/ns#"
   xmlns:rdf="http://www.w3.org/1999/02/22-rdf-syntax-ns#"
   xmlns:svg="http://www.w3.org/2000/svg"
   xmlns="http://www.w3.org/2000/svg"
   xmlns:sodipodi="http://sodipodi.sourceforge.net/DTD/sodipodi-0.dtd"
   xmlns:inkscape="http://www.inkscape.org/namespaces/inkscape"
   width="14.823419mm"
   height="8.280467mm"
   viewBox="0 0 14.823419 8.2804674"
   version="1.1"
   id="svg4971"
   inkscape:version="0.92.4 (unknown)"
   sodipodi:docname="drawing22.svg">
  <defs
     id="defs4965" />
  <sodipodi:namedview
     id="base"
     pagecolor="#ffffff"
     bordercolor="#666666"
     borderopacity="1.0"
     inkscape:pageopacity="0.0"
     inkscape:pageshadow="2"
     inkscape:zoom="1.4"
     inkscape:cx="-88.523922"
     inkscape:cy="1.4475802"
     inkscape:document-units="mm"
     inkscape:current-layer="layer1"
     showgrid="false"
     inkscape:window-width="927"
     inkscape:window-height="1025"
     inkscape:window-x="67"
     inkscape:window-y="27"
     inkscape:window-maximized="0" />
  <metadata
     id="metadata4968">
    <rdf:RDF>
      <cc:Work
         rdf:about="">
        <dc:format>image/svg+xml</dc:format>
        <dc:type
           rdf:resource="http://purl.org/dc/dcmitype/StillImage" />
        <dc:title></dc:title>
      </cc:Work>
    </rdf:RDF>
  </metadata>
  <g
     inkscape:label="Layer 1"
     inkscape:groupmode="layer"
     id="layer1"
     transform="translate(-138.14357,-139.65588)">
    <g
       transform="matrix(0.26458333,0,0,0.26458333,28.155638,150.91745)"
       id="g1952">
      <g
         transform="matrix(0.26458333,0,0,0.26458333,127.41242,139.61594)"
         id="use1950">
        <path
           style="fill:#c9dee5;stroke:none"
           inkscape:connector-curvature="0"
           d="m 1167.75,-643.65 q -8.9,-9.65 -21.55,-10.75 -12,-1 -20.45,6.7 h -0.05 q -5.9,5.3 -7.65,12.8 -0.65,2.7 -2.6,4.7 -2,2 -4.7,2.7 -5.2,1.35 -9.7,4.65 0,0.15 0,0.3 0,0.8 0.1,1.65 -2.25,0.5 -4.25,1.7 -1.25,0.75 -2.4,1.8 -4.9,4.55 -4.9,11.5 0,0.45 0.05,0.9 0.2,4.4 2.45,8.15 28.4,37.5 171.25,22.1 -5.7,-5.95 -13.5,-6.65 h 0.15 q -2.8,-0.25 -5.3,0.25 -3.15,0.6 -6.05,-0.8 -2.95,-1.4 -4.55,-4.2 -1.85,-3.35 -4.65,-6.35 -5.65,-6.1 -12.8,-8.55 -2.2,-0.75 -3.8,-2.35 -1.65,-1.6 -2.45,-3.75 -2.1,-5.65 -6.55,-10.45 -8.15,-8.85 -19.75,-9.85 -0.9,-0.05 -1.85,-0.2 -2.65,-0.35 -4.75,-1.95 -2.1,-1.6 -3.15,-4.05 -2.3,-5.35 -6.6,-10.05 z"
           id="path6523" />
        <path
           style="fill:#e8f2f5;stroke:none"
           inkscape:connector-curvature="0"
           d="m 1301,-579.45 q 0.35,-2.35 0.35,-4.85 0,-11.85 -8.4,-20.95 -8.4,-9.15 -20.25,-10.15 -4.15,-0.3 -7.85,0.4 -2.4,-4.35 -6.05,-8.3 -7.45,-8.05 -17,-11.25 -2.7,-7.45 -8.6,-13.85 -10.85,-11.75 -26.25,-13.05 -0.65,0 -1.4,-0.1 -2.9,-6.85 -8.45,-12.9 -11.6,-12.55 -28.05,-13.95 -16.5,-1.35 -28.1,9.3 -8.2,7.45 -10.65,17.9 -9.15,2.3 -16.55,9.05 -12.6,11.55 -12.7,29.3 4.5,-3.3 9.7,-4.65 2.7,-0.7 4.7,-2.7 1.95,-2 2.6,-4.7 1.75,-7.5 7.65,-12.8 h 0.05 q 8.45,-7.7 20.45,-6.7 12.65,1.1 21.55,10.75 v -0.05 q 4.3,4.7 6.6,10.05 1.05,2.45 3.15,4.05 2.1,1.6 4.75,1.95 0.95,0.15 1.85,0.2 11.6,1 19.75,9.85 4.45,4.8 6.55,10.45 0.8,2.15 2.45,3.75 1.6,1.6 3.8,2.35 7.15,2.45 12.8,8.55 2.8,3 4.65,6.35 1.6,2.8 4.55,4.2 2.9,1.4 6.05,0.8 2.5,-0.5 5.3,-0.25 h -0.15 q 7.8,0.7 13.5,6.65 17.9,-1.95 37.65,-4.7 z"
           id="path6525" />
      </g>
    </g>
  </g>
</svg>
