<?xml version="1.0" encoding="UTF-8" standalone="no"?>
<!-- Created with Inkscape (http://www.inkscape.org/) -->

<svg
   xmlns:dc="http://purl.org/dc/elements/1.1/"
   xmlns:cc="http://creativecommons.org/ns#"
   xmlns:rdf="http://www.w3.org/1999/02/22-rdf-syntax-ns#"
   xmlns:svg="http://www.w3.org/2000/svg"
   xmlns="http://www.w3.org/2000/svg"
   xmlns:sodipodi="http://sodipodi.sourceforge.net/DTD/sodipodi-0.dtd"
   xmlns:inkscape="http://www.inkscape.org/namespaces/inkscape"
   width="20.609278mm"
   height="9.6430979mm"
   viewBox="0 0 20.609278 9.6430977"
   version="1.1"
   id="svg4971"
   inkscape:version="0.92.4 (unknown)"
   sodipodi:docname="drawing15.svg">
  <defs
     id="defs4965" />
  <sodipodi:namedview
     id="base"
     pagecolor="#ffffff"
     bordercolor="#666666"
     borderopacity="1.0"
     inkscape:pageopacity="0.0"
     inkscape:pageshadow="2"
     inkscape:zoom="1.4"
     inkscape:cx="35.874452"
     inkscape:cy="-10.442413"
     inkscape:document-units="mm"
     inkscape:current-layer="layer1"
     showgrid="false"
     inkscape:window-width="927"
     inkscape:window-height="1025"
     inkscape:window-x="67"
     inkscape:window-y="27"
     inkscape:window-maximized="0" />
  <metadata
     id="metadata4968">
    <rdf:RDF>
      <cc:Work
         rdf:about="">
        <dc:format>image/svg+xml</dc:format>
        <dc:type
           rdf:resource="http://purl.org/dc/dcmitype/StillImage" />
        <dc:title></dc:title>
      </cc:Work>
    </rdf:RDF>
  </metadata>
  <g
     inkscape:label="Layer 1"
     inkscape:groupmode="layer"
     id="layer1"
     transform="translate(-105.22982,-135.14735)">
    <g
       transform="matrix(0.26458333,0,0,0.26458333,9.4922907,128.37472)"
       id="g2008">
      <g
         transform="matrix(0.26458333,0,0,0.26458333,126.49577,148.78735)"
         id="use2006">
        <path
           style="fill:#a4afaf;stroke:none"
           inkscape:connector-curvature="0"
           d="m 897,-353.35 -7.5,25.5 h 294.4 l -12,-22.5 z"
           id="path6122" />
        <path
           style="fill:#707979;stroke:none"
           inkscape:connector-curvature="0"
           d="m 953.95,-420.95 3.7,9.65 q 6.7,-0.75 13.75,-2.2 l 1.25,-10.3 q -9.6,2.1 -18.7,2.85 m -37.05,-3.65 2.7,10.75 q 6.7,1.8 13.8,2.6 l 1.85,-9.8 q -9.5,-0.9 -18.35,-3.55 m 234.55,2.1 q -8.4,0.1 -16.5,-0.2 l 2.05,10.1 q 6.25,0.15 12.7,0.15 l 1.75,-10.05 m -50.35,-3.45 0.55,10.1 q 5.75,0.85 11.7,1.55 l 3.45,-9.65 q -8,-0.8 -15.7,-2 m -24.75,4.85 4.95,-8.8 q -0.85,-0.25 -1.7,-0.45 -7.6,-1.9 -15.1,-3.1 l 0.95,10.15 q 5.4,0.9 10.9,2.2 m -49.55,-4.3 q 6.95,-0.45 14,-0.25 l 2.2,-9.95 q -10.15,-0.4 -20.1,0.5 l 3.9,9.7 m -21.25,2.85 0.85,-10.2 q -8.95,1.75 -17.75,4.55 l 4.4,8.7 q 6.2,-1.8 12.5,-3.05 z"
           id="path6124" />
        <path
           style="fill:#7e8787;stroke:none"
           inkscape:connector-curvature="0"
           d="m 933.4,-411.25 q 0.9,0.1 1.85,0.2 9.05,0.85 18.7,0.1 1.85,-0.15 3.7,-0.35 l -3.7,-9.65 q -9.65,0.75 -18.7,-0.1 l -1.85,9.8 M 897,-423.3 q 9.5,5.55 19.9,8.7 1.3,0.4 2.7,0.75 l -2.7,-10.75 q -10.4,-3.15 -19.9,-8.7 v 10 m 252.7,10.85 q 0.85,-0.05 1.75,-0.05 10.05,-0.1 20.45,-0.8 v -10 q -10.4,0.7 -20.45,0.8 l -1.75,10.05 m -32.9,-11.5 -3.45,9.65 q 1.7,0.2 3.45,0.35 8.9,0.85 18.15,1.25 1,0.05 2.05,0.1 l -2.05,-10.1 q -9.25,-0.4 -18.15,-1.25 m -35.5,-5.95 -4.95,8.8 q 1.6,0.35 3.25,0.75 0.85,0.2 1.7,0.45 9.65,2.3 19.8,3.95 0.25,0.05 0.55,0.1 l -0.55,-10.1 q -10.15,-1.65 -19.8,-3.95 m -40.5,4.25 q 1.1,0 2.2,0.05 10.65,0.4 21.5,2.15 0.45,0.1 0.95,0.15 l -0.95,-10.15 q -10.85,-1.75 -21.5,-2.15 l -2.2,9.95 m -53.15,-2.25 q -7.65,2.45 -15,4.1 l -1.25,10.3 q 0.6,-0.15 1.25,-0.3 7.35,-1.65 15,-4.1 0.5,-0.15 1,-0.3 2.2,-0.7 4.4,-1.3 l -4.4,-8.7 q -0.5,0.15 -1,0.3 m 17.9,5.35 q 0.45,-0.1 0.85,-0.2 8.2,-1.65 16.5,-2.35 1.95,-0.2 3.9,-0.3 l -3.9,-9.7 q -8.3,0.7 -16.5,2.35 z"
           id="path6126" />
        <path
           style="fill:#95a1a1;stroke:none"
           inkscape:connector-curvature="0"
           d="m 1006.4,-422.75 q -0.4,0.1 -0.85,0.2 -6.3,1.25 -12.5,3.05 -2.2,0.6 -4.4,1.3 -0.5,0.15 -1,0.3 -7.65,2.45 -15,4.1 -0.65,0.15 -1.25,0.3 -7.05,1.45 -13.75,2.2 -1.85,0.2 -3.7,0.35 -9.65,0.75 -18.7,-0.1 -0.95,-0.1 -1.85,-0.2 -7.1,-0.8 -13.8,-2.6 -1.4,-0.35 -2.7,-0.75 -10.4,-3.15 -19.9,-8.7 v 69.95 l 274.9,3 v -62.95 q -10.4,0.7 -20.45,0.8 -0.9,0 -1.75,0.05 -6.45,0 -12.7,-0.15 -1.05,-0.05 -2.05,-0.1 -9.25,-0.4 -18.15,-1.25 -1.75,-0.15 -3.45,-0.35 -5.95,-0.7 -11.7,-1.55 -0.3,-0.05 -0.55,-0.1 -10.15,-1.65 -19.8,-3.95 -0.85,-0.25 -1.7,-0.45 -1.65,-0.4 -3.25,-0.75 -5.5,-1.3 -10.9,-2.2 -0.5,-0.05 -0.95,-0.15 -10.85,-1.75 -21.5,-2.15 -1.1,-0.05 -2.2,-0.05 -7.05,-0.2 -14,0.25 -1.95,0.1 -3.9,0.3 -8.3,0.7 -16.5,2.35 m 24.3,-22.85 -7.8,-19.5 q -8.3,0.7 -16.5,2.35 l -1.7,20.35 q -3.6,0.75 -7.2,1.65 l -8.85,-17.45 q -0.5,0.15 -1,0.3 -7.65,2.45 -15,4.1 l -2.55,20.55 q -4.45,0.9 -8.8,1.5 l -7.35,-19.2 q -9.65,0.75 -18.7,-0.1 l -3.7,19.6 q -4.75,-0.65 -9.35,-1.75 l -5.3,-21.4 q -10.4,-3.15 -19.9,-8.7 v 30 q 9.5,5.55 19.9,8.7 8.85,2.65 18.35,3.55 9.05,0.85 18.7,0.1 9.1,-0.75 18.7,-2.85 7.35,-1.65 15,-4.1 0.5,-0.15 1,-0.3 8.8,-2.8 17.75,-4.55 8.2,-1.65 16.5,-2.35 9.95,-0.9 20.1,-0.5 10.65,0.4 21.5,2.15 7.5,1.2 15.1,3.1 0.85,0.2 1.7,0.45 9.65,2.3 19.8,3.95 7.7,1.2 15.7,2 8.9,0.85 18.15,1.25 8.1,0.3 16.5,0.2 10.05,-0.1 20.45,-0.8 v -30 q -10.4,0.7 -20.45,0.8 l -3.55,20.05 q -4.5,-0.05 -8.9,-0.15 l -4.05,-20.1 q -9.25,-0.4 -18.15,-1.25 l -6.95,19.2 q -3.9,-0.5 -7.7,-1.05 l -1.05,-20.15 q -10.15,-1.65 -19.8,-3.95 l -10,17.7 q -2.45,-0.5 -4.9,-0.9 l -1.9,-20.35 q -10.85,-1.75 -21.5,-2.15 l -4.45,19.9 q -3.95,-0.05 -7.85,0.1 z"
           id="path6128" />
      </g>
    </g>
  </g>
</svg>
