<?xml version="1.0" encoding="UTF-8" standalone="no"?>
<!-- Created with Inkscape (http://www.inkscape.org/) -->

<svg
   xmlns:dc="http://purl.org/dc/elements/1.1/"
   xmlns:cc="http://creativecommons.org/ns#"
   xmlns:rdf="http://www.w3.org/1999/02/22-rdf-syntax-ns#"
   xmlns:svg="http://www.w3.org/2000/svg"
   xmlns="http://www.w3.org/2000/svg"
   xmlns:sodipodi="http://sodipodi.sourceforge.net/DTD/sodipodi-0.dtd"
   xmlns:inkscape="http://www.inkscape.org/namespaces/inkscape"
   width="8.9360542mm"
   height="16.079996mm"
   viewBox="0 0 8.9360542 16.079996"
   version="1.1"
   id="svg8"
   inkscape:version="0.92.4 (unknown)"
   sodipodi:docname="drawing36.svg">
  <defs
     id="defs2" />
  <sodipodi:namedview
     id="base"
     pagecolor="#ffffff"
     bordercolor="#666666"
     borderopacity="1.0"
     inkscape:pageopacity="0.0"
     inkscape:pageshadow="2"
     inkscape:zoom="0.98994949"
     inkscape:cx="-207.5622"
     inkscape:cy="79.956149"
     inkscape:document-units="mm"
     inkscape:current-layer="layer1"
     showgrid="false"
     inkscape:window-width="927"
     inkscape:window-height="1025"
     inkscape:window-x="67"
     inkscape:window-y="27"
     inkscape:window-maximized="0" />
  <metadata
     id="metadata5">
    <rdf:RDF>
      <cc:Work
         rdf:about="">
        <dc:format>image/svg+xml</dc:format>
        <dc:type
           rdf:resource="http://purl.org/dc/dcmitype/StillImage" />
        <dc:title></dc:title>
      </cc:Work>
    </rdf:RDF>
  </metadata>
  <g
     inkscape:label="Layer 1"
     inkscape:groupmode="layer"
     id="layer1"
     transform="translate(-336.87098,-217.8236)">
    <g
       transform="matrix(0.26458333,0,0,0.26458333,195.90062,126.61323)"
       id="g1852">
      <g
         transform="matrix(0.26458333,0,0,0.26458333,354.16795,247.73588)"
         id="use1850">
        <path
           style="fill:#a19489;stroke:none"
           inkscape:connector-curvature="0"
           d="m 724.7,575.45 q 0.2,0.05 0.45,0.1 6.7,1.1 13.8,1.1 7,0 13.5,-1.05 0.5,-0.1 0.95,-0.15 -0.85,-4.3 -1.5,-8.65 -1.05,0.2 -2.15,0.4 -5.2,0.85 -10.8,0.85 -5.7,0 -11.05,-0.9 -0.95,-0.15 -1.85,-0.35 -0.6,4.5 -1.35,8.65 z"
           id="path353" />
        <path
           style="fill:#c6c4c3;stroke:none"
           inkscape:connector-curvature="0"
           d="m 725.15,575.55 q -0.25,-0.05 -0.45,-0.1 -2.15,11.85 -5.7,20.85 h 39.95 q -3.4,-10.3 -5.55,-20.85 -0.45,0.05 -0.95,0.15 -6.5,1.05 -13.5,1.05 -7.1,0 -13.8,-1.1 z"
           id="path355" />
        <path
           style="fill:#936234;stroke:none"
           inkscape:connector-curvature="0"
           d="m 727.9,541.6 h -0.05 q -0.15,0 -0.25,0 -19.25,-3.3 -33.75,-17.8 -6.25,-6.25 -10.35,-13.25 -6.15,-10.55 -7.75,-22.95 -0.45,6.9 -0.55,14.05 -0.05,1.25 -0.05,2.55 0,1.8 0.1,3.6 0.75,15.55 8.25,28.3 4.1,7.05 10.35,13.2 13.9,13.95 32.2,17.5 0.9,0.2 1.85,0.35 5.35,0.9 11.05,0.9 5.6,0 10.8,-0.85 1.1,-0.2 2.15,-0.4 18.2,-3.55 32.15,-17.5 17.4,-17.4 18.65,-41.5 0.1,-1.8 0.1,-3.6 0,-1.3 -0.05,-2.55 -0.15,-7.15 -0.5,-14.05 -2.7,20.75 -18.2,36.2 -14.6,14.65 -34,17.8 -0.15,0 -0.25,0.05 h -0.05 q -5.2,0.8 -10.8,0.8 -5.7,0 -11.05,-0.85 z"
           id="path357" />
        <path
           style="fill:#a67344;stroke:none"
           inkscape:connector-curvature="0"
           d="m 802.25,487.6 q -2.75,-45.75 -18.2,-79.75 -18.7,-41.25 -45.1,-41.25 -26.45,0 -45.1,41.25 -6.25,13.6 -10.35,29.1 -6.15,23.25 -7.75,50.65 1.6,12.4 7.75,22.95 4.1,7 10.35,13.25 14.5,14.5 33.75,17.8 0.1,0 0.25,0 h 0.05 q 5.35,0.85 11.05,0.85 5.6,0 10.8,-0.8 h 0.05 q 0.1,-0.05 0.25,-0.05 19.4,-3.15 34,-17.8 15.5,-15.45 18.2,-36.2 z"
           id="path359" />
      </g>
    </g>
  </g>
</svg>
