<?xml version="1.0" encoding="UTF-8" standalone="no"?>
<!-- Created with Inkscape (http://www.inkscape.org/) -->

<svg
   xmlns:dc="http://purl.org/dc/elements/1.1/"
   xmlns:cc="http://creativecommons.org/ns#"
   xmlns:rdf="http://www.w3.org/1999/02/22-rdf-syntax-ns#"
   xmlns:svg="http://www.w3.org/2000/svg"
   xmlns="http://www.w3.org/2000/svg"
   xmlns:sodipodi="http://sodipodi.sourceforge.net/DTD/sodipodi-0.dtd"
   xmlns:inkscape="http://www.inkscape.org/namespaces/inkscape"
   width="3.6647272mm"
   height="9.9896193mm"
   viewBox="0 0 3.6647274 9.9896182"
   version="1.1"
   id="svg8"
   inkscape:version="0.92.4 (unknown)"
   sodipodi:docname="drawing100.svg">
  <defs
     id="defs2" />
  <sodipodi:namedview
     id="base"
     pagecolor="#ffffff"
     bordercolor="#666666"
     borderopacity="1.0"
     inkscape:pageopacity="0.0"
     inkscape:pageshadow="2"
     inkscape:zoom="0.98994949"
     inkscape:cx="-87.855524"
     inkscape:cy="83.812628"
     inkscape:document-units="mm"
     inkscape:current-layer="layer1"
     showgrid="false"
     inkscape:window-width="927"
     inkscape:window-height="1025"
     inkscape:window-x="67"
     inkscape:window-y="27"
     inkscape:window-maximized="0" />
  <metadata
     id="metadata5">
    <rdf:RDF>
      <cc:Work
         rdf:about="">
        <dc:format>image/svg+xml</dc:format>
        <dc:type
           rdf:resource="http://purl.org/dc/dcmitype/StillImage" />
        <dc:title></dc:title>
      </cc:Work>
    </rdf:RDF>
  </metadata>
  <g
     inkscape:label="Layer 1"
     inkscape:groupmode="layer"
     id="layer1"
     transform="translate(-305.19862,-224.93428)">
    <g
       transform="matrix(0.26458333,0,0,0.26458333,173.8617,175.0795)"
       id="g1888">
      <g
         transform="matrix(0.26458333,0,0,0.26458333,277.8986,237.04472)"
         id="use1886">
        <path
           style="fill:#597b3e;stroke:none"
           inkscape:connector-curvature="0"
           d="m 858.7,-66.55 -7.2,-22.85 q -1.2,1.1 -2.6,1.75 v 23.9 q 1.2,-0.15 2.3,-0.4 3.95,-0.75 7.5,-2.4 z"
           id="path2715" />
        <path
           style="fill:#648c44;stroke:none"
           inkscape:connector-curvature="0"
           d="m 858.35,-144.85 q -3.35,3.4 -3.35,8.2 v 39.35 q 0,4.4 -3.15,7.55 -0.2,0.2 -0.35,0.35 l 7.2,22.85 q 5.15,-2.45 9.55,-6.85 9.9,-9.95 9.9,-23.9 v -39.35 q 0,-4.8 -3.4,-8.2 -3.4,-3.4 -8.2,-3.4 -4.8,0 -8.2,3.4 m -29.2,-35.55 q -3.35,3.4 -3.35,8.2 v 131.15 h 23.1 v -22.7 -23.9 -84.55 q 0,-4.8 -3.4,-8.2 -3.35,-3.35 -8.15,-3.35 -4.8,0 -8.2,3.35 z"
           id="path2717" />
      </g>
    </g>
  </g>
</svg>
