<?xml version="1.0" encoding="UTF-8" standalone="no"?>
<!-- Created with Inkscape (http://www.inkscape.org/) -->

<svg
   xmlns:dc="http://purl.org/dc/elements/1.1/"
   xmlns:cc="http://creativecommons.org/ns#"
   xmlns:rdf="http://www.w3.org/1999/02/22-rdf-syntax-ns#"
   xmlns:svg="http://www.w3.org/2000/svg"
   xmlns="http://www.w3.org/2000/svg"
   xmlns:sodipodi="http://sodipodi.sourceforge.net/DTD/sodipodi-0.dtd"
   xmlns:inkscape="http://www.inkscape.org/namespaces/inkscape"
   width="4.0777526mm"
   height="19.888233mm"
   viewBox="0 0 4.0777528 19.888232"
   version="1.1"
   id="svg8"
   inkscape:version="0.92.4 (unknown)"
   sodipodi:docname="drawing76.svg">
  <defs
     id="defs2" />
  <sodipodi:namedview
     id="base"
     pagecolor="#ffffff"
     bordercolor="#666666"
     borderopacity="1.0"
     inkscape:pageopacity="0.0"
     inkscape:pageshadow="2"
     inkscape:zoom="0.98994949"
     inkscape:cx="-67.12846"
     inkscape:cy="94.053891"
     inkscape:document-units="mm"
     inkscape:current-layer="layer1"
     showgrid="false"
     inkscape:window-width="927"
     inkscape:window-height="1025"
     inkscape:window-x="67"
     inkscape:window-y="27"
     inkscape:window-maximized="0" />
  <metadata
     id="metadata5">
    <rdf:RDF>
      <cc:Work
         rdf:about="">
        <dc:format>image/svg+xml</dc:format>
        <dc:type
           rdf:resource="http://purl.org/dc/dcmitype/StillImage" />
        <dc:title></dc:title>
      </cc:Work>
    </rdf:RDF>
  </metadata>
  <g
     inkscape:label="Layer 1"
     inkscape:groupmode="layer"
     id="layer1"
     transform="translate(-299.71459,-217.74535)">
    <g
       transform="matrix(0.26458333,0,0,0.26458333,196.23682,155.68149)"
       id="g1824">
      <g
         transform="matrix(0.26458333,0,0,0.26458333,295.87353,231.17217)"
         id="use1822">
        <path
           style="fill:#9c7b53;stroke:none"
           inkscape:connector-curvature="0"
           d="M 389.05,238.6 H 389 q -3.55,0 -6.8,-0.75 v 52.1 q 0,2.85 2.1,4.95 2.05,2.05 4.95,2.05 2.9,0 4.95,-2.05 2.05,-2.1 2.05,-4.95 V 237.8 q -3.4,0.8 -7.2,0.8 z"
           id="path1817" />
        <path
           style="fill:#876844;stroke:none"
           inkscape:connector-curvature="0"
           d="m 382.2,228.15 v 9.7 q 3.25,0.75 6.8,0.75 h 0.05 q 3.8,0 7.2,-0.8 v -9.75 q -3.4,0.85 -7.2,0.85 H 389 q -3.55,0 -6.8,-0.75 z"
           id="path1819" />
        <path
           style="fill:#597b3e;stroke:none"
           inkscape:connector-curvature="0"
           d="m 382.2,191.75 q -7.75,-1.8 -13.75,-7.8 -8.21953,-8.21953 -8.55,-19.65 v 36.1 q 0.2,11.65 8.55,19.95 6,6 13.75,7.8 3.25,0.75 6.8,0.75 h 0.05 q 3.8,0 7.2,-0.85 7.5,-1.85 13.4,-7.7 8.3,-8.3 8.5,-19.95 v -36.1 q -0.32969,11.43047 -8.5,19.65 -5.9,5.85 -13.4,7.7 -3.4,0.8 -7.2,0.8 H 389 q -3.55,0 -6.8,-0.7 z"
           id="path1821" />
        <path
           style="fill:#648c44;stroke:none"
           inkscape:connector-curvature="0"
           d="m 418.15,41.2 q -0.25,-11.6 -8.5,-19.85 -8.55,-8.5 -20.6,-8.5 H 389 q -12.05,0 -20.55,8.5 -8.3,8.25 -8.55,19.85 v 123.1 q 0.33047,11.43047 8.55,19.65 6,6 13.75,7.8 3.25,0.7 6.8,0.7 h 0.05 q 3.8,0 7.2,-0.8 7.5,-1.85 13.4,-7.7 8.17031,-8.21953 8.5,-19.65 z"
           id="path1823" />
      </g>
    </g>
  </g>
</svg>
