<?xml version="1.0" encoding="UTF-8" standalone="no"?>
<!-- Created with Inkscape (http://www.inkscape.org/) -->

<svg
   xmlns:dc="http://purl.org/dc/elements/1.1/"
   xmlns:cc="http://creativecommons.org/ns#"
   xmlns:rdf="http://www.w3.org/1999/02/22-rdf-syntax-ns#"
   xmlns:svg="http://www.w3.org/2000/svg"
   xmlns="http://www.w3.org/2000/svg"
   xmlns:sodipodi="http://sodipodi.sourceforge.net/DTD/sodipodi-0.dtd"
   xmlns:inkscape="http://www.inkscape.org/namespaces/inkscape"
   width="14.249383mm"
   height="12.719789mm"
   viewBox="0 0 14.249383 12.719789"
   version="1.1"
   id="svg4971"
   inkscape:version="0.92.4 (unknown)"
   sodipodi:docname="drawing18.svg">
  <defs
     id="defs4965" />
  <sodipodi:namedview
     id="base"
     pagecolor="#ffffff"
     bordercolor="#666666"
     borderopacity="1.0"
     inkscape:pageopacity="0.0"
     inkscape:pageshadow="2"
     inkscape:zoom="1.4"
     inkscape:cx="-38.571095"
     inkscape:cy="70.5469"
     inkscape:document-units="mm"
     inkscape:current-layer="layer1"
     showgrid="false"
     inkscape:window-width="927"
     inkscape:window-height="1025"
     inkscape:window-x="67"
     inkscape:window-y="27"
     inkscape:window-maximized="0" />
  <metadata
     id="metadata4968">
    <rdf:RDF>
      <cc:Work
         rdf:about="">
        <dc:format>image/svg+xml</dc:format>
        <dc:type
           rdf:resource="http://purl.org/dc/dcmitype/StillImage" />
        <dc:title></dc:title>
      </cc:Work>
    </rdf:RDF>
  </metadata>
  <g
     inkscape:label="Layer 1"
     inkscape:groupmode="layer"
     id="layer1"
     transform="translate(-124.92688,-153.49908)">
    <g
       transform="matrix(0.26458333,0,0,0.26458333,61.53597,146.61039)"
       id="g2012">
      <g
         transform="matrix(0.26458333,0,0,0.26458333,119.95633,160.85444)"
         id="use2010">
        <path
           style="fill:#d0c4aa;stroke:none"
           inkscape:connector-curvature="0"
           d="m 513.25,-327.85 -1.25,-24.55 -37.25,3.4 -2.15,21.15 h 40.65 m 82.6,-24.1 -1.25,24.1 h 43.5 l -5,-21.15 -37.25,-2.95 m -6.3,-45.7 v -8.7 l -72.5,3.9 v 6.95 z"
           id="path6279" />
        <path
           style="fill:#837962;stroke:none"
           inkscape:connector-curvature="0"
           d="m 575.75,-327.85 3.75,-56.4 -51,3.7 2.85,52.7 z"
           id="path6281" />
        <path
           style="fill:#c4b592;stroke:none"
           inkscape:connector-curvature="0"
           d="m 575.75,-327.85 h 13.8 v -69.8 l -72.5,2.15 v 67.65 h 14.3 l -2.85,-52.7 51,-3.7 -3.75,56.4 m -50.3,-101.6 h -8.4 v 27 l 72.5,-3.9 v -23.1 h -11.8 l -1.8,14.35 -6.65,0.15 -3.35,-14.5 h -23.6 l -5.5,15.3 -6.75,0.1 -4.65,-15.4 m -73.3,-13.95 14.35,18.55 8.25,75.85 37.25,-3.4 -3.95,-77.05 -0.25,-5.1 8.8,-22.75 q -1.1,-0.3 -2.25,-0.6 -4.4,-1.1 -8.6,-1.7 -27,-4.05 -46.95,10.65 -3.45,2.5 -6.65,5.55 m 30.65,32.5 -2.1,-15.7 q -0.35,-2.7 1.3,-4.85 1.65,-2.2 4.3,-2.55 2.7,-0.4 4.85,1.3 2.2,1.65 2.5,4.35 l 2.2,15.65 -13.05,1.8 m 172.9,-32.5 q -3.2,-3.05 -6.65,-5.55 -19.95,-14.7 -46.95,-10.65 -2.45,0.35 -5.05,0.9 -2.85,0.6 -5.8,1.4 l 8.8,22.75 -0.25,5.1 -3.95,77.5 37.25,2.95 8.25,-75.85 14.35,-18.55 m -33.85,8.65 q 3.3,0.4 5.35,3.1 2.05,2.65 1.6,5.95 l -2.45,19.35 -16.05,-2.05 2.45,-19.35 q 0.45,-3.3 3.15,-5.35 2.65,-2.1 5.95,-1.65 z"
           id="path6283" />
        <path
           style="fill:#6d5238;stroke:none"
           inkscape:connector-curvature="0"
           d="m 632.95,-509.55 -30.85,49.95 q 27,-4.05 46.95,10.65 l -16.1,-60.6 m -158.05,0 -16.1,60.6 q 19.95,-14.7 46.95,-10.65 z"
           id="path6285" />
        <path
           style="fill:#aa9d7e;stroke:none"
           inkscape:connector-curvature="0"
           d="m 599.8,-429.45 h -10.25 v 23.1 8.7 69.8 h 5.05 l 1.25,-24.1 3.95,-77.5 m -82.75,0 h -9 l 3.95,77.05 1.25,24.55 h 3.8 v -67.65 -6.95 -27 m -36.35,2.85 2.1,15.7 13.05,-1.8 -2.2,-15.65 q -0.3,-2.7 -2.5,-4.35 -2.15,-1.7 -4.85,-1.3 -2.65,0.35 -4.3,2.55 -1.65,2.15 -1.3,4.85 m 146.5,-5.05 q -2.05,-2.7 -5.35,-3.1 -3.3,-0.45 -5.95,1.65 -2.7,2.05 -3.15,5.35 l -2.45,19.35 16.05,2.05 2.45,-19.35 q 0.45,-3.3 -1.6,-5.95 z"
           id="path6287" />
      </g>
    </g>
  </g>
</svg>
