<?xml version="1.0" encoding="UTF-8" standalone="no"?>
<!-- Created with Inkscape (http://www.inkscape.org/) -->

<svg
   xmlns:dc="http://purl.org/dc/elements/1.1/"
   xmlns:cc="http://creativecommons.org/ns#"
   xmlns:rdf="http://www.w3.org/1999/02/22-rdf-syntax-ns#"
   xmlns:svg="http://www.w3.org/2000/svg"
   xmlns="http://www.w3.org/2000/svg"
   xmlns:sodipodi="http://sodipodi.sourceforge.net/DTD/sodipodi-0.dtd"
   xmlns:inkscape="http://www.inkscape.org/namespaces/inkscape"
   width="13.209819mm"
   height="8.0014963mm"
   viewBox="0 0 13.209819 8.0014962"
   version="1.1"
   id="svg4971"
   inkscape:version="0.92.4 (unknown)"
   sodipodi:docname="drawing12.svg">
  <defs
     id="defs4965" />
  <sodipodi:namedview
     id="base"
     pagecolor="#ffffff"
     bordercolor="#666666"
     borderopacity="1.0"
     inkscape:pageopacity="0.0"
     inkscape:pageshadow="2"
     inkscape:zoom="1.4"
     inkscape:cx="-177.62581"
     inkscape:cy="-6.672959"
     inkscape:document-units="mm"
     inkscape:current-layer="layer1"
     showgrid="false"
     inkscape:window-width="927"
     inkscape:window-height="1025"
     inkscape:window-x="67"
     inkscape:window-y="27"
     inkscape:window-maximized="0" />
  <metadata
     id="metadata4968">
    <rdf:RDF>
      <cc:Work
         rdf:about="">
        <dc:format>image/svg+xml</dc:format>
        <dc:type
           rdf:resource="http://purl.org/dc/dcmitype/StillImage" />
        <dc:title></dc:title>
      </cc:Work>
    </rdf:RDF>
  </metadata>
  <g
     inkscape:label="Layer 1"
     inkscape:groupmode="layer"
     id="layer1"
     transform="translate(-161.71844,-137.78629)">
    <g
       transform="matrix(0.26458333,0,0,0.26458333,24.75966,134.0285)"
       id="g2032">
      <g
         transform="matrix(0.26458333,0,0,0.26458333,132.6046,131.18819)"
         id="use2030">
        <path
           style="fill:#c4b592;stroke:none"
           inkscape:connector-curvature="0"
           d="m 1544.15,-327.85 v -56.35 l -38.4,-38.4 -38.4,38.4 v 56.35 h 76.8 m -14.55,-62.65 v 26.4 H 1513 v -26.4 h 16.6 m -31.1,0 v 26.4 h -16.6 v -26.4 z"
           id="path5962" />
        <path
           style="fill:#d7c9a9;stroke:none"
           inkscape:connector-curvature="0"
           d="m 1498.5,-364.1 v -26.4 h -16.6 v 26.4 h 16.6 m 31.1,0 v -26.4 H 1513 v 26.4 z"
           id="path5964" />
        <path
           style="fill:#b4a582;stroke:none"
           inkscape:connector-curvature="0"
           d="m 1544.15,-384.2 v 56.35 h 93.2 v -57.7 h -87.3 l -44.3,-44.35 -38.4,38.4 v 7.3 l 38.4,-38.4 z"
           id="path5966" />
        <path
           style="fill:#d26f49;stroke:none"
           inkscape:connector-curvature="0"
           d="m 1550.05,-385.55 6.15,-6.15 -50.45,-50.45 -50.5,50.45 6.2,6.15 5.9,-5.95 38.4,-38.4 z"
           id="path5968" />
        <path
           style="fill:#b66141;stroke:none"
           inkscape:connector-curvature="0"
           d="m 1556.2,-391.7 -6.15,6.15 h 87.3 6.6 v -6.15 z"
           id="path5970" />
        <path
           style="fill:#e07850;stroke:none"
           inkscape:connector-curvature="0"
           d="m 1595.55,-442.15 h -89.8 l 50.45,50.45 h 87.75 v -2.05 z"
           id="path5972" />
      </g>
    </g>
  </g>
</svg>
