<?xml version="1.0" encoding="UTF-8" standalone="no"?>
<!-- Created with Inkscape (http://www.inkscape.org/) -->

<svg
   xmlns:dc="http://purl.org/dc/elements/1.1/"
   xmlns:cc="http://creativecommons.org/ns#"
   xmlns:rdf="http://www.w3.org/1999/02/22-rdf-syntax-ns#"
   xmlns:svg="http://www.w3.org/2000/svg"
   xmlns="http://www.w3.org/2000/svg"
   xmlns:sodipodi="http://sodipodi.sourceforge.net/DTD/sodipodi-0.dtd"
   xmlns:inkscape="http://www.inkscape.org/namespaces/inkscape"
   width="7.0634379mm"
   height="12.11075mm"
   viewBox="0 0 7.063438 12.11075"
   version="1.1"
   id="svg4971"
   inkscape:version="0.92.4 (unknown)"
   sodipodi:docname="drawing13.svg">
  <defs
     id="defs4965" />
  <sodipodi:namedview
     id="base"
     pagecolor="#ffffff"
     bordercolor="#666666"
     borderopacity="1.0"
     inkscape:pageopacity="0.0"
     inkscape:pageshadow="2"
     inkscape:zoom="1.4"
     inkscape:cx="-200.70616"
     inkscape:cy="-18.072215"
     inkscape:document-units="mm"
     inkscape:current-layer="layer1"
     showgrid="false"
     inkscape:window-width="927"
     inkscape:window-height="1025"
     inkscape:window-x="67"
     inkscape:window-y="27"
     inkscape:window-maximized="0" />
  <metadata
     id="metadata4968">
    <rdf:RDF>
      <cc:Work
         rdf:about="">
        <dc:format>image/svg+xml</dc:format>
        <dc:type
           rdf:resource="http://purl.org/dc/dcmitype/StillImage" />
        <dc:title></dc:title>
      </cc:Work>
    </rdf:RDF>
  </metadata>
  <g
     inkscape:label="Layer 1"
     inkscape:groupmode="layer"
     id="layer1"
     transform="translate(-167.82511,-130.66098)">
    <g
       transform="matrix(0.26458333,0,0,0.26458333,31.378306,129.2667)"
       id="g2044">
      <g
         transform="matrix(0.26458333,0,0,0.26458333,161.71844,137.78629)"
         id="use2042">
        <path
           style="fill:#95a1a1;stroke:none"
           inkscape:connector-curvature="0"
           d="m 1426.75,-442.9 -38.4,-38.4 -38.4,38.4 v 115.05 h 76.8 V -442.9 m -62.15,24.05 v -26.05 h 16.55 v 26.05 h -16.55 m 47.5,-26.05 v 26.05 h -16.5 v -26.05 h 16.5 m -16.5,44.05 h 16.5 v 26.05 h -16.5 v -26.05 m -31,0 h 16.55 v 26.05 h -16.55 z"
           id="path6018" />
        <path
           style="fill:#b5c2c2;stroke:none"
           inkscape:connector-curvature="0"
           d="m 1381.15,-400.85 h -16.55 v 26.05 h 16.55 v -26.05 m 30.95,0 h -16.5 v 26.05 h 16.5 v -26.05 m 0,-18 v -26.05 h -16.5 v 26.05 h 16.5 m -47.5,-26.05 v 26.05 h 16.55 v -26.05 z"
           id="path6020" />
        <path
           style="fill:#4b6480;stroke:none"
           inkscape:connector-curvature="0"
           d="m 1344.05,-444.25 5.9,-5.9 38.4,-38.45 38.4,38.45 5.9,5.9 6.15,-6.15 -50.45,-50.45 -50.45,50.45 z"
           id="path6022" />
        <path
           style="fill:#869191;stroke:none"
           inkscape:connector-curvature="0"
           d="m 1349.95,-450.15 v 7.25 l 38.4,-38.4 38.4,38.4 v -7.25 l -38.4,-38.45 z"
           id="path6024" />
      </g>
    </g>
  </g>
</svg>
