<?xml version="1.0" encoding="UTF-8" standalone="no"?>
<!-- Created with Inkscape (http://www.inkscape.org/) -->

<svg
   xmlns:dc="http://purl.org/dc/elements/1.1/"
   xmlns:cc="http://creativecommons.org/ns#"
   xmlns:rdf="http://www.w3.org/1999/02/22-rdf-syntax-ns#"
   xmlns:svg="http://www.w3.org/2000/svg"
   xmlns="http://www.w3.org/2000/svg"
   xmlns:sodipodi="http://sodipodi.sourceforge.net/DTD/sodipodi-0.dtd"
   xmlns:inkscape="http://www.inkscape.org/namespaces/inkscape"
   width="7.0634379mm"
   height="8.0014963mm"
   viewBox="0 0 7.063438 8.0014962"
   version="1.1"
   id="svg4971"
   inkscape:version="0.92.4 (unknown)"
   sodipodi:docname="drawing14.svg">
  <defs
     id="defs4965" />
  <sodipodi:namedview
     id="base"
     pagecolor="#ffffff"
     bordercolor="#666666"
     borderopacity="1.0"
     inkscape:pageopacity="0.0"
     inkscape:pageshadow="2"
     inkscape:zoom="1.4"
     inkscape:cx="-44.500785"
     inkscape:cy="34.905856"
     inkscape:document-units="mm"
     inkscape:current-layer="layer1"
     showgrid="false"
     inkscape:window-width="927"
     inkscape:window-height="1025"
     inkscape:window-x="67"
     inkscape:window-y="27"
     inkscape:window-maximized="0" />
  <metadata
     id="metadata4968">
    <rdf:RDF>
      <cc:Work
         rdf:about="">
        <dc:format>image/svg+xml</dc:format>
        <dc:type
           rdf:resource="http://purl.org/dc/dcmitype/StillImage" />
        <dc:title></dc:title>
      </cc:Work>
    </rdf:RDF>
  </metadata>
  <g
     inkscape:label="Layer 1"
     inkscape:groupmode="layer"
     id="layer1"
     transform="translate(-126.49577,-148.78735)">
    <g
       transform="matrix(0.26458333,0,0,0.26458333,-3.3482496,145.16905)"
       id="g2040">
      <g
         transform="matrix(0.26458333,0,0,0.26458333,167.82511,130.66098)"
         id="use2038">
        <path
           style="fill:#c4b592;stroke:none"
           inkscape:connector-curvature="0"
           d="m 1309.4,-327.85 v -56.35 l -38.45,-38.4 -38.4,38.4 v 56.35 h 76.85 m -45.7,-62.65 v 26.4 h -16.6 v -26.4 h 16.6 m 31.1,0 v 26.4 h -16.55 v -26.4 z"
           id="path6070" />
        <path
           style="fill:#d7c9a9;stroke:none"
           inkscape:connector-curvature="0"
           d="m 1294.8,-364.1 v -26.4 h -16.55 v 26.4 h 16.55 m -31.1,0 v -26.4 h -16.6 v 26.4 z"
           id="path6072" />
        <path
           style="fill:#b4a582;stroke:none"
           inkscape:connector-curvature="0"
           d="m 1309.4,-384.2 v -7.3 l -38.45,-38.4 -38.4,38.4 v 7.3 l 38.4,-38.4 z"
           id="path6074" />
        <path
           style="fill:#d26f49;stroke:none"
           inkscape:connector-curvature="0"
           d="m 1315.3,-385.55 6.1,-6.15 -50.45,-50.45 -50.45,50.45 6.15,6.15 5.9,-5.95 38.4,-38.4 38.45,38.4 z"
           id="path6076" />
      </g>
    </g>
  </g>
</svg>
