<?xml version="1.0" encoding="UTF-8" standalone="no"?>
<!-- Created with Inkscape (http://www.inkscape.org/) -->

<svg
   xmlns:dc="http://purl.org/dc/elements/1.1/"
   xmlns:cc="http://creativecommons.org/ns#"
   xmlns:rdf="http://www.w3.org/1999/02/22-rdf-syntax-ns#"
   xmlns:svg="http://www.w3.org/2000/svg"
   xmlns="http://www.w3.org/2000/svg"
   xmlns:sodipodi="http://sodipodi.sourceforge.net/DTD/sodipodi-0.dtd"
   xmlns:inkscape="http://www.inkscape.org/namespaces/inkscape"
   width="8.8555489mm"
   height="6.0938778mm"
   viewBox="0 0 8.8555493 6.0938771"
   version="1.1"
   id="svg8"
   inkscape:version="0.92.4 (unknown)"
   sodipodi:docname="drawing85.svg">
  <defs
     id="defs2" />
  <sodipodi:namedview
     id="base"
     pagecolor="#ffffff"
     bordercolor="#666666"
     borderopacity="1.0"
     inkscape:pageopacity="0.0"
     inkscape:pageshadow="2"
     inkscape:zoom="0.98994949"
     inkscape:cx="-176.63401"
     inkscape:cy="92.155127"
     inkscape:document-units="mm"
     inkscape:current-layer="layer1"
     showgrid="false"
     inkscape:window-width="927"
     inkscape:window-height="1025"
     inkscape:window-x="67"
     inkscape:window-y="27"
     inkscape:window-maximized="0" />
  <metadata
     id="metadata5">
    <rdf:RDF>
      <cc:Work
         rdf:about="">
        <dc:format>image/svg+xml</dc:format>
        <dc:type
           rdf:resource="http://purl.org/dc/dcmitype/StillImage" />
        <dc:title></dc:title>
      </cc:Work>
    </rdf:RDF>
  </metadata>
  <g
     inkscape:label="Layer 1"
     inkscape:groupmode="layer"
     id="layer1"
     transform="translate(-328.68793,-231.03731)">
    <g
       transform="matrix(0.26458333,0,0,0.26458333,151.00973,166.47802)"
       id="g2048">
      <g
         transform="matrix(0.26458333,0,0,0.26458333,337.92656,232.58684)"
         id="use2046">
        <path
           style="fill:#8c6d48;stroke:none"
           inkscape:connector-curvature="0"
           d="m 1295.1,85.05 0.7,-15.55 -9.85,0.6 v 15.6 l 9.15,-0.65 m -0.4,8.85 h -8.75 v 14.3 l 8.05,0.55 0.7,-14.85 m 70.5,0 h -8.15 l 2.3,19.25 7.75,0.55 -1.9,-19.8 m -2.75,-28.6 -8.7,0.55 1.75,14.85 8.4,-0.6 z"
           id="path2166" />
        <path
           style="fill:#9c7b53;stroke:none"
           inkscape:connector-curvature="0"
           d="M 1285.95,70.1 V 59.7 l -13.85,-14.4 -11.2,19.25 10.1,65.65 h 14.95 v -22 -14.3 -8.2 -15.6 m 73.4,43.05 -2.3,-19.25 h -62.35 l -0.7,14.85 65.35,4.4 m -3.85,-32.45 -1.75,-14.85 -57.95,3.65 -0.7,15.55 60.4,-4.35 m 6.95,-15.4 1.45,14.8 1.3,13.8 1.9,19.8 1.6,16.5 h 12.15 l 6.55,-72.6 -12.3,-14.45 -13.35,14.95 z"
           id="path2168" />
      </g>
    </g>
  </g>
</svg>
