<?xml version="1.0" encoding="UTF-8" standalone="no"?>
<!-- Created with Inkscape (http://www.inkscape.org/) -->

<svg
   xmlns:dc="http://purl.org/dc/elements/1.1/"
   xmlns:cc="http://creativecommons.org/ns#"
   xmlns:rdf="http://www.w3.org/1999/02/22-rdf-syntax-ns#"
   xmlns:svg="http://www.w3.org/2000/svg"
   xmlns="http://www.w3.org/2000/svg"
   xmlns:sodipodi="http://sodipodi.sourceforge.net/DTD/sodipodi-0.dtd"
   xmlns:inkscape="http://www.inkscape.org/namespaces/inkscape"
   width="5.8803644mm"
   height="5.8803644mm"
   viewBox="0 0 5.8803648 5.8803638"
   version="1.1"
   id="svg8"
   inkscape:version="0.92.4 (unknown)"
   sodipodi:docname="drawing90.svg">
  <defs
     id="defs2" />
  <sodipodi:namedview
     id="base"
     pagecolor="#ffffff"
     bordercolor="#666666"
     borderopacity="1.0"
     inkscape:pageopacity="0.0"
     inkscape:pageshadow="2"
     inkscape:zoom="0.98994949"
     inkscape:cx="-216.00331"
     inkscape:cy="65.526708"
     inkscape:document-units="mm"
     inkscape:current-layer="layer1"
     showgrid="false"
     inkscape:window-width="927"
     inkscape:window-height="1025"
     inkscape:window-x="67"
     inkscape:window-y="27"
     inkscape:window-maximized="0" />
  <metadata
     id="metadata5">
    <rdf:RDF>
      <cc:Work
         rdf:about="">
        <dc:format>image/svg+xml</dc:format>
        <dc:type
           rdf:resource="http://purl.org/dc/dcmitype/StillImage" />
        <dc:title></dc:title>
      </cc:Work>
    </rdf:RDF>
  </metadata>
  <g
     inkscape:label="Layer 1"
     inkscape:groupmode="layer"
     id="layer1"
     transform="translate(-339.10439,-224.20539)">
    <g
       transform="matrix(0.26458333,0,0,0.26458333,168.2734,173.42568)"
       id="g2028">
      <g
         transform="matrix(0.26458333,0,0,0.26458333,315.05035,223.93791)"
         id="use2026">
        <path
           style="fill:#f7f7e3;stroke:none"
           inkscape:connector-curvature="0"
           d="m 1321.25,-49.3 q 12.3,-12.3 12.3,-29.7 0,-17.4 -12.3,-29.7 -12.3,-12.3 -29.7,-12.3 -17.4,0 -29.7,12.3 -12.3,12.3 -12.3,29.7 0,17.4 12.3,29.7 12.3,12.3 29.7,12.3 17.4,0 29.7,-12.3 m -15.7,-47.95 q 0,4.25 -3,7.25 -3,3.05 -7.25,3.05 -4.25,0 -7.25,-3.05 -3,-3 -3,-7.25 0,-4.25 3,-7.25 3,-3 7.25,-3 4.25,0 7.25,3 3,3 3,7.25 m -30.55,-3.9 q 0,-1.45 1,-2.5 1.05,-1 2.5,-1 1.4,0 2.45,1 1.05,1.05 1.05,2.5 0,1.4 -1.05,2.4 -1.05,1.05 -2.45,1.05 -1.45,0 -2.5,-1.05 -1,-1 -1,-2.4 m -17.2,16.8 q 0,-3 2.15,-5.2 2.25,-2.15 5.2,-2.15 3,0 5.2,2.15 2.15,2.2 2.15,5.2 0,3.05 -2.15,5.2 -2.2,2.15 -5.2,2.15 -2.95,0 -5.2,-2.15 -2.15,-2.15 -2.15,-5.2 z"
           id="path2340" />
        <path
           style="fill:#e2e2cc;stroke:none"
           inkscape:connector-curvature="0"
           d="m 1259.95,-89.55 q -2.15,2.2 -2.15,5.2 0,3.05 2.15,5.2 2.25,2.15 5.2,2.15 3,0 5.2,-2.15 2.15,-2.15 2.15,-5.2 0,-3 -2.15,-5.2 -2.2,-2.15 -5.2,-2.15 -2.95,0 -5.2,2.15 m 16.05,-14.1 q -1,1.05 -1,2.5 0,1.4 1,2.4 1.05,1.05 2.5,1.05 1.4,0 2.45,-1.05 1.05,-1 1.05,-2.4 0,-1.45 -1.05,-2.5 -1.05,-1 -2.45,-1 -1.45,0 -2.5,1 m 26.55,13.65 q 3,-3 3,-7.25 0,-4.25 -3,-7.25 -3,-3 -7.25,-3 -4.25,0 -7.25,3 -3,3 -3,7.25 0,4.25 3,7.25 3,3.05 7.25,3.05 4.25,0 7.25,-3.05 z"
           id="path2342" />
      </g>
    </g>
  </g>
</svg>
