<?xml version="1.0" encoding="UTF-8" standalone="no"?>
<!-- Created with Inkscape (http://www.inkscape.org/) -->

<svg
   xmlns:dc="http://purl.org/dc/elements/1.1/"
   xmlns:cc="http://creativecommons.org/ns#"
   xmlns:rdf="http://www.w3.org/1999/02/22-rdf-syntax-ns#"
   xmlns:svg="http://www.w3.org/2000/svg"
   xmlns="http://www.w3.org/2000/svg"
   xmlns:sodipodi="http://sodipodi.sourceforge.net/DTD/sodipodi-0.dtd"
   xmlns:inkscape="http://www.inkscape.org/namespaces/inkscape"
   width="16.61903mm"
   height="9.3580093mm"
   viewBox="0 0 16.61903 9.3580092"
   version="1.1"
   id="svg8"
   inkscape:version="0.92.4 (unknown)"
   sodipodi:docname="drawing47.svg">
  <defs
     id="defs2" />
  <sodipodi:namedview
     id="base"
     pagecolor="#ffffff"
     bordercolor="#666666"
     borderopacity="1.0"
     inkscape:pageopacity="0.0"
     inkscape:pageshadow="2"
     inkscape:zoom="0.98994949"
     inkscape:cx="-229.4895"
     inkscape:cy="-127.51716"
     inkscape:document-units="mm"
     inkscape:current-layer="layer1"
     showgrid="false"
     inkscape:window-width="927"
     inkscape:window-height="1025"
     inkscape:window-x="67"
     inkscape:window-y="27"
     inkscape:window-maximized="0" />
  <metadata
     id="metadata5">
    <rdf:RDF>
      <cc:Work
         rdf:about="">
        <dc:format>image/svg+xml</dc:format>
        <dc:type
           rdf:resource="http://purl.org/dc/dcmitype/StillImage" />
        <dc:title></dc:title>
      </cc:Work>
    </rdf:RDF>
  </metadata>
  <g
     inkscape:label="Layer 1"
     inkscape:groupmode="layer"
     id="layer1"
     transform="translate(-342.67259,-169.65158)">
    <g
       transform="matrix(0.26458333,0,0,0.26458333,195.43274,186.07429)"
       id="g1944">
      <g
         transform="matrix(0.26458333,0,0,0.26458333,332.5405,166.93039)"
         id="use1942">
        <path
           style="fill:#c9dee5;stroke:none"
           inkscape:connector-curvature="0"
           d="m 880.55,-802.45 q -2,1.85 -4.55,2.45 -9.7,2.3 -17.4,9.6 -0.05,0 -0.05,0.05 -7.4,7.05 -10.2,16.25 -0.3,0.9 -0.7,1.7 1.7,4.95 5.65,9.15 6.15,6.5 14.65,7.5 2.55,3.6 5.7,7 15.15,15.8 36.45,16.85 17.3,0.8 30.5,-8.4 9.9,6.55 22.3,7.1 13.85,0.7 24.6,-6.3 9.05,4.75 19.9,5.3 17.7,0.85 30.6,-10.05 6,5.75 13.8,7.35 0.05,-0.8 0.05,-1.65 -0.05,-7.35 -5.25,-12.9 0,-0.05 -0.05,-0.05 -5.3,-5.5 -12.65,-5.85 -0.1,0 -0.2,0 -1.35,-0.1 -2.55,0 -3.6,0.35 -6.65,-1.7 -3.05,-2.1 -4,-5.6 -2.5,-8.95 -9.55,-16.35 h 0.05 q -10.8,-11.3 -26.1,-12.05 -7.95,-0.4 -14.7,2.25 -2.85,1.15 -5.85,0.5 -2.95,-0.7 -5.05,-2.9 -2.15,-2.2 -2.65,-5.2 -2,-11.5 -10.65,-20.55 h -0.05 q -11.15,-11.7 -26.9,-12.5 -15.4,-0.8 -26.35,9.5 -0.05,0.05 -0.05,0.1 -6.8,6.5 -9.35,15 -0.8,2.55 -2.75,4.4 z"
           id="path759" />
        <path
           style="fill:#e8f2f5;stroke:none"
           inkscape:connector-curvature="0"
           d="m 860.75,-801 q -4.05,1.55 -7.45,4.75 -6.85,6.5 -6.85,16.15 0,4.05 1.2,7.7 0.4,-0.8 0.7,-1.7 2.8,-9.2 10.2,-16.25 0,-0.05 0.05,-0.05 7.7,-7.3 17.4,-9.6 2.55,-0.6 4.55,-2.45 1.95,-1.85 2.75,-4.4 2.55,-8.5 9.35,-15 0,-0.05 0.05,-0.1 10.95,-10.3 26.35,-9.5 15.75,0.8 26.9,12.5 H 946 q 8.65,9.05 10.65,20.55 0.5,3 2.65,5.2 2.1,2.2 5.05,2.9 3,0.65 5.85,-0.5 6.75,-2.65 14.7,-2.25 15.3,0.75 26.1,12.05 h -0.05 q 7.05,7.4 9.55,16.35 0.95,3.5 4,5.6 3.05,2.05 6.65,1.7 1.2,-0.1 2.55,0 0.1,0 0.2,0 7.35,0.35 12.65,5.85 0.05,0 0.05,0.05 5.2,5.55 5.25,12.9 0,0.85 -0.05,1.65 2.2,0.45 4.55,0.55 11.35,0.6 19.45,-7.1 8.05,-7.7 8.05,-19.1 0,-11.35 -8.05,-19.85 -8.1,-8.45 -19.45,-8.95 -2.2,-0.15 -4.2,0.05 -3.1,-11.3 -11.95,-20.6 -13.55,-14.2 -32.8,-15.15 -10.25,-0.5 -18.9,2.95 -2.45,-14.4 -13.3,-25.75 -13.95,-14.65 -33.7,-15.6 -19.75,-0.95 -33.75,12.3 -8.75,8.45 -12.05,19.4 -12.25,2.85 -22.05,12.1 -9.4,9 -12.9,20.65 z"
           id="path761" />
      </g>
    </g>
  </g>
</svg>
