<?xml version="1.0" encoding="UTF-8" standalone="no"?>
<!-- Created with Inkscape (http://www.inkscape.org/) -->

<svg
   xmlns:dc="http://purl.org/dc/elements/1.1/"
   xmlns:cc="http://creativecommons.org/ns#"
   xmlns:rdf="http://www.w3.org/1999/02/22-rdf-syntax-ns#"
   xmlns:svg="http://www.w3.org/2000/svg"
   xmlns="http://www.w3.org/2000/svg"
   xmlns:sodipodi="http://sodipodi.sourceforge.net/DTD/sodipodi-0.dtd"
   xmlns:inkscape="http://www.inkscape.org/namespaces/inkscape"
   width="15.635469mm"
   height="9.1250658mm"
   viewBox="0 0 15.635469 9.1250661"
   version="1.1"
   id="svg4971"
   inkscape:version="0.92.4 (unknown)"
   sodipodi:docname="drawing20.svg">
  <defs
     id="defs4965" />
  <sodipodi:namedview
     id="base"
     pagecolor="#ffffff"
     bordercolor="#666666"
     borderopacity="1.0"
     inkscape:pageopacity="0.0"
     inkscape:pageshadow="2"
     inkscape:zoom="1.4"
     inkscape:cx="-137.81006"
     inkscape:cy="-7.4572188"
     inkscape:document-units="mm"
     inkscape:current-layer="layer1"
     showgrid="false"
     inkscape:window-width="927"
     inkscape:window-height="1025"
     inkscape:window-x="67"
     inkscape:window-y="27"
     inkscape:window-maximized="0" />
  <metadata
     id="metadata4968">
    <rdf:RDF>
      <cc:Work
         rdf:about="">
        <dc:format>image/svg+xml</dc:format>
        <dc:type
           rdf:resource="http://purl.org/dc/dcmitype/StillImage" />
        <dc:title></dc:title>
      </cc:Work>
    </rdf:RDF>
  </metadata>
  <g
     inkscape:label="Layer 1"
     inkscape:groupmode="layer"
     id="layer1"
     transform="translate(-151.18386,-136.45522)">
    <g
       transform="matrix(0.26458333,0,0,0.26458333,116.94617,132.13555)"
       id="g1900">
      <g
         transform="matrix(0.26458333,0,0,0.26458333,143.50457,137.55838)"
         id="use1898">
        <path
           style="fill:#798a8a;stroke:none"
           inkscape:connector-curvature="0"
           d="m 8.25,-327.85 h 15.9 l 31,-100.8 z"
           id="path6393" />
        <path
           style="fill:#6e7e7e;stroke:none"
           inkscape:connector-curvature="0"
           d="m 108.25,-418.5 -19,-4.25 -29.1,-6.65 26.8,101.55 h 83.1 z"
           id="path6395" />
        <path
           style="fill:#788787;stroke:none"
           inkscape:connector-curvature="0"
           d="m 55.15,-428.65 5,-0.75 29.1,6.65 v -23.85 l -34.1,-11.6 v 29.55 m -24.85,-13.4 v 16.8 l 11.65,-1.6 v -18.45 z"
           id="path6397" />
        <path
           style="fill:#95a1a1;stroke:none"
           inkscape:connector-curvature="0"
           d="m 60.15,-429.4 -5,0.75 -31,100.8 h 62.8 L 60.15,-429.4 m -41,5.7 -13.8,1.9 -58.65,93.95 h 11 z"
           id="path6399" />
        <path
           style="fill:#869595;stroke:none"
           inkscape:connector-curvature="0"
           d="m 30.3,-425.25 -11.15,1.55 -61.45,95.85 H 8.25 l 46.9,-100.8 -13.2,1.8 z"
           id="path6401" />
        <path
           style="fill:#a7afaf;stroke:none"
           inkscape:connector-curvature="0"
           d="m 30.3,-425.25 v -16.8 l 11.65,-3.25 v 18.45 l 13.2,-1.8 v -29.55 l -36,11.85 v 22.65 z"
           id="path6403" />
      </g>
    </g>
  </g>
</svg>
