<?xml version="1.0" encoding="UTF-8" standalone="no"?>
<!-- Created with Inkscape (http://www.inkscape.org/) -->

<svg
   xmlns:dc="http://purl.org/dc/elements/1.1/"
   xmlns:cc="http://creativecommons.org/ns#"
   xmlns:rdf="http://www.w3.org/1999/02/22-rdf-syntax-ns#"
   xmlns:svg="http://www.w3.org/2000/svg"
   xmlns="http://www.w3.org/2000/svg"
   xmlns:sodipodi="http://sodipodi.sourceforge.net/DTD/sodipodi-0.dtd"
   xmlns:inkscape="http://www.inkscape.org/namespaces/inkscape"
   width="14.823419mm"
   height="8.2802238mm"
   viewBox="0 0 14.82342 8.2802236"
   version="1.1"
   id="svg8"
   inkscape:version="0.92.4 (unknown)"
   sodipodi:docname="drawing53.svg">
  <defs
     id="defs2" />
  <sodipodi:namedview
     id="base"
     pagecolor="#ffffff"
     bordercolor="#666666"
     borderopacity="1.0"
     inkscape:pageopacity="0.0"
     inkscape:pageshadow="2"
     inkscape:zoom="0.98994949"
     inkscape:cx="-144.64242"
     inkscape:cy="-91.776275"
     inkscape:document-units="mm"
     inkscape:current-layer="layer1"
     showgrid="false"
     inkscape:window-width="927"
     inkscape:window-height="1025"
     inkscape:window-x="67"
     inkscape:window-y="27"
     inkscape:window-maximized="0" />
  <metadata
     id="metadata5">
    <rdf:RDF>
      <cc:Work
         rdf:about="">
        <dc:format>image/svg+xml</dc:format>
        <dc:type
           rdf:resource="http://purl.org/dc/dcmitype/StillImage" />
        <dc:title></dc:title>
      </cc:Work>
    </rdf:RDF>
  </metadata>
  <g
     inkscape:label="Layer 1"
     inkscape:groupmode="layer"
     id="layer1"
     transform="translate(-320.22347,-180.1858)">
    <g
       transform="matrix(0.26458333,0,0,0.26458333,221.79791,184.05361)"
       id="g1924">
      <g
         transform="matrix(0.26458333,0,0,0.26458333,320.68617,171.23856)"
         id="use1922">
        <path
           style="fill:#c9dee5;stroke:none"
           inkscape:connector-curvature="0"
           d="m 346.15,-648.45 q -2.7,-7.45 -8.6,-13.85 -10.85,-11.75 -26.25,-13.05 -0.65,0 -1.4,-0.1 -2.9,-6.85 -8.45,-12.9 -11.6,-12.55 -28.05,-13.95 -16.5,-1.35 -28.1,9.3 -8.2,7.45 -10.65,17.9 -9.15,2.3 -16.55,9.05 -12.7,11.65 -12.7,29.6 0,0.8 0.1,1.65 -3.7,0.85 -6.65,3.5 -4.9,4.55 -4.9,11.5 0,4.9 2.5,9.05 31.95,42.2 208.9,17.4 0.35,-2.35 0.35,-4.85 0,-11.85 -8.4,-20.95 -8.4,-9.15 -20.25,-10.15 -4.15,-0.3 -7.85,0.4 -2.4,-4.35 -6.05,-8.3 -7.45,-8.05 -17,-11.25 z"
           id="path968" />
      </g>
    </g>
  </g>
</svg>
