<?xml version="1.0" encoding="UTF-8" standalone="no"?>
<!-- Created with Inkscape (http://www.inkscape.org/) -->

<svg
   xmlns:dc="http://purl.org/dc/elements/1.1/"
   xmlns:cc="http://creativecommons.org/ns#"
   xmlns:rdf="http://www.w3.org/1999/02/22-rdf-syntax-ns#"
   xmlns:svg="http://www.w3.org/2000/svg"
   xmlns="http://www.w3.org/2000/svg"
   xmlns:sodipodi="http://sodipodi.sourceforge.net/DTD/sodipodi-0.dtd"
   xmlns:inkscape="http://www.inkscape.org/namespaces/inkscape"
   width="13.206319mm"
   height="8.8975515mm"
   viewBox="0 0 13.206319 8.8975514"
   version="1.1"
   id="svg8"
   inkscape:version="0.92.4 (unknown)"
   sodipodi:docname="drawing45.svg">
  <defs
     id="defs2" />
  <sodipodi:namedview
     id="base"
     pagecolor="#ffffff"
     bordercolor="#666666"
     borderopacity="1.0"
     inkscape:pageopacity="0.0"
     inkscape:pageshadow="2"
     inkscape:zoom="0.98994949"
     inkscape:cx="-138.66962"
     inkscape:cy="-51.604975"
     inkscape:document-units="mm"
     inkscape:current-layer="layer1"
     showgrid="false"
     inkscape:window-width="927"
     inkscape:window-height="1025"
     inkscape:window-x="67"
     inkscape:window-y="27"
     inkscape:window-maximized="0" />
  <metadata
     id="metadata5">
    <rdf:RDF>
      <cc:Work
         rdf:about="">
        <dc:format>image/svg+xml</dc:format>
        <dc:type
           rdf:resource="http://purl.org/dc/dcmitype/StillImage" />
        <dc:title></dc:title>
      </cc:Work>
    </rdf:RDF>
  </metadata>
  <g
     inkscape:label="Layer 1"
     inkscape:groupmode="layer"
     id="layer1"
     transform="translate(-318.64316,-190.19714)">
    <g
       transform="matrix(0.26458333,0,0,0.26458333,193.28118,198.73738)"
       id="g1964">
      <g
         transform="matrix(0.26458333,0,0,0.26458333,319.90093,236.92224)"
         id="use1962">
        <path
           style="fill:#c9dee5;stroke:none"
           inkscape:connector-curvature="0"
           d="m 609,-968.25 v -0.05 q -10.35,10.4 -13.7,23.6 -0.8,3.05 -3.15,5.1 -2.4,2.1 -5.55,2.4 -2.25,0.25 -4.3,1 1.6,8.25 7.9,14.55 8.55,8.5 20.6,8.5 5.45,0 10.2,-1.75 1.4,1.55 2.9,3.05 18.1,18.15 43.75,18.15 17.4,0 31.35,-8.35 12.15,11.7 29.2,11.7 2.45,0 4.8,-0.25 5.35,-7.85 5.35,-17.9 0,-13.3 -9.4,-22.7 -9.45,-9.45 -22.75,-9.45 -0.75,0 -1.5,0 -3.25,0 -5.9,-1.95 -2.65,-1.95 -3.6,-5 -3.7,-11.45 -12.85,-20.65 v -0.05 q -15.25,-15.15 -36.7,-15.15 -21.5,0 -36.65,15.2 z"
           id="path687" />
        <path
           style="fill:#e8f2f5;stroke:none"
           inkscape:connector-curvature="0"
           d="m 609,-968.3 v 0.05 q 15.15,-15.2 36.65,-15.2 21.45,0 36.7,15.15 v 0.05 q 9.15,9.2 12.85,20.65 0.95,3.05 3.6,5 2.65,1.95 5.9,1.95 0.75,0 1.5,0 13.3,0 22.75,9.45 9.4,9.4 9.4,22.7 0,10.05 -5.35,17.9 14.4,-1.5 25,-12.1 12.35,-12.35 12.35,-29.8 0,-17.45 -12.35,-29.8 -12.35,-12.35 -29.8,-12.35 -0.75,0 -1.5,0 -4.35,-13.7 -15.3,-24.7 -18.15,-18.1 -43.75,-18.1 -25.65,0 -43.75,18.1 -12.35,12.4 -16.3,28.2 -10,1 -17.4,8.35 -8.5,8.55 -8.5,20.6 0,3.1 0.6,6 2.05,-0.75 4.3,-1 3.15,-0.3 5.55,-2.4 2.35,-2.05 3.15,-5.1 3.35,-13.2 13.7,-23.6 z"
           id="path689" />
      </g>
    </g>
  </g>
</svg>
