<?xml version="1.0" encoding="UTF-8" standalone="no"?>
<!-- Created with Inkscape (http://www.inkscape.org/) -->

<svg
   xmlns:dc="http://purl.org/dc/elements/1.1/"
   xmlns:cc="http://creativecommons.org/ns#"
   xmlns:rdf="http://www.w3.org/1999/02/22-rdf-syntax-ns#"
   xmlns:svg="http://www.w3.org/2000/svg"
   xmlns="http://www.w3.org/2000/svg"
   xmlns:sodipodi="http://sodipodi.sourceforge.net/DTD/sodipodi-0.dtd"
   xmlns:inkscape="http://www.inkscape.org/namespaces/inkscape"
   width="9.4260845mm"
   height="20.521772mm"
   viewBox="0 0 9.4260845 20.521772"
   version="1.1"
   id="svg8"
   inkscape:version="0.92.4 (unknown)"
   sodipodi:docname="drawing30.svg">
  <defs
     id="defs2" />
  <sodipodi:namedview
     id="base"
     pagecolor="#ffffff"
     bordercolor="#666666"
     borderopacity="1.0"
     inkscape:pageopacity="0.0"
     inkscape:pageshadow="2"
     inkscape:zoom="0.35"
     inkscape:cx="-951.52763"
     inkscape:cy="265.23215"
     inkscape:document-units="mm"
     inkscape:current-layer="layer1"
     showgrid="false"
     inkscape:window-width="927"
     inkscape:window-height="1025"
     inkscape:window-x="67"
     inkscape:window-y="27"
     inkscape:window-maximized="0" />
  <metadata
     id="metadata5">
    <rdf:RDF>
      <cc:Work
         rdf:about="">
        <dc:format>image/svg+xml</dc:format>
        <dc:type
           rdf:resource="http://purl.org/dc/dcmitype/StillImage" />
        <dc:title></dc:title>
      </cc:Work>
    </rdf:RDF>
  </metadata>
  <g
     inkscape:label="Layer 1"
     inkscape:groupmode="layer"
     id="layer1"
     transform="translate(-357.59168,-198.48757)">
    <g
       transform="matrix(0.26458333,0,0,0.26458333,288.81757,128.09)"
       id="g1804">
      <g
         transform="matrix(0.26458333,0,0,0.26458333,254.95949,197.88643)"
         id="use1802">
        <path
           style="fill:#648c44;stroke:none"
           inkscape:connector-curvature="0"
           d="m 18.8,509.8 48,4.1 20.35,1.7 66.3,5.65 -18.05,-55.8 -106.75,-5.75 -9.85,50.1 m 89.15,-129.4 -65.75,10.35 -9.45,47.85 11.9,-0.65 69.55,-4.1 10.8,-0.65 -17.05,-52.8 m -59.25,-22.95 9.5,0.65 34.65,2.5 8.9,0.6 L 68.2,257.7 Z"
           id="path108" />
        <path
           style="fill:#9c7b53;stroke:none"
           inkscape:connector-curvature="0"
           d="m 64.9,523.55 -18.2,27.3 h 62.5 L 87.15,515.6 Z"
           id="path110" />
        <path
           style="fill:#876844;stroke:none"
           inkscape:connector-curvature="0"
           d="m 66.8,513.9 -1.9,9.65 22.25,-7.95 z"
           id="path112" />
        <path
           style="fill:#ddeaee;stroke:none"
           inkscape:connector-curvature="0"
           d="m 135.4,465.45 -7.45,-23 -97.6,8.65 -1.7,8.6 106.75,5.75 m -89.3,-94.65 -3.9,19.95 65.75,-10.35 -2.6,-8 z"
           id="path114" />
        <path
           style="fill:#597b3e;stroke:none"
           inkscape:connector-curvature="0"
           d="m 127.95,442.45 -13.75,-8.6 -69.55,4.1 -14.3,13.15 97.6,-8.65 M 58.2,358.1 l -12.1,12.7 59.25,1.6 -12.5,-11.8 z"
           id="path116" />
      </g>
    </g>
  </g>
</svg>
