<?xml version="1.0" encoding="UTF-8" standalone="no"?>
<!-- Created with Inkscape (http://www.inkscape.org/) -->

<svg
   xmlns:dc="http://purl.org/dc/elements/1.1/"
   xmlns:cc="http://creativecommons.org/ns#"
   xmlns:rdf="http://www.w3.org/1999/02/22-rdf-syntax-ns#"
   xmlns:svg="http://www.w3.org/2000/svg"
   xmlns="http://www.w3.org/2000/svg"
   xmlns:sodipodi="http://sodipodi.sourceforge.net/DTD/sodipodi-0.dtd"
   xmlns:inkscape="http://www.inkscape.org/namespaces/inkscape"
   width="4.550282mm"
   height="15.824481mm"
   viewBox="0 0 4.5502821 15.824481"
   version="1.1"
   id="svg4971"
   inkscape:version="0.92.4 (unknown)"
   sodipodi:docname="drawing17.svg">
  <defs
     id="defs4965" />
  <sodipodi:namedview
     id="base"
     pagecolor="#ffffff"
     bordercolor="#666666"
     borderopacity="1.0"
     inkscape:pageopacity="0.0"
     inkscape:pageshadow="2"
     inkscape:zoom="1.4"
     inkscape:cx="-19.784776"
     inkscape:cy="110.08095"
     inkscape:document-units="mm"
     inkscape:current-layer="layer1"
     showgrid="false"
     inkscape:window-width="927"
     inkscape:window-height="1025"
     inkscape:window-x="67"
     inkscape:window-y="27"
     inkscape:window-maximized="0" />
  <metadata
     id="metadata4968">
    <rdf:RDF>
      <cc:Work
         rdf:about="">
        <dc:format>image/svg+xml</dc:format>
        <dc:type
           rdf:resource="http://purl.org/dc/dcmitype/StillImage" />
        <dc:title></dc:title>
      </cc:Work>
    </rdf:RDF>
  </metadata>
  <g
     inkscape:label="Layer 1"
     inkscape:groupmode="layer"
     id="layer1"
     transform="translate(-119.95633,-160.85444)">
    <g
       transform="matrix(0.26458333,0,0,0.26458333,33.330554,159.56391)"
       id="g2016">
      <g
         transform="matrix(0.26458333,0,0,0.26458333,119.01867,151.43029)"
         id="use2014">
        <path
           style="fill:#d0c4aa;stroke:none"
           inkscape:connector-curvature="0"
           d="m 852.6,-327.85 -8,-36 -46.5,-1 -5.5,37 z"
           id="path6226" />
        <path
           style="fill:#6d5238;stroke:none"
           inkscape:connector-curvature="0"
           d="m 843.3,-495.5 -24.2,-58.4 -23,57.05 q 23.6,-8.2 47.2,1.35 z"
           id="path6228" />
        <path
           style="fill:#c4b592;stroke:none"
           inkscape:connector-curvature="0"
           d="m 787.6,-493.35 10.5,18.5 v 110 l 46.5,1 v -110.5 l 7.5,-17 q -4.4,-2.4 -8.8,-4.15 -23.6,-9.55 -47.2,-1.35 -3.3,1.15 -6.65,2.65 -0.9,0.4 -1.85,0.85 m 33.75,15 q 3.2,0 5.45,2.25 2.3,2.3 2.3,5.5 v 14.75 h -15.5 v -14.75 q 0,-3.2 2.25,-5.5 2.3,-2.25 5.5,-2.25 z"
           id="path6230" />
        <path
           style="fill:#aa9d7e;stroke:none"
           inkscape:connector-curvature="0"
           d="m 826.8,-476.1 q -2.25,-2.25 -5.45,-2.25 -3.2,0 -5.5,2.25 -2.25,2.3 -2.25,5.5 v 14.75 h 15.5 v -14.75 q 0,-3.2 -2.3,-5.5 z"
           id="path6232" />
      </g>
    </g>
  </g>
</svg>
