<?xml version="1.0" encoding="UTF-8" standalone="no"?>
<!-- Created with Inkscape (http://www.inkscape.org/) -->

<svg
   xmlns:dc="http://purl.org/dc/elements/1.1/"
   xmlns:cc="http://creativecommons.org/ns#"
   xmlns:rdf="http://www.w3.org/1999/02/22-rdf-syntax-ns#"
   xmlns:svg="http://www.w3.org/2000/svg"
   xmlns="http://www.w3.org/2000/svg"
   xmlns:sodipodi="http://sodipodi.sourceforge.net/DTD/sodipodi-0.dtd"
   xmlns:inkscape="http://www.inkscape.org/namespaces/inkscape"
   width="70.000839mm"
   height="8.8772745mm"
   viewBox="0 0 70.000839 8.8772745"
   version="1.1"
   id="svg4971"
   inkscape:version="0.92.4 (unknown)"
   sodipodi:docname="drawing2.svg">
  <defs
     id="defs4965" />
  <sodipodi:namedview
     id="base"
     pagecolor="#ffffff"
     bordercolor="#666666"
     borderopacity="1.0"
     inkscape:pageopacity="0.0"
     inkscape:pageshadow="2"
     inkscape:zoom="2.8"
     inkscape:cx="135.61861"
     inkscape:cy="-52.238487"
     inkscape:document-units="mm"
     inkscape:current-layer="layer1"
     showgrid="false"
     inkscape:window-width="1853"
     inkscape:window-height="1025"
     inkscape:window-x="67"
     inkscape:window-y="27"
     inkscape:window-maximized="1" />
  <metadata
     id="metadata4968">
    <rdf:RDF>
      <cc:Work
         rdf:about="">
        <dc:format>image/svg+xml</dc:format>
        <dc:type
           rdf:resource="http://purl.org/dc/dcmitype/StillImage" />
        <dc:title />
      </cc:Work>
    </rdf:RDF>
  </metadata>
  <g
     inkscape:label="Layer 1"
     inkscape:groupmode="layer"
     id="layer1"
     transform="translate(-63.235769,-123.13096)">
    <g
       transform="matrix(0.26458333,0,0,0.26458333,-78.067535,88.429968)"
       id="g2084">
      <g
         transform="matrix(0.26458333,0,0,0.26458333,57.981724,124.73994)"
         id="use2082">
        <path
           style="fill:#d5edf7;stroke:none"
           inkscape:connector-curvature="0"
           d="m 2799.3,151.05 v -110 q -34.05,12.1 -66.95,27.15 -57.55,26.35 -117.7,4.15 Q 2558.9,51.7 2501.95,34.65 2443.5,17.2 2383.55,29 q -59.85,11.85 -114.4,37.75 -55.15,26.05 -116.7,26.5 -61.5,0.5 -119,-20.4 -55.75,-20.4 -113.75,-34.05 -60.55,-14.15 -120.35,2.25 v 110 z"
           id="path5485" />
      </g>
    </g>
    <path
       style="opacity:1;fill:#00ff00;fill-opacity:1;stroke:none;stroke-width:0.02294713;stroke-miterlimit:4;stroke-dasharray:none;stroke-opacity:1"
       d="M 0.11860547,18.994587 V 4.413068 L 1.9936055,3.9711359 C 9.4799158,2.2066327 17.745903,1.7291672 24.748953,2.6567262 32.186524,3.641838 43.524316,6.6104423 55.65432,10.748761 c 16.970021,5.789558 22.412028,6.968957 33.941425,7.355828 13.407405,0.449889 22.320945,-1.391396 36.056535,-7.448255 10.5335,-4.6448645 21.33287,-8.0470739 31.07347,-9.78931182 5.45639,-0.97594944 16.15432,-0.90979539 21.68074,0.13406982 5.99719,1.1327866 16.28903,4.3471235 36.71212,11.465886 6.88603,2.400229 10.64453,3.030807 16.60714,2.786249 5.44067,-0.22315 8.55901,-0.950161 14.27044,-3.327019 6.72537,-2.7988142 16.76126,-6.8403067 17.60456,-7.0894253 l 0.80357,-0.2373829 V 19.087752 33.576105 H 132.26146 0.11860547 Z"
       id="path815"
       inkscape:connector-curvature="0"
       transform="matrix(0.26458333,0,0,0.26458333,63.235769,123.13096)" />
  </g>
</svg>
