<?xml version="1.0" encoding="UTF-8" standalone="no"?>
<!-- Created with Inkscape (http://www.inkscape.org/) -->

<svg
   xmlns:dc="http://purl.org/dc/elements/1.1/"
   xmlns:cc="http://creativecommons.org/ns#"
   xmlns:rdf="http://www.w3.org/1999/02/22-rdf-syntax-ns#"
   xmlns:svg="http://www.w3.org/2000/svg"
   xmlns="http://www.w3.org/2000/svg"
   xmlns:sodipodi="http://sodipodi.sourceforge.net/DTD/sodipodi-0.dtd"
   xmlns:inkscape="http://www.inkscape.org/namespaces/inkscape"
   width="70.000839mm"
   height="14.333388mm"
   viewBox="0 0 70.000839 14.333388"
   version="1.1"
   id="svg4971"
   inkscape:version="0.92.4 (unknown)"
   sodipodi:docname="drawing4.svg">
  <defs
     id="defs4965" />
  <sodipodi:namedview
     id="base"
     pagecolor="#ffffff"
     bordercolor="#666666"
     borderopacity="1.0"
     inkscape:pageopacity="0.0"
     inkscape:pageshadow="2"
     inkscape:zoom="1.4"
     inkscape:cx="-71.558666"
     inkscape:cy="176.86814"
     inkscape:document-units="mm"
     inkscape:current-layer="layer1"
     showgrid="false"
     inkscape:window-width="927"
     inkscape:window-height="1025"
     inkscape:window-x="67"
     inkscape:window-y="27"
     inkscape:window-maximized="0" />
  <metadata
     id="metadata4968">
    <rdf:RDF>
      <cc:Work
         rdf:about="">
        <dc:format>image/svg+xml</dc:format>
        <dc:type
           rdf:resource="http://purl.org/dc/dcmitype/StillImage" />
        <dc:title></dc:title>
      </cc:Work>
    </rdf:RDF>
  </metadata>
  <g
     inkscape:label="Layer 1"
     inkscape:groupmode="layer"
     id="layer1"
     transform="translate(-133.65484,-180.0163)">
    <g
       transform="matrix(0.26458333,0,0,0.26458333,-24.330055,99.619717)"
       id="g2064">
      <g
         transform="matrix(0.26458333,0,0,0.26458333,121.03026,174.16235)"
         id="use2062">
        <path
           style="fill:#e6f4fa;stroke:none"
           inkscape:connector-curvature="0"
           d="m 2799.3,536.65 q -21.4,0.5 -36.7,14.9 -4.45,-0.8 -9.25,-0.8 -14.95,0 -26.5,7.75 -0.8,-0.8 -1.6,-1.55 -15.75,-15.3 -38.1,-15.3 -22.4,0 -38.25,15.3 -7.7,7.55 -11.6,16.65 -9.7,-4.8 -21.5,-4.8 -19.75,0 -33.7,13.55 -0.6,0.55 -1.05,1.05 -4.9,-0.95 -10.25,-0.95 -14.65,0 -26.1,7.45 -2.45,-4.9 -6.5,-9.05 3.25,-8 3.25,-17.3 0,-15.2 -8.85,-26.9 -2.3,-2.95 -5.1,-5.7 -13.85,-13.5 -33.65,-13.5 -19.75,0 -33.75,13.5 -2.4,2.35 -4.35,4.85 -7.85,-2.35 -16.7,-2.35 -10.25,0 -19.2,3.2 -10.45,3.8 -19,12.1 -15.25,14.7 -15.7,35.45 -11.35,3.1 -20.3,11.8 -1.45,1.35 -2.65,2.75 -2.05,-10.85 -10.6,-19.1 -11.15,-10.85 -27.05,-10.85 -15.9,0 -27.15,10.85 -4.9,4.75 -7.65,10.4 -2.75,-4.05 -6.55,-7.7 -13.85,-13.55 -33.65,-13.55 -19.8,0 -33.75,13.55 -1.85,1.8 -3.5,3.75 -3.4,-0.45 -6.9,-0.45 -19.8,0 -33.75,13.5 -2.1,2 -3.8,4.15 -3.45,-5.4 -8.4,-10.15 -11,-10.7 -25.25,-13.95 -0.85,-17.55 -13.95,-30.15 -9.8,-9.55 -22.55,-12.4 -5.35,-1.15 -11.1,-1.15 -5.4,0 -10.3,1 -2.4,-9.8 -10.25,-17.4 -11.15,-10.85 -27.05,-10.85 -8.4,0 -15.45,3.05 -2.75,-4 -6.45,-7.6 -13.85,-13.5 -33.65,-13.5 -19.75,0 -33.75,13.5 -13.9,13.5 -13.9,32.6 0,0.2 0,0.35 0.05,4.7 0.95,9.1 -13.8,1.05 -23.8,10.7 -1.8,1.75 -3.3,3.7 -0.5,-0.5 -0.95,-0.95 -13.9,-13.55 -33.7,-13.55 -19.75,0 -33.7,13.55 -1.1,1.05 -2.05,2.1 -3.2,-0.35 -6.6,-0.35 -3.3,0 -6.45,0.35 -2.7,-8.3 -9.55,-14.95 -7.5,-7.3 -17.2,-9.7 -0.05,0 -0.1,0 v 158.3 h 999.95 z"
           id="path5571" />
      </g>
    </g>
  </g>
</svg>
