<?xml version="1.0" encoding="UTF-8" standalone="no"?>
<!-- Created with Inkscape (http://www.inkscape.org/) -->

<svg
   xmlns:dc="http://purl.org/dc/elements/1.1/"
   xmlns:cc="http://creativecommons.org/ns#"
   xmlns:rdf="http://www.w3.org/1999/02/22-rdf-syntax-ns#"
   xmlns:svg="http://www.w3.org/2000/svg"
   xmlns="http://www.w3.org/2000/svg"
   xmlns:sodipodi="http://sodipodi.sourceforge.net/DTD/sodipodi-0.dtd"
   xmlns:inkscape="http://www.inkscape.org/namespaces/inkscape"
   width="8.9325533mm"
   height="16.076496mm"
   viewBox="0 0 8.9325533 16.076496"
   version="1.1"
   id="svg8"
   inkscape:version="0.92.4 (unknown)"
   sodipodi:docname="drawing38.svg">
  <defs
     id="defs2" />
  <sodipodi:namedview
     id="base"
     pagecolor="#ffffff"
     bordercolor="#666666"
     borderopacity="1.0"
     inkscape:pageopacity="0.0"
     inkscape:pageshadow="2"
     inkscape:zoom="0.98994949"
     inkscape:cx="-204.10596"
     inkscape:cy="275.07463"
     inkscape:document-units="mm"
     inkscape:current-layer="layer1"
     showgrid="false"
     inkscape:window-width="927"
     inkscape:window-height="1025"
     inkscape:window-x="67"
     inkscape:window-y="27"
     inkscape:window-maximized="0" />
  <metadata
     id="metadata5">
    <rdf:RDF>
      <cc:Work
         rdf:about="">
        <dc:format>image/svg+xml</dc:format>
        <dc:type
           rdf:resource="http://purl.org/dc/dcmitype/StillImage" />
        <dc:title></dc:title>
      </cc:Work>
    </rdf:RDF>
  </metadata>
  <g
     inkscape:label="Layer 1"
     inkscape:groupmode="layer"
     id="layer1"
     transform="translate(-335.95651,-269.45219)">
    <g
       transform="matrix(0.26458333,0,0,0.26458333,218.22597,163.91974)"
       id="g1860">
      <g
         transform="matrix(0.26458333,0,0,0.26458333,346.30272,235.21803)"
         id="use1858">
        <path
           style="fill:#9c7b53;stroke:none"
           inkscape:connector-curvature="0"
           d="m 451.15,827.35 q -0.45,0.05 -0.95,0.1 -6.55,1.05 -13.5,1.05 -7.15,0 -13.8,-1.05 -0.25,-0.05 -0.45,-0.1 -2.15,11.85 -5.75,20.8 h 40 q -3.4,-10.25 -5.55,-20.8 z"
           id="path428" />
        <path
           style="fill:#876844;stroke:none"
           inkscape:connector-curvature="0"
           d="m 449.65,818.7 q -1.05,0.2 -2.15,0.35 -5.2,0.85 -10.8,0.85 -5.7,0 -11.1,-0.85 -0.9,-0.2 -1.85,-0.35 -0.55,4.5 -1.3,8.65 0.2,0.05 0.45,0.1 6.65,1.05 13.8,1.05 6.95,0 13.5,-1.05 0.5,-0.05 0.95,-0.1 -0.85,-4.35 -1.5,-8.65 z"
           id="path430" />
        <path
           style="fill:#597b3e;stroke:none"
           inkscape:connector-curvature="0"
           d="m 391.55,775.65 q -6.2,-6.2 -10.3,-13.2 -6.15,-10.55 -7.75,-22.95 -0.5,6.85 -0.55,14.05 -0.05,1.25 -0.05,2.55 0,1.8 0.1,3.55 0.75,15.6 8.25,28.3 0.4,0.75 0.9,1.5 h 10.45 l -2,10.75 q 0.45,0.5 0.95,1 13.95,13.95 32.2,17.5 0.95,0.15 1.85,0.35 5.4,0.85 11.1,0.85 5.6,0 10.8,-0.85 1.1,-0.15 2.15,-0.35 10.6,-2.1 19.75,-7.7 v -8.55 l 8.1,2.75 q 2.2,-1.9 4.3,-4 17.4,-17.45 18.65,-41.55 0.05,-1.75 0.05,-3.55 0,-1.3 -0.05,-2.55 -0.1,-7.2 -0.5,-14.05 -2.65,20.7 -18.15,36.15 -14.6,14.65 -34,17.85 -0.2,0 -0.25,0.05 h -0.05 q -5.2,0.8 -10.8,0.8 -5.7,0 -11.1,-0.85 -0.15,-0.05 -0.25,-0.05 -19.25,-3.25 -33.8,-17.8 z"
           id="path432" />
        <path
           style="fill:#648c44;stroke:none"
           inkscape:connector-curvature="0"
           d="m 458.5,638.75 2.05,-10.5 q -11.05,-9.75 -23.85,-9.75 -26.45,0 -45.15,41.2 -3.1,6.8 -5.65,14.1 l 5.05,6.5 -8.1,2.9 q -0.85,2.8 -1.6,5.65 -6.15,23.2 -7.75,50.65 1.6,12.4 7.75,22.95 4.1,7 10.3,13.2 14.55,14.55 33.8,17.8 0.1,0 0.25,0.05 5.4,0.85 11.1,0.85 5.6,0 10.8,-0.8 h 0.05 q 0.05,-0.05 0.25,-0.05 19.4,-3.2 34,-17.85 15.5,-15.45 18.15,-36.15 -1.4,-23.8 -6.25,-44.4 l -7.5,-1.35 4.9,-8.65 q -3.85,-13.4 -9.3,-25.4 -5.6,-12.3 -11.85,-20.95 z"
           id="path434" />
      </g>
    </g>
  </g>
</svg>
