<?xml version="1.0" encoding="UTF-8" standalone="no"?>
<!-- Created with Inkscape (http://www.inkscape.org/) -->

<svg
   xmlns:dc="http://purl.org/dc/elements/1.1/"
   xmlns:cc="http://creativecommons.org/ns#"
   xmlns:rdf="http://www.w3.org/1999/02/22-rdf-syntax-ns#"
   xmlns:svg="http://www.w3.org/2000/svg"
   xmlns="http://www.w3.org/2000/svg"
   xmlns:sodipodi="http://sodipodi.sourceforge.net/DTD/sodipodi-0.dtd"
   xmlns:inkscape="http://www.inkscape.org/namespaces/inkscape"
   width="9.9651175mm"
   height="21.333822mm"
   viewBox="0 0 9.9651175 21.333822"
   version="1.1"
   id="svg8"
   inkscape:version="0.92.4 (unknown)"
   sodipodi:docname="drawing42.svg">
  <defs
     id="defs2" />
  <sodipodi:namedview
     id="base"
     pagecolor="#ffffff"
     bordercolor="#666666"
     borderopacity="1.0"
     inkscape:pageopacity="0.0"
     inkscape:pageshadow="2"
     inkscape:zoom="0.98994949"
     inkscape:cx="-191.18837"
     inkscape:cy="276.22318"
     inkscape:document-units="mm"
     inkscape:current-layer="layer1"
     showgrid="false"
     inkscape:window-width="927"
     inkscape:window-height="1025"
     inkscape:window-x="67"
     inkscape:window-y="27"
     inkscape:window-maximized="0" />
  <metadata
     id="metadata5">
    <rdf:RDF>
      <cc:Work
         rdf:about="">
        <dc:format>image/svg+xml</dc:format>
        <dc:type
           rdf:resource="http://purl.org/dc/dcmitype/StillImage" />
        <dc:title></dc:title>
      </cc:Work>
    </rdf:RDF>
  </metadata>
  <g
     inkscape:label="Layer 1"
     inkscape:groupmode="layer"
     id="layer1"
     transform="translate(-332.53874,-264.49874)">
    <g
       transform="matrix(0.26458333,0,0,0.26458333,177.92064,169.96438)"
       id="g1872">
      <g
         transform="matrix(0.26458333,0,0,0.26458333,323.62328,263.63274)"
         id="use1870">
        <path
           style="fill:#9c7b53;stroke:none"
           inkscape:connector-curvature="0"
           d="m 1021.5,391.8 -1.85,3.2 31.95,21.05 -1.7,62.45 -13.9,-2.5 -10.05,-13.2 -5.7,1.85 -0.5,8.4 -32.55,-5.9 -1.65,6.1 63.85,23 -4.5,162.5 h 24.2 l -4,-145.75 32.5,-21.45 -1.85,-3.2 -30.9,15.45 -1.35,-48.95 64.4,-23.25 -1.65,-6.1 -32.55,5.9 -0.5,-8.4 -5.7,-1.85 -10.05,13.2 -14.45,2.6 -2.3,-82.95 h -7.4 l -1.45,52.95 z"
           id="path587" />
      </g>
    </g>
  </g>
</svg>
