<?xml version="1.0" encoding="UTF-8" standalone="no"?>
<!-- Created with Inkscape (http://www.inkscape.org/) -->

<svg
   xmlns:dc="http://purl.org/dc/elements/1.1/"
   xmlns:cc="http://creativecommons.org/ns#"
   xmlns:rdf="http://www.w3.org/1999/02/22-rdf-syntax-ns#"
   xmlns:svg="http://www.w3.org/2000/svg"
   xmlns="http://www.w3.org/2000/svg"
   xmlns:xlink="http://www.w3.org/1999/xlink"
   xmlns:sodipodi="http://sodipodi.sourceforge.net/DTD/sodipodi-0.dtd"
   xmlns:inkscape="http://www.inkscape.org/namespaces/inkscape"
   width="69.989105mm"
   height="8.874135mm"
   viewBox="0 0 69.989105 8.874135"
   version="1.1"
   id="svg8"
   inkscape:version="0.92.4 (unknown)"
   sodipodi:docname="drawing116.svg">
  <defs
     id="defs2">
    <linearGradient
       gradientTransform="matrix(0.26458333,0,0,0.26458333,7.952448,236.63923)"
       inkscape:collect="always"
       xlink:href="#linearGradient877"
       id="linearGradient879"
       x1="0.054187965"
       y1="16.88163"
       x2="264.5799"
       y2="16.88163"
       gradientUnits="userSpaceOnUse" />
    <linearGradient
       inkscape:collect="always"
       id="linearGradient877">
      <stop
         style="stop-color:#a69a92;stop-opacity:1"
         offset="0"
         id="stop873" />
      <stop
         style="stop-color:#dbceaf;stop-opacity:1"
         offset="1"
         id="stop875" />
    </linearGradient>
  </defs>
  <sodipodi:namedview
     id="base"
     pagecolor="#ffffff"
     bordercolor="#666666"
     borderopacity="1.0"
     inkscape:pageopacity="0.0"
     inkscape:pageshadow="2"
     inkscape:zoom="0.98994949"
     inkscape:cx="106.90885"
     inkscape:cy="26.159075"
     inkscape:document-units="mm"
     inkscape:current-layer="layer1"
     showgrid="false"
     inkscape:window-width="927"
     inkscape:window-height="1025"
     inkscape:window-x="67"
     inkscape:window-y="27"
     inkscape:window-maximized="0" />
  <metadata
     id="metadata5">
    <rdf:RDF>
      <cc:Work
         rdf:about="">
        <dc:format>image/svg+xml</dc:format>
        <dc:type
           rdf:resource="http://purl.org/dc/dcmitype/StillImage" />
        <dc:title></dc:title>
      </cc:Work>
    </rdf:RDF>
  </metadata>
  <g
     inkscape:label="Layer 1"
     inkscape:groupmode="layer"
     id="layer1"
     transform="translate(-7.966785,-236.66878)">
    <path
       style="fill:url(#linearGradient879);fill-opacity:1;stroke:#d7d7d7;stroke-width:0.01692005;stroke-miterlimit:4;stroke-dasharray:none;stroke-opacity:1"
       d="m 7.975245,241.67047 v -3.86395 l 0.684878,-0.14299 c 1.637255,-0.34183 1.95416,-0.37365 3.758478,-0.37742 1.876931,-0.004 2.281776,0.039 4.117719,0.43696 1.624059,0.35199 3.512509,0.90752 7.241236,2.13018 2.897049,0.94995 4.236879,1.27363 6.11379,1.47699 0.957021,0.10369 3.994085,0.10352 4.977894,-3e-4 1.849554,-0.19514 3.451955,-0.66582 6.305399,-1.85211 2.592941,-1.07799 3.951899,-1.56344 5.588095,-1.99621 3.97872,-1.05237 6.922445,-1.07054 10.435373,-0.0644 0.58147,0.16654 2.801149,0.88707 4.932625,1.60119 2.131475,0.71411 4.130984,1.3634 4.443357,1.44285 0.46247,0.11764 0.828532,0.15047 1.971111,0.17681 2.179828,0.0503 2.623844,-0.0561 5.901807,-1.4129 2.390764,-0.98961 3.337152,-1.34541 3.40315,-1.27942 0.02721,0.0272 0.06022,1.7458 0.07335,3.81909 l 0.02387,3.76962 H 42.961307 7.975245 Z"
       id="path823"
       inkscape:connector-curvature="0" />
  </g>
</svg>
