<?xml version="1.0" encoding="UTF-8" standalone="no"?>
<!-- Created with Inkscape (http://www.inkscape.org/) -->

<svg
   xmlns:dc="http://purl.org/dc/elements/1.1/"
   xmlns:cc="http://creativecommons.org/ns#"
   xmlns:rdf="http://www.w3.org/1999/02/22-rdf-syntax-ns#"
   xmlns:svg="http://www.w3.org/2000/svg"
   xmlns="http://www.w3.org/2000/svg"
   xmlns:sodipodi="http://sodipodi.sourceforge.net/DTD/sodipodi-0.dtd"
   xmlns:inkscape="http://www.inkscape.org/namespaces/inkscape"
   width="8.9360542mm"
   height="16.079996mm"
   viewBox="0 0 8.9360542 16.079996"
   version="1.1"
   id="svg8"
   inkscape:version="0.92.4 (unknown)"
   sodipodi:docname="drawing35.svg">
  <defs
     id="defs2" />
  <sodipodi:namedview
     id="base"
     pagecolor="#ffffff"
     bordercolor="#666666"
     borderopacity="1.0"
     inkscape:pageopacity="0.0"
     inkscape:pageshadow="2"
     inkscape:zoom="0.98994949"
     inkscape:cx="-272.93656"
     inkscape:cy="193.01042"
     inkscape:document-units="mm"
     inkscape:current-layer="layer1"
     showgrid="false"
     inkscape:window-width="927"
     inkscape:window-height="1025"
     inkscape:window-x="67"
     inkscape:window-y="27"
     inkscape:window-maximized="0" />
  <metadata
     id="metadata5">
    <rdf:RDF>
      <cc:Work
         rdf:about="">
        <dc:format>image/svg+xml</dc:format>
        <dc:type
           rdf:resource="http://purl.org/dc/dcmitype/StillImage" />
        <dc:title></dc:title>
      </cc:Work>
    </rdf:RDF>
  </metadata>
  <g
     inkscape:label="Layer 1"
     inkscape:groupmode="layer"
     id="layer1"
     transform="translate(-354.16795,-247.73588)">
    <g
       transform="matrix(0.26458333,0,0,0.26458333,226.20304,157.02538)"
       id="g1856">
      <g
         transform="matrix(0.26458333,0,0,0.26458333,345.00523,245.84658)"
         id="use1854">
        <path
           style="fill:#9c7b53;stroke:none"
           inkscape:connector-curvature="0"
           d="m 574,575.55 q -0.25,-0.05 -0.45,-0.1 -2.15,11.85 -5.7,20.85 h 39.95 q -3.4,-10.3 -5.5,-20.85 -0.5,0.05 -1,0.15 -6.5,1.05 -13.45,1.05 -7.15,0 -13.85,-1.1 z"
           id="path309" />
        <path
           style="fill:#876844;stroke:none"
           inkscape:connector-curvature="0"
           d="m 600.75,566.8 q -1.05,0.2 -2.15,0.4 -5.2,0.85 -10.75,0.85 -5.75,0 -11.1,-0.9 -0.9,-0.15 -1.85,-0.35 -0.6,4.5 -1.35,8.65 0.2,0.05 0.45,0.1 6.7,1.1 13.85,1.1 6.95,0 13.45,-1.05 0.5,-0.1 1,-0.15 -0.85,-4.3 -1.55,-8.65 z"
           id="path311" />
        <path
           style="fill:#648c44;stroke:none"
           inkscape:connector-curvature="0"
           d="m 532.4,458.8 q -4.45,16.7 -6.55,35.6 2.1,8.55 6.55,16.15 4.1,7 10.3,13.25 14.55,14.5 33.75,17.8 0.15,0 0.25,0 h 0.05 q 5.35,0.85 11.1,0.85 5.55,0 10.75,-0.8 h 0.05 q 0.1,-0.05 0.25,-0.05 19.4,-3.15 34,-17.8 12.9,-12.85 16.95,-29.35 -4.1,-36.45 -16.95,-64.8 -18.65,-41.2 -45.05,-41.2 -26.45,0 -45.15,41.2 -6.2,13.65 -10.3,29.15 z"
           id="path313" />
        <path
           style="fill:#ddeaee;stroke:none"
           inkscape:connector-curvature="0"
           d="m 649.85,494.45 q 0.8,-3.35 1.25,-6.85 -2.75,-45.75 -18.2,-79.75 -18.65,-41.25 -45.05,-41.25 -26.45,0 -45.15,41.25 -6.2,13.6 -10.3,29.1 -6.2,23.25 -7.8,50.65 0.45,3.5 1.25,6.8 2.1,-18.9 6.55,-35.6 4.1,-15.5 10.3,-29.15 18.7,-41.2 45.15,-41.2 26.4,0 45.05,41.2 12.85,28.35 16.95,64.8 z"
           id="path315" />
        <path
           style="fill:#597b3e;stroke:none"
           inkscape:connector-curvature="0"
           d="m 651.1,487.6 q -0.45,3.5 -1.25,6.85 -4.05,16.5 -16.95,29.35 -14.6,14.65 -34,17.8 -0.15,0 -0.25,0.05 h -0.05 q -5.2,0.8 -10.75,0.8 -5.75,0 -11.1,-0.85 h -0.05 q -0.1,0 -0.25,0 -19.2,-3.3 -33.75,-17.8 -6.2,-6.25 -10.3,-13.25 -4.45,-7.6 -6.55,-16.15 -0.8,-3.3 -1.25,-6.8 -0.45,6.9 -0.55,14.05 -0.05,1.25 -0.05,2.55 0,1.8 0.1,3.6 0.75,15.55 8.3,28.3 4.1,7.05 10.3,13.2 13.95,13.95 32.2,17.5 0.95,0.2 1.85,0.35 5.35,0.9 11.1,0.9 5.55,0 10.75,-0.85 1.1,-0.2 2.15,-0.4 18.25,-3.55 32.15,-17.5 17.45,-17.4 18.65,-41.5 0.1,-1.8 0.1,-3.6 0,-1.3 -0.05,-2.55 -0.1,-7.15 -0.5,-14.05 z"
           id="path317" />
      </g>
    </g>
  </g>
</svg>
