<?xml version="1.0" encoding="UTF-8" standalone="no"?>
<!-- Created with Inkscape (http://www.inkscape.org/) -->

<svg
   xmlns:dc="http://purl.org/dc/elements/1.1/"
   xmlns:cc="http://creativecommons.org/ns#"
   xmlns:rdf="http://www.w3.org/1999/02/22-rdf-syntax-ns#"
   xmlns:svg="http://www.w3.org/2000/svg"
   xmlns="http://www.w3.org/2000/svg"
   xmlns:sodipodi="http://sodipodi.sourceforge.net/DTD/sodipodi-0.dtd"
   xmlns:inkscape="http://www.inkscape.org/namespaces/inkscape"
   width="20.609278mm"
   height="9.6430979mm"
   viewBox="0 0 20.609277 9.6430978"
   version="1.1"
   id="svg4971"
   inkscape:version="0.92.4 (unknown)"
   sodipodi:docname="drawing10.svg">
  <defs
     id="defs4965" />
  <sodipodi:namedview
     id="base"
     pagecolor="#ffffff"
     bordercolor="#666666"
     borderopacity="1.0"
     inkscape:pageopacity="0.0"
     inkscape:pageshadow="2"
     inkscape:zoom="1.4"
     inkscape:cx="-65.528627"
     inkscape:cy="-28.966068"
     inkscape:document-units="mm"
     inkscape:current-layer="layer1"
     showgrid="false"
     inkscape:window-width="927"
     inkscape:window-height="1025"
     inkscape:window-x="67"
     inkscape:window-y="27"
     inkscape:window-maximized="0" />
  <metadata
     id="metadata4968">
    <rdf:RDF>
      <cc:Work
         rdf:about="">
        <dc:format>image/svg+xml</dc:format>
        <dc:type
           rdf:resource="http://purl.org/dc/dcmitype/StillImage" />
        <dc:title></dc:title>
      </cc:Work>
    </rdf:RDF>
  </metadata>
  <g
     inkscape:label="Layer 1"
     inkscape:groupmode="layer"
     id="layer1"
     transform="translate(-132.05939,-130.2463)">
    <g
       transform="matrix(0.26458333,0,0,0.26458333,-84.506846,125.00234)"
       id="g2124">
      <g
         transform="matrix(0.26458333,0,0,0.26458333,100.59766,143.00968)"
         id="use2122">
        <path
           style="fill:#d5edf7;stroke:none"
           inkscape:connector-curvature="0"
           d="m 2995.8,-453.3 q -10.4,0.7 -20.45,0.8 l -3.55,20.05 q -4.5,-0.05 -8.9,-0.15 l -4.05,-20.1 q -9.25,-0.4 -18.15,-1.25 l -6.95,19.2 q -3.9,-0.5 -7.7,-1.05 l -1.05,-20.15 q -10.15,-1.65 -19.8,-3.95 l -10,17.7 q -2.45,-0.5 -4.9,-0.9 l -1.9,-20.35 q -10.85,-1.75 -21.5,-2.15 l -4.45,19.9 q -3.95,-0.05 -7.85,0.1 l -7.8,-19.5 q -8.3,0.7 -16.5,2.35 l -1.7,20.35 q -3.6,0.75 -7.2,1.65 l -8.85,-17.45 q -0.5,0.15 -1,0.3 -7.65,2.45 -15,4.1 l -2.55,20.55 q -4.45,0.9 -8.8,1.5 l -7.35,-19.2 q -9.65,0.75 -18.7,-0.1 l -3.7,19.6 q -4.75,-0.65 -9.35,-1.75 l -5.3,-21.4 q -10.4,-3.15 -19.9,-8.7 v 109.95 l -7.5,25.5 h 294.4 l -12,-22.5 z"
           id="path5837" />
      </g>
    </g>
  </g>
</svg>
