<?xml version="1.0" encoding="UTF-8" standalone="no"?>
<!-- Created with Inkscape (http://www.inkscape.org/) -->

<svg
   xmlns:dc="http://purl.org/dc/elements/1.1/"
   xmlns:cc="http://creativecommons.org/ns#"
   xmlns:rdf="http://www.w3.org/1999/02/22-rdf-syntax-ns#"
   xmlns:svg="http://www.w3.org/2000/svg"
   xmlns="http://www.w3.org/2000/svg"
   xmlns:sodipodi="http://sodipodi.sourceforge.net/DTD/sodipodi-0.dtd"
   xmlns:inkscape="http://www.inkscape.org/namespaces/inkscape"
   width="70.000839mm"
   height="8.8772745mm"
   viewBox="0 0 70.000839 8.8772745"
   version="1.1"
   id="svg4971"
   inkscape:version="0.92.4 (unknown)"
   sodipodi:docname="drawing1.svg">
  <defs
     id="defs4965" />
  <sodipodi:namedview
     id="base"
     pagecolor="#ffffff"
     bordercolor="#666666"
     borderopacity="1.0"
     inkscape:pageopacity="0.0"
     inkscape:pageshadow="2"
     inkscape:zoom="5.6"
     inkscape:cx="112.33972"
     inkscape:cy="17.928459"
     inkscape:document-units="mm"
     inkscape:current-layer="layer1"
     showgrid="false"
     inkscape:window-width="1853"
     inkscape:window-height="1025"
     inkscape:window-x="67"
     inkscape:window-y="27"
     inkscape:window-maximized="1" />
  <metadata
     id="metadata4968">
    <rdf:RDF>
      <cc:Work
         rdf:about="">
        <dc:format>image/svg+xml</dc:format>
        <dc:type
           rdf:resource="http://purl.org/dc/dcmitype/StillImage" />
        <dc:title />
      </cc:Work>
    </rdf:RDF>
  </metadata>
  <g
     inkscape:label="Layer 1"
     inkscape:groupmode="layer"
     id="layer1"
     transform="translate(-57.981724,-124.73994)">
    <path
       style="fill:#dbceaf;fill-opacity:0;stroke:#d7d7d7;stroke-width:0.04589426;stroke-miterlimit:4;stroke-dasharray:none;stroke-opacity:1"
       d="M 0.04230321,18.759529 0.23566429,4.2952432 4.5213786,3.383096 C 7.34236,2.7826944 12.346865,2.5753489 19.164236,2.7764167 c 11.784613,0.3475688 16.85367,1.5006902 39.790601,9.0516613 16.145992,5.315354 24.28502,6.681345 36.63797,6.149032 11.127133,-0.47949 18.054053,-2.150088 29.860643,-7.201622 17.58322,-7.5231153 29.00794,-10.39238811 41.41947,-10.40234533 10.74756,-0.008622 15.69595,1.11016673 37.29132,8.43124133 l 18.21428,6.17485 7.85714,-0.0064 c 8.58945,-0.0069 8.98267,-0.114692 25.71429,-7.0466916 4.32143,-1.7903899 8.09821,-3.2594297 8.39286,-3.2645327 0.29464,-0.00509 0.53571,6.4193053 0.53571,14.2764473 V 33.223815 H 132.36373 -0.15105786 Z"
       id="path815"
       inkscape:connector-curvature="0"
       transform="matrix(0.26458333,0,0,0.26458333,57.981724,124.73994)" />
    <path
       style="fill:#dbceaf;fill-opacity:0;stroke:#d7d7d7;stroke-width:0.04589426;stroke-miterlimit:4;stroke-dasharray:none;stroke-opacity:1"
       d="M 0.04230321,18.775743 0.23566429,4.3276712 4.1642357,3.394743 C 6.8550786,2.7557413 11.46843,2.5593444 18.807093,2.7713757 c 9.421813,0.2722183 11.834429,0.6113265 20,2.8111241 5.107143,1.3758599 14.033682,4.120392 19.836754,6.0989602 15.818146,5.393228 20.225032,6.182313 34.091817,6.104388 14.173876,-0.07965 17.850696,-0.91207 34.372576,-7.781821 16.31344,-6.7830908 25.0081,-8.9698153 37.5194,-9.43620111 12.70107,-0.47346039 15.42055,0.0861218 39.5366,8.13538451 25.91212,8.6487416 28.15886,8.6763836 48.14512,0.5923364 6.32375,-2.5578313 11.7388,-4.6489281 12.03345,-4.6468816 0.29464,0.00205 0.53571,6.4322928 0.53571,14.2894348 V 33.223815 H 132.36373 -0.15105786 Z"
       id="path817"
       inkscape:connector-curvature="0"
       transform="matrix(0.26458333,0,0,0.26458333,57.981724,124.73994)" />
    <path
       style="fill:#dbceaf;fill-opacity:0;stroke:#d7d7d7;stroke-width:0.04589426;stroke-miterlimit:4;stroke-dasharray:none;stroke-opacity:1;opacity:0"
       d="M -0.12147857,18.695531 V 4.167247 L 4.7234673,3.2530713 C 7.8834136,2.6568322 13.038085,2.4568912 19.544896,2.678173 c 11.372663,0.3867582 18.636196,2.0313302 38.547911,8.727821 16.636064,5.594861 20.770143,6.357948 34.285714,6.32862 13.541169,-0.02939 19.942119,-1.412824 33.263099,-7.189174 17.3252,-7.5126941 28.14362,-10.14075647 41.83727,-10.16330954 11.21775,-0.0184753 14.88212,0.82318254 38.72788,8.89527924 23.45468,7.9397113 26.97616,7.9193443 46.61904,-0.2696257 5.74602,-2.3954689 10.80852,-4.3553979 11.25,-4.3553979 0.56733,0 0.80271,4.1890364 0.80271,14.2857139 v 14.285715 h -132.5 -132.49999857 z"
       id="path821"
       inkscape:connector-curvature="0"
       transform="matrix(0.26458333,0,0,0.26458333,57.981724,124.73994)" />
    <rect
       style="fill:#dbceaf;fill-opacity:0;stroke:#d7d7d7;stroke-width:0.017;stroke-miterlimit:4;stroke-dasharray:none;stroke-opacity:1"
       id="rect823"
       width="74.272324"
       height="24.946428"
       x="26.231724"
       y="49.895485" />
    <rect
       style="fill:#dbceaf;fill-opacity:0;stroke:#d7d7d7;stroke-width:0.017;stroke-miterlimit:4;stroke-dasharray:none;stroke-opacity:1"
       id="rect825"
       width="71.059525"
       height="17.953869"
       x="62.517437"
       y="65.203522" />
    <path
       style="opacity:0;fill:#dbceaf;fill-opacity:0;stroke:#d7d7d7;stroke-width:0.04589426;stroke-miterlimit:4;stroke-dasharray:none;stroke-opacity:1"
       d="M -0.12147857,18.695531 V 4.167247 L 4.7234673,3.2530713 C 7.8834136,2.6568322 13.038085,2.4568912 19.544896,2.678173 c 11.372663,0.3867582 18.636196,2.0313302 38.547911,8.727821 16.636064,5.594861 20.770143,6.357948 34.285714,6.32862 13.541169,-0.02939 19.942119,-1.412824 33.263099,-7.189174 17.3252,-7.5126941 28.14362,-10.14075647 41.83727,-10.16330954 11.21775,-0.0184753 14.88212,0.82318254 38.72788,8.89527924 23.45468,7.9397113 26.97616,7.9193443 46.61904,-0.2696257 5.74602,-2.3954689 10.80852,-4.3553979 11.25,-4.3553979 0.56733,0 0.80271,4.1890364 0.80271,14.2857139 v 14.285715 h -132.5 -132.49999857 z"
       id="path829"
       inkscape:connector-curvature="0"
       transform="matrix(0.26458333,0,0,0.26458333,57.981724,124.73994)" />
    <path
       style="opacity:0;fill:#dbceaf;fill-opacity:0;stroke:#d7d7d7;stroke-width:0.04589426;stroke-miterlimit:4;stroke-dasharray:none;stroke-opacity:1"
       d="M -0.12147857,18.695531 V 4.167247 L 4.7234673,3.2530713 C 7.8834136,2.6568322 13.038085,2.4568912 19.544896,2.678173 c 11.372663,0.3867582 18.636196,2.0313302 38.547911,8.727821 16.636064,5.594861 20.770143,6.357948 34.285714,6.32862 13.541169,-0.02939 19.942119,-1.412824 33.263099,-7.189174 17.3252,-7.5126941 28.14362,-10.14075647 41.83727,-10.16330954 11.21775,-0.0184753 14.88212,0.82318254 38.72788,8.89527924 23.45468,7.9397113 26.97616,7.9193443 46.61904,-0.2696257 5.74602,-2.3954689 10.80852,-4.3553979 11.25,-4.3553979 0.56733,0 0.80271,4.1890364 0.80271,14.2857139 v 14.285715 h -132.5 -132.49999857 z"
       id="path831"
       inkscape:connector-curvature="0"
       transform="matrix(0.26458333,0,0,0.26458333,57.981724,124.73994)" />
    <path
       style="opacity:0;fill:#dbceaf;fill-opacity:0;stroke:#d7d7d7;stroke-width:0.04589426;stroke-miterlimit:4;stroke-dasharray:none;stroke-opacity:1"
       d="M -0.12147857,18.695531 V 4.167247 L 4.7234673,3.2530713 C 7.8834136,2.6568322 13.038085,2.4568912 19.544896,2.678173 c 11.372663,0.3867582 18.636196,2.0313302 38.547911,8.727821 16.636064,5.594861 20.770143,6.357948 34.285714,6.32862 13.541169,-0.02939 19.942119,-1.412824 33.263099,-7.189174 17.3252,-7.5126941 28.14362,-10.14075647 41.83727,-10.16330954 11.21775,-0.0184753 14.88212,0.82318254 38.72788,8.89527924 23.45468,7.9397113 26.97616,7.9193443 46.61904,-0.2696257 5.74602,-2.3954689 10.80852,-4.3553979 11.25,-4.3553979 0.56733,0 0.80271,4.1890364 0.80271,14.2857139 v 14.285715 h -132.5 -132.49999857 z"
       id="path833"
       inkscape:connector-curvature="0"
       transform="matrix(0.26458333,0,0,0.26458333,57.981724,124.73994)" />
    <path
       style="opacity:0;fill:#dbceaf;fill-opacity:0;stroke:#d7d7d7;stroke-width:0.04589426;stroke-miterlimit:4;stroke-dasharray:none;stroke-opacity:1"
       d="M -0.12147857,18.695531 V 4.167247 L 4.7234673,3.2530713 C 7.8834136,2.6568322 13.038085,2.4568912 19.544896,2.678173 c 11.372663,0.3867582 18.636196,2.0313302 38.547911,8.727821 16.636064,5.594861 20.770143,6.357948 34.285714,6.32862 13.541169,-0.02939 19.942119,-1.412824 33.263099,-7.189174 17.3252,-7.5126941 28.14362,-10.14075647 41.83727,-10.16330954 11.21775,-0.0184753 14.88212,0.82318254 38.72788,8.89527924 23.45468,7.9397113 26.97616,7.9193443 46.61904,-0.2696257 5.74602,-2.3954689 10.80852,-4.3553979 11.25,-4.3553979 0.56733,0 0.80271,4.1890364 0.80271,14.2857139 v 14.285715 h -132.5 -132.49999857 z"
       id="path835"
       inkscape:connector-curvature="0"
       transform="matrix(0.26458333,0,0,0.26458333,57.981724,124.73994)" />
    <path
       style="opacity:0;fill:#dbceaf;fill-opacity:0;stroke:#d7d7d7;stroke-width:0.04589426;stroke-miterlimit:4;stroke-dasharray:none;stroke-opacity:1"
       d="M -0.12147857,18.695531 V 4.167247 L 4.7234673,3.2530713 C 7.8834136,2.6568322 13.038085,2.4568912 19.544896,2.678173 c 11.372663,0.3867582 18.636196,2.0313302 38.547911,8.727821 16.636064,5.594861 20.770143,6.357948 34.285714,6.32862 13.541169,-0.02939 19.942119,-1.412824 33.263099,-7.189174 17.3252,-7.5126941 28.14362,-10.14075647 41.83727,-10.16330954 11.21775,-0.0184753 14.88212,0.82318254 38.72788,8.89527924 23.45468,7.9397113 26.97616,7.9193443 46.61904,-0.2696257 5.74602,-2.3954689 10.80852,-4.3553979 11.25,-4.3553979 0.56733,0 0.80271,4.1890364 0.80271,14.2857139 v 14.285715 h -132.5 -132.49999857 z"
       id="path837"
       inkscape:connector-curvature="0"
       transform="matrix(0.26458333,0,0,0.26458333,57.981724,124.73994)" />
    <path
       style="opacity:0;fill:#dbceaf;fill-opacity:0;stroke:#d7d7d7;stroke-width:0.04589426;stroke-miterlimit:4;stroke-dasharray:none;stroke-opacity:1"
       d="M -0.12147857,18.695531 V 4.167247 L 4.7234673,3.2530713 C 7.8834136,2.6568322 13.038085,2.4568912 19.544896,2.678173 c 11.372663,0.3867582 18.636196,2.0313302 38.547911,8.727821 16.636064,5.594861 20.770143,6.357948 34.285714,6.32862 13.541169,-0.02939 19.942119,-1.412824 33.263099,-7.189174 17.3252,-7.5126941 28.14362,-10.14075647 41.83727,-10.16330954 11.21775,-0.0184753 14.88212,0.82318254 38.72788,8.89527924 23.45468,7.9397113 26.97616,7.9193443 46.61904,-0.2696257 5.74602,-2.3954689 10.80852,-4.3553979 11.25,-4.3553979 0.56733,0 0.80271,4.1890364 0.80271,14.2857139 v 14.285715 h -132.5 -132.49999857 z"
       id="path839"
       inkscape:connector-curvature="0"
       transform="matrix(0.26458333,0,0,0.26458333,57.981724,124.73994)" />
    <path
       style="opacity:0;fill:#dbceaf;fill-opacity:0;stroke:#d7d7d7;stroke-width:0.04589426;stroke-miterlimit:4;stroke-dasharray:none;stroke-opacity:1"
       d="M -0.12147857,18.695531 V 4.167247 L 4.7234673,3.2530713 C 7.8834136,2.6568322 13.038085,2.4568912 19.544896,2.678173 c 11.372663,0.3867582 18.636196,2.0313302 38.547911,8.727821 16.636064,5.594861 20.770143,6.357948 34.285714,6.32862 13.541169,-0.02939 19.942119,-1.412824 33.263099,-7.189174 17.3252,-7.5126941 28.14362,-10.14075647 41.83727,-10.16330954 11.21775,-0.0184753 14.88212,0.82318254 38.72788,8.89527924 23.45468,7.9397113 26.97616,7.9193443 46.61904,-0.2696257 5.74602,-2.3954689 10.80852,-4.3553979 11.25,-4.3553979 0.56733,0 0.80271,4.1890364 0.80271,14.2857139 v 14.285715 h -132.5 -132.49999857 z"
       id="path841"
       inkscape:connector-curvature="0"
       transform="matrix(0.26458333,0,0,0.26458333,57.981724,124.73994)" />
  </g>
</svg>
