<?xml version="1.0" encoding="UTF-8" standalone="no"?>
<!-- Created with Inkscape (http://www.inkscape.org/) -->

<svg
   xmlns:dc="http://purl.org/dc/elements/1.1/"
   xmlns:cc="http://creativecommons.org/ns#"
   xmlns:rdf="http://www.w3.org/1999/02/22-rdf-syntax-ns#"
   xmlns:svg="http://www.w3.org/2000/svg"
   xmlns="http://www.w3.org/2000/svg"
   xmlns:sodipodi="http://sodipodi.sourceforge.net/DTD/sodipodi-0.dtd"
   xmlns:inkscape="http://www.inkscape.org/namespaces/inkscape"
   width="68.856239mm"
   height="8.6738968mm"
   viewBox="0 0 68.856239 8.6738968"
   version="1.1"
   id="svg8"
   inkscape:version="0.92.4 (unknown)"
   sodipodi:docname="land.svg">
  <defs
     id="defs2" />
  <sodipodi:namedview
     id="base"
     pagecolor="#ffffff"
     bordercolor="#666666"
     borderopacity="1.0"
     inkscape:pageopacity="0.0"
     inkscape:pageshadow="2"
     inkscape:zoom="1.4"
     inkscape:cx="59.1645"
     inkscape:cy="-159.12106"
     inkscape:document-units="mm"
     inkscape:current-layer="layer1"
     showgrid="false"
     inkscape:window-width="1853"
     inkscape:window-height="1025"
     inkscape:window-x="67"
     inkscape:window-y="27"
     inkscape:window-maximized="1" />
  <metadata
     id="metadata5">
    <rdf:RDF>
      <cc:Work
         rdf:about="">
        <dc:format>image/svg+xml</dc:format>
        <dc:type
           rdf:resource="http://purl.org/dc/dcmitype/StillImage" />
        <dc:title></dc:title>
      </cc:Work>
    </rdf:RDF>
  </metadata>
  <g
     inkscape:label="Layer 1"
     inkscape:groupmode="layer"
     id="layer1"
     transform="translate(70.713836,-154.32351)">
    <path
       style="fill:none;fill-opacity:1;stroke:none;stroke-width:0.01328125;stroke-miterlimit:4;stroke-dasharray:none;stroke-opacity:1"
       d="m -42.636941,162.83617 -28.060304,-0.0532 v -3.79921 c 0,-4.48202 -0.377188,-4.04719 3.513998,-4.05104 3.000478,-0.003 4.571206,0.32517 10.308662,2.15356 4.87381,1.55316 6.053135,1.77076 9.596662,1.77076 3.56784,0 4.667771,-0.24266 9.30964,-2.05383 4.627502,-1.80556 6.563114,-2.29823 9.562592,-2.43394 3.313652,-0.14993 4.323736,0.0498 10.397725,2.05635 5.048436,1.66772 5.100569,1.67983 7.255383,1.68524 l 2.1704124,0.005 3.213182,-1.28328 c 1.76725,-0.7058 3.278785,-1.28327 3.35897,-1.28327 0.08018,0 0.145785,1.67431 0.145785,3.7207 v 3.7207 l -6.356201,-0.0509 c -3.4959114,-0.028 -18.9833394,-0.0748 -34.4165064,-0.10409 z"
       id="path1147"
       inkscape:connector-curvature="0" />
  </g>
</svg>
