<?xml version="1.0" encoding="UTF-8" standalone="no"?>
<!-- Created with Inkscape (http://www.inkscape.org/) -->

<svg
   xmlns:dc="http://purl.org/dc/elements/1.1/"
   xmlns:cc="http://creativecommons.org/ns#"
   xmlns:rdf="http://www.w3.org/1999/02/22-rdf-syntax-ns#"
   xmlns:svg="http://www.w3.org/2000/svg"
   xmlns="http://www.w3.org/2000/svg"
   xmlns:sodipodi="http://sodipodi.sourceforge.net/DTD/sodipodi-0.dtd"
   xmlns:inkscape="http://www.inkscape.org/namespaces/inkscape"
   width="110.38604mm"
   height="57.469376mm"
   viewBox="0 0 110.38604 57.469376"
   version="1.1"
   id="svg8"
   inkscape:version="0.92.4 (unknown)"
   sodipodi:docname="rect.svg">
  <defs
     id="defs2" />
  <sodipodi:namedview
     id="base"
     pagecolor="#ffffff"
     bordercolor="#666666"
     borderopacity="1.0"
     inkscape:pageopacity="0.0"
     inkscape:pageshadow="2"
     inkscape:zoom="0.35"
     inkscape:cx="-157.11072"
     inkscape:cy="102.88924"
     inkscape:document-units="mm"
     inkscape:current-layer="layer1"
     showgrid="false"
     inkscape:window-width="1853"
     inkscape:window-height="1025"
     inkscape:window-x="67"
     inkscape:window-y="27"
     inkscape:window-maximized="1" />
  <metadata
     id="metadata5">
    <rdf:RDF>
      <cc:Work
         rdf:about="">
        <dc:format>image/svg+xml</dc:format>
        <dc:type
           rdf:resource="http://purl.org/dc/dcmitype/StillImage" />
        <dc:title></dc:title>
      </cc:Work>
    </rdf:RDF>
  </metadata>
  <g
     inkscape:label="Layer 1"
     inkscape:groupmode="layer"
     id="layer1"
     transform="translate(-28.717689,-88.34864)">
    <path
       style="opacity:1;fill:#6ad96a;fill-opacity:0;stroke:none;stroke-width:0.06425197;stroke-miterlimit:4;stroke-dasharray:none;stroke-opacity:1"
       d="M 0.03125 0.03125 L 0.03125 217.17578 L 417.17578 217.17578 L 417.17578 0.03125 L 0.03125 0.03125 z "
       transform="matrix(0.26458333,0,0,0.26458333,28.717689,88.34864)"
       id="rect815" />
    <path
       style="opacity:1;fill:#000000;fill-opacity:0;stroke:none;stroke-width:0.18357705;stroke-miterlimit:4;stroke-dasharray:none;stroke-opacity:1"
       d="M 1.7464186,109.4607 V 2.3178462 H 208.88928 416.03213 V 109.4607 216.60356 H 208.88928 1.7464186 Z"
       id="path887"
       inkscape:connector-curvature="0"
       transform="matrix(0.26458333,0,0,0.26458333,28.717689,88.34864)" />
    <path
       style="opacity:1;fill:#000000;fill-opacity:0;stroke:none;stroke-width:0.18357705;stroke-miterlimit:4;stroke-dasharray:none;stroke-opacity:1"
       d="M 1.7464186,109.4607 V 2.3178462 H 208.88928 416.03213 V 109.4607 216.60356 H 208.88928 1.7464186 Z"
       id="path897"
       inkscape:connector-curvature="0"
       transform="matrix(0.26458333,0,0,0.26458333,28.717689,88.34864)" />
    <path
       style="opacity:1;fill:#000000;fill-opacity:0;stroke:none;stroke-width:0.18357705;stroke-miterlimit:4;stroke-dasharray:none;stroke-opacity:1"
       d="M 1.7464186,109.4607 V 2.3178462 H 208.88928 416.03213 V 109.4607 216.60356 H 208.88928 1.7464186 Z"
       id="path899"
       inkscape:connector-curvature="0"
       transform="matrix(0.26458333,0,0,0.26458333,28.717689,88.34864)" />
    <path
       style="opacity:1;fill:#000000;fill-opacity:0;stroke:#d7d7d7;stroke-width:0.18357705;stroke-miterlimit:4;stroke-dasharray:none;stroke-opacity:0"
       d="M 1.7464186,109.4607 V 2.3178462 H 208.88928 416.03213 V 109.4607 216.60356 H 208.88928 1.7464186 Z"
       id="path901"
       inkscape:connector-curvature="0"
       transform="matrix(0.26458333,0,0,0.26458333,28.717689,88.34864)" />
    <path
       style="opacity:1;fill:#000000;fill-opacity:0;stroke:#d7d7d7;stroke-width:0.18357705;stroke-miterlimit:4;stroke-dasharray:none;stroke-opacity:0"
       d="M 1.7464186,109.4607 V 2.3178462 H 208.88928 416.03213 V 109.4607 216.60356 H 208.88928 1.7464186 Z"
       id="path903"
       inkscape:connector-curvature="0"
       transform="matrix(0.26458333,0,0,0.26458333,28.717689,88.34864)" />
    <path
       style="opacity:1;fill:#000000;fill-opacity:0;stroke:#d7d7d7;stroke-width:0.18357705;stroke-miterlimit:4;stroke-dasharray:none;stroke-opacity:1"
       d="M 1.7464186,109.4607 V 2.3178462 H 208.88928 416.03213 V 109.4607 216.60356 H 208.88928 1.7464186 Z"
       id="path905"
       inkscape:connector-curvature="0"
       transform="matrix(0.26458333,0,0,0.26458333,28.717689,88.34864)" />
    <path
       style="opacity:1;fill:#000000;fill-opacity:0;stroke:#d7d7d7;stroke-width:0.18357705;stroke-miterlimit:4;stroke-dasharray:none;stroke-opacity:1"
       d="M 1.7464186,109.4607 V 2.3178462 H 208.88928 416.03213 V 109.4607 216.60356 H 208.88928 1.7464186 Z"
       id="path907"
       inkscape:connector-curvature="0"
       transform="matrix(0.26458333,0,0,0.26458333,28.717689,88.34864)" />
    <path
       style="opacity:1;fill:none;fill-opacity:0;stroke:none;stroke-width:0.18357705;stroke-miterlimit:4;stroke-dasharray:none;stroke-opacity:1"
       d="M 1.7464186,109.4607 V 2.3178462 H 208.88928 416.03213 V 109.4607 216.60356 H 208.88928 1.7464186 Z"
       id="path909"
       inkscape:connector-curvature="0"
       transform="matrix(0.26458333,0,0,0.26458333,28.717689,88.34864)" />
    <path
       style="opacity:1;fill:none;fill-opacity:0;stroke:none;stroke-width:0.18357705;stroke-miterlimit:4;stroke-dasharray:none;stroke-opacity:1"
       d="m 102.4607,217.31895 c 57.75,-0.43219 152.25,-0.43219 210,0 57.75,0.43218 10.5,0.78579 -105,0.78579 -115.499996,0 -162.749996,-0.35361 -105,-0.78579 z"
       id="path911"
       inkscape:connector-curvature="0"
       transform="matrix(0.26458333,0,0,0.26458333,28.717689,88.34864)" />
    <path
       style="opacity:1;fill:none;fill-opacity:0;stroke:none;stroke-width:0.18357705;stroke-miterlimit:4;stroke-dasharray:none;stroke-opacity:1"
       d="M 1.7464186,109.4607 V 2.3178462 H 208.88928 416.03213 V 109.4607 216.60356 H 208.88928 1.7464186 Z"
       id="path913"
       inkscape:connector-curvature="0"
       transform="matrix(0.26458333,0,0,0.26458333,28.717689,88.34864)" />
    <path
       style="opacity:0;fill:none;fill-opacity:0;stroke:none;stroke-width:0.18357705;stroke-miterlimit:4;stroke-dasharray:none;stroke-opacity:1"
       d="M 1.7464186,109.4607 V 2.3178462 H 208.88928 416.03213 V 109.4607 216.60356 H 208.88928 1.7464186 Z"
       id="path915"
       inkscape:connector-curvature="0"
       transform="matrix(0.26458333,0,0,0.26458333,28.717689,88.34864)" />
    <path
       style="opacity:0;fill:none;fill-opacity:0;stroke:none;stroke-width:0.18357705;stroke-miterlimit:4;stroke-dasharray:none;stroke-opacity:1"
       d="M 1.7464186,109.4607 V 2.3178462 H 208.88928 416.03213 V 109.4607 216.60356 H 208.88928 1.7464186 Z"
       id="path917"
       inkscape:connector-curvature="0"
       transform="matrix(0.26458333,0,0,0.26458333,28.717689,88.34864)" />
    <path
       style="opacity:0;fill:none;fill-opacity:0;stroke:none;stroke-width:0.18357705;stroke-miterlimit:4;stroke-dasharray:none;stroke-opacity:1"
       d="M 1.7464186,109.4607 V 2.3178462 H 208.88928 416.03213 V 109.4607 216.60356 H 208.88928 1.7464186 Z"
       id="path919"
       inkscape:connector-curvature="0"
       transform="matrix(0.26458333,0,0,0.26458333,28.717689,88.34864)" />
    <path
       style="opacity:0;fill:none;fill-opacity:0;stroke:none;stroke-width:0.18357705;stroke-miterlimit:4;stroke-dasharray:none;stroke-opacity:1"
       d="M 1.7464186,109.4607 V 2.3178462 H 208.88928 416.03213 V 109.4607 216.60356 H 208.88928 1.7464186 Z"
       id="path921"
       inkscape:connector-curvature="0"
       transform="matrix(0.26458333,0,0,0.26458333,28.717689,88.34864)" />
    <path
       style="opacity:0;fill:none;fill-opacity:0;stroke:none;stroke-width:0.18357705;stroke-miterlimit:4;stroke-dasharray:none;stroke-opacity:1"
       d="M 1.7464186,109.4607 V 2.3178462 H 208.88928 416.03213 V 109.4607 216.60356 H 208.88928 1.7464186 Z"
       id="path923"
       inkscape:connector-curvature="0"
       transform="matrix(0.26458333,0,0,0.26458333,28.717689,88.34864)" />
  </g>
</svg>
