<?xml version="1.0" encoding="UTF-8" standalone="no"?>
<!-- Created with Inkscape (http://www.inkscape.org/) -->

<svg
   xmlns:dc="http://purl.org/dc/elements/1.1/"
   xmlns:cc="http://creativecommons.org/ns#"
   xmlns:rdf="http://www.w3.org/1999/02/22-rdf-syntax-ns#"
   xmlns:svg="http://www.w3.org/2000/svg"
   xmlns="http://www.w3.org/2000/svg"
   xmlns:sodipodi="http://sodipodi.sourceforge.net/DTD/sodipodi-0.dtd"
   xmlns:inkscape="http://www.inkscape.org/namespaces/inkscape"
   width="3.2902038mm"
   height="7.3364549mm"
   viewBox="0 0 3.290204 7.3364541"
   version="1.1"
   id="svg8"
   inkscape:version="0.92.4 (unknown)"
   sodipodi:docname="drawing94.svg">
  <defs
     id="defs2" />
  <sodipodi:namedview
     id="base"
     pagecolor="#ffffff"
     bordercolor="#666666"
     borderopacity="1.0"
     inkscape:pageopacity="0.0"
     inkscape:pageshadow="2"
     inkscape:zoom="0.98994949"
     inkscape:cx="8.8777239"
     inkscape:cy="86.638199"
     inkscape:document-units="mm"
     inkscape:current-layer="layer1"
     showgrid="false"
     inkscape:window-width="927"
     inkscape:window-height="1025"
     inkscape:window-x="67"
     inkscape:window-y="27"
     inkscape:window-maximized="0" />
  <metadata
     id="metadata5">
    <rdf:RDF>
      <cc:Work
         rdf:about="">
        <dc:format>image/svg+xml</dc:format>
        <dc:type
           rdf:resource="http://purl.org/dc/dcmitype/StillImage" />
        <dc:title></dc:title>
      </cc:Work>
    </rdf:RDF>
  </metadata>
  <g
     inkscape:label="Layer 1"
     inkscape:groupmode="layer"
     id="layer1"
     transform="translate(-279.60462,-228.33505)">
    <g
       transform="matrix(0.26458333,0,0,0.26458333,170.1052,181.89777)"
       id="g1792">
      <g
         transform="matrix(0.26458333,0,0,0.26458333,315.19295,214.51058)"
         id="use1790">
        <path
           style="fill:#448c5e;stroke:none"
           inkscape:connector-curvature="0"
           d="m 377.35,-82.6 37.55,3.35 -7.75,-25.3 -24.85,2.7 -4.95,19.25 m 12.6,18.05 10.15,0.6 19.8,1.05 -3.25,-10.6 -42.8,4.4 -0.95,3.6 17.05,0.95 m 4.1,-82.85 -9,34.9 20.25,1.8 z"
           id="path2498" />
        <path
           style="fill:#3e7b54;stroke:none"
           inkscape:connector-curvature="0"
           d="m 377.35,-82.6 -3.5,13.5 42.8,-4.4 -1.75,-5.75 -37.55,-3.35 m 29.8,-21.95 -1.85,-6.15 -20.25,-1.8 -2.75,10.65 z"
           id="path2500" />
        <path
           style="fill:#795b48;stroke:none"
           inkscape:connector-curvature="0"
           d="m 400.6,-59.25 -11.3,0.8 -1.7,15.85 h 14.65 z"
           id="path2502" />
        <path
           style="fill:#6d503d;stroke:none"
           inkscape:connector-curvature="0"
           d="m 389.3,-58.45 11.3,-0.8 -0.5,-4.7 -10.15,-0.6 z"
           id="path2504" />
      </g>
    </g>
  </g>
</svg>
